<svg width="943" height="164" viewBox="0 0 943 164" fill="none" xmlns="http://www.w3.org/2000/svg">
<path d="M87.5 44.5C81.3984 44.5 76.5 49.4844 76.5 55.5C76.5 61.6016 81.3984 66.5 87.5 66.5C93.5156 66.5 98.5 61.6016 98.5 55.5859C98.5 49.4844 93.5156 44.5 87.5 44.5ZM87.5 63.75C82.9453 63.75 79.25 60.0547 79.25 55.5C79.25 51.0312 82.9453 47.25 87.5 47.25C91.9688 47.25 95.75 51.0312 95.75 55.5859C95.75 60.0547 91.9688 63.75 87.5 63.75ZM111.906 54.0391C107.266 43.4688 97.9844 36.25 87.5 36.25C76.9297 36.25 67.6484 43.4688 63.0078 54.0391C62.8359 54.4688 62.75 55.0703 62.75 55.5C62.75 55.9297 62.8359 56.6172 63.0078 57.0469C67.6484 67.6172 76.9297 74.75 87.5 74.75C97.9844 74.75 107.266 67.6172 111.906 57.0469C112.078 56.6172 112.25 55.9297 112.25 55.5C112.25 55.0703 112.078 54.4688 111.906 54.0391ZM109.414 55.9297C105.031 65.8125 96.6094 72 87.5 72C78.3047 72 69.8828 65.8984 65.5859 55.9297C65.5 55.8438 65.5 55.5859 65.4141 55.5859C65.4141 55.5 65.4141 55.2422 65.4141 55.1562C69.8828 45.1875 78.3047 39 87.5 39C96.6094 39 105.031 45.1875 109.414 55.1562C109.414 55.2422 109.414 55.5 109.414 55.5C109.414 55.5859 109.414 55.8438 109.414 55.9297Z" fill="#333333"/>
<path d="M256.914 33.5H223.914C220.82 33.5 218.414 35.9922 218.414 39V63.6641C218.414 66.6719 220.82 69.0781 223.914 69.0781H232.164V76.2109C232.164 77.0703 233.109 77.5 233.797 77.0703L244.539 68.9922H256.914C259.922 68.9922 262.414 66.5 262.414 63.5781V39C262.414 35.9922 260.008 33.5 256.914 33.5ZM259.75 63.75C259.75 65.2969 258.461 66.5 257 66.5H244.539C243.938 66.5 243.422 66.7578 242.906 67.1016L235 73.0312V67.875C235 67.1875 234.312 66.5 233.625 66.5H224C222.453 66.5 221.25 65.2969 221.25 63.75V39C221.25 37.5391 222.453 36.25 224 36.25H257C258.461 36.25 259.75 37.5391 259.75 39V63.75ZM246.344 45.875L238.18 54.0391L234.57 50.4297C234.055 49.9141 233.109 49.9141 232.594 50.4297C232.078 50.9453 232.078 51.8906 232.594 52.4062L237.234 56.9609C237.492 57.2188 237.836 57.3906 238.18 57.3906C238.523 57.3906 238.867 57.2188 239.125 56.9609L248.32 47.7656C248.836 47.25 248.836 46.3906 248.32 45.875C247.805 45.3594 246.859 45.3594 246.344 45.875Z" fill="#333333"/>
<path d="M375.969 69.25H372.531C368.922 69.25 366 72.3438 366 76.125C366 76.8984 366.602 77.5 367.375 77.5C368.062 77.5 368.75 76.8984 368.75 76.125C368.75 73.8906 370.383 72 372.531 72H375.969C378.031 72 379.75 73.8906 379.75 76.125C379.75 76.8984 380.352 77.5 381.125 77.5C381.812 77.5 382.5 76.8984 382.5 76.125C382.5 72.3438 379.492 69.25 375.969 69.25ZM414.469 69.25H411.031C407.422 69.25 404.5 72.3438 404.5 76.125C404.5 76.8984 405.102 77.5 405.875 77.5C406.562 77.5 407.25 76.8984 407.25 76.125C407.25 73.8906 408.883 72 411.031 72H414.469C416.531 72 418.25 73.8906 418.25 76.125C418.25 76.8984 418.852 77.5 419.625 77.5C420.312 77.5 421 76.8984 421 76.125C421 72.3438 417.992 69.25 414.469 69.25ZM395.219 69.25H391.781C388.172 69.25 385.25 72.3438 385.25 76.125C385.25 76.8984 385.852 77.5 386.625 77.5C387.312 77.5 388 76.8984 388 76.125C388 73.8906 389.633 72 391.781 72H395.219C397.281 72 399 73.8906 399 76.125C399 76.8984 399.602 77.5 400.375 77.5C401.062 77.5 401.75 76.8984 401.75 76.125C401.75 72.3438 398.742 69.25 395.219 69.25ZM388 61C388 64.0938 390.406 66.5 393.414 66.5C396.508 66.5 398.914 64.0938 398.914 61C398.914 57.9922 396.508 55.5 393.5 55.5C390.406 55.5 388 57.9922 388 61ZM396.25 61C396.25 62.5469 394.961 63.75 393.5 63.75C391.953 63.75 390.75 62.5469 390.75 61C390.75 59.5391 391.953 58.25 393.5 58.25C394.961 58.25 396.25 59.5391 396.25 61ZM412.75 55.5C409.656 55.5 407.25 57.9922 407.25 61C407.25 64.0938 409.656 66.5 412.75 66.5C415.758 66.5 418.164 64.0938 418.164 61C418.164 57.9922 415.758 55.5 412.75 55.5ZM412.75 63.75C411.203 63.75 410 62.5469 410 61C410 59.5391 411.203 58.25 412.75 58.25C414.211 58.25 415.5 59.5391 415.5 61C415.5 62.5469 414.211 63.75 412.75 63.75ZM374.25 66.5C377.258 66.5 379.664 64.0078 379.664 61C379.664 57.9062 377.258 55.5 374.25 55.5C371.156 55.5 368.75 57.9922 368.75 61C368.75 64.0938 371.156 66.5 374.25 66.5ZM374.25 58.25C375.711 58.25 377 59.5391 377 61C377 62.5469 375.711 63.75 374.25 63.75C372.703 63.75 371.5 62.5469 371.5 61C371.5 59.5391 372.703 58.25 374.25 58.25ZM370.125 54.125C370.812 54.125 371.5 53.5234 371.5 52.75V37.625C371.5 36.9375 372.102 36.25 372.875 36.25H414.125C414.812 36.25 415.5 36.9375 415.5 37.625V52.75C415.5 53.5234 416.102 54.125 416.875 54.125C417.562 54.125 418.25 53.5234 418.25 52.75V37.625C418.25 35.3906 416.359 33.5859 414.125 33.5859H372.875C370.555 33.5 368.75 35.3906 368.75 37.625V52.75C368.75 53.5234 369.352 54.125 370.125 54.125Z" fill="#333333"/>
<path d="M551.914 69.25H541C540.227 69.25 539.625 69.8516 539.625 70.625V72.6016C539.625 73.1172 539.711 73.6328 540.055 74.0625L541.516 76.2969C541.945 76.9844 542.977 77.5 543.836 77.5H549.078C549.938 77.5 550.969 76.9844 551.398 76.2969L552.859 74.0625C553.117 73.7188 553.289 73.0312 553.289 72.6016V70.625C553.289 69.9375 552.688 69.25 551.914 69.25ZM550.539 72.6016L549.164 74.6641C549.164 74.75 549.078 74.75 549.078 74.75L543.922 74.8359C543.922 74.75 543.836 74.75 543.836 74.75L542.375 72.6016V72H550.625V72.5156C550.539 72.5156 550.539 72.6016 550.539 72.6016ZM557.07 37.9688C554.234 35.1328 550.367 33.4141 546.414 33.5859C538.078 33.5859 531.375 40.375 531.375 48.7969C531.375 52.4922 532.664 56.0156 535.07 58.7656C536.188 60.1406 538.164 63.0625 538.852 65.3828C538.938 66.0703 539.625 66.5859 540.312 66.5C541.086 66.4141 541.602 65.7266 541.602 65.0391L541.516 64.6953C540.656 61.6875 538.422 58.4219 537.133 57.0469C535.156 54.7266 534.125 51.8047 534.125 48.7969C534.125 41.8359 539.539 36.3359 546.414 36.3359H546.5C549.766 36.3359 552.859 37.5391 555.18 39.9453C557.5 42.2656 558.875 45.4453 558.875 48.7969C558.875 51.8047 557.758 54.7266 555.781 57.0469C554.492 58.4219 552.258 61.6875 551.398 64.6953L551.312 65.0391C551.227 65.7266 551.742 66.5 552.516 66.5859C552.602 66.5859 552.688 66.5859 552.688 66.5859C553.375 66.5859 553.977 66.1562 554.062 65.4688C554.75 63.0625 556.727 60.1406 557.844 58.8516C560.25 56.0156 561.625 52.4922 561.625 48.7969C561.625 44.6719 559.992 40.8047 557.07 37.9688ZM547.875 40.4609C547.875 39.6875 547.188 39.0859 546.5 39.0859C541.172 39.0859 536.875 43.3828 536.875 48.625C536.875 49.3984 537.477 50 538.25 50C538.938 50 539.625 49.3984 539.625 48.625C539.625 44.8438 542.633 41.8359 546.5 41.8359C547.188 41.8359 547.875 41.1484 547.875 40.4609Z" fill="#333333"/>
<path d="M681.625 63.75H676.125C673.805 63.75 672 65.6406 672 67.875V73.375C672 75.6953 673.805 77.5 676.125 77.5H681.625C683.859 77.5 685.75 75.6953 685.75 73.375V67.875C685.75 65.6406 683.859 63.75 681.625 63.75ZM683 73.375C683 74.1484 682.312 74.75 681.625 74.75H676.125C675.352 74.75 674.75 74.1484 674.75 73.375V67.875C674.75 67.1875 675.352 66.5 676.125 66.5H681.625C682.312 66.5 683 67.1875 683 67.875V73.375ZM702.25 63.75H696.75C694.43 63.75 692.625 65.6406 692.625 67.875V73.375C692.625 75.6953 694.43 77.5 696.75 77.5H702.25C704.484 77.5 706.375 75.6953 706.375 73.375V67.875C706.375 65.6406 704.484 63.75 702.25 63.75ZM703.625 73.375C703.625 74.1484 702.938 74.75 702.25 74.75H696.75C695.977 74.75 695.375 74.1484 695.375 73.375V67.875C695.375 67.1875 695.977 66.5 696.75 66.5H702.25C702.938 66.5 703.625 67.1875 703.625 67.875V73.375ZM722.875 63.75H717.375C715.055 63.75 713.25 65.6406 713.25 67.875V73.375C713.25 75.6953 715.055 77.5 717.375 77.5H722.875C725.109 77.5 727 75.6953 727 73.375V67.875C727 65.6406 725.109 63.75 722.875 63.75ZM724.25 73.375C724.25 74.1484 723.562 74.75 722.875 74.75H717.375C716.602 74.75 716 74.1484 716 73.375V67.875C716 67.1875 716.602 66.5 717.375 66.5H722.875C723.562 66.5 724.25 67.1875 724.25 67.875V73.375ZM678.789 61C679.562 61 680.25 60.3984 680.25 59.625V56.875C680.25 56.1875 680.852 55.5 681.625 55.5H698.125V59.625C698.125 60.3984 698.727 61 699.5 61C700.188 61 700.875 60.3984 700.875 59.625V55.5H717.375C718.062 55.5 718.75 56.1875 718.75 56.875V59.625C718.75 60.3984 719.352 61 720.125 61C720.812 61 721.5 60.3984 721.5 59.625V56.875C721.5 54.6406 719.609 52.75 717.375 52.75H700.875V47.25H703.625C705.859 47.25 707.75 45.4453 707.75 43.125V37.625C707.75 35.3906 705.859 33.5 703.625 33.5H695.375C693.055 33.5 691.25 35.3906 691.25 37.625V43.125C691.25 45.4453 693.055 47.25 695.375 47.25H698.125V52.75H681.625C679.305 52.75 677.5 54.6406 677.5 56.875V59.625C677.5 60.3984 678.102 61 678.789 61ZM695.375 44.5C694.602 44.5 694 43.8984 694 43.125V37.625C694 36.9375 694.602 36.25 695.375 36.25H703.625C704.312 36.25 705 36.9375 705 37.625V43.125C705 43.8984 704.312 44.5 703.625 44.5H695.375Z" fill="#333333"/>
<path d="M874.5 41.75V39C874.5 37.5391 873.211 36.25 871.75 36.25H869C867.453 36.25 866.25 37.5391 866.25 39H838.75C838.75 37.5391 837.461 36.25 836 36.25H833.25C831.703 36.25 830.5 37.5391 830.5 39V41.75C830.5 43.2969 831.703 44.5 833.25 44.5V66.5C831.703 66.5 830.5 67.7891 830.5 69.25V72C830.5 73.5469 831.703 74.75 833.25 74.75H836C837.461 74.75 838.75 73.5469 838.75 72H866.25C866.25 73.5469 867.453 74.75 869 74.75H871.75C873.211 74.75 874.5 73.5469 874.5 72V69.25C874.5 67.7891 873.211 66.5 871.75 66.5V44.5C873.211 44.5 874.5 43.2969 874.5 41.75ZM833.25 39H836V41.75H833.25V39ZM836 72H833.25V69.25H836V72ZM866.25 69.25H838.75C838.75 67.7891 837.461 66.5 836 66.5V44.5C837.461 44.5 838.75 43.2969 838.75 41.75H866.25C866.25 43.2969 867.453 44.5 869 44.5V66.5C867.453 66.5 866.25 67.7891 866.25 69.25ZM871.75 72H869V69.25H871.75V72ZM869 41.75V39H871.75V41.75H869ZM855.25 55.5V47.25C855.25 45.7891 853.961 44.5 852.5 44.5H841.5C839.953 44.5 838.75 45.7891 838.75 47.25V55.5C838.75 57.0469 839.953 58.25 841.5 58.25H852.5C853.961 58.25 855.25 57.0469 855.25 55.5ZM841.5 47.25H852.5V55.5H841.5V47.25ZM863.5 52.75H859.375C858.602 52.75 858 53.4375 858 54.125C858 54.8984 858.602 55.5 859.289 55.5H863.5V63.75H852.5V62.375C852.5 61.6875 851.812 61 851.125 61C850.352 61 849.75 61.6875 849.75 62.375V63.75C849.75 65.2969 850.953 66.5 852.5 66.5H863.5C864.961 66.5 866.25 65.2969 866.25 63.75V55.5C866.25 54.0391 864.961 52.75 863.5 52.75Z" fill="#333333"/>
<path d="M52.2779 103.04C53.4165 103.04 54.3359 103.432 55.0359 104.216C55.7452 104.991 56.0999 106.125 56.0999 107.618C56.0999 109.102 55.7499 110.231 55.0499 111.006C54.3499 111.771 53.4259 112.154 52.2779 112.154C51.1299 112.154 50.2059 111.767 49.5059 110.992C48.8152 110.208 48.4699 109.079 48.4699 107.604C48.4699 106.12 48.8152 104.991 49.5059 104.216C50.2059 103.432 51.1299 103.04 52.2779 103.04ZM52.2779 104.034C51.4565 104.034 50.8079 104.342 50.3319 104.958C49.8559 105.574 49.6179 106.461 49.6179 107.618C49.6179 108.775 49.8559 109.653 50.3319 110.25C50.8079 110.847 51.4565 111.146 52.2779 111.146C53.0992 111.146 53.7479 110.847 54.2239 110.25C54.7092 109.653 54.9519 108.775 54.9519 107.618C54.9519 106.461 54.7092 105.574 54.2239 104.958C53.7479 104.342 53.0992 104.034 52.2779 104.034ZM59.3266 106.302C59.7746 105.527 60.428 105.14 61.2866 105.14C62.1453 105.14 62.8593 105.462 63.4286 106.106C63.998 106.741 64.2826 107.585 64.2826 108.64C64.2826 109.685 63.9933 110.535 63.4146 111.188C62.836 111.832 62.1313 112.154 61.3006 112.154C60.8526 112.154 60.4466 112.042 60.0826 111.818C59.728 111.594 59.448 111.263 59.2426 110.824L58.9906 112H58.2206V102.466H59.3266V106.302ZM61.2166 106.12C60.6846 106.12 60.2413 106.293 59.8866 106.638C59.532 106.974 59.3453 107.445 59.3266 108.052V109.144C59.3266 109.76 59.5086 110.255 59.8726 110.628C60.246 110.992 60.694 111.174 61.2166 111.174C61.7393 111.174 62.192 110.945 62.5746 110.488C62.9573 110.021 63.1486 109.405 63.1486 108.64C63.1486 107.875 62.9573 107.263 62.5746 106.806C62.2013 106.349 61.7486 106.12 61.2166 106.12ZM66.0464 106.946C66.0464 106.395 66.2798 105.957 66.7464 105.63C67.2224 105.303 67.8618 105.14 68.6644 105.14C69.4671 105.14 70.0924 105.308 70.5404 105.644C70.9978 105.98 71.2358 106.405 71.2544 106.918H70.1764C70.0924 106.311 69.5791 106.008 68.6364 106.008C68.1791 106.008 67.8244 106.111 67.5724 106.316C67.3298 106.521 67.2084 106.745 67.2084 106.988C67.2084 107.221 67.3018 107.422 67.4884 107.59C67.6751 107.749 67.9738 107.889 68.3844 108.01L69.7284 108.458C70.2978 108.635 70.7318 108.864 71.0304 109.144C71.3384 109.415 71.4924 109.793 71.4924 110.278C71.4924 110.754 71.2451 111.188 70.7504 111.58C70.2558 111.963 69.5651 112.154 68.6784 112.154C67.7918 112.154 67.1011 111.958 66.6064 111.566C66.1118 111.165 65.8504 110.651 65.8224 110.026H66.8864C66.9051 110.446 67.0731 110.763 67.3904 110.978C67.7171 111.183 68.1231 111.286 68.6084 111.286C69.0938 111.286 69.4951 111.183 69.8124 110.978C70.1298 110.773 70.2884 110.53 70.2884 110.25C70.2884 109.961 70.1951 109.741 70.0084 109.592C69.8218 109.443 69.5184 109.312 69.0984 109.2L67.7964 108.766C66.6298 108.421 66.0464 107.814 66.0464 106.946ZM76.0756 111.258C76.9996 111.258 77.5269 110.852 77.6576 110.04H78.7916C78.6889 110.712 78.3902 111.235 77.8956 111.608C77.4102 111.972 76.8036 112.154 76.0756 112.154C75.1796 112.154 74.4516 111.837 73.8916 111.202C73.3316 110.558 73.0516 109.704 73.0516 108.64C73.0516 107.576 73.3316 106.727 73.8916 106.092C74.4609 105.457 75.2122 105.14 76.1456 105.14C77.0882 105.14 77.7882 105.504 78.2456 106.232C78.7122 106.96 78.8756 107.847 78.7356 108.892H74.1576C74.1576 109.583 74.3256 110.152 74.6616 110.6C74.9976 111.039 75.4689 111.258 76.0756 111.258ZM76.8876 106.19C76.6729 106.078 76.4116 106.022 76.1036 106.022C75.5342 106.022 75.0816 106.218 74.7456 106.61C74.4189 106.993 74.2276 107.473 74.1716 108.052H77.7416C77.7416 107.119 77.4569 106.498 76.8876 106.19ZM83.7006 106.246C82.646 106.246 82.1 107.077 82.0626 108.738V112H80.9566V105.294H82.0626V106.582C82.3986 105.649 82.9913 105.182 83.8406 105.182C84.1113 105.182 84.368 105.224 84.6106 105.308L84.5546 106.386C84.2746 106.293 83.99 106.246 83.7006 106.246ZM86.3867 105.308L88.4027 110.838L90.4327 105.308H91.6787L89.0187 112H87.8007L85.1407 105.308H86.3867ZM97.4877 107.66C97.4877 107.053 97.3617 106.619 97.1097 106.358C96.8577 106.097 96.489 105.966 96.0037 105.966C95.5277 105.966 95.1404 106.064 94.8417 106.26C94.5524 106.447 94.4077 106.745 94.4077 107.156H93.1897C93.1897 106.129 93.7404 105.495 94.8417 105.252C95.1777 105.177 95.5417 105.14 95.9337 105.14C96.7644 105.14 97.413 105.35 97.8797 105.77C98.3464 106.19 98.5797 106.829 98.5797 107.688V112H97.6277L97.5157 110.88C97.105 111.729 96.363 112.154 95.2897 112.154C94.571 112.154 93.9924 111.953 93.5537 111.552C93.1244 111.151 92.9097 110.651 92.9097 110.054C92.9097 109.457 93.1477 108.99 93.6237 108.654C94.109 108.318 94.711 108.15 95.4297 108.15C96.1484 108.15 96.8344 108.271 97.4877 108.514V107.66ZM97.4877 109.214C96.825 109.027 96.2464 108.934 95.7517 108.934C95.257 108.934 94.8557 109.023 94.5477 109.2C94.2397 109.377 94.0857 109.657 94.0857 110.04C94.0857 110.88 94.5617 111.3 95.5137 111.3C96.055 111.3 96.517 111.109 96.8997 110.726C97.2917 110.334 97.4877 109.83 97.4877 109.214ZM103.404 105.14C104.197 105.14 104.827 105.345 105.294 105.756C105.76 106.157 106.064 106.661 106.204 107.268L105.084 107.366C104.962 106.974 104.766 106.671 104.496 106.456C104.225 106.232 103.926 106.12 103.6 106.12C103.002 106.12 102.517 106.344 102.144 106.792C101.78 107.24 101.598 107.851 101.598 108.626C101.598 109.391 101.775 110.007 102.13 110.474C102.494 110.941 102.942 111.174 103.474 111.174C104.015 111.174 104.416 111.053 104.678 110.81C104.948 110.558 105.084 110.203 105.084 109.746H106.218C106.218 110.465 105.966 111.048 105.462 111.496C104.967 111.935 104.318 112.154 103.516 112.154C102.666 112.154 101.943 111.832 101.346 111.188C100.758 110.544 100.464 109.69 100.464 108.626C100.464 107.553 100.758 106.703 101.346 106.078C101.934 105.453 102.62 105.14 103.404 105.14ZM108.453 105.294H109.559V112H108.453V105.294ZM108.999 103.726C108.775 103.726 108.597 103.665 108.467 103.544C108.345 103.413 108.285 103.245 108.285 103.04C108.285 102.825 108.345 102.657 108.467 102.536C108.597 102.405 108.775 102.34 108.999 102.34C109.223 102.34 109.4 102.405 109.531 102.536C109.671 102.657 109.741 102.825 109.741 103.04C109.741 103.245 109.671 103.413 109.531 103.544C109.4 103.665 109.223 103.726 108.999 103.726ZM114.988 105.14C114.055 105.14 113.299 105.443 112.72 106.05C112.151 106.657 111.866 107.525 111.866 108.654C111.866 109.774 112.151 110.637 112.72 111.244C113.299 111.851 114.055 112.154 114.988 112.154C115.922 112.154 116.673 111.851 117.242 111.244C117.821 110.637 118.11 109.774 118.11 108.654C118.11 107.525 117.821 106.657 117.242 106.05C116.673 105.443 115.922 105.14 114.988 105.14ZM113 108.654C113 107.851 113.173 107.226 113.518 106.778C113.864 106.321 114.358 106.092 115.002 106.092C115.656 106.092 116.15 106.321 116.486 106.778C116.822 107.226 116.99 107.851 116.99 108.654C116.99 109.447 116.813 110.073 116.458 110.53C116.104 110.978 115.6 111.202 114.946 111.202C114.302 111.202 113.817 110.978 113.49 110.53C113.164 110.073 113 109.447 113 108.654ZM116.85 102.746L113.434 104.328L113.112 103.628L116.402 101.766L116.85 102.746ZM121.287 106.596C121.725 105.625 122.477 105.14 123.541 105.14C124.334 105.14 124.95 105.401 125.389 105.924C125.837 106.447 126.061 107.161 126.061 108.066V112H124.969V108.066C124.969 107.422 124.815 106.937 124.507 106.61C124.208 106.283 123.779 106.12 123.219 106.12C122.659 106.12 122.206 106.349 121.861 106.806C121.515 107.263 121.333 107.898 121.315 108.71V112H120.209V105.308H121.161L121.287 106.596ZM57.0617 119.04C58.0044 119.04 58.7604 119.278 59.3297 119.754C59.9084 120.221 60.305 120.832 60.5197 121.588L59.3297 121.826C59.143 121.275 58.849 120.841 58.4477 120.524C58.0557 120.197 57.5937 120.034 57.0617 120.034C56.3244 120.034 55.713 120.342 55.2277 120.958C54.7424 121.574 54.4997 122.433 54.4997 123.534C54.4997 124.626 54.7144 125.503 55.1437 126.166C55.5824 126.829 56.2217 127.16 57.0617 127.16C57.7617 127.16 58.3124 126.978 58.7137 126.614C59.1244 126.241 59.3297 125.751 59.3297 125.144H60.5197C60.5197 126.068 60.2024 126.801 59.5677 127.342C58.9424 127.883 58.079 128.154 56.9777 128.154C55.8857 128.154 54.999 127.734 54.3177 126.894C53.6457 126.054 53.3097 124.929 53.3097 123.52C53.3097 122.111 53.6597 121.014 54.3597 120.23C55.0597 119.437 55.9604 119.04 57.0617 119.04ZM65.0036 121.14C65.937 121.14 66.6883 121.443 67.2576 122.05C67.8363 122.657 68.1256 123.525 68.1256 124.654C68.1256 125.774 67.8363 126.637 67.2576 127.244C66.6883 127.851 65.937 128.154 65.0036 128.154C64.0703 128.154 63.3143 127.851 62.7356 127.244C62.1663 126.637 61.8816 125.774 61.8816 124.654C61.8816 123.525 62.1663 122.657 62.7356 122.05C63.3143 121.443 64.0703 121.14 65.0036 121.14ZM67.0056 124.654C67.0056 123.851 66.8376 123.226 66.5016 122.778C66.1656 122.321 65.671 122.092 65.0176 122.092C64.3736 122.092 63.879 122.321 63.5336 122.778C63.1883 123.226 63.0156 123.851 63.0156 124.654C63.0156 125.447 63.179 126.073 63.5056 126.53C63.8323 126.978 64.3176 127.202 64.9616 127.202C65.615 127.202 66.119 126.978 66.4736 126.53C66.8283 126.073 67.0056 125.447 67.0056 124.654ZM71.3022 122.596C71.7409 121.625 72.4922 121.14 73.5562 121.14C74.3496 121.14 74.9656 121.401 75.4042 121.924C75.8522 122.447 76.0762 123.161 76.0762 124.066V128H74.9842V124.066C74.9842 123.422 74.8302 122.937 74.5222 122.61C74.2236 122.283 73.7942 122.12 73.2342 122.12C72.6742 122.12 72.2216 122.349 71.8762 122.806C71.5309 123.263 71.3489 123.898 71.3302 124.71V128H70.2242V121.308H71.1762L71.3022 122.596ZM82.1738 127.804C81.3711 128.177 80.6384 128.257 79.9758 128.042C79.4998 127.893 79.1638 127.58 78.9678 127.104C78.8651 126.871 78.8138 126.591 78.8138 126.264V122.148H77.7358V121.308H78.8138V119.446H79.9058V121.308H82.0058V122.148H79.9058V126.25C79.9058 126.931 80.2231 127.272 80.8578 127.272C81.2031 127.272 81.5904 127.188 82.0198 127.02L82.1738 127.804ZM86.2474 127.258C87.1714 127.258 87.6988 126.852 87.8294 126.04H88.9634C88.8608 126.712 88.5621 127.235 88.0674 127.608C87.5821 127.972 86.9754 128.154 86.2474 128.154C85.3514 128.154 84.6234 127.837 84.0634 127.202C83.5034 126.558 83.2234 125.704 83.2234 124.64C83.2234 123.576 83.5034 122.727 84.0634 122.092C84.6328 121.457 85.3841 121.14 86.3174 121.14C87.2601 121.14 87.9601 121.504 88.4174 122.232C88.8841 122.96 89.0474 123.847 88.9074 124.892H84.3294C84.3294 125.583 84.4974 126.152 84.8334 126.6C85.1694 127.039 85.6408 127.258 86.2474 127.258ZM87.0594 122.19C86.8448 122.078 86.5834 122.022 86.2754 122.022C85.7061 122.022 85.2534 122.218 84.9174 122.61C84.5908 122.993 84.3994 123.473 84.3434 124.052H87.9134C87.9134 123.119 87.6288 122.498 87.0594 122.19ZM96.5185 128H95.1745L93.2565 125.466L91.4365 128H90.0925L92.6265 124.654L90.0925 121.294H91.4365L93.3545 123.814L95.1885 121.294H96.5325L93.9705 124.654L96.5185 128ZM101.807 127.804C101.004 128.177 100.271 128.257 99.6086 128.042C99.1326 127.893 98.7966 127.58 98.6006 127.104C98.4979 126.871 98.4466 126.591 98.4466 126.264V122.148H97.3686V121.308H98.4466V119.446H99.5386V121.308H101.639V122.148H99.5386V126.25C99.5386 126.931 99.8559 127.272 100.491 127.272C100.836 127.272 101.223 127.188 101.653 127.02L101.807 127.804ZM108.12 126.67C107.663 127.641 106.921 128.126 105.894 128.126C105.138 128.126 104.527 127.916 104.06 127.496C103.603 127.076 103.374 126.427 103.374 125.55V121.294H104.48V125.466C104.48 126.595 105.003 127.16 106.048 127.16C106.655 127.16 107.145 126.927 107.518 126.46C107.901 125.993 108.102 125.396 108.12 124.668V121.294H109.226V128H108.12V126.67ZM116.204 123.66C116.204 123.053 116.078 122.619 115.826 122.358C115.574 122.097 115.206 121.966 114.72 121.966C114.244 121.966 113.857 122.064 113.558 122.26C113.269 122.447 113.124 122.745 113.124 123.156H111.906C111.906 122.129 112.457 121.495 113.558 121.252C113.894 121.177 114.258 121.14 114.65 121.14C115.481 121.14 116.13 121.35 116.596 121.77C117.063 122.19 117.296 122.829 117.296 123.688V128H116.344L116.232 126.88C115.822 127.729 115.08 128.154 114.006 128.154C113.288 128.154 112.709 127.953 112.27 127.552C111.841 127.151 111.626 126.651 111.626 126.054C111.626 125.457 111.864 124.99 112.34 124.654C112.826 124.318 113.428 124.15 114.146 124.15C114.865 124.15 115.551 124.271 116.204 124.514V123.66ZM116.204 125.214C115.542 125.027 114.963 124.934 114.468 124.934C113.974 124.934 113.572 125.023 113.264 125.2C112.956 125.377 112.802 125.657 112.802 126.04C112.802 126.88 113.278 127.3 114.23 127.3C114.772 127.3 115.234 127.109 115.616 126.726C116.008 126.334 116.204 125.83 116.204 125.214ZM119.894 118.466H121V128H119.894V118.466Z" fill="#333333"/>
<path d="M195.894 103.194H201.312V104.146H197V107.1H201.06V108.038H197V111.034H201.312V112H195.894V103.194ZM204.833 106.596C205.272 105.625 206.023 105.14 207.087 105.14C207.881 105.14 208.497 105.401 208.935 105.924C209.383 106.447 209.607 107.161 209.607 108.066V112H208.515V108.066C208.515 107.422 208.361 106.937 208.053 106.61C207.755 106.283 207.325 106.12 206.765 106.12C206.205 106.12 205.753 106.349 205.407 106.806C205.062 107.263 204.88 107.898 204.861 108.71V112H203.755V105.308H204.707L204.833 106.596ZM215.705 111.804C214.902 112.177 214.17 112.257 213.507 112.042C213.031 111.893 212.695 111.58 212.499 111.104C212.396 110.871 212.345 110.591 212.345 110.264V106.148H211.267V105.308H212.345V103.446H213.437V105.308H215.537V106.148H213.437V110.25C213.437 110.931 213.754 111.272 214.389 111.272C214.734 111.272 215.122 111.188 215.551 111.02L215.705 111.804ZM220.199 106.246C219.144 106.246 218.598 107.077 218.561 108.738V112H217.455V105.294H218.561V106.582C218.897 105.649 219.489 105.182 220.339 105.182C220.609 105.182 220.866 105.224 221.109 105.308L221.053 106.386C220.773 106.293 220.488 106.246 220.199 106.246ZM225.111 111.258C226.035 111.258 226.562 110.852 226.693 110.04H227.827C227.724 110.712 227.425 111.235 226.931 111.608C226.445 111.972 225.839 112.154 225.111 112.154C224.215 112.154 223.487 111.837 222.927 111.202C222.367 110.558 222.087 109.704 222.087 108.64C222.087 107.576 222.367 106.727 222.927 106.092C223.496 105.457 224.247 105.14 225.181 105.14C226.123 105.14 226.823 105.504 227.281 106.232C227.747 106.96 227.911 107.847 227.771 108.892H223.193C223.193 109.583 223.361 110.152 223.697 110.6C224.033 111.039 224.504 111.258 225.111 111.258ZM225.923 106.19C225.708 106.078 225.447 106.022 225.139 106.022C224.569 106.022 224.117 106.218 223.781 106.61C223.454 106.993 223.263 107.473 223.207 108.052H226.777C226.777 107.119 226.492 106.498 225.923 106.19ZM230.09 105.308L232.106 110.838L234.136 105.308H235.382L232.722 112H231.504L228.844 105.308H230.09ZM237.117 105.294H238.223V112H237.117V105.294ZM237.663 103.726C237.439 103.726 237.261 103.665 237.131 103.544C237.009 103.413 236.949 103.245 236.949 103.04C236.949 102.825 237.009 102.657 237.131 102.536C237.261 102.405 237.439 102.34 237.663 102.34C237.887 102.34 238.064 102.405 238.195 102.536C238.335 102.657 238.405 102.825 238.405 103.04C238.405 103.245 238.335 103.413 238.195 103.544C238.064 103.665 237.887 103.726 237.663 103.726ZM240.88 106.946C240.88 106.395 241.114 105.957 241.58 105.63C242.056 105.303 242.696 105.14 243.498 105.14C244.301 105.14 244.926 105.308 245.374 105.644C245.832 105.98 246.07 106.405 246.088 106.918H245.01C244.926 106.311 244.413 106.008 243.47 106.008C243.013 106.008 242.658 106.111 242.406 106.316C242.164 106.521 242.042 106.745 242.042 106.988C242.042 107.221 242.136 107.422 242.322 107.59C242.509 107.749 242.808 107.889 243.218 108.01L244.562 108.458C245.132 108.635 245.566 108.864 245.864 109.144C246.172 109.415 246.326 109.793 246.326 110.278C246.326 110.754 246.079 111.188 245.584 111.58C245.09 111.963 244.399 112.154 243.512 112.154C242.626 112.154 241.935 111.958 241.44 111.566C240.946 111.165 240.684 110.651 240.656 110.026H241.72C241.739 110.446 241.907 110.763 242.224 110.978C242.551 111.183 242.957 111.286 243.442 111.286C243.928 111.286 244.329 111.183 244.646 110.978C244.964 110.773 245.122 110.53 245.122 110.25C245.122 109.961 245.029 109.741 244.842 109.592C244.656 109.443 244.352 109.312 243.932 109.2L242.63 108.766C241.464 108.421 240.88 107.814 240.88 106.946ZM252.1 111.804C251.297 112.177 250.564 112.257 249.902 112.042C249.426 111.893 249.09 111.58 248.894 111.104C248.791 110.871 248.74 110.591 248.74 110.264V106.148H247.662V105.308H248.74V103.446H249.832V105.308H251.932V106.148H249.832V110.25C249.832 110.931 250.149 111.272 250.784 111.272C251.129 111.272 251.516 111.188 251.946 111.02L252.1 111.804ZM258.007 107.66C258.007 107.053 257.881 106.619 257.629 106.358C257.377 106.097 257.009 105.966 256.523 105.966C256.047 105.966 255.66 106.064 255.361 106.26C255.072 106.447 254.927 106.745 254.927 107.156H253.709C253.709 106.129 254.26 105.495 255.361 105.252C255.697 105.177 256.061 105.14 256.453 105.14C257.284 105.14 257.933 105.35 258.399 105.77C258.866 106.19 259.099 106.829 259.099 107.688V112H258.147L258.035 110.88C257.625 111.729 256.883 112.154 255.809 112.154C255.091 112.154 254.512 111.953 254.073 111.552C253.644 111.151 253.429 110.651 253.429 110.054C253.429 109.457 253.667 108.99 254.143 108.654C254.629 108.318 255.231 108.15 255.949 108.15C256.668 108.15 257.354 108.271 258.007 108.514V107.66ZM258.007 109.214C257.345 109.027 256.766 108.934 256.271 108.934C255.777 108.934 255.375 109.023 255.067 109.2C254.759 109.377 254.605 109.657 254.605 110.04C254.605 110.88 255.081 111.3 256.033 111.3C256.575 111.3 257.037 111.109 257.419 110.726C257.811 110.334 258.007 109.83 258.007 109.214ZM261.347 106.946C261.347 106.395 261.581 105.957 262.047 105.63C262.523 105.303 263.163 105.14 263.965 105.14C264.768 105.14 265.393 105.308 265.841 105.644C266.299 105.98 266.537 106.405 266.555 106.918H265.477C265.393 106.311 264.88 106.008 263.937 106.008C263.48 106.008 263.125 106.111 262.873 106.316C262.631 106.521 262.509 106.745 262.509 106.988C262.509 107.221 262.603 107.422 262.789 107.59C262.976 107.749 263.275 107.889 263.685 108.01L265.029 108.458C265.599 108.635 266.033 108.864 266.331 109.144C266.639 109.415 266.793 109.793 266.793 110.278C266.793 110.754 266.546 111.188 266.051 111.58C265.557 111.963 264.866 112.154 263.979 112.154C263.093 112.154 262.402 111.958 261.907 111.566C261.413 111.165 261.151 110.651 261.123 110.026H262.187C262.206 110.446 262.374 110.763 262.691 110.978C263.018 111.183 263.424 111.286 263.909 111.286C264.395 111.286 264.796 111.183 265.113 110.978C265.431 110.773 265.589 110.53 265.589 110.25C265.589 109.961 265.496 109.741 265.309 109.592C265.123 109.443 264.819 109.312 264.399 109.2L263.097 108.766C261.931 108.421 261.347 107.814 261.347 106.946ZM276.784 106.302V102.466H277.876V112H276.98L276.84 110.88C276.626 111.3 276.341 111.617 275.986 111.832C275.632 112.047 275.244 112.154 274.824 112.154C273.975 112.154 273.261 111.827 272.682 111.174C272.113 110.521 271.828 109.671 271.828 108.626C271.828 107.571 272.108 106.727 272.668 106.092C273.238 105.457 273.952 105.14 274.81 105.14C275.678 105.14 276.336 105.527 276.784 106.302ZM274.88 106.12C274.339 106.12 273.882 106.349 273.508 106.806C273.144 107.263 272.962 107.875 272.962 108.64C272.962 109.405 273.149 110.021 273.522 110.488C273.896 110.945 274.344 111.174 274.866 111.174C275.389 111.174 275.832 111.001 276.196 110.656C276.57 110.301 276.766 109.83 276.784 109.242V108.15C276.784 107.525 276.602 107.03 276.238 106.666C275.874 106.302 275.422 106.12 274.88 106.12ZM283.025 111.258C283.949 111.258 284.476 110.852 284.607 110.04H285.741C285.638 110.712 285.339 111.235 284.845 111.608C284.359 111.972 283.753 112.154 283.025 112.154C282.129 112.154 281.401 111.837 280.841 111.202C280.281 110.558 280.001 109.704 280.001 108.64C280.001 107.576 280.281 106.727 280.841 106.092C281.41 105.457 282.161 105.14 283.095 105.14C284.037 105.14 284.737 105.504 285.195 106.232C285.661 106.96 285.825 107.847 285.685 108.892H281.107C281.107 109.583 281.275 110.152 281.611 110.6C281.947 111.039 282.418 111.258 283.025 111.258ZM283.837 106.19C283.622 106.078 283.361 106.022 283.053 106.022C282.483 106.022 282.031 106.218 281.695 106.61C281.368 106.993 281.177 107.473 281.121 108.052H284.691C284.691 107.119 284.406 106.498 283.837 106.19ZM218.109 126.67C217.651 127.641 216.909 128.126 215.883 128.126C215.127 128.126 214.515 127.916 214.049 127.496C213.591 127.076 213.363 126.427 213.363 125.55V121.294H214.469V125.466C214.469 126.595 214.991 127.16 216.037 127.16C216.643 127.16 217.133 126.927 217.507 126.46C217.889 125.993 218.09 125.396 218.109 124.668V121.294H219.215V128H218.109V126.67ZM221.699 122.946C221.699 122.395 221.932 121.957 222.399 121.63C222.875 121.303 223.514 121.14 224.317 121.14C225.119 121.14 225.745 121.308 226.193 121.644C226.65 121.98 226.888 122.405 226.907 122.918H225.829C225.745 122.311 225.231 122.008 224.289 122.008C223.831 122.008 223.477 122.111 223.225 122.316C222.982 122.521 222.861 122.745 222.861 122.988C222.861 123.221 222.954 123.422 223.141 123.59C223.327 123.749 223.626 123.889 224.037 124.01L225.381 124.458C225.95 124.635 226.384 124.864 226.683 125.144C226.991 125.415 227.145 125.793 227.145 126.278C227.145 126.754 226.897 127.188 226.403 127.58C225.908 127.963 225.217 128.154 224.331 128.154C223.444 128.154 222.753 127.958 222.259 127.566C221.764 127.165 221.503 126.651 221.475 126.026H222.539C222.557 126.446 222.725 126.763 223.043 126.978C223.369 127.183 223.775 127.286 224.261 127.286C224.746 127.286 225.147 127.183 225.465 126.978C225.782 126.773 225.941 126.53 225.941 126.25C225.941 125.961 225.847 125.741 225.661 125.592C225.474 125.443 225.171 125.312 224.751 125.2L223.449 124.766C222.282 124.421 221.699 123.814 221.699 122.946ZM233.968 126.67C233.511 127.641 232.769 128.126 231.742 128.126C230.986 128.126 230.375 127.916 229.908 127.496C229.451 127.076 229.222 126.427 229.222 125.55V121.294H230.328V125.466C230.328 126.595 230.851 127.16 231.896 127.16C232.503 127.16 232.993 126.927 233.366 126.46C233.749 125.993 233.949 125.396 233.968 124.668V121.294H235.074V128H233.968V126.67ZM242.052 123.66C242.052 123.053 241.926 122.619 241.674 122.358C241.422 122.097 241.053 121.966 240.568 121.966C240.092 121.966 239.705 122.064 239.406 122.26C239.117 122.447 238.972 122.745 238.972 123.156H237.754C237.754 122.129 238.305 121.495 239.406 121.252C239.742 121.177 240.106 121.14 240.498 121.14C241.329 121.14 241.977 121.35 242.444 121.77C242.911 122.19 243.144 122.829 243.144 123.688V128H242.192L242.08 126.88C241.669 127.729 240.927 128.154 239.854 128.154C239.135 128.154 238.557 127.953 238.118 127.552C237.689 127.151 237.474 126.651 237.474 126.054C237.474 125.457 237.712 124.99 238.188 124.654C238.673 124.318 239.275 124.15 239.994 124.15C240.713 124.15 241.399 124.271 242.052 124.514V123.66ZM242.052 125.214C241.389 125.027 240.811 124.934 240.316 124.934C239.821 124.934 239.42 125.023 239.112 125.2C238.804 125.377 238.65 125.657 238.65 126.04C238.65 126.88 239.126 127.3 240.078 127.3C240.619 127.3 241.081 127.109 241.464 126.726C241.856 126.334 242.052 125.83 242.052 125.214ZM248.472 122.246C247.417 122.246 246.871 123.077 246.834 124.738V128H245.728V121.294H246.834V122.582C247.17 121.649 247.763 121.182 248.612 121.182C248.883 121.182 249.139 121.224 249.382 121.308L249.326 122.386C249.046 122.293 248.761 122.246 248.472 122.246ZM251.144 121.294H252.25V128H251.144V121.294ZM251.69 119.726C251.466 119.726 251.289 119.665 251.158 119.544C251.037 119.413 250.976 119.245 250.976 119.04C250.976 118.825 251.037 118.657 251.158 118.536C251.289 118.405 251.466 118.34 251.69 118.34C251.914 118.34 252.091 118.405 252.222 118.536C252.362 118.657 252.432 118.825 252.432 119.04C252.432 119.245 252.362 119.413 252.222 119.544C252.091 119.665 251.914 119.726 251.69 119.726ZM257.666 121.14C258.599 121.14 259.35 121.443 259.92 122.05C260.498 122.657 260.788 123.525 260.788 124.654C260.788 125.774 260.498 126.637 259.92 127.244C259.35 127.851 258.599 128.154 257.666 128.154C256.732 128.154 255.976 127.851 255.398 127.244C254.828 126.637 254.544 125.774 254.544 124.654C254.544 123.525 254.828 122.657 255.398 122.05C255.976 121.443 256.732 121.14 257.666 121.14ZM259.668 124.654C259.668 123.851 259.5 123.226 259.164 122.778C258.828 122.321 258.333 122.092 257.68 122.092C257.036 122.092 256.541 122.321 256.196 122.778C255.85 123.226 255.678 123.851 255.678 124.654C255.678 125.447 255.841 126.073 256.168 126.53C256.494 126.978 256.98 127.202 257.624 127.202C258.277 127.202 258.781 126.978 259.136 126.53C259.49 126.073 259.668 125.447 259.668 124.654ZM262.55 122.946C262.55 122.395 262.784 121.957 263.25 121.63C263.726 121.303 264.366 121.14 265.168 121.14C265.971 121.14 266.596 121.308 267.044 121.644C267.502 121.98 267.74 122.405 267.758 122.918H266.68C266.596 122.311 266.083 122.008 265.14 122.008C264.683 122.008 264.328 122.111 264.076 122.316C263.834 122.521 263.712 122.745 263.712 122.988C263.712 123.221 263.806 123.422 263.992 123.59C264.179 123.749 264.478 123.889 264.888 124.01L266.232 124.458C266.802 124.635 267.236 124.864 267.534 125.144C267.842 125.415 267.996 125.793 267.996 126.278C267.996 126.754 267.749 127.188 267.254 127.58C266.76 127.963 266.069 128.154 265.182 128.154C264.296 128.154 263.605 127.958 263.11 127.566C262.616 127.165 262.354 126.651 262.326 126.026H263.39C263.409 126.446 263.577 126.763 263.894 126.978C264.221 127.183 264.627 127.286 265.112 127.286C265.598 127.286 265.999 127.183 266.316 126.978C266.634 126.773 266.792 126.53 266.792 126.25C266.792 125.961 266.699 125.741 266.512 125.592C266.326 125.443 266.022 125.312 265.602 125.2L264.3 124.766C263.134 124.421 262.55 123.814 262.55 122.946Z" fill="#333333"/>
<path d="M345.579 103.194L347.721 110.516L349.891 104.104H350.633L352.789 110.516L355.253 103.194H356.471L353.363 112H352.201L350.283 106.358L348.295 112H347.133L344.347 103.194H345.579ZM360.032 105.14C360.965 105.14 361.717 105.443 362.286 106.05C362.865 106.657 363.154 107.525 363.154 108.654C363.154 109.774 362.865 110.637 362.286 111.244C361.717 111.851 360.965 112.154 360.032 112.154C359.099 112.154 358.343 111.851 357.764 111.244C357.195 110.637 356.91 109.774 356.91 108.654C356.91 107.525 357.195 106.657 357.764 106.05C358.343 105.443 359.099 105.14 360.032 105.14ZM362.034 108.654C362.034 107.851 361.866 107.226 361.53 106.778C361.194 106.321 360.699 106.092 360.046 106.092C359.402 106.092 358.907 106.321 358.562 106.778C358.217 107.226 358.044 107.851 358.044 108.654C358.044 109.447 358.207 110.073 358.534 110.53C358.861 110.978 359.346 111.202 359.99 111.202C360.643 111.202 361.147 110.978 361.502 110.53C361.857 110.073 362.034 109.447 362.034 108.654ZM367.997 106.246C366.942 106.246 366.396 107.077 366.359 108.738V112H365.253V105.294H366.359V106.582C366.695 105.649 367.287 105.182 368.137 105.182C368.407 105.182 368.664 105.224 368.907 105.308L368.851 106.386C368.571 106.293 368.286 106.246 367.997 106.246ZM372.601 108.458L371.705 109.186V112H370.599V102.466H371.705V108.01L374.939 105.308H376.479L373.399 107.814L376.633 112H375.275L372.601 108.458ZM378.151 106.946C378.151 106.395 378.384 105.957 378.851 105.63C379.327 105.303 379.966 105.14 380.769 105.14C381.572 105.14 382.197 105.308 382.645 105.644C383.102 105.98 383.34 106.405 383.359 106.918H382.281C382.197 106.311 381.684 106.008 380.741 106.008C380.284 106.008 379.929 106.111 379.677 106.316C379.434 106.521 379.313 106.745 379.313 106.988C379.313 107.221 379.406 107.422 379.593 107.59C379.78 107.749 380.078 107.889 380.489 108.01L381.833 108.458C382.402 108.635 382.836 108.864 383.135 109.144C383.443 109.415 383.597 109.793 383.597 110.278C383.597 110.754 383.35 111.188 382.855 111.58C382.36 111.963 381.67 112.154 380.783 112.154C379.896 112.154 379.206 111.958 378.711 111.566C378.216 111.165 377.955 110.651 377.927 110.026H378.991C379.01 110.446 379.178 110.763 379.495 110.978C379.822 111.183 380.228 111.286 380.713 111.286C381.198 111.286 381.6 111.183 381.917 110.978C382.234 110.773 382.393 110.53 382.393 110.25C382.393 109.961 382.3 109.741 382.113 109.592C381.926 109.443 381.623 109.312 381.203 109.2L379.901 108.766C378.734 108.421 378.151 107.814 378.151 106.946ZM386.976 106.54C387.424 105.607 388.166 105.14 389.202 105.14C389.995 105.14 390.611 105.401 391.05 105.924C391.498 106.447 391.722 107.161 391.722 108.066V112H390.63V108.066C390.63 107.422 390.476 106.937 390.168 106.61C389.869 106.283 389.435 106.12 388.866 106.12C388.297 106.12 387.839 106.363 387.494 106.848C387.149 107.324 386.976 107.987 386.976 108.836V112H385.87V102.466H386.976V106.54ZM396.727 105.14C397.661 105.14 398.412 105.443 398.981 106.05C399.56 106.657 399.849 107.525 399.849 108.654C399.849 109.774 399.56 110.637 398.981 111.244C398.412 111.851 397.661 112.154 396.727 112.154C395.794 112.154 395.038 111.851 394.459 111.244C393.89 110.637 393.605 109.774 393.605 108.654C393.605 107.525 393.89 106.657 394.459 106.05C395.038 105.443 395.794 105.14 396.727 105.14ZM398.729 108.654C398.729 107.851 398.561 107.226 398.225 106.778C397.889 106.321 397.395 106.092 396.741 106.092C396.097 106.092 395.603 106.321 395.257 106.778C394.912 107.226 394.739 107.851 394.739 108.654C394.739 109.447 394.903 110.073 395.229 110.53C395.556 110.978 396.041 111.202 396.685 111.202C397.339 111.202 397.843 110.978 398.197 110.53C398.552 110.073 398.729 109.447 398.729 108.654ZM402.998 106.33C403.437 105.537 404.09 105.14 404.958 105.14C405.835 105.14 406.563 105.462 407.142 106.106C407.73 106.75 408.024 107.599 408.024 108.654C408.024 109.709 407.73 110.558 407.142 111.202C406.554 111.837 405.831 112.154 404.972 112.154C404.113 112.154 403.479 111.832 403.068 111.188V115.29H401.962V105.308H402.872L402.998 106.33ZM404.916 111.174C405.439 111.174 405.896 110.95 406.288 110.502C406.689 110.054 406.89 109.443 406.89 108.668C406.89 107.884 406.699 107.263 406.316 106.806C405.943 106.349 405.485 106.12 404.944 106.12C404.403 106.12 403.959 106.293 403.614 106.638C403.269 106.974 403.087 107.431 403.068 108.01V109.284C403.068 109.872 403.245 110.334 403.6 110.67C403.955 111.006 404.393 111.174 404.916 111.174ZM409.924 106.946C409.924 106.395 410.158 105.957 410.624 105.63C411.1 105.303 411.74 105.14 412.542 105.14C413.345 105.14 413.97 105.308 414.418 105.644C414.876 105.98 415.114 106.405 415.132 106.918H414.054C413.97 106.311 413.457 106.008 412.514 106.008C412.057 106.008 411.702 106.111 411.45 106.316C411.208 106.521 411.086 106.745 411.086 106.988C411.086 107.221 411.18 107.422 411.366 107.59C411.553 107.749 411.852 107.889 412.262 108.01L413.606 108.458C414.176 108.635 414.61 108.864 414.908 109.144C415.216 109.415 415.37 109.793 415.37 110.278C415.37 110.754 415.123 111.188 414.628 111.58C414.134 111.963 413.443 112.154 412.556 112.154C411.67 112.154 410.979 111.958 410.484 111.566C409.99 111.165 409.728 110.651 409.7 110.026H410.764C410.783 110.446 410.951 110.763 411.268 110.978C411.595 111.183 412.001 111.286 412.486 111.286C412.972 111.286 413.373 111.183 413.69 110.978C414.008 110.773 414.166 110.53 414.166 110.25C414.166 109.961 414.073 109.741 413.886 109.592C413.7 109.443 413.396 109.312 412.976 109.2L411.674 108.766C410.508 108.421 409.924 107.814 409.924 106.946ZM423.205 105.14C423.999 105.14 424.629 105.345 425.095 105.756C425.562 106.157 425.865 106.661 426.005 107.268L424.885 107.366C424.764 106.974 424.568 106.671 424.297 106.456C424.027 106.232 423.728 106.12 423.401 106.12C422.804 106.12 422.319 106.344 421.945 106.792C421.581 107.24 421.399 107.851 421.399 108.626C421.399 109.391 421.577 110.007 421.931 110.474C422.295 110.941 422.743 111.174 423.275 111.174C423.817 111.174 424.218 111.053 424.479 110.81C424.75 110.558 424.885 110.203 424.885 109.746H426.019C426.019 110.465 425.767 111.048 425.263 111.496C424.769 111.935 424.12 112.154 423.317 112.154C422.468 112.154 421.745 111.832 421.147 111.188C420.559 110.544 420.265 109.69 420.265 108.626C420.265 107.553 420.559 106.703 421.147 106.078C421.735 105.453 422.421 105.14 423.205 105.14ZM430.593 105.14C431.526 105.14 432.277 105.443 432.847 106.05C433.425 106.657 433.715 107.525 433.715 108.654C433.715 109.774 433.425 110.637 432.847 111.244C432.277 111.851 431.526 112.154 430.593 112.154C429.659 112.154 428.903 111.851 428.325 111.244C427.755 110.637 427.471 109.774 427.471 108.654C427.471 107.525 427.755 106.657 428.325 106.05C428.903 105.443 429.659 105.14 430.593 105.14ZM432.595 108.654C432.595 107.851 432.427 107.226 432.091 106.778C431.755 106.321 431.26 106.092 430.607 106.092C429.963 106.092 429.468 106.321 429.123 106.778C428.777 107.226 428.605 107.851 428.605 108.654C428.605 109.447 428.768 110.073 429.095 110.53C429.421 110.978 429.907 111.202 430.551 111.202C431.204 111.202 431.708 110.978 432.063 110.53C432.417 110.073 432.595 109.447 432.595 108.654ZM436.891 106.596C437.33 105.625 438.081 105.14 439.145 105.14C439.938 105.14 440.554 105.401 440.993 105.924C441.441 106.447 441.665 107.161 441.665 108.066V112H440.573V108.066C440.573 107.422 440.419 106.937 440.111 106.61C439.812 106.283 439.383 106.12 438.823 106.12C438.263 106.12 437.81 106.349 437.465 106.806C437.12 107.263 436.938 107.898 436.919 108.71V112H435.813V105.308H436.765L436.891 106.596ZM357.386 119.404C357.078 119.283 356.835 119.222 356.658 119.222C356.331 119.222 356.074 119.301 355.888 119.46C355.701 119.619 355.608 119.899 355.608 120.3V121.308H356.994V122.064H355.608V128H354.516V122.064H353.41V121.308H354.516V120.286C354.516 119.623 354.698 119.138 355.062 118.83C355.426 118.513 355.846 118.354 356.322 118.354C356.798 118.354 357.218 118.415 357.582 118.536L357.386 119.404ZM363.486 126.67C363.029 127.641 362.287 128.126 361.26 128.126C360.504 128.126 359.893 127.916 359.426 127.496C358.969 127.076 358.74 126.427 358.74 125.55V121.294H359.846V125.466C359.846 126.595 360.369 127.16 361.414 127.16C362.021 127.16 362.511 126.927 362.884 126.46C363.267 125.993 363.468 125.396 363.486 124.668V121.294H364.592V128H363.486V126.67ZM368.491 122.596C368.929 121.625 369.681 121.14 370.745 121.14C371.538 121.14 372.154 121.401 372.593 121.924C373.041 122.447 373.265 123.161 373.265 124.066V128H372.173V124.066C372.173 123.422 372.019 122.937 371.711 122.61C371.412 122.283 370.983 122.12 370.423 122.12C369.863 122.12 369.41 122.349 369.065 122.806C368.719 123.263 368.537 123.898 368.519 124.71V128H367.413V121.308H368.365L368.491 122.596ZM378.088 121.14C378.882 121.14 379.512 121.345 379.978 121.756C380.445 122.157 380.748 122.661 380.888 123.268L379.768 123.366C379.647 122.974 379.451 122.671 379.18 122.456C378.91 122.232 378.611 122.12 378.284 122.12C377.687 122.12 377.202 122.344 376.828 122.792C376.464 123.24 376.282 123.851 376.282 124.626C376.282 125.391 376.46 126.007 376.814 126.474C377.178 126.941 377.626 127.174 378.158 127.174C378.7 127.174 379.101 127.053 379.362 126.81C379.633 126.558 379.768 126.203 379.768 125.746H380.902C380.902 126.465 380.65 127.048 380.146 127.496C379.652 127.935 379.003 128.154 378.2 128.154C377.351 128.154 376.628 127.832 376.03 127.188C375.442 126.544 375.148 125.69 375.148 124.626C375.148 123.553 375.442 122.703 376.03 122.078C376.618 121.453 377.304 121.14 378.088 121.14ZM383.137 121.294H384.243V128H383.137V121.294ZM383.683 119.726C383.459 119.726 383.282 119.665 383.151 119.544C383.03 119.413 382.969 119.245 382.969 119.04C382.969 118.825 383.03 118.657 383.151 118.536C383.282 118.405 383.459 118.34 383.683 118.34C383.907 118.34 384.085 118.405 384.215 118.536C384.355 118.657 384.425 118.825 384.425 119.04C384.425 119.245 384.355 119.413 384.215 119.544C384.085 119.665 383.907 119.726 383.683 119.726ZM389.659 121.14C390.592 121.14 391.344 121.443 391.913 122.05C392.492 122.657 392.781 123.525 392.781 124.654C392.781 125.774 392.492 126.637 391.913 127.244C391.344 127.851 390.592 128.154 389.659 128.154C388.726 128.154 387.97 127.851 387.391 127.244C386.822 126.637 386.537 125.774 386.537 124.654C386.537 123.525 386.822 122.657 387.391 122.05C387.97 121.443 388.726 121.14 389.659 121.14ZM391.661 124.654C391.661 123.851 391.493 123.226 391.157 122.778C390.821 122.321 390.326 122.092 389.673 122.092C389.029 122.092 388.534 122.321 388.189 122.778C387.844 123.226 387.671 123.851 387.671 124.654C387.671 125.447 387.834 126.073 388.161 126.53C388.488 126.978 388.973 127.202 389.617 127.202C390.27 127.202 390.774 126.978 391.129 126.53C391.484 126.073 391.661 125.447 391.661 124.654ZM395.957 122.596C396.396 121.625 397.147 121.14 398.211 121.14C399.005 121.14 399.621 121.401 400.059 121.924C400.507 122.447 400.731 123.161 400.731 124.066V128H399.639V124.066C399.639 123.422 399.485 122.937 399.177 122.61C398.879 122.283 398.449 122.12 397.889 122.12C397.329 122.12 396.877 122.349 396.531 122.806C396.186 123.263 396.004 123.898 395.985 124.71V128H394.879V121.308H395.831L395.957 122.596ZM407.473 123.66C407.473 123.053 407.347 122.619 407.095 122.358C406.843 122.097 406.474 121.966 405.989 121.966C405.513 121.966 405.126 122.064 404.827 122.26C404.538 122.447 404.393 122.745 404.393 123.156H403.175C403.175 122.129 403.726 121.495 404.827 121.252C405.163 121.177 405.527 121.14 405.919 121.14C406.75 121.14 407.398 121.35 407.865 121.77C408.332 122.19 408.565 122.829 408.565 123.688V128H407.613L407.501 126.88C407.09 127.729 406.348 128.154 405.275 128.154C404.556 128.154 403.978 127.953 403.539 127.552C403.11 127.151 402.895 126.651 402.895 126.054C402.895 125.457 403.133 124.99 403.609 124.654C404.094 124.318 404.696 124.15 405.415 124.15C406.134 124.15 406.82 124.271 407.473 124.514V123.66ZM407.473 125.214C406.81 125.027 406.232 124.934 405.737 124.934C405.242 124.934 404.841 125.023 404.533 125.2C404.225 125.377 404.071 125.657 404.071 126.04C404.071 126.88 404.547 127.3 405.499 127.3C406.04 127.3 406.502 127.109 406.885 126.726C407.277 126.334 407.473 125.83 407.473 125.214ZM413.893 122.246C412.838 122.246 412.292 123.077 412.255 124.738V128H411.149V121.294H412.255V122.582C412.591 121.649 413.184 121.182 414.033 121.182C414.304 121.182 414.56 121.224 414.803 121.308L414.747 122.386C414.467 122.293 414.182 122.246 413.893 122.246ZM416.565 121.294H417.671V128H416.565V121.294ZM417.111 119.726C416.887 119.726 416.71 119.665 416.579 119.544C416.458 119.413 416.397 119.245 416.397 119.04C416.397 118.825 416.458 118.657 416.579 118.536C416.71 118.405 416.887 118.34 417.111 118.34C417.335 118.34 417.512 118.405 417.643 118.536C417.783 118.657 417.853 118.825 417.853 119.04C417.853 119.245 417.783 119.413 417.643 119.544C417.512 119.665 417.335 119.726 417.111 119.726ZM423.087 121.14C424.02 121.14 424.771 121.443 425.341 122.05C425.919 122.657 426.209 123.525 426.209 124.654C426.209 125.774 425.919 126.637 425.341 127.244C424.771 127.851 424.02 128.154 423.087 128.154C422.153 128.154 421.397 127.851 420.819 127.244C420.249 126.637 419.965 125.774 419.965 124.654C419.965 123.525 420.249 122.657 420.819 122.05C421.397 121.443 422.153 121.14 423.087 121.14ZM425.089 124.654C425.089 123.851 424.921 123.226 424.585 122.778C424.249 122.321 423.754 122.092 423.101 122.092C422.457 122.092 421.962 122.321 421.617 122.778C421.271 123.226 421.099 123.851 421.099 124.654C421.099 125.447 421.262 126.073 421.589 126.53C421.915 126.978 422.401 127.202 423.045 127.202C423.698 127.202 424.202 126.978 424.557 126.53C424.911 126.073 425.089 125.447 425.089 124.654ZM427.971 122.946C427.971 122.395 428.205 121.957 428.671 121.63C429.147 121.303 429.787 121.14 430.589 121.14C431.392 121.14 432.017 121.308 432.465 121.644C432.923 121.98 433.161 122.405 433.179 122.918H432.101C432.017 122.311 431.504 122.008 430.561 122.008C430.104 122.008 429.749 122.111 429.497 122.316C429.255 122.521 429.133 122.745 429.133 122.988C429.133 123.221 429.227 123.422 429.413 123.59C429.6 123.749 429.899 123.889 430.309 124.01L431.653 124.458C432.223 124.635 432.657 124.864 432.955 125.144C433.263 125.415 433.417 125.793 433.417 126.278C433.417 126.754 433.17 127.188 432.675 127.58C432.181 127.963 431.49 128.154 430.603 128.154C429.717 128.154 429.026 127.958 428.531 127.566C428.037 127.165 427.775 126.651 427.747 126.026H428.811C428.83 126.446 428.998 126.763 429.315 126.978C429.642 127.183 430.048 127.286 430.533 127.286C431.019 127.286 431.42 127.183 431.737 126.978C432.055 126.773 432.213 126.53 432.213 126.25C432.213 125.961 432.12 125.741 431.933 125.592C431.747 125.443 431.443 125.312 431.023 125.2L429.721 124.766C428.555 124.421 427.971 123.814 427.971 122.946Z" fill="#333333"/>
<path d="M491.627 103.194H494.917C495.841 103.194 496.55 103.413 497.045 103.852C497.549 104.291 497.801 104.841 497.801 105.504C497.801 106.008 497.661 106.447 497.381 106.82C497.11 107.193 496.695 107.445 496.135 107.576C496.686 107.669 497.124 107.907 497.451 108.29C497.787 108.673 497.955 109.107 497.955 109.592C497.955 110.675 497.428 111.407 496.373 111.79C495.981 111.93 495.5 112 494.931 112H491.627V103.194ZM494.903 111.034C495.575 111.034 496.056 110.899 496.345 110.628C496.634 110.357 496.779 109.998 496.779 109.55C496.779 109.102 496.62 108.747 496.303 108.486C495.986 108.215 495.519 108.08 494.903 108.08H492.733V111.034H494.903ZM492.733 107.128H494.889C495.43 107.128 495.86 106.997 496.177 106.736C496.504 106.465 496.667 106.097 496.667 105.63C496.667 105.163 496.508 104.799 496.191 104.538C495.883 104.277 495.449 104.146 494.889 104.146H492.733V107.128ZM503.066 106.246C502.011 106.246 501.465 107.077 501.428 108.738V112H500.322V105.294H501.428V106.582C501.764 105.649 502.357 105.182 503.206 105.182C503.477 105.182 503.733 105.224 503.976 105.308L503.92 106.386C503.64 106.293 503.355 106.246 503.066 106.246ZM509.812 107.66C509.812 107.053 509.686 106.619 509.434 106.358C509.182 106.097 508.813 105.966 508.328 105.966C507.852 105.966 507.465 106.064 507.166 106.26C506.877 106.447 506.732 106.745 506.732 107.156H505.514C505.514 106.129 506.065 105.495 507.166 105.252C507.502 105.177 507.866 105.14 508.258 105.14C509.089 105.14 509.737 105.35 510.204 105.77C510.671 106.19 510.904 106.829 510.904 107.688V112H509.952L509.84 110.88C509.429 111.729 508.687 112.154 507.614 112.154C506.895 112.154 506.317 111.953 505.878 111.552C505.449 111.151 505.234 110.651 505.234 110.054C505.234 109.457 505.472 108.99 505.948 108.654C506.433 108.318 507.035 108.15 507.754 108.15C508.473 108.15 509.159 108.271 509.812 108.514V107.66ZM509.812 109.214C509.149 109.027 508.571 108.934 508.076 108.934C507.581 108.934 507.18 109.023 506.872 109.2C506.564 109.377 506.41 109.657 506.41 110.04C506.41 110.88 506.886 111.3 507.838 111.3C508.379 111.3 508.841 111.109 509.224 110.726C509.616 110.334 509.812 109.83 509.812 109.214ZM513.572 105.294H514.678V112H513.572V105.294ZM514.118 103.726C513.894 103.726 513.717 103.665 513.586 103.544C513.465 103.413 513.404 103.245 513.404 103.04C513.404 102.825 513.465 102.657 513.586 102.536C513.717 102.405 513.894 102.34 514.118 102.34C514.342 102.34 514.519 102.405 514.65 102.536C514.79 102.657 514.86 102.825 514.86 103.04C514.86 103.245 514.79 103.413 514.65 103.544C514.519 103.665 514.342 103.726 514.118 103.726ZM518.749 106.596C519.188 105.625 519.939 105.14 521.003 105.14C521.797 105.14 522.413 105.401 522.851 105.924C523.299 106.447 523.523 107.161 523.523 108.066V112H522.431V108.066C522.431 107.422 522.277 106.937 521.969 106.61C521.671 106.283 521.241 106.12 520.681 106.12C520.121 106.12 519.669 106.349 519.323 106.806C518.978 107.263 518.796 107.898 518.777 108.71V112H517.671V105.308H518.623L518.749 106.596ZM525.771 106.946C525.771 106.395 526.004 105.957 526.471 105.63C526.947 105.303 527.586 105.14 528.389 105.14C529.192 105.14 529.817 105.308 530.265 105.644C530.722 105.98 530.96 106.405 530.979 106.918H529.901C529.817 106.311 529.304 106.008 528.361 106.008C527.904 106.008 527.549 106.111 527.297 106.316C527.054 106.521 526.933 106.745 526.933 106.988C526.933 107.221 527.026 107.422 527.213 107.59C527.4 107.749 527.698 107.889 528.109 108.01L529.453 108.458C530.022 108.635 530.456 108.864 530.755 109.144C531.063 109.415 531.217 109.793 531.217 110.278C531.217 110.754 530.97 111.188 530.475 111.58C529.98 111.963 529.29 112.154 528.403 112.154C527.516 112.154 526.826 111.958 526.331 111.566C525.836 111.165 525.575 110.651 525.547 110.026H526.611C526.63 110.446 526.798 110.763 527.115 110.978C527.442 111.183 527.848 111.286 528.333 111.286C528.818 111.286 529.22 111.183 529.537 110.978C529.854 110.773 530.013 110.53 530.013 110.25C530.013 109.961 529.92 109.741 529.733 109.592C529.546 109.443 529.243 109.312 528.823 109.2L527.521 108.766C526.354 108.421 525.771 107.814 525.771 106.946ZM536.99 111.804C536.188 112.177 535.455 112.257 534.792 112.042C534.316 111.893 533.98 111.58 533.784 111.104C533.682 110.871 533.63 110.591 533.63 110.264V106.148H532.552V105.308H533.63V103.446H534.722V105.308H536.822V106.148H534.722V110.25C534.722 110.931 535.04 111.272 535.674 111.272C536.02 111.272 536.407 111.188 536.836 111.02L536.99 111.804ZM541.162 105.14C542.095 105.14 542.847 105.443 543.416 106.05C543.995 106.657 544.284 107.525 544.284 108.654C544.284 109.774 543.995 110.637 543.416 111.244C542.847 111.851 542.095 112.154 541.162 112.154C540.229 112.154 539.473 111.851 538.894 111.244C538.325 110.637 538.04 109.774 538.04 108.654C538.04 107.525 538.325 106.657 538.894 106.05C539.473 105.443 540.229 105.14 541.162 105.14ZM543.164 108.654C543.164 107.851 542.996 107.226 542.66 106.778C542.324 106.321 541.829 106.092 541.176 106.092C540.532 106.092 540.037 106.321 539.692 106.778C539.347 107.226 539.174 107.851 539.174 108.654C539.174 109.447 539.337 110.073 539.664 110.53C539.991 110.978 540.476 111.202 541.12 111.202C541.773 111.202 542.277 110.978 542.632 110.53C542.987 110.073 543.164 109.447 543.164 108.654ZM549.126 106.246C548.072 106.246 547.526 107.077 547.488 108.738V112H546.382V105.294H547.488V106.582C547.824 105.649 548.417 105.182 549.266 105.182C549.537 105.182 549.794 105.224 550.036 105.308L549.98 106.386C549.7 106.293 549.416 106.246 549.126 106.246ZM552.792 106.596C553.231 105.625 553.982 105.14 555.046 105.14C555.625 105.14 556.11 105.285 556.502 105.574C556.894 105.854 557.179 106.246 557.356 106.75C557.776 105.677 558.556 105.14 559.694 105.14C560.497 105.14 561.118 105.401 561.556 105.924C561.995 106.447 562.214 107.161 562.214 108.066V112H561.122V108.066C561.122 107.422 560.968 106.937 560.66 106.61C560.362 106.283 559.928 106.12 559.358 106.12C558.789 106.12 558.346 106.353 558.028 106.82C557.72 107.287 557.566 107.931 557.566 108.752V112H556.474V108.066C556.474 107.422 556.32 106.937 556.012 106.61C555.714 106.283 555.284 106.12 554.724 106.12C554.164 106.12 553.712 106.349 553.366 106.806C553.021 107.263 552.839 107.898 552.82 108.71V112H551.714V105.308H552.666L552.792 106.596ZM564.882 105.294H565.988V112H564.882V105.294ZM565.428 103.726C565.204 103.726 565.027 103.665 564.896 103.544C564.775 103.413 564.714 103.245 564.714 103.04C564.714 102.825 564.775 102.657 564.896 102.536C565.027 102.405 565.204 102.34 565.428 102.34C565.652 102.34 565.83 102.405 565.96 102.536C566.1 102.657 566.17 102.825 566.17 103.04C566.17 103.245 566.1 103.413 565.96 103.544C565.83 103.665 565.652 103.726 565.428 103.726ZM570.06 106.596C570.499 105.625 571.25 105.14 572.314 105.14C573.107 105.14 573.723 105.401 574.162 105.924C574.61 106.447 574.834 107.161 574.834 108.066V112H573.742V108.066C573.742 107.422 573.588 106.937 573.28 106.61C572.981 106.283 572.552 106.12 571.992 106.12C571.432 106.12 570.979 106.349 570.634 106.806C570.289 107.263 570.107 107.898 570.088 108.71V112H568.982V105.308H569.934L570.06 106.596ZM577.712 111.79C577.152 111.519 576.872 111.104 576.872 110.544C576.872 110.255 576.979 110.003 577.194 109.788C577.418 109.564 577.693 109.415 578.02 109.34C577.516 108.892 577.264 108.304 577.264 107.576C577.264 106.848 577.52 106.26 578.034 105.812C578.556 105.364 579.172 105.14 579.882 105.14C580.591 105.14 581.193 105.308 581.688 105.644C581.753 105.149 581.949 104.753 582.276 104.454C582.612 104.155 583.05 104.006 583.592 104.006L583.494 105.098C582.672 105.098 582.243 105.443 582.206 106.134C582.532 106.535 582.696 107.016 582.696 107.576C582.696 108.295 582.434 108.887 581.912 109.354C581.398 109.811 580.754 110.04 579.98 110.04C579.448 110.04 578.976 109.933 578.566 109.718C578.379 109.755 578.211 109.844 578.062 109.984C577.912 110.115 577.838 110.297 577.838 110.53C577.838 111.025 578.248 111.272 579.07 111.272H581.674C582.299 111.272 582.794 111.407 583.158 111.678C583.522 111.939 583.704 112.308 583.704 112.784C583.704 113.493 583.344 114.114 582.626 114.646C581.916 115.178 581.016 115.444 579.924 115.444C578.832 115.444 577.973 115.239 577.348 114.828C576.722 114.427 576.41 113.918 576.41 113.302C576.41 112.901 576.526 112.574 576.76 112.322C577.002 112.07 577.32 111.893 577.712 111.79ZM577.502 113.26C577.502 113.615 577.693 113.918 578.076 114.17C578.468 114.431 579.056 114.562 579.84 114.562C580.633 114.562 581.291 114.389 581.814 114.044C582.346 113.708 582.612 113.311 582.612 112.854C582.612 112.639 582.532 112.453 582.374 112.294C582.224 112.145 581.991 112.07 581.674 112.07H578.972C578.496 112.089 578.132 112.201 577.88 112.406C577.628 112.621 577.502 112.905 577.502 113.26ZM581.618 107.576C581.618 107.091 581.473 106.699 581.184 106.4C580.894 106.092 580.493 105.938 579.98 105.938C579.476 105.938 579.079 106.092 578.79 106.4C578.5 106.699 578.356 107.091 578.356 107.576C578.356 108.061 578.5 108.463 578.79 108.78C579.088 109.088 579.49 109.242 579.994 109.242C580.498 109.242 580.894 109.083 581.184 108.766C581.473 108.449 581.618 108.052 581.618 107.576ZM593.066 106.302V102.466H594.158V112H593.262L593.122 110.88C592.907 111.3 592.622 111.617 592.268 111.832C591.913 112.047 591.526 112.154 591.106 112.154C590.256 112.154 589.542 111.827 588.964 111.174C588.394 110.521 588.11 109.671 588.11 108.626C588.11 107.571 588.39 106.727 588.95 106.092C589.519 105.457 590.233 105.14 591.092 105.14C591.96 105.14 592.618 105.527 593.066 106.302ZM591.162 106.12C590.62 106.12 590.163 106.349 589.79 106.806C589.426 107.263 589.244 107.875 589.244 108.64C589.244 109.405 589.43 110.021 589.804 110.488C590.177 110.945 590.625 111.174 591.148 111.174C591.67 111.174 592.114 111.001 592.478 110.656C592.851 110.301 593.047 109.83 593.066 109.242V108.15C593.066 107.525 592.884 107.03 592.52 106.666C592.156 106.302 591.703 106.12 591.162 106.12ZM599.306 111.258C600.23 111.258 600.757 110.852 600.888 110.04H602.022C601.919 110.712 601.621 111.235 601.126 111.608C600.641 111.972 600.034 112.154 599.306 112.154C598.41 112.154 597.682 111.837 597.122 111.202C596.562 110.558 596.282 109.704 596.282 108.64C596.282 107.576 596.562 106.727 597.122 106.092C597.691 105.457 598.443 105.14 599.376 105.14C600.319 105.14 601.019 105.504 601.476 106.232C601.943 106.96 602.106 107.847 601.966 108.892H597.388C597.388 109.583 597.556 110.152 597.892 110.6C598.228 111.039 598.699 111.258 599.306 111.258ZM600.118 106.19C599.903 106.078 599.642 106.022 599.334 106.022C598.765 106.022 598.312 106.218 597.976 106.61C597.649 106.993 597.458 107.473 597.402 108.052H600.972C600.972 107.119 600.687 106.498 600.118 106.19ZM530.532 121.294H531.638V128H530.532V121.294ZM531.078 119.726C530.854 119.726 530.677 119.665 530.546 119.544C530.425 119.413 530.364 119.245 530.364 119.04C530.364 118.825 530.425 118.657 530.546 118.536C530.677 118.405 530.854 118.34 531.078 118.34C531.302 118.34 531.479 118.405 531.61 118.536C531.75 118.657 531.82 118.825 531.82 119.04C531.82 119.245 531.75 119.413 531.61 119.544C531.479 119.665 531.302 119.726 531.078 119.726ZM539.027 122.302V118.466H540.119V128H539.223L539.083 126.88C538.869 127.3 538.584 127.617 538.229 127.832C537.875 128.047 537.487 128.154 537.067 128.154C536.218 128.154 535.504 127.827 534.925 127.174C534.356 126.521 534.071 125.671 534.071 124.626C534.071 123.571 534.351 122.727 534.911 122.092C535.481 121.457 536.195 121.14 537.053 121.14C537.921 121.14 538.579 121.527 539.027 122.302ZM537.123 122.12C536.582 122.12 536.125 122.349 535.751 122.806C535.387 123.263 535.205 123.875 535.205 124.64C535.205 125.405 535.392 126.021 535.765 126.488C536.139 126.945 536.587 127.174 537.109 127.174C537.632 127.174 538.075 127.001 538.439 126.656C538.813 126.301 539.009 125.83 539.027 125.242V124.15C539.027 123.525 538.845 123.03 538.481 122.666C538.117 122.302 537.665 122.12 537.123 122.12ZM545.268 127.258C546.192 127.258 546.719 126.852 546.85 126.04H547.984C547.881 126.712 547.583 127.235 547.088 127.608C546.603 127.972 545.996 128.154 545.268 128.154C544.372 128.154 543.644 127.837 543.084 127.202C542.524 126.558 542.244 125.704 542.244 124.64C542.244 123.576 542.524 122.727 543.084 122.092C543.653 121.457 544.405 121.14 545.338 121.14C546.281 121.14 546.981 121.504 547.438 122.232C547.905 122.96 548.068 123.847 547.928 124.892H543.35C543.35 125.583 543.518 126.152 543.854 126.6C544.19 127.039 544.661 127.258 545.268 127.258ZM546.08 122.19C545.865 122.078 545.604 122.022 545.296 122.022C544.727 122.022 544.274 122.218 543.938 122.61C543.611 122.993 543.42 123.473 543.364 124.052H546.934C546.934 123.119 546.649 122.498 546.08 122.19ZM554.307 123.66C554.307 123.053 554.181 122.619 553.929 122.358C553.677 122.097 553.308 121.966 552.823 121.966C552.347 121.966 551.96 122.064 551.661 122.26C551.372 122.447 551.227 122.745 551.227 123.156H550.009C550.009 122.129 550.56 121.495 551.661 121.252C551.997 121.177 552.361 121.14 552.753 121.14C553.584 121.14 554.232 121.35 554.699 121.77C555.166 122.19 555.399 122.829 555.399 123.688V128H554.447L554.335 126.88C553.924 127.729 553.182 128.154 552.109 128.154C551.39 128.154 550.812 127.953 550.373 127.552C549.944 127.151 549.729 126.651 549.729 126.054C549.729 125.457 549.967 124.99 550.443 124.654C550.928 124.318 551.53 124.15 552.249 124.15C552.968 124.15 553.654 124.271 554.307 124.514V123.66ZM554.307 125.214C553.644 125.027 553.066 124.934 552.571 124.934C552.076 124.934 551.675 125.023 551.367 125.2C551.059 125.377 550.905 125.657 550.905 126.04C550.905 126.88 551.381 127.3 552.333 127.3C552.874 127.3 553.336 127.109 553.719 126.726C554.111 126.334 554.307 125.83 554.307 125.214ZM557.647 122.946C557.647 122.395 557.88 121.957 558.347 121.63C558.823 121.303 559.462 121.14 560.265 121.14C561.068 121.14 561.693 121.308 562.141 121.644C562.598 121.98 562.836 122.405 562.855 122.918H561.777C561.693 122.311 561.18 122.008 560.237 122.008C559.78 122.008 559.425 122.111 559.173 122.316C558.93 122.521 558.809 122.745 558.809 122.988C558.809 123.221 558.902 123.422 559.089 123.59C559.276 123.749 559.574 123.889 559.985 124.01L561.329 124.458C561.898 124.635 562.332 124.864 562.631 125.144C562.939 125.415 563.093 125.793 563.093 126.278C563.093 126.754 562.846 127.188 562.351 127.58C561.856 127.963 561.166 128.154 560.279 128.154C559.392 128.154 558.702 127.958 558.207 127.566C557.712 127.165 557.451 126.651 557.423 126.026H558.487C558.506 126.446 558.674 126.763 558.991 126.978C559.318 127.183 559.724 127.286 560.209 127.286C560.694 127.286 561.096 127.183 561.413 126.978C561.73 126.773 561.889 126.53 561.889 126.25C561.889 125.961 561.796 125.741 561.609 125.592C561.422 125.443 561.119 125.312 560.699 125.2L559.397 124.766C558.23 124.421 557.647 123.814 557.647 122.946Z" fill="#333333"/>
<path d="M654.387 103.194C655.713 103.194 656.772 103.595 657.565 104.398C658.368 105.191 658.769 106.26 658.769 107.604C658.769 108.939 658.368 110.007 657.565 110.81C656.772 111.603 655.713 112 654.387 112H651.797V103.194H654.387ZM652.903 111.034H654.387C655.367 111.034 656.147 110.712 656.725 110.068C657.304 109.415 657.593 108.589 657.593 107.59C657.593 106.591 657.299 105.775 656.711 105.14C656.133 104.496 655.358 104.174 654.387 104.174H652.903V111.034ZM661.137 105.294H662.243V112H661.137V105.294ZM661.683 103.726C661.459 103.726 661.282 103.665 661.151 103.544C661.03 103.413 660.969 103.245 660.969 103.04C660.969 102.825 661.03 102.657 661.151 102.536C661.282 102.405 661.459 102.34 661.683 102.34C661.907 102.34 662.085 102.405 662.215 102.536C662.355 102.657 662.425 102.825 662.425 103.04C662.425 103.245 662.355 103.413 662.215 103.544C662.085 103.665 661.907 103.726 661.683 103.726ZM664.901 106.946C664.901 106.395 665.134 105.957 665.601 105.63C666.077 105.303 666.716 105.14 667.519 105.14C668.322 105.14 668.947 105.308 669.395 105.644C669.852 105.98 670.09 106.405 670.109 106.918H669.031C668.947 106.311 668.434 106.008 667.491 106.008C667.034 106.008 666.679 106.111 666.427 106.316C666.184 106.521 666.063 106.745 666.063 106.988C666.063 107.221 666.156 107.422 666.343 107.59C666.53 107.749 666.828 107.889 667.239 108.01L668.583 108.458C669.152 108.635 669.586 108.864 669.885 109.144C670.193 109.415 670.347 109.793 670.347 110.278C670.347 110.754 670.1 111.188 669.605 111.58C669.11 111.963 668.42 112.154 667.533 112.154C666.646 112.154 665.956 111.958 665.461 111.566C664.966 111.165 664.705 110.651 664.677 110.026H665.741C665.76 110.446 665.928 110.763 666.245 110.978C666.572 111.183 666.978 111.286 667.463 111.286C667.948 111.286 668.35 111.183 668.667 110.978C668.984 110.773 669.143 110.53 669.143 110.25C669.143 109.961 669.05 109.741 668.863 109.592C668.676 109.443 668.373 109.312 667.953 109.2L666.651 108.766C665.484 108.421 664.901 107.814 664.901 106.946ZM674.93 111.258C675.854 111.258 676.381 110.852 676.512 110.04H677.646C677.543 110.712 677.245 111.235 676.75 111.608C676.265 111.972 675.658 112.154 674.93 112.154C674.034 112.154 673.306 111.837 672.746 111.202C672.186 110.558 671.906 109.704 671.906 108.64C671.906 107.576 672.186 106.727 672.746 106.092C673.315 105.457 674.067 105.14 675 105.14C675.943 105.14 676.643 105.504 677.1 106.232C677.567 106.96 677.73 107.847 677.59 108.892H673.012C673.012 109.583 673.18 110.152 673.516 110.6C673.852 111.039 674.323 111.258 674.93 111.258ZM675.742 106.19C675.527 106.078 675.266 106.022 674.958 106.022C674.389 106.022 673.936 106.218 673.6 106.61C673.273 106.993 673.082 107.473 673.026 108.052H676.596C676.596 107.119 676.311 106.498 675.742 106.19ZM683.157 105.14C682.093 105.14 681.342 105.625 680.903 106.596L680.777 105.308H679.825V112H680.931V108.71C680.95 107.898 681.132 107.263 681.477 106.806C681.822 106.349 682.275 106.12 682.835 106.12C683.395 106.12 683.824 106.283 684.123 106.61C684.431 106.937 684.585 107.422 684.585 108.066V112H685.677V108.066C685.677 107.161 685.453 106.447 685.005 105.924C684.566 105.401 683.95 105.14 683.157 105.14ZM681.729 103.026C681.43 103.026 681.164 103.264 680.931 103.74L680.483 103.474C680.595 102.998 680.758 102.639 680.973 102.396C681.188 102.144 681.416 102.018 681.659 102.018C681.902 102.018 682.182 102.097 682.499 102.256C682.928 102.471 683.204 102.606 683.325 102.662C683.456 102.718 683.582 102.746 683.703 102.746C683.824 102.746 683.95 102.69 684.081 102.578C684.212 102.457 684.324 102.27 684.417 102.018L684.907 102.34C684.804 102.788 684.636 103.133 684.403 103.376C684.179 103.619 683.969 103.74 683.773 103.74C683.586 103.74 683.414 103.712 683.255 103.656C683.096 103.6 682.877 103.502 682.597 103.362C682.317 103.213 682.126 103.119 682.023 103.082C681.93 103.045 681.832 103.026 681.729 103.026ZM690.682 105.14C691.616 105.14 692.367 105.443 692.936 106.05C693.515 106.657 693.804 107.525 693.804 108.654C693.804 109.774 693.515 110.637 692.936 111.244C692.367 111.851 691.616 112.154 690.682 112.154C689.749 112.154 688.993 111.851 688.414 111.244C687.845 110.637 687.56 109.774 687.56 108.654C687.56 107.525 687.845 106.657 688.414 106.05C688.993 105.443 689.749 105.14 690.682 105.14ZM692.684 108.654C692.684 107.851 692.516 107.226 692.18 106.778C691.844 106.321 691.35 106.092 690.696 106.092C690.052 106.092 689.558 106.321 689.212 106.778C688.867 107.226 688.694 107.851 688.694 108.654C688.694 109.447 688.858 110.073 689.184 110.53C689.511 110.978 689.996 111.202 690.64 111.202C691.294 111.202 691.798 110.978 692.152 110.53C692.507 110.073 692.684 109.447 692.684 108.654ZM697.909 113.946C698.366 114.301 698.847 114.478 699.351 114.478C699.724 114.478 700.046 114.291 700.317 113.918C700.513 113.647 700.69 113.237 700.849 112.686L701.045 112L698.301 105.308H699.533L701.563 110.642L703.145 105.308H704.265L701.759 113.33C701.544 114.011 701.26 114.534 700.905 114.898C700.56 115.262 700.116 115.444 699.575 115.444C699.043 115.444 698.488 115.281 697.909 114.954V113.946ZM708.04 103.194H714.886V104.146H712.016V112H710.91V104.146H708.04V103.194ZM717.641 111.258C718.565 111.258 719.092 110.852 719.223 110.04H720.357C720.254 110.712 719.956 111.235 719.461 111.608C718.976 111.972 718.369 112.154 717.641 112.154C716.745 112.154 716.017 111.837 715.457 111.202C714.897 110.558 714.617 109.704 714.617 108.64C714.617 107.576 714.897 106.727 715.457 106.092C716.026 105.457 716.778 105.14 717.711 105.14C718.654 105.14 719.354 105.504 719.811 106.232C720.278 106.96 720.441 107.847 720.301 108.892H715.723C715.723 109.583 715.891 110.152 716.227 110.6C716.563 111.039 717.034 111.258 717.641 111.258ZM718.453 106.19C718.238 106.078 717.977 106.022 717.669 106.022C717.1 106.022 716.647 106.218 716.311 106.61C715.984 106.993 715.793 107.473 715.737 108.052H719.307C719.307 107.119 719.022 106.498 718.453 106.19ZM722.186 106.946C722.186 106.395 722.419 105.957 722.886 105.63C723.362 105.303 724.001 105.14 724.804 105.14C725.607 105.14 726.232 105.308 726.68 105.644C727.137 105.98 727.375 106.405 727.394 106.918H726.316C726.232 106.311 725.719 106.008 724.776 106.008C724.319 106.008 723.964 106.111 723.712 106.316C723.469 106.521 723.348 106.745 723.348 106.988C723.348 107.221 723.441 107.422 723.628 107.59C723.815 107.749 724.113 107.889 724.524 108.01L725.868 108.458C726.437 108.635 726.871 108.864 727.17 109.144C727.478 109.415 727.632 109.793 727.632 110.278C727.632 110.754 727.385 111.188 726.89 111.58C726.395 111.963 725.705 112.154 724.818 112.154C723.931 112.154 723.241 111.958 722.746 111.566C722.251 111.165 721.99 110.651 721.962 110.026H723.026C723.045 110.446 723.213 110.763 723.53 110.978C723.857 111.183 724.263 111.286 724.748 111.286C725.233 111.286 725.635 111.183 725.952 110.978C726.269 110.773 726.428 110.53 726.428 110.25C726.428 109.961 726.335 109.741 726.148 109.592C725.961 109.443 725.658 109.312 725.238 109.2L723.936 108.766C722.769 108.421 722.186 107.814 722.186 106.946ZM733.405 111.804C732.603 112.177 731.87 112.257 731.207 112.042C730.731 111.893 730.395 111.58 730.199 111.104C730.097 110.871 730.045 110.591 730.045 110.264V106.148H728.967V105.308H730.045V103.446H731.137V105.308H733.237V106.148H731.137V110.25C731.137 110.931 731.455 111.272 732.089 111.272C732.435 111.272 732.822 111.188 733.251 111.02L733.405 111.804ZM737.479 111.258C738.403 111.258 738.93 110.852 739.061 110.04H740.195C740.092 110.712 739.794 111.235 739.299 111.608C738.814 111.972 738.207 112.154 737.479 112.154C736.583 112.154 735.855 111.837 735.295 111.202C734.735 110.558 734.455 109.704 734.455 108.64C734.455 107.576 734.735 106.727 735.295 106.092C735.864 105.457 736.616 105.14 737.549 105.14C738.492 105.14 739.192 105.504 739.649 106.232C740.116 106.96 740.279 107.847 740.139 108.892H735.561C735.561 109.583 735.729 110.152 736.065 110.6C736.401 111.039 736.872 111.258 737.479 111.258ZM738.291 106.19C738.076 106.078 737.815 106.022 737.507 106.022C736.938 106.022 736.485 106.218 736.149 106.61C735.822 106.993 735.631 107.473 735.575 108.052H739.145C739.145 107.119 738.86 106.498 738.291 106.19ZM744.782 105.14C745.715 105.14 746.467 105.443 747.036 106.05C747.615 106.657 747.904 107.525 747.904 108.654C747.904 109.774 747.615 110.637 747.036 111.244C746.467 111.851 745.715 112.154 744.782 112.154C743.849 112.154 743.093 111.851 742.514 111.244C741.945 110.637 741.66 109.774 741.66 108.654C741.66 107.525 741.945 106.657 742.514 106.05C743.093 105.443 743.849 105.14 744.782 105.14ZM746.784 108.654C746.784 107.851 746.616 107.226 746.28 106.778C745.944 106.321 745.449 106.092 744.796 106.092C744.152 106.092 743.657 106.321 743.312 106.778C742.967 107.226 742.794 107.851 742.794 108.654C742.794 109.447 742.957 110.073 743.284 110.53C743.611 110.978 744.096 111.202 744.74 111.202C745.393 111.202 745.897 110.978 746.252 110.53C746.607 110.073 746.784 109.447 746.784 108.654ZM662.779 119.194L665.747 125.158L668.687 119.194H670.241V128H669.135V120.762L666.111 126.894H665.369L662.303 120.664V128H661.197V119.194H662.779ZM675.374 127.258C676.298 127.258 676.826 126.852 676.956 126.04H678.09C677.988 126.712 677.689 127.235 677.194 127.608C676.709 127.972 676.102 128.154 675.374 128.154C674.478 128.154 673.75 127.837 673.19 127.202C672.63 126.558 672.35 125.704 672.35 124.64C672.35 123.576 672.63 122.727 673.19 122.092C673.76 121.457 674.511 121.14 675.444 121.14C676.387 121.14 677.087 121.504 677.544 122.232C678.011 122.96 678.174 123.847 678.034 124.892H673.456C673.456 125.583 673.624 126.152 673.96 126.6C674.296 127.039 674.768 127.258 675.374 127.258ZM676.186 122.19C675.972 122.078 675.71 122.022 675.402 122.022C674.833 122.022 674.38 122.218 674.044 122.61C673.718 122.993 673.526 123.473 673.47 124.052H677.04C677.04 123.119 676.756 122.498 676.186 122.19ZM683.769 127.804C682.967 128.177 682.234 128.257 681.571 128.042C681.095 127.893 680.759 127.58 680.563 127.104C680.461 126.871 680.409 126.591 680.409 126.264V122.148H679.331V121.308H680.409V119.446H681.501V121.308H683.601V122.148H681.501V126.25C681.501 126.931 681.819 127.272 682.453 127.272C682.799 127.272 683.186 127.188 683.615 127.02L683.769 127.804ZM687.941 121.14C688.874 121.14 689.626 121.443 690.195 122.05C690.774 122.657 691.063 123.525 691.063 124.654C691.063 125.774 690.774 126.637 690.195 127.244C689.626 127.851 688.874 128.154 687.941 128.154C687.008 128.154 686.252 127.851 685.673 127.244C685.104 126.637 684.819 125.774 684.819 124.654C684.819 123.525 685.104 122.657 685.673 122.05C686.252 121.443 687.008 121.14 687.941 121.14ZM689.943 124.654C689.943 123.851 689.775 123.226 689.439 122.778C689.103 122.321 688.608 122.092 687.955 122.092C687.311 122.092 686.816 122.321 686.471 122.778C686.126 123.226 685.953 123.851 685.953 124.654C685.953 125.447 686.116 126.073 686.443 126.53C686.77 126.978 687.255 127.202 687.899 127.202C688.552 127.202 689.056 126.978 689.411 126.53C689.766 126.073 689.943 125.447 689.943 124.654ZM697.558 122.302V118.466H698.65V128H697.754L697.614 126.88C697.399 127.3 697.114 127.617 696.76 127.832C696.405 128.047 696.018 128.154 695.598 128.154C694.748 128.154 694.034 127.827 693.456 127.174C692.886 126.521 692.602 125.671 692.602 124.626C692.602 123.571 692.882 122.727 693.442 122.092C694.011 121.457 694.725 121.14 695.584 121.14C696.452 121.14 697.11 121.527 697.558 122.302ZM695.654 122.12C695.112 122.12 694.655 122.349 694.282 122.806C693.918 123.263 693.736 123.875 693.736 124.64C693.736 125.405 693.922 126.021 694.296 126.488C694.669 126.945 695.117 127.174 695.64 127.174C696.162 127.174 696.606 127.001 696.97 126.656C697.343 126.301 697.539 125.83 697.558 125.242V124.15C697.558 123.525 697.376 123.03 697.012 122.666C696.648 122.302 696.195 122.12 695.654 122.12ZM703.896 121.14C704.83 121.14 705.581 121.443 706.15 122.05C706.729 122.657 707.018 123.525 707.018 124.654C707.018 125.774 706.729 126.637 706.15 127.244C705.581 127.851 704.83 128.154 703.896 128.154C702.963 128.154 702.207 127.851 701.628 127.244C701.059 126.637 700.774 125.774 700.774 124.654C700.774 123.525 701.059 122.657 701.628 122.05C702.207 121.443 702.963 121.14 703.896 121.14ZM705.898 124.654C705.898 123.851 705.73 123.226 705.394 122.778C705.058 122.321 704.564 122.092 703.91 122.092C703.266 122.092 702.772 122.321 702.426 122.778C702.081 123.226 701.908 123.851 701.908 124.654C701.908 125.447 702.072 126.073 702.398 126.53C702.725 126.978 703.21 127.202 703.854 127.202C704.508 127.202 705.012 126.978 705.366 126.53C705.721 126.073 705.898 125.447 705.898 124.654ZM709.131 118.466H710.237V128H709.131V118.466ZM715.463 121.14C716.396 121.14 717.147 121.443 717.717 122.05C718.295 122.657 718.585 123.525 718.585 124.654C718.585 125.774 718.295 126.637 717.717 127.244C717.147 127.851 716.396 128.154 715.463 128.154C714.529 128.154 713.773 127.851 713.195 127.244C712.625 126.637 712.341 125.774 712.341 124.654C712.341 123.525 712.625 122.657 713.195 122.05C713.773 121.443 714.529 121.14 715.463 121.14ZM717.465 124.654C717.465 123.851 717.297 123.226 716.961 122.778C716.625 122.321 716.13 122.092 715.477 122.092C714.833 122.092 714.338 122.321 713.993 122.778C713.647 123.226 713.475 123.851 713.475 124.654C713.475 125.447 713.638 126.073 713.965 126.53C714.291 126.978 714.777 127.202 715.421 127.202C716.074 127.202 716.578 126.978 716.933 126.53C717.287 126.073 717.465 125.447 717.465 124.654ZM720.977 127.79C720.417 127.519 720.137 127.104 720.137 126.544C720.137 126.255 720.245 126.003 720.459 125.788C720.683 125.564 720.959 125.415 721.285 125.34C720.781 124.892 720.529 124.304 720.529 123.576C720.529 122.848 720.786 122.26 721.299 121.812C721.822 121.364 722.438 121.14 723.147 121.14C723.857 121.14 724.459 121.308 724.953 121.644C725.019 121.149 725.215 120.753 725.541 120.454C725.877 120.155 726.316 120.006 726.857 120.006L726.759 121.098C725.938 121.098 725.509 121.443 725.471 122.134C725.798 122.535 725.961 123.016 725.961 123.576C725.961 124.295 725.7 124.887 725.177 125.354C724.664 125.811 724.02 126.04 723.245 126.04C722.713 126.04 722.242 125.933 721.831 125.718C721.645 125.755 721.477 125.844 721.327 125.984C721.178 126.115 721.103 126.297 721.103 126.53C721.103 127.025 721.514 127.272 722.335 127.272H724.939C725.565 127.272 726.059 127.407 726.423 127.678C726.787 127.939 726.969 128.308 726.969 128.784C726.969 129.493 726.61 130.114 725.891 130.646C725.182 131.178 724.281 131.444 723.189 131.444C722.097 131.444 721.239 131.239 720.613 130.828C719.988 130.427 719.675 129.918 719.675 129.302C719.675 128.901 719.792 128.574 720.025 128.322C720.268 128.07 720.585 127.893 720.977 127.79ZM720.767 129.26C720.767 129.615 720.959 129.918 721.341 130.17C721.733 130.431 722.321 130.562 723.105 130.562C723.899 130.562 724.557 130.389 725.079 130.044C725.611 129.708 725.877 129.311 725.877 128.854C725.877 128.639 725.798 128.453 725.639 128.294C725.49 128.145 725.257 128.07 724.939 128.07H722.237C721.761 128.089 721.397 128.201 721.145 128.406C720.893 128.621 720.767 128.905 720.767 129.26ZM724.883 123.576C724.883 123.091 724.739 122.699 724.449 122.4C724.16 122.092 723.759 121.938 723.245 121.938C722.741 121.938 722.345 122.092 722.055 122.4C721.766 122.699 721.621 123.091 721.621 123.576C721.621 124.061 721.766 124.463 722.055 124.78C722.354 125.088 722.755 125.242 723.259 125.242C723.763 125.242 724.16 125.083 724.449 124.766C724.739 124.449 724.883 124.052 724.883 123.576ZM728.683 128H729.789V121.294H728.683V128ZM731.091 118.746L727.675 120.328L727.353 119.628L730.643 117.766L731.091 118.746ZM736.941 123.66C736.941 123.053 736.815 122.619 736.563 122.358C736.311 122.097 735.942 121.966 735.457 121.966C734.981 121.966 734.593 122.064 734.295 122.26C734.005 122.447 733.861 122.745 733.861 123.156H732.643C732.643 122.129 733.193 121.495 734.295 121.252C734.631 121.177 734.995 121.14 735.387 121.14C736.217 121.14 736.866 121.35 737.333 121.77C737.799 122.19 738.033 122.829 738.033 123.688V128H737.081L736.969 126.88C736.558 127.729 735.816 128.154 734.743 128.154C734.024 128.154 733.445 127.953 733.007 127.552C732.577 127.151 732.363 126.651 732.363 126.054C732.363 125.457 732.601 124.99 733.077 124.654C733.562 124.318 734.164 124.15 734.883 124.15C735.601 124.15 736.287 124.271 736.941 124.514V123.66ZM736.941 125.214C736.278 125.027 735.699 124.934 735.205 124.934C734.71 124.934 734.309 125.023 734.001 125.2C733.693 125.377 733.539 125.657 733.539 126.04C733.539 126.88 734.015 127.3 734.967 127.3C735.508 127.3 735.97 127.109 736.353 126.726C736.745 126.334 736.941 125.83 736.941 125.214Z" fill="#333333"/>
<path d="M805.719 103.194C807.045 103.194 808.104 103.595 808.897 104.398C809.7 105.191 810.101 106.26 810.101 107.604C810.101 108.939 809.7 110.007 808.897 110.81C808.104 111.603 807.045 112 805.719 112H803.129V103.194H805.719ZM804.235 111.034H805.719C806.699 111.034 807.479 110.712 808.057 110.068C808.636 109.415 808.925 108.589 808.925 107.59C808.925 106.591 808.631 105.775 808.043 105.14C807.465 104.496 806.69 104.174 805.719 104.174H804.235V111.034ZM812.469 105.294H813.575V112H812.469V105.294ZM813.015 103.726C812.791 103.726 812.614 103.665 812.483 103.544C812.362 103.413 812.301 103.245 812.301 103.04C812.301 102.825 812.362 102.657 812.483 102.536C812.614 102.405 812.791 102.34 813.015 102.34C813.239 102.34 813.417 102.405 813.547 102.536C813.687 102.657 813.757 102.825 813.757 103.04C813.757 103.245 813.687 103.413 813.547 103.544C813.417 103.665 813.239 103.726 813.015 103.726ZM816.233 106.946C816.233 106.395 816.466 105.957 816.933 105.63C817.409 105.303 818.048 105.14 818.851 105.14C819.654 105.14 820.279 105.308 820.727 105.644C821.184 105.98 821.422 106.405 821.441 106.918H820.363C820.279 106.311 819.766 106.008 818.823 106.008C818.366 106.008 818.011 106.111 817.759 106.316C817.516 106.521 817.395 106.745 817.395 106.988C817.395 107.221 817.488 107.422 817.675 107.59C817.862 107.749 818.16 107.889 818.571 108.01L819.915 108.458C820.484 108.635 820.918 108.864 821.217 109.144C821.525 109.415 821.679 109.793 821.679 110.278C821.679 110.754 821.432 111.188 820.937 111.58C820.442 111.963 819.752 112.154 818.865 112.154C817.978 112.154 817.288 111.958 816.793 111.566C816.298 111.165 816.037 110.651 816.009 110.026H817.073C817.092 110.446 817.26 110.763 817.577 110.978C817.904 111.183 818.31 111.286 818.795 111.286C819.28 111.286 819.682 111.183 819.999 110.978C820.316 110.773 820.475 110.53 820.475 110.25C820.475 109.961 820.382 109.741 820.195 109.592C820.008 109.443 819.705 109.312 819.285 109.2L817.983 108.766C816.816 108.421 816.233 107.814 816.233 106.946ZM826.262 111.258C827.186 111.258 827.713 110.852 827.844 110.04H828.978C828.875 110.712 828.577 111.235 828.082 111.608C827.597 111.972 826.99 112.154 826.262 112.154C825.366 112.154 824.638 111.837 824.078 111.202C823.518 110.558 823.238 109.704 823.238 108.64C823.238 107.576 823.518 106.727 824.078 106.092C824.647 105.457 825.399 105.14 826.332 105.14C827.275 105.14 827.975 105.504 828.432 106.232C828.899 106.96 829.062 107.847 828.922 108.892H824.344C824.344 109.583 824.512 110.152 824.848 110.6C825.184 111.039 825.655 111.258 826.262 111.258ZM827.074 106.19C826.859 106.078 826.598 106.022 826.29 106.022C825.721 106.022 825.268 106.218 824.932 106.61C824.605 106.993 824.414 107.473 824.358 108.052H827.928C827.928 107.119 827.643 106.498 827.074 106.19ZM834.489 105.14C833.425 105.14 832.674 105.625 832.235 106.596L832.109 105.308H831.157V112H832.263V108.71C832.282 107.898 832.464 107.263 832.809 106.806C833.154 106.349 833.607 106.12 834.167 106.12C834.727 106.12 835.156 106.283 835.455 106.61C835.763 106.937 835.917 107.422 835.917 108.066V112H837.009V108.066C837.009 107.161 836.785 106.447 836.337 105.924C835.898 105.401 835.282 105.14 834.489 105.14ZM833.061 103.026C832.762 103.026 832.496 103.264 832.263 103.74L831.815 103.474C831.927 102.998 832.09 102.639 832.305 102.396C832.52 102.144 832.748 102.018 832.991 102.018C833.234 102.018 833.514 102.097 833.831 102.256C834.26 102.471 834.536 102.606 834.657 102.662C834.788 102.718 834.914 102.746 835.035 102.746C835.156 102.746 835.282 102.69 835.413 102.578C835.544 102.457 835.656 102.27 835.749 102.018L836.239 102.34C836.136 102.788 835.968 103.133 835.735 103.376C835.511 103.619 835.301 103.74 835.105 103.74C834.918 103.74 834.746 103.712 834.587 103.656C834.428 103.6 834.209 103.502 833.929 103.362C833.649 103.213 833.458 103.119 833.355 103.082C833.262 103.045 833.164 103.026 833.061 103.026ZM842.014 105.14C842.948 105.14 843.699 105.443 844.268 106.05C844.847 106.657 845.136 107.525 845.136 108.654C845.136 109.774 844.847 110.637 844.268 111.244C843.699 111.851 842.948 112.154 842.014 112.154C841.081 112.154 840.325 111.851 839.746 111.244C839.177 110.637 838.892 109.774 838.892 108.654C838.892 107.525 839.177 106.657 839.746 106.05C840.325 105.443 841.081 105.14 842.014 105.14ZM844.016 108.654C844.016 107.851 843.848 107.226 843.512 106.778C843.176 106.321 842.682 106.092 842.028 106.092C841.384 106.092 840.89 106.321 840.544 106.778C840.199 107.226 840.026 107.851 840.026 108.654C840.026 109.447 840.19 110.073 840.516 110.53C840.843 110.978 841.328 111.202 841.972 111.202C842.626 111.202 843.13 110.978 843.484 110.53C843.839 110.073 844.016 109.447 844.016 108.654ZM849.241 113.946C849.698 114.301 850.179 114.478 850.683 114.478C851.056 114.478 851.378 114.291 851.649 113.918C851.845 113.647 852.022 113.237 852.181 112.686L852.377 112L849.633 105.308H850.865L852.895 110.642L854.477 105.308H855.597L853.091 113.33C852.876 114.011 852.592 114.534 852.237 114.898C851.892 115.262 851.448 115.444 850.907 115.444C850.375 115.444 849.82 115.281 849.241 114.954V113.946ZM859.372 103.194H866.218V104.146H863.348V112H862.242V104.146H859.372V103.194ZM868.973 111.258C869.897 111.258 870.424 110.852 870.555 110.04H871.689C871.586 110.712 871.288 111.235 870.793 111.608C870.308 111.972 869.701 112.154 868.973 112.154C868.077 112.154 867.349 111.837 866.789 111.202C866.229 110.558 865.949 109.704 865.949 108.64C865.949 107.576 866.229 106.727 866.789 106.092C867.358 105.457 868.11 105.14 869.043 105.14C869.986 105.14 870.686 105.504 871.143 106.232C871.61 106.96 871.773 107.847 871.633 108.892H867.055C867.055 109.583 867.223 110.152 867.559 110.6C867.895 111.039 868.366 111.258 868.973 111.258ZM869.785 106.19C869.57 106.078 869.309 106.022 869.001 106.022C868.432 106.022 867.979 106.218 867.643 106.61C867.316 106.993 867.125 107.473 867.069 108.052H870.639C870.639 107.119 870.354 106.498 869.785 106.19ZM873.518 106.946C873.518 106.395 873.751 105.957 874.218 105.63C874.694 105.303 875.333 105.14 876.136 105.14C876.939 105.14 877.564 105.308 878.012 105.644C878.469 105.98 878.707 106.405 878.726 106.918H877.648C877.564 106.311 877.051 106.008 876.108 106.008C875.651 106.008 875.296 106.111 875.044 106.316C874.801 106.521 874.68 106.745 874.68 106.988C874.68 107.221 874.773 107.422 874.96 107.59C875.147 107.749 875.445 107.889 875.856 108.01L877.2 108.458C877.769 108.635 878.203 108.864 878.502 109.144C878.81 109.415 878.964 109.793 878.964 110.278C878.964 110.754 878.717 111.188 878.222 111.58C877.727 111.963 877.037 112.154 876.15 112.154C875.263 112.154 874.573 111.958 874.078 111.566C873.583 111.165 873.322 110.651 873.294 110.026H874.358C874.377 110.446 874.545 110.763 874.862 110.978C875.189 111.183 875.595 111.286 876.08 111.286C876.565 111.286 876.967 111.183 877.284 110.978C877.601 110.773 877.76 110.53 877.76 110.25C877.76 109.961 877.667 109.741 877.48 109.592C877.293 109.443 876.99 109.312 876.57 109.2L875.268 108.766C874.101 108.421 873.518 107.814 873.518 106.946ZM884.737 111.804C883.935 112.177 883.202 112.257 882.539 112.042C882.063 111.893 881.727 111.58 881.531 111.104C881.429 110.871 881.377 110.591 881.377 110.264V106.148H880.299V105.308H881.377V103.446H882.469V105.308H884.569V106.148H882.469V110.25C882.469 110.931 882.787 111.272 883.421 111.272C883.767 111.272 884.154 111.188 884.583 111.02L884.737 111.804ZM888.811 111.258C889.735 111.258 890.262 110.852 890.393 110.04H891.527C891.424 110.712 891.126 111.235 890.631 111.608C890.146 111.972 889.539 112.154 888.811 112.154C887.915 112.154 887.187 111.837 886.627 111.202C886.067 110.558 885.787 109.704 885.787 108.64C885.787 107.576 886.067 106.727 886.627 106.092C887.196 105.457 887.948 105.14 888.881 105.14C889.824 105.14 890.524 105.504 890.981 106.232C891.448 106.96 891.611 107.847 891.471 108.892H886.893C886.893 109.583 887.061 110.152 887.397 110.6C887.733 111.039 888.204 111.258 888.811 111.258ZM889.623 106.19C889.408 106.078 889.147 106.022 888.839 106.022C888.27 106.022 887.817 106.218 887.481 106.61C887.154 106.993 886.963 107.473 886.907 108.052H890.477C890.477 107.119 890.192 106.498 889.623 106.19ZM896.114 105.14C897.047 105.14 897.799 105.443 898.368 106.05C898.947 106.657 899.236 107.525 899.236 108.654C899.236 109.774 898.947 110.637 898.368 111.244C897.799 111.851 897.047 112.154 896.114 112.154C895.181 112.154 894.425 111.851 893.846 111.244C893.277 110.637 892.992 109.774 892.992 108.654C892.992 107.525 893.277 106.657 893.846 106.05C894.425 105.443 895.181 105.14 896.114 105.14ZM898.116 108.654C898.116 107.851 897.948 107.226 897.612 106.778C897.276 106.321 896.781 106.092 896.128 106.092C895.484 106.092 894.989 106.321 894.644 106.778C894.299 107.226 894.126 107.851 894.126 108.654C894.126 109.447 894.289 110.073 894.616 110.53C894.943 110.978 895.428 111.202 896.072 111.202C896.725 111.202 897.229 110.978 897.584 110.53C897.939 110.073 898.116 109.447 898.116 108.654ZM821.079 119.194C822.049 119.194 822.787 119.441 823.291 119.936C823.804 120.421 824.061 121.079 824.061 121.91C824.061 122.741 823.804 123.399 823.291 123.884C822.787 124.36 822.049 124.598 821.079 124.598H819.343V128H818.237V119.194H821.079ZM821.079 123.646C821.685 123.646 822.143 123.492 822.451 123.184C822.768 122.876 822.927 122.456 822.927 121.924C822.927 121.383 822.768 120.953 822.451 120.636C822.143 120.309 821.685 120.146 821.079 120.146H819.343V123.646H821.079ZM826.017 118.466H827.123V128H826.017V118.466ZM834.084 123.66C834.084 123.053 833.958 122.619 833.706 122.358C833.454 122.097 833.086 121.966 832.6 121.966C832.124 121.966 831.737 122.064 831.438 122.26C831.149 122.447 831.004 122.745 831.004 123.156H829.786C829.786 122.129 830.337 121.495 831.438 121.252C831.774 121.177 832.138 121.14 832.53 121.14C833.361 121.14 834.01 121.35 834.476 121.77C834.943 122.19 835.176 122.829 835.176 123.688V128H834.224L834.112 126.88C833.702 127.729 832.96 128.154 831.886 128.154C831.168 128.154 830.589 127.953 830.15 127.552C829.721 127.151 829.506 126.651 829.506 126.054C829.506 125.457 829.744 124.99 830.22 124.654C830.706 124.318 831.308 124.15 832.026 124.15C832.745 124.15 833.431 124.271 834.084 124.514V123.66ZM834.084 125.214C833.422 125.027 832.843 124.934 832.348 124.934C831.854 124.934 831.452 125.023 831.144 125.2C830.836 125.377 830.682 125.657 830.682 126.04C830.682 126.88 831.158 127.3 832.11 127.3C832.652 127.3 833.114 127.109 833.496 126.726C833.888 126.334 834.084 125.83 834.084 125.214ZM841.274 127.804C840.472 128.177 839.739 128.257 839.076 128.042C838.6 127.893 838.264 127.58 838.068 127.104C837.966 126.871 837.914 126.591 837.914 126.264V122.148H836.836V121.308H837.914V119.446H839.006V121.308H841.106V122.148H839.006V126.25C839.006 126.931 839.324 127.272 839.958 127.272C840.304 127.272 840.691 127.188 841.12 127.02L841.274 127.804ZM847.182 123.66C847.182 123.053 847.056 122.619 846.804 122.358C846.552 122.097 846.183 121.966 845.698 121.966C845.222 121.966 844.835 122.064 844.536 122.26C844.247 122.447 844.102 122.745 844.102 123.156H842.884C842.884 122.129 843.435 121.495 844.536 121.252C844.872 121.177 845.236 121.14 845.628 121.14C846.459 121.14 847.107 121.35 847.574 121.77C848.041 122.19 848.274 122.829 848.274 123.688V128H847.322L847.21 126.88C846.799 127.729 846.057 128.154 844.984 128.154C844.265 128.154 843.687 127.953 843.248 127.552C842.819 127.151 842.604 126.651 842.604 126.054C842.604 125.457 842.842 124.99 843.318 124.654C843.803 124.318 844.405 124.15 845.124 124.15C845.843 124.15 846.529 124.271 847.182 124.514V123.66ZM847.182 125.214C846.519 125.027 845.941 124.934 845.446 124.934C844.951 124.934 844.55 125.023 844.242 125.2C843.934 125.377 843.78 125.657 843.78 126.04C843.78 126.88 844.256 127.3 845.208 127.3C845.749 127.3 846.211 127.109 846.594 126.726C846.986 126.334 847.182 125.83 847.182 125.214ZM854.12 119.404C853.812 119.283 853.569 119.222 853.392 119.222C853.065 119.222 852.809 119.301 852.622 119.46C852.435 119.619 852.342 119.899 852.342 120.3V121.308H853.728V122.064H852.342V128H851.25V122.064H850.144V121.308H851.25V120.286C851.25 119.623 851.432 119.138 851.796 118.83C852.16 118.513 852.58 118.354 853.056 118.354C853.532 118.354 853.952 118.415 854.316 118.536L854.12 119.404ZM858.079 121.14C859.012 121.14 859.764 121.443 860.333 122.05C860.912 122.657 861.201 123.525 861.201 124.654C861.201 125.774 860.912 126.637 860.333 127.244C859.764 127.851 859.012 128.154 858.079 128.154C857.146 128.154 856.39 127.851 855.811 127.244C855.242 126.637 854.957 125.774 854.957 124.654C854.957 123.525 855.242 122.657 855.811 122.05C856.39 121.443 857.146 121.14 858.079 121.14ZM860.081 124.654C860.081 123.851 859.913 123.226 859.577 122.778C859.241 122.321 858.746 122.092 858.093 122.092C857.449 122.092 856.954 122.321 856.609 122.778C856.264 123.226 856.091 123.851 856.091 124.654C856.091 125.447 856.254 126.073 856.581 126.53C856.908 126.978 857.393 127.202 858.037 127.202C858.69 127.202 859.194 126.978 859.549 126.53C859.904 126.073 860.081 125.447 860.081 124.654ZM866.043 122.246C864.989 122.246 864.443 123.077 864.405 124.738V128H863.299V121.294H864.405V122.582C864.741 121.649 865.334 121.182 866.183 121.182C866.454 121.182 866.711 121.224 866.953 121.308L866.897 122.386C866.617 122.293 866.333 122.246 866.043 122.246ZM869.709 122.596C870.148 121.625 870.899 121.14 871.963 121.14C872.542 121.14 873.027 121.285 873.419 121.574C873.811 121.854 874.096 122.246 874.273 122.75C874.693 121.677 875.473 121.14 876.611 121.14C877.414 121.14 878.035 121.401 878.473 121.924C878.912 122.447 879.131 123.161 879.131 124.066V128H878.039V124.066C878.039 123.422 877.885 122.937 877.577 122.61C877.279 122.283 876.845 122.12 876.275 122.12C875.706 122.12 875.263 122.353 874.945 122.82C874.637 123.287 874.483 123.931 874.483 124.752V128H873.391V124.066C873.391 123.422 873.237 122.937 872.929 122.61C872.631 122.283 872.201 122.12 871.641 122.12C871.081 122.12 870.629 122.349 870.283 122.806C869.938 123.263 869.756 123.898 869.737 124.71V128H868.631V121.308H869.583L869.709 122.596ZM885.873 123.66C885.873 123.053 885.747 122.619 885.495 122.358C885.243 122.097 884.875 121.966 884.389 121.966C883.913 121.966 883.526 122.064 883.227 122.26C882.938 122.447 882.793 122.745 882.793 123.156H881.575C881.575 122.129 882.126 121.495 883.227 121.252C883.563 121.177 883.927 121.14 884.319 121.14C885.15 121.14 885.799 121.35 886.265 121.77C886.732 122.19 886.965 122.829 886.965 123.688V128H886.013L885.901 126.88C885.491 127.729 884.749 128.154 883.675 128.154C882.957 128.154 882.378 127.953 881.939 127.552C881.51 127.151 881.295 126.651 881.295 126.054C881.295 125.457 881.533 124.99 882.009 124.654C882.495 124.318 883.097 124.15 883.815 124.15C884.534 124.15 885.22 124.271 885.873 124.514V123.66ZM885.873 125.214C885.211 125.027 884.632 124.934 884.137 124.934C883.643 124.934 883.241 125.023 882.933 125.2C882.625 125.377 882.471 125.657 882.471 126.04C882.471 126.88 882.947 127.3 883.899 127.3C884.441 127.3 884.903 127.109 885.285 126.726C885.677 126.334 885.873 125.83 885.873 125.214Z" fill="#333333"/>
</svg>
