<svg width="737" height="164" viewBox="0 0 737 164" fill="none" xmlns="http://www.w3.org/2000/svg">
<path d="M112.25 61H105.375V56.875H113.625C114.312 56.875 115 56.2734 115 55.5C115 54.8125 114.312 54.125 113.625 54.125H88.875V50H95.75C97.2109 50 98.5 48.7969 98.5 47.25V36.25C98.5 34.7891 97.2109 33.5 95.75 33.5H79.25C77.7031 33.5 76.5 34.7891 76.5 36.25V47.25C76.5 48.7969 77.7031 50 79.25 50H86.125V54.125H61.375C60.6016 54.125 60 54.8125 60 55.5C60 56.2734 60.6016 56.875 61.375 56.875H69.625V61H62.75C61.2031 61 60 62.2891 60 63.75V74.75C60 76.2969 61.2031 77.5 62.75 77.5H79.25C80.7109 77.5 82 76.2969 82 74.75V63.75C82 62.2891 80.7109 61 79.25 61H72.375V56.875H102.625V61H95.75C94.2031 61 93 62.2891 93 63.75V74.75C93 76.2969 94.2031 77.5 95.75 77.5H112.25C113.711 77.5 115 76.2969 115 74.75V63.75C115 62.2891 113.711 61 112.25 61ZM79.25 47.25V36.25H95.75V47.25H79.25ZM79.25 63.75V74.75H62.75V63.75H79.25ZM112.25 74.75H95.75V63.75H112.25V74.75Z" fill="#333333"/>
<path d="M246.914 34.5H213.914C210.82 34.5 208.414 36.9922 208.414 40V64.6641C208.414 67.6719 210.82 70.0781 213.914 70.0781H222.164V77.2109C222.164 78.0703 223.109 78.5 223.797 78.0703L234.539 69.9922H246.914C249.922 69.9922 252.414 67.5 252.414 64.5781V40C252.414 36.9922 250.008 34.5 246.914 34.5ZM249.75 64.75C249.75 66.2969 248.461 67.5 247 67.5H234.539C233.938 67.5 233.422 67.7578 232.906 68.1016L225 74.0312V68.875C225 68.1875 224.312 67.5 223.625 67.5H214C212.453 67.5 211.25 66.2969 211.25 64.75V40C211.25 38.5391 212.453 37.25 214 37.25H247C248.461 37.25 249.75 38.5391 249.75 40V64.75ZM236.344 46.875L228.18 55.0391L224.57 51.4297C224.055 50.9141 223.109 50.9141 222.594 51.4297C222.078 51.9453 222.078 52.8906 222.594 53.4062L227.234 57.9609C227.492 58.2188 227.836 58.3906 228.18 58.3906C228.523 58.3906 228.867 58.2188 229.125 57.9609L238.32 48.7656C238.836 48.25 238.836 47.3906 238.32 46.875C237.805 46.3594 236.859 46.3594 236.344 46.875Z" fill="#333333"/>
<path d="M355.625 64.75H350.125C347.805 64.75 346 66.6406 346 68.875V74.375C346 76.6953 347.805 78.5 350.125 78.5H355.625C357.859 78.5 359.75 76.6953 359.75 74.375V68.875C359.75 66.6406 357.859 64.75 355.625 64.75ZM357 74.375C357 75.1484 356.312 75.75 355.625 75.75H350.125C349.352 75.75 348.75 75.1484 348.75 74.375V68.875C348.75 68.1875 349.352 67.5 350.125 67.5H355.625C356.312 67.5 357 68.1875 357 68.875V74.375ZM376.25 64.75H370.75C368.43 64.75 366.625 66.6406 366.625 68.875V74.375C366.625 76.6953 368.43 78.5 370.75 78.5H376.25C378.484 78.5 380.375 76.6953 380.375 74.375V68.875C380.375 66.6406 378.484 64.75 376.25 64.75ZM377.625 74.375C377.625 75.1484 376.938 75.75 376.25 75.75H370.75C369.977 75.75 369.375 75.1484 369.375 74.375V68.875C369.375 68.1875 369.977 67.5 370.75 67.5H376.25C376.938 67.5 377.625 68.1875 377.625 68.875V74.375ZM396.875 64.75H391.375C389.055 64.75 387.25 66.6406 387.25 68.875V74.375C387.25 76.6953 389.055 78.5 391.375 78.5H396.875C399.109 78.5 401 76.6953 401 74.375V68.875C401 66.6406 399.109 64.75 396.875 64.75ZM398.25 74.375C398.25 75.1484 397.562 75.75 396.875 75.75H391.375C390.602 75.75 390 75.1484 390 74.375V68.875C390 68.1875 390.602 67.5 391.375 67.5H396.875C397.562 67.5 398.25 68.1875 398.25 68.875V74.375ZM352.789 62C353.562 62 354.25 61.3984 354.25 60.625V57.875C354.25 57.1875 354.852 56.5 355.625 56.5H372.125V60.625C372.125 61.3984 372.727 62 373.5 62C374.188 62 374.875 61.3984 374.875 60.625V56.5H391.375C392.062 56.5 392.75 57.1875 392.75 57.875V60.625C392.75 61.3984 393.352 62 394.125 62C394.812 62 395.5 61.3984 395.5 60.625V57.875C395.5 55.6406 393.609 53.75 391.375 53.75H374.875V48.25H377.625C379.859 48.25 381.75 46.4453 381.75 44.125V38.625C381.75 36.3906 379.859 34.5 377.625 34.5H369.375C367.055 34.5 365.25 36.3906 365.25 38.625V44.125C365.25 46.4453 367.055 48.25 369.375 48.25H372.125V53.75H355.625C353.305 53.75 351.5 55.6406 351.5 57.875V60.625C351.5 61.3984 352.102 62 352.789 62ZM369.375 45.5C368.602 45.5 368 44.8984 368 44.125V38.625C368 37.9375 368.602 37.25 369.375 37.25H377.625C378.312 37.25 379 37.9375 379 38.625V44.125C379 44.8984 378.312 45.5 377.625 45.5H369.375Z" fill="#333333"/>
<path d="M538.5 55.5C538.5 55.8438 538.328 56.1875 538.07 56.4453L531.195 63.3203C530.938 63.6641 530.594 63.75 530.25 63.75C529.391 63.75 528.875 63.1484 528.875 62.375C528.875 62.0312 528.961 61.6875 529.219 61.4297L533.773 56.875H517.875V72.8594L522.344 68.3047C522.602 68.0469 522.945 67.875 523.375 67.875C524.148 67.875 524.75 68.5625 524.75 69.25C524.75 69.6797 524.578 70.0234 524.32 70.2812L517.445 77.1562C517.188 77.4141 516.844 77.5 516.5 77.5C516.07 77.5 515.727 77.4141 515.469 77.1562L508.594 70.2812C508.336 70.0234 508.25 69.6797 508.25 69.25C508.25 68.5625 508.766 67.875 509.625 67.875C509.969 67.875 510.312 68.0469 510.57 68.3047L515.125 72.8594V56.875H499.141L503.695 61.4297C503.953 61.6875 504.125 62.0312 504.125 62.375C504.125 63.1484 503.523 63.75 502.75 63.75C502.32 63.75 501.977 63.6641 501.719 63.4062L494.844 56.5312C494.586 56.2734 494.5 55.9297 494.5 55.5C494.5 55.0703 494.586 54.7266 494.844 54.4688L501.719 47.5938C501.977 47.4219 502.32 47.25 502.75 47.25C503.523 47.25 504.125 47.9375 504.125 48.625C504.125 49.0547 503.953 49.3984 503.695 49.6562L499.141 54.125H515.125V38.2266L510.57 42.7812C510.312 43.0391 509.969 43.125 509.625 43.125C508.766 43.125 508.25 42.5234 508.25 41.75C508.25 41.4062 508.336 41.0625 508.594 40.8047L515.469 33.9297C515.727 33.6719 516.07 33.5 516.5 33.5C516.844 33.5 517.188 33.6719 517.445 33.9297L524.32 40.8047C524.578 41.0625 524.75 41.4062 524.75 41.75C524.75 42.5234 524.148 43.125 523.375 43.125C522.945 43.125 522.602 43.0391 522.344 42.7812L517.875 38.2266V54.125H533.773L529.219 49.6562C528.961 49.3984 528.875 49.0547 528.875 48.625C528.875 47.9375 529.391 47.25 530.25 47.25C530.594 47.25 530.938 47.4219 531.195 47.6797L538.07 54.5547C538.328 54.8125 538.5 55.1562 538.5 55.5Z" fill="#333333"/>
<path d="M668.219 51C668.477 51 668.734 51.1719 668.906 51.3438C669.078 51.5156 669.25 51.7734 669.25 52.0312V66.4688C669.25 66.8125 669.078 67.0703 668.906 67.2422C668.734 67.4141 668.477 67.5 668.219 67.5H651.031C650.688 67.5 650.43 67.4141 650.258 67.2422C650.086 67.0703 650 66.8125 650 66.4688V62H642.781C642.438 62 642.18 61.9141 642.008 61.7422C641.836 61.5703 641.75 61.3125 641.75 60.9688V46.5312C641.75 46.2734 641.836 46.0156 642.008 45.8438C642.18 45.6719 642.438 45.5 642.781 45.5H659.969C660.227 45.5 660.484 45.6719 660.656 45.8438C660.828 46.0156 661 46.2734 661 46.5312V51H668.219ZM644.5 48.25V59.25H658.25V48.25H644.5ZM666.5 64.75V53.75H661V60.9688C661 61.3125 660.828 61.5703 660.656 61.7422C660.484 61.9141 660.227 62 659.969 62H652.75V64.75H666.5ZM676.469 45.5H674.75V67.5H676.469C676.727 67.5 676.984 67.6719 677.156 67.8438C677.328 68.0156 677.5 68.2734 677.5 68.5312V74.7188C677.5 75.0625 677.328 75.3203 677.156 75.4922C676.984 75.6641 676.727 75.75 676.469 75.75H670.281C669.938 75.75 669.68 75.6641 669.508 75.4922C669.336 75.3203 669.25 75.0625 669.25 74.7188V73H641.75V74.7188C641.75 75.0625 641.578 75.3203 641.406 75.4922C641.234 75.6641 640.977 75.75 640.719 75.75H634.531C634.188 75.75 633.93 75.6641 633.758 75.4922C633.586 75.3203 633.5 75.0625 633.5 74.7188V68.5312C633.5 68.2734 633.586 68.0156 633.758 67.8438C633.93 67.6719 634.188 67.5 634.531 67.5H636.25V45.5H634.531C634.188 45.5 633.93 45.4141 633.758 45.2422C633.586 45.0703 633.5 44.8125 633.5 44.4688V38.2812C633.5 38.0234 633.586 37.7656 633.758 37.5938C633.93 37.4219 634.188 37.25 634.531 37.25H640.719C640.977 37.25 641.234 37.4219 641.406 37.5938C641.578 37.7656 641.75 38.0234 641.75 38.2812V40H669.25V38.2812C669.25 38.0234 669.336 37.7656 669.508 37.5938C669.68 37.4219 669.938 37.25 670.281 37.25H676.469C676.727 37.25 676.984 37.4219 677.156 37.5938C677.328 37.7656 677.5 38.0234 677.5 38.2812V44.4688C677.5 44.8125 677.328 45.0703 677.156 45.2422C676.984 45.4141 676.727 45.5 676.469 45.5ZM672 67.5V45.5H670.281C669.938 45.5 669.68 45.4141 669.508 45.2422C669.336 45.0703 669.25 44.8125 669.25 44.4688V42.75H641.75V44.4688C641.75 44.8125 641.578 45.0703 641.406 45.2422C641.234 45.4141 640.977 45.5 640.719 45.5H639V67.5H640.719C640.977 67.5 641.234 67.6719 641.406 67.8438C641.578 68.0156 641.75 68.2734 641.75 68.5312V70.25H669.25V68.5312C669.25 68.2734 669.336 68.0156 669.508 67.8438C669.68 67.6719 669.938 67.5 670.281 67.5H672ZM639 40H636.25V42.75H639V40ZM674.75 40H672V42.75H674.75V40ZM639 70.25H636.25V73H639V70.25ZM674.75 70.25H672V73H674.75V70.25Z" fill="#333333"/>
<path d="M29.7555 104.194H35.1735V105.146H30.8615V108.1H34.9215V109.038H30.8615V112.034H35.1735V113H29.7555V104.194ZM38.6948 107.596C39.1335 106.625 39.8848 106.14 40.9488 106.14C41.7421 106.14 42.3581 106.401 42.7968 106.924C43.2448 107.447 43.4688 108.161 43.4688 109.066V113H42.3768V109.066C42.3768 108.422 42.2228 107.937 41.9148 107.61C41.6161 107.283 41.1868 107.12 40.6268 107.12C40.0668 107.12 39.6141 107.349 39.2688 107.806C38.9235 108.263 38.7415 108.898 38.7228 109.71V113H37.6168V106.308H38.5688L38.6948 107.596ZM49.5663 112.804C48.7637 113.177 48.031 113.257 47.3683 113.042C46.8923 112.893 46.5563 112.58 46.3603 112.104C46.2577 111.871 46.2063 111.591 46.2063 111.264V107.148H45.1283V106.308H46.2063V104.446H47.2983V106.308H49.3983V107.148H47.2983V111.25C47.2983 111.931 47.6157 112.272 48.2503 112.272C48.5957 112.272 48.983 112.188 49.4123 112.02L49.5663 112.804ZM53.64 112.258C54.564 112.258 55.0913 111.852 55.222 111.04H56.356C56.2533 111.712 55.9547 112.235 55.46 112.608C54.9747 112.972 54.368 113.154 53.64 113.154C52.744 113.154 52.016 112.837 51.456 112.202C50.896 111.558 50.616 110.704 50.616 109.64C50.616 108.576 50.896 107.727 51.456 107.092C52.0253 106.457 52.7767 106.14 53.71 106.14C54.6527 106.14 55.3527 106.504 55.81 107.232C56.2767 107.96 56.44 108.847 56.3 109.892H51.722C51.722 110.583 51.89 111.152 52.226 111.6C52.562 112.039 53.0333 112.258 53.64 112.258ZM54.452 107.19C54.2373 107.078 53.976 107.022 53.668 107.022C53.0987 107.022 52.646 107.218 52.31 107.61C51.9833 107.993 51.792 108.473 51.736 109.052H55.306C55.306 108.119 55.0213 107.498 54.452 107.19ZM59.5991 107.596C60.0378 106.625 60.7891 106.14 61.8531 106.14C62.6464 106.14 63.2624 106.401 63.7011 106.924C64.1491 107.447 64.3731 108.161 64.3731 109.066V113H63.2811V109.066C63.2811 108.422 63.1271 107.937 62.8191 107.61C62.5204 107.283 62.0911 107.12 61.5311 107.12C60.9711 107.12 60.5184 107.349 60.1731 107.806C59.8278 108.263 59.6458 108.898 59.6271 109.71V113H58.5211V106.308H59.4731L59.5991 107.596ZM71.3526 107.302V103.466H72.4446V113H71.5486L71.4086 111.88C71.194 112.3 70.9093 112.617 70.5546 112.832C70.2 113.047 69.8126 113.154 69.3926 113.154C68.5433 113.154 67.8293 112.827 67.2506 112.174C66.6813 111.521 66.3966 110.671 66.3966 109.626C66.3966 108.571 66.6766 107.727 67.2366 107.092C67.806 106.457 68.52 106.14 69.3786 106.14C70.2466 106.14 70.9046 106.527 71.3526 107.302ZM69.4486 107.12C68.9073 107.12 68.45 107.349 68.0766 107.806C67.7126 108.263 67.5306 108.875 67.5306 109.64C67.5306 110.405 67.7173 111.021 68.0906 111.488C68.464 111.945 68.912 112.174 69.4346 112.174C69.9573 112.174 70.4006 112.001 70.7646 111.656C71.138 111.301 71.334 110.83 71.3526 110.242V109.15C71.3526 108.525 71.1706 108.03 70.8066 107.666C70.4426 107.302 69.99 107.12 69.4486 107.12ZM75.3531 106.294H76.4591V113H75.3531V106.294ZM75.8991 104.726C75.6751 104.726 75.4978 104.665 75.3671 104.544C75.2458 104.413 75.1851 104.245 75.1851 104.04C75.1851 103.825 75.2458 103.657 75.3671 103.536C75.4978 103.405 75.6751 103.34 75.8991 103.34C76.1231 103.34 76.3005 103.405 76.4311 103.536C76.5711 103.657 76.6411 103.825 76.6411 104.04C76.6411 104.245 76.5711 104.413 76.4311 104.544C76.3005 104.665 76.1231 104.726 75.8991 104.726ZM80.5307 107.596C80.9694 106.625 81.7207 106.14 82.7847 106.14C83.3634 106.14 83.8487 106.285 84.2407 106.574C84.6327 106.854 84.9174 107.246 85.0947 107.75C85.5147 106.677 86.2941 106.14 87.4327 106.14C88.2354 106.14 88.8561 106.401 89.2947 106.924C89.7334 107.447 89.9527 108.161 89.9527 109.066V113H88.8607V109.066C88.8607 108.422 88.7067 107.937 88.3987 107.61C88.1001 107.283 87.6661 107.12 87.0967 107.12C86.5274 107.12 86.0841 107.353 85.7667 107.82C85.4587 108.287 85.3047 108.931 85.3047 109.752V113H84.2127V109.066C84.2127 108.422 84.0587 107.937 83.7507 107.61C83.4521 107.283 83.0227 107.12 82.4627 107.12C81.9027 107.12 81.4501 107.349 81.1047 107.806C80.7594 108.263 80.5774 108.898 80.5587 109.71V113H79.4527V106.308H80.4047L80.5307 107.596ZM92.6207 106.294H93.7267V113H92.6207V106.294ZM93.1667 104.726C92.9427 104.726 92.7654 104.665 92.6347 104.544C92.5134 104.413 92.4527 104.245 92.4527 104.04C92.4527 103.825 92.5134 103.657 92.6347 103.536C92.7654 103.405 92.9427 103.34 93.1667 103.34C93.3907 103.34 93.5681 103.405 93.6987 103.536C93.8387 103.657 93.9087 103.825 93.9087 104.04C93.9087 104.245 93.8387 104.413 93.6987 104.544C93.5681 104.665 93.3907 104.726 93.1667 104.726ZM99.0443 112.258C99.9683 112.258 100.496 111.852 100.626 111.04H101.76C101.658 111.712 101.359 112.235 100.864 112.608C100.379 112.972 99.7723 113.154 99.0443 113.154C98.1483 113.154 97.4203 112.837 96.8603 112.202C96.3003 111.558 96.0203 110.704 96.0203 109.64C96.0203 108.576 96.3003 107.727 96.8603 107.092C97.4296 106.457 98.181 106.14 99.1143 106.14C100.057 106.14 100.757 106.504 101.214 107.232C101.681 107.96 101.844 108.847 101.704 109.892H97.1263C97.1263 110.583 97.2943 111.152 97.6303 111.6C97.9663 112.039 98.4376 112.258 99.0443 112.258ZM99.8563 107.19C99.6416 107.078 99.3803 107.022 99.0723 107.022C98.503 107.022 98.0503 107.218 97.7143 107.61C97.3876 107.993 97.1963 108.473 97.1403 109.052H100.71C100.71 108.119 100.426 107.498 99.8563 107.19ZM105.003 107.596C105.442 106.625 106.193 106.14 107.257 106.14C108.051 106.14 108.667 106.401 109.105 106.924C109.553 107.447 109.777 108.161 109.777 109.066V113H108.685V109.066C108.685 108.422 108.531 107.937 108.223 107.61C107.925 107.283 107.495 107.12 106.935 107.12C106.375 107.12 105.923 107.349 105.577 107.806C105.232 108.263 105.05 108.898 105.031 109.71V113H103.925V106.308H104.877L105.003 107.596ZM115.875 112.804C115.072 113.177 114.34 113.257 113.677 113.042C113.201 112.893 112.865 112.58 112.669 112.104C112.566 111.871 112.515 111.591 112.515 111.264V107.148H111.437V106.308H112.515V104.446H113.607V106.308H115.707V107.148H113.607V111.25C113.607 111.931 113.924 112.272 114.559 112.272C114.904 112.272 115.292 112.188 115.721 112.02L115.875 112.804ZM120.047 106.14C120.98 106.14 121.731 106.443 122.301 107.05C122.879 107.657 123.169 108.525 123.169 109.654C123.169 110.774 122.879 111.637 122.301 112.244C121.731 112.851 120.98 113.154 120.047 113.154C119.113 113.154 118.357 112.851 117.779 112.244C117.209 111.637 116.925 110.774 116.925 109.654C116.925 108.525 117.209 107.657 117.779 107.05C118.357 106.443 119.113 106.14 120.047 106.14ZM122.049 109.654C122.049 108.851 121.881 108.226 121.545 107.778C121.209 107.321 120.714 107.092 120.061 107.092C119.417 107.092 118.922 107.321 118.577 107.778C118.231 108.226 118.059 108.851 118.059 109.654C118.059 110.447 118.222 111.073 118.549 111.53C118.875 111.978 119.361 112.202 120.005 112.202C120.658 112.202 121.162 111.978 121.517 111.53C121.871 111.073 122.049 110.447 122.049 109.654ZM132.999 107.302V103.466H134.091V113H133.195L133.055 111.88C132.84 112.3 132.556 112.617 132.201 112.832C131.846 113.047 131.459 113.154 131.039 113.154C130.19 113.154 129.476 112.827 128.897 112.174C128.328 111.521 128.043 110.671 128.043 109.626C128.043 108.571 128.323 107.727 128.883 107.092C129.452 106.457 130.166 106.14 131.025 106.14C131.893 106.14 132.551 106.527 132.999 107.302ZM131.095 107.12C130.554 107.12 130.096 107.349 129.723 107.806C129.359 108.263 129.177 108.875 129.177 109.64C129.177 110.405 129.364 111.021 129.737 111.488C130.11 111.945 130.558 112.174 131.081 112.174C131.604 112.174 132.047 112.001 132.411 111.656C132.784 111.301 132.98 110.83 132.999 110.242V109.15C132.999 108.525 132.817 108.03 132.453 107.666C132.089 107.302 131.636 107.12 131.095 107.12ZM139.24 112.258C140.164 112.258 140.691 111.852 140.822 111.04H141.956C141.853 111.712 141.554 112.235 141.06 112.608C140.574 112.972 139.968 113.154 139.24 113.154C138.344 113.154 137.616 112.837 137.056 112.202C136.496 111.558 136.216 110.704 136.216 109.64C136.216 108.576 136.496 107.727 137.056 107.092C137.625 106.457 138.376 106.14 139.31 106.14C140.252 106.14 140.952 106.504 141.41 107.232C141.876 107.96 142.04 108.847 141.9 109.892H137.322C137.322 110.583 137.49 111.152 137.826 111.6C138.162 112.039 138.633 112.258 139.24 112.258ZM140.052 107.19C139.837 107.078 139.576 107.022 139.268 107.022C138.698 107.022 138.246 107.218 137.91 107.61C137.583 107.993 137.392 108.473 137.336 109.052H140.906C140.906 108.119 140.621 107.498 140.052 107.19ZM144.135 103.466H145.241V113H144.135V103.466ZM62.4097 123.946C62.4097 123.395 62.643 122.957 63.1097 122.63C63.5857 122.303 64.225 122.14 65.0277 122.14C65.8304 122.14 66.4557 122.308 66.9037 122.644C67.361 122.98 67.599 123.405 67.6177 123.918H66.5397C66.4557 123.311 65.9424 123.008 64.9997 123.008C64.5424 123.008 64.1877 123.111 63.9357 123.316C63.693 123.521 63.5717 123.745 63.5717 123.988C63.5717 124.221 63.665 124.422 63.8517 124.59C64.0384 124.749 64.337 124.889 64.7477 125.01L66.0917 125.458C66.661 125.635 67.095 125.864 67.3937 126.144C67.7017 126.415 67.8557 126.793 67.8557 127.278C67.8557 127.754 67.6084 128.188 67.1137 128.58C66.619 128.963 65.9284 129.154 65.0417 129.154C64.155 129.154 63.4644 128.958 62.9697 128.566C62.475 128.165 62.2137 127.651 62.1857 127.026H63.2497C63.2684 127.446 63.4364 127.763 63.7537 127.978C64.0804 128.183 64.4864 128.286 64.9717 128.286C65.457 128.286 65.8584 128.183 66.1757 127.978C66.493 127.773 66.6517 127.53 66.6517 127.25C66.6517 126.961 66.5584 126.741 66.3717 126.592C66.185 126.443 65.8817 126.312 65.4617 126.2L64.1597 125.766C62.993 125.421 62.4097 124.814 62.4097 123.946ZM70.1988 122.294H71.3048V129H70.1988V122.294ZM70.7448 120.726C70.5208 120.726 70.3435 120.665 70.2128 120.544C70.0915 120.413 70.0308 120.245 70.0308 120.04C70.0308 119.825 70.0915 119.657 70.2128 119.536C70.3435 119.405 70.5208 119.34 70.7448 119.34C70.9688 119.34 71.1462 119.405 71.2768 119.536C71.4168 119.657 71.4868 119.825 71.4868 120.04C71.4868 120.245 71.4168 120.413 71.2768 120.544C71.1462 120.665 70.9688 120.726 70.7448 120.726ZM73.9624 123.946C73.9624 123.395 74.1958 122.957 74.6624 122.63C75.1384 122.303 75.7778 122.14 76.5804 122.14C77.3831 122.14 78.0084 122.308 78.4564 122.644C78.9138 122.98 79.1518 123.405 79.1704 123.918H78.0924C78.0084 123.311 77.4951 123.008 76.5524 123.008C76.0951 123.008 75.7404 123.111 75.4884 123.316C75.2458 123.521 75.1244 123.745 75.1244 123.988C75.1244 124.221 75.2178 124.422 75.4044 124.59C75.5911 124.749 75.8898 124.889 76.3004 125.01L77.6444 125.458C78.2138 125.635 78.6478 125.864 78.9464 126.144C79.2544 126.415 79.4084 126.793 79.4084 127.278C79.4084 127.754 79.1611 128.188 78.6664 128.58C78.1718 128.963 77.4811 129.154 76.5944 129.154C75.7078 129.154 75.0171 128.958 74.5224 128.566C74.0278 128.165 73.7664 127.651 73.7384 127.026H74.8024C74.8211 127.446 74.9891 127.763 75.3064 127.978C75.6331 128.183 76.0391 128.286 76.5244 128.286C77.0098 128.286 77.4111 128.183 77.7284 127.978C78.0458 127.773 78.2044 127.53 78.2044 127.25C78.2044 126.961 78.1111 126.741 77.9244 126.592C77.7378 126.443 77.4344 126.312 77.0144 126.2L75.7124 125.766C74.5458 125.421 73.9624 124.814 73.9624 123.946ZM85.1816 128.804C84.3789 129.177 83.6462 129.257 82.9836 129.042C82.5076 128.893 82.1716 128.58 81.9756 128.104C81.8729 127.871 81.8216 127.591 81.8216 127.264V123.148H80.7436V122.308H81.8216V120.446H82.9136V122.308H85.0136V123.148H82.9136V127.25C82.9136 127.931 83.2309 128.272 83.8656 128.272C84.2109 128.272 84.5982 128.188 85.0276 128.02L85.1816 128.804ZM89.2553 128.258C90.1793 128.258 90.7066 127.852 90.8373 127.04H91.9713C91.8686 127.712 91.5699 128.235 91.0753 128.608C90.5899 128.972 89.9833 129.154 89.2553 129.154C88.3593 129.154 87.6313 128.837 87.0713 128.202C86.5113 127.558 86.2313 126.704 86.2313 125.64C86.2313 124.576 86.5113 123.727 87.0713 123.092C87.6406 122.457 88.3919 122.14 89.3253 122.14C90.2679 122.14 90.9679 122.504 91.4253 123.232C91.8919 123.96 92.0553 124.847 91.9153 125.892H87.3373C87.3373 126.583 87.5053 127.152 87.8413 127.6C88.1773 128.039 88.6486 128.258 89.2553 128.258ZM90.0673 123.19C89.8526 123.078 89.5913 123.022 89.2833 123.022C88.7139 123.022 88.2613 123.218 87.9253 123.61C87.5986 123.993 87.4073 124.473 87.3513 125.052H90.9213C90.9213 124.119 90.6366 123.498 90.0673 123.19ZM95.2143 123.596C95.653 122.625 96.4043 122.14 97.4683 122.14C98.047 122.14 98.5323 122.285 98.9243 122.574C99.3163 122.854 99.601 123.246 99.7783 123.75C100.198 122.677 100.978 122.14 102.116 122.14C102.919 122.14 103.54 122.401 103.978 122.924C104.417 123.447 104.636 124.161 104.636 125.066V129H103.544V125.066C103.544 124.422 103.39 123.937 103.082 123.61C102.784 123.283 102.35 123.12 101.78 123.12C101.211 123.12 100.768 123.353 100.45 123.82C100.142 124.287 99.9883 124.931 99.9883 125.752V129H98.8963V125.066C98.8963 124.422 98.7423 123.937 98.4343 123.61C98.1357 123.283 97.7063 123.12 97.1463 123.12C96.5863 123.12 96.1337 123.349 95.7883 123.806C95.443 124.263 95.261 124.898 95.2423 125.71V129H94.1363V122.308H95.0883L95.2143 123.596ZM111.378 124.66C111.378 124.053 111.252 123.619 111 123.358C110.748 123.097 110.38 122.966 109.894 122.966C109.418 122.966 109.031 123.064 108.732 123.26C108.443 123.447 108.298 123.745 108.298 124.156H107.08C107.08 123.129 107.631 122.495 108.732 122.252C109.068 122.177 109.432 122.14 109.824 122.14C110.655 122.14 111.304 122.35 111.77 122.77C112.237 123.19 112.47 123.829 112.47 124.688V129H111.518L111.406 127.88C110.996 128.729 110.254 129.154 109.18 129.154C108.462 129.154 107.883 128.953 107.444 128.552C107.015 128.151 106.8 127.651 106.8 127.054C106.8 126.457 107.038 125.99 107.514 125.654C108 125.318 108.602 125.15 109.32 125.15C110.039 125.15 110.725 125.271 111.378 125.514V124.66ZM111.378 126.214C110.716 126.027 110.137 125.934 109.642 125.934C109.148 125.934 108.746 126.023 108.438 126.2C108.13 126.377 107.976 126.657 107.976 127.04C107.976 127.88 108.452 128.3 109.404 128.3C109.946 128.3 110.408 128.109 110.79 127.726C111.182 127.334 111.378 126.83 111.378 126.214Z" fill="#333333"/>
<path d="M182.011 104.194H187.429V105.146H183.117V108.1H187.177V109.038H183.117V112.034H187.429V113H182.011V104.194ZM190.951 107.596C191.389 106.625 192.141 106.14 193.205 106.14C193.998 106.14 194.614 106.401 195.053 106.924C195.501 107.447 195.725 108.161 195.725 109.066V113H194.633V109.066C194.633 108.422 194.479 107.937 194.171 107.61C193.872 107.283 193.443 107.12 192.883 107.12C192.323 107.12 191.87 107.349 191.525 107.806C191.179 108.263 190.997 108.898 190.979 109.71V113H189.873V106.308H190.825L190.951 107.596ZM201.822 112.804C201.02 113.177 200.287 113.257 199.624 113.042C199.148 112.893 198.812 112.58 198.616 112.104C198.514 111.871 198.462 111.591 198.462 111.264V107.148H197.384V106.308H198.462V104.446H199.554V106.308H201.654V107.148H199.554V111.25C199.554 111.931 199.872 112.272 200.506 112.272C200.852 112.272 201.239 112.188 201.668 112.02L201.822 112.804ZM206.316 107.246C205.261 107.246 204.715 108.077 204.678 109.738V113H203.572V106.294H204.678V107.582C205.014 106.649 205.607 106.182 206.456 106.182C206.727 106.182 206.983 106.224 207.226 106.308L207.17 107.386C206.89 107.293 206.605 107.246 206.316 107.246ZM211.228 112.258C212.152 112.258 212.679 111.852 212.81 111.04H213.944C213.841 111.712 213.543 112.235 213.048 112.608C212.563 112.972 211.956 113.154 211.228 113.154C210.332 113.154 209.604 112.837 209.044 112.202C208.484 111.558 208.204 110.704 208.204 109.64C208.204 108.576 208.484 107.727 209.044 107.092C209.613 106.457 210.365 106.14 211.298 106.14C212.241 106.14 212.941 106.504 213.398 107.232C213.865 107.96 214.028 108.847 213.888 109.892H209.31C209.31 110.583 209.478 111.152 209.814 111.6C210.15 112.039 210.621 112.258 211.228 112.258ZM212.04 107.19C211.825 107.078 211.564 107.022 211.256 107.022C210.687 107.022 210.234 107.218 209.898 107.61C209.571 107.993 209.38 108.473 209.324 109.052H212.894C212.894 108.119 212.609 107.498 212.04 107.19ZM216.207 106.308L218.223 111.838L220.253 106.308H221.499L218.839 113H217.621L214.961 106.308H216.207ZM223.234 106.294H224.34V113H223.234V106.294ZM223.78 104.726C223.556 104.726 223.379 104.665 223.248 104.544C223.127 104.413 223.066 104.245 223.066 104.04C223.066 103.825 223.127 103.657 223.248 103.536C223.379 103.405 223.556 103.34 223.78 103.34C224.004 103.34 224.181 103.405 224.312 103.536C224.452 103.657 224.522 103.825 224.522 104.04C224.522 104.245 224.452 104.413 224.312 104.544C224.181 104.665 224.004 104.726 223.78 104.726ZM226.998 107.946C226.998 107.395 227.231 106.957 227.698 106.63C228.174 106.303 228.813 106.14 229.616 106.14C230.418 106.14 231.044 106.308 231.492 106.644C231.949 106.98 232.187 107.405 232.206 107.918H231.128C231.044 107.311 230.53 107.008 229.588 107.008C229.13 107.008 228.776 107.111 228.524 107.316C228.281 107.521 228.16 107.745 228.16 107.988C228.16 108.221 228.253 108.422 228.44 108.59C228.626 108.749 228.925 108.889 229.336 109.01L230.68 109.458C231.249 109.635 231.683 109.864 231.982 110.144C232.29 110.415 232.444 110.793 232.444 111.278C232.444 111.754 232.196 112.188 231.702 112.58C231.207 112.963 230.516 113.154 229.63 113.154C228.743 113.154 228.052 112.958 227.558 112.566C227.063 112.165 226.802 111.651 226.774 111.026H227.838C227.856 111.446 228.024 111.763 228.342 111.978C228.668 112.183 229.074 112.286 229.56 112.286C230.045 112.286 230.446 112.183 230.764 111.978C231.081 111.773 231.24 111.53 231.24 111.25C231.24 110.961 231.146 110.741 230.96 110.592C230.773 110.443 230.47 110.312 230.05 110.2L228.748 109.766C227.581 109.421 226.998 108.814 226.998 107.946ZM238.217 112.804C237.414 113.177 236.681 113.257 236.019 113.042C235.543 112.893 235.207 112.58 235.011 112.104C234.908 111.871 234.857 111.591 234.857 111.264V107.148H233.779V106.308H234.857V104.446H235.949V106.308H238.049V107.148H235.949V111.25C235.949 111.931 236.266 112.272 236.901 112.272C237.246 112.272 237.633 112.188 238.063 112.02L238.217 112.804ZM244.124 108.66C244.124 108.053 243.998 107.619 243.746 107.358C243.494 107.097 243.126 106.966 242.64 106.966C242.164 106.966 241.777 107.064 241.478 107.26C241.189 107.447 241.044 107.745 241.044 108.156H239.826C239.826 107.129 240.377 106.495 241.478 106.252C241.814 106.177 242.178 106.14 242.57 106.14C243.401 106.14 244.05 106.35 244.516 106.77C244.983 107.19 245.216 107.829 245.216 108.688V113H244.264L244.152 111.88C243.742 112.729 243 113.154 241.926 113.154C241.208 113.154 240.629 112.953 240.19 112.552C239.761 112.151 239.546 111.651 239.546 111.054C239.546 110.457 239.784 109.99 240.26 109.654C240.746 109.318 241.348 109.15 242.066 109.15C242.785 109.15 243.471 109.271 244.124 109.514V108.66ZM244.124 110.214C243.462 110.027 242.883 109.934 242.388 109.934C241.894 109.934 241.492 110.023 241.184 110.2C240.876 110.377 240.722 110.657 240.722 111.04C240.722 111.88 241.198 112.3 242.15 112.3C242.692 112.3 243.154 112.109 243.536 111.726C243.928 111.334 244.124 110.83 244.124 110.214ZM247.464 107.946C247.464 107.395 247.698 106.957 248.164 106.63C248.64 106.303 249.28 106.14 250.082 106.14C250.885 106.14 251.51 106.308 251.958 106.644C252.416 106.98 252.654 107.405 252.672 107.918H251.594C251.51 107.311 250.997 107.008 250.054 107.008C249.597 107.008 249.242 107.111 248.99 107.316C248.748 107.521 248.626 107.745 248.626 107.988C248.626 108.221 248.72 108.422 248.906 108.59C249.093 108.749 249.392 108.889 249.802 109.01L251.146 109.458C251.716 109.635 252.15 109.864 252.448 110.144C252.756 110.415 252.91 110.793 252.91 111.278C252.91 111.754 252.663 112.188 252.168 112.58C251.674 112.963 250.983 113.154 250.096 113.154C249.21 113.154 248.519 112.958 248.024 112.566C247.53 112.165 247.268 111.651 247.24 111.026H248.304C248.323 111.446 248.491 111.763 248.808 111.978C249.135 112.183 249.541 112.286 250.026 112.286C250.512 112.286 250.913 112.183 251.23 111.978C251.548 111.773 251.706 111.53 251.706 111.25C251.706 110.961 251.613 110.741 251.426 110.592C251.24 110.443 250.936 110.312 250.516 110.2L249.214 109.766C248.048 109.421 247.464 108.814 247.464 107.946ZM260.745 106.14C261.539 106.14 262.169 106.345 262.635 106.756C263.102 107.157 263.405 107.661 263.545 108.268L262.425 108.366C262.304 107.974 262.108 107.671 261.837 107.456C261.567 107.232 261.268 107.12 260.941 107.12C260.344 107.12 259.859 107.344 259.485 107.792C259.121 108.24 258.939 108.851 258.939 109.626C258.939 110.391 259.117 111.007 259.471 111.474C259.835 111.941 260.283 112.174 260.815 112.174C261.357 112.174 261.758 112.053 262.019 111.81C262.29 111.558 262.425 111.203 262.425 110.746H263.559C263.559 111.465 263.307 112.048 262.803 112.496C262.309 112.935 261.66 113.154 260.857 113.154C260.008 113.154 259.285 112.832 258.687 112.188C258.099 111.544 257.805 110.69 257.805 109.626C257.805 108.553 258.099 107.703 258.687 107.078C259.275 106.453 259.961 106.14 260.745 106.14ZM268.133 106.14C269.066 106.14 269.817 106.443 270.387 107.05C270.965 107.657 271.255 108.525 271.255 109.654C271.255 110.774 270.965 111.637 270.387 112.244C269.817 112.851 269.066 113.154 268.133 113.154C267.199 113.154 266.443 112.851 265.865 112.244C265.295 111.637 265.011 110.774 265.011 109.654C265.011 108.525 265.295 107.657 265.865 107.05C266.443 106.443 267.199 106.14 268.133 106.14ZM270.135 109.654C270.135 108.851 269.967 108.226 269.631 107.778C269.295 107.321 268.8 107.092 268.147 107.092C267.503 107.092 267.008 107.321 266.663 107.778C266.317 108.226 266.145 108.851 266.145 109.654C266.145 110.447 266.308 111.073 266.635 111.53C266.961 111.978 267.447 112.202 268.091 112.202C268.744 112.202 269.248 111.978 269.603 111.53C269.957 111.073 270.135 110.447 270.135 109.654ZM274.431 107.596C274.87 106.625 275.621 106.14 276.685 106.14C277.478 106.14 278.094 106.401 278.533 106.924C278.981 107.447 279.205 108.161 279.205 109.066V113H278.113V109.066C278.113 108.422 277.959 107.937 277.651 107.61C277.352 107.283 276.923 107.12 276.363 107.12C275.803 107.12 275.35 107.349 275.005 107.806C274.66 108.263 274.478 108.898 274.459 109.71V113H273.353V106.308H274.305L274.431 107.596ZM208.109 127.67C207.651 128.641 206.909 129.126 205.883 129.126C205.127 129.126 204.515 128.916 204.049 128.496C203.591 128.076 203.363 127.427 203.363 126.55V122.294H204.469V126.466C204.469 127.595 204.991 128.16 206.037 128.16C206.643 128.16 207.133 127.927 207.507 127.46C207.889 126.993 208.09 126.396 208.109 125.668V122.294H209.215V129H208.109V127.67ZM211.699 123.946C211.699 123.395 211.932 122.957 212.399 122.63C212.875 122.303 213.514 122.14 214.317 122.14C215.119 122.14 215.745 122.308 216.193 122.644C216.65 122.98 216.888 123.405 216.907 123.918H215.829C215.745 123.311 215.231 123.008 214.289 123.008C213.831 123.008 213.477 123.111 213.225 123.316C212.982 123.521 212.861 123.745 212.861 123.988C212.861 124.221 212.954 124.422 213.141 124.59C213.327 124.749 213.626 124.889 214.037 125.01L215.381 125.458C215.95 125.635 216.384 125.864 216.683 126.144C216.991 126.415 217.145 126.793 217.145 127.278C217.145 127.754 216.897 128.188 216.403 128.58C215.908 128.963 215.217 129.154 214.331 129.154C213.444 129.154 212.753 128.958 212.259 128.566C211.764 128.165 211.503 127.651 211.475 127.026H212.539C212.557 127.446 212.725 127.763 213.043 127.978C213.369 128.183 213.775 128.286 214.261 128.286C214.746 128.286 215.147 128.183 215.465 127.978C215.782 127.773 215.941 127.53 215.941 127.25C215.941 126.961 215.847 126.741 215.661 126.592C215.474 126.443 215.171 126.312 214.751 126.2L213.449 125.766C212.282 125.421 211.699 124.814 211.699 123.946ZM223.968 127.67C223.511 128.641 222.769 129.126 221.742 129.126C220.986 129.126 220.375 128.916 219.908 128.496C219.451 128.076 219.222 127.427 219.222 126.55V122.294H220.328V126.466C220.328 127.595 220.851 128.16 221.896 128.16C222.503 128.16 222.993 127.927 223.366 127.46C223.749 126.993 223.949 126.396 223.968 125.668V122.294H225.074V129H223.968V127.67ZM232.052 124.66C232.052 124.053 231.926 123.619 231.674 123.358C231.422 123.097 231.053 122.966 230.568 122.966C230.092 122.966 229.705 123.064 229.406 123.26C229.117 123.447 228.972 123.745 228.972 124.156H227.754C227.754 123.129 228.305 122.495 229.406 122.252C229.742 122.177 230.106 122.14 230.498 122.14C231.329 122.14 231.977 122.35 232.444 122.77C232.911 123.19 233.144 123.829 233.144 124.688V129H232.192L232.08 127.88C231.669 128.729 230.927 129.154 229.854 129.154C229.135 129.154 228.557 128.953 228.118 128.552C227.689 128.151 227.474 127.651 227.474 127.054C227.474 126.457 227.712 125.99 228.188 125.654C228.673 125.318 229.275 125.15 229.994 125.15C230.713 125.15 231.399 125.271 232.052 125.514V124.66ZM232.052 126.214C231.389 126.027 230.811 125.934 230.316 125.934C229.821 125.934 229.42 126.023 229.112 126.2C228.804 126.377 228.65 126.657 228.65 127.04C228.65 127.88 229.126 128.3 230.078 128.3C230.619 128.3 231.081 128.109 231.464 127.726C231.856 127.334 232.052 126.83 232.052 126.214ZM238.472 123.246C237.417 123.246 236.871 124.077 236.834 125.738V129H235.728V122.294H236.834V123.582C237.17 122.649 237.763 122.182 238.612 122.182C238.883 122.182 239.139 122.224 239.382 122.308L239.326 123.386C239.046 123.293 238.761 123.246 238.472 123.246ZM241.144 122.294H242.25V129H241.144V122.294ZM241.69 120.726C241.466 120.726 241.289 120.665 241.158 120.544C241.037 120.413 240.976 120.245 240.976 120.04C240.976 119.825 241.037 119.657 241.158 119.536C241.289 119.405 241.466 119.34 241.69 119.34C241.914 119.34 242.091 119.405 242.222 119.536C242.362 119.657 242.432 119.825 242.432 120.04C242.432 120.245 242.362 120.413 242.222 120.544C242.091 120.665 241.914 120.726 241.69 120.726ZM247.666 122.14C248.599 122.14 249.35 122.443 249.92 123.05C250.498 123.657 250.788 124.525 250.788 125.654C250.788 126.774 250.498 127.637 249.92 128.244C249.35 128.851 248.599 129.154 247.666 129.154C246.732 129.154 245.976 128.851 245.398 128.244C244.828 127.637 244.544 126.774 244.544 125.654C244.544 124.525 244.828 123.657 245.398 123.05C245.976 122.443 246.732 122.14 247.666 122.14ZM249.668 125.654C249.668 124.851 249.5 124.226 249.164 123.778C248.828 123.321 248.333 123.092 247.68 123.092C247.036 123.092 246.541 123.321 246.196 123.778C245.85 124.226 245.678 124.851 245.678 125.654C245.678 126.447 245.841 127.073 246.168 127.53C246.494 127.978 246.98 128.202 247.624 128.202C248.277 128.202 248.781 127.978 249.136 127.53C249.49 127.073 249.668 126.447 249.668 125.654ZM252.55 123.946C252.55 123.395 252.784 122.957 253.25 122.63C253.726 122.303 254.366 122.14 255.168 122.14C255.971 122.14 256.596 122.308 257.044 122.644C257.502 122.98 257.74 123.405 257.758 123.918H256.68C256.596 123.311 256.083 123.008 255.14 123.008C254.683 123.008 254.328 123.111 254.076 123.316C253.834 123.521 253.712 123.745 253.712 123.988C253.712 124.221 253.806 124.422 253.992 124.59C254.179 124.749 254.478 124.889 254.888 125.01L256.232 125.458C256.802 125.635 257.236 125.864 257.534 126.144C257.842 126.415 257.996 126.793 257.996 127.278C257.996 127.754 257.749 128.188 257.254 128.58C256.76 128.963 256.069 129.154 255.182 129.154C254.296 129.154 253.605 128.958 253.11 128.566C252.616 128.165 252.354 127.651 252.326 127.026H253.39C253.409 127.446 253.577 127.763 253.894 127.978C254.221 128.183 254.627 128.286 255.112 128.286C255.598 128.286 255.999 128.183 256.316 127.978C256.634 127.773 256.792 127.53 256.792 127.25C256.792 126.961 256.699 126.741 256.512 126.592C256.326 126.443 256.022 126.312 255.602 126.2L254.3 125.766C253.134 125.421 252.55 124.814 252.55 123.946Z" fill="#333333"/>
<path d="M327.04 104.194H328.384L331.338 113H330.19L329.434 110.76H325.934L325.178 113H324.016L327.04 104.194ZM326.228 109.892H329.154L327.698 105.552L326.228 109.892ZM335.849 107.246C334.794 107.246 334.248 108.077 334.211 109.738V113H333.105V106.294H334.211V107.582C334.547 106.649 335.14 106.182 335.989 106.182C336.26 106.182 336.516 106.224 336.759 106.308L336.703 107.386C336.423 107.293 336.138 107.246 335.849 107.246ZM340.733 106.14C341.685 106.14 342.376 106.56 342.805 107.4L343.043 106.308H343.799V114.134C343.799 114.591 343.85 114.895 343.953 115.044C344.065 115.203 344.186 115.315 344.317 115.38C344.457 115.455 344.625 115.525 344.821 115.59L344.457 116.444C343.822 116.276 343.37 116.01 343.099 115.646C342.838 115.282 342.707 114.755 342.707 114.064V111.936C342.324 112.748 341.694 113.154 340.817 113.154C339.949 113.154 339.221 112.837 338.633 112.202C338.045 111.558 337.751 110.709 337.751 109.654C337.751 108.599 338.04 107.75 338.619 107.106C339.207 106.462 339.912 106.14 340.733 106.14ZM340.831 107.12C340.29 107.12 339.828 107.349 339.445 107.806C339.072 108.263 338.885 108.884 338.885 109.668C338.885 110.443 339.086 111.054 339.487 111.502C339.888 111.95 340.355 112.174 340.887 112.174C341.652 112.174 342.198 111.833 342.525 111.152C342.637 110.937 342.698 110.681 342.707 110.382V109.108C342.707 108.492 342.53 108.007 342.175 107.652C341.82 107.297 341.372 107.12 340.831 107.12ZM351.191 111.67C350.733 112.641 349.991 113.126 348.965 113.126C348.209 113.126 347.597 112.916 347.131 112.496C346.673 112.076 346.445 111.427 346.445 110.55V106.294H347.551V110.466C347.551 111.595 348.073 112.16 349.119 112.16C349.725 112.16 350.215 111.927 350.589 111.46C350.971 110.993 351.172 110.396 351.191 109.668V106.294H352.297V113H351.191V111.67ZM355.201 106.294H356.307V113H355.201V106.294ZM355.747 104.726C355.523 104.726 355.345 104.665 355.215 104.544C355.093 104.413 355.033 104.245 355.033 104.04C355.033 103.825 355.093 103.657 355.215 103.536C355.345 103.405 355.523 103.34 355.747 103.34C355.971 103.34 356.148 103.405 356.279 103.536C356.419 103.657 356.489 103.825 356.489 104.04C356.489 104.245 356.419 104.413 356.279 104.544C356.148 104.665 355.971 104.726 355.747 104.726ZM362.814 112.804C362.012 113.177 361.279 113.257 360.616 113.042C360.14 112.893 359.804 112.58 359.608 112.104C359.506 111.871 359.454 111.591 359.454 111.264V107.148H358.376V106.308H359.454V104.446H360.546V106.308H362.646V107.148H360.546V111.25C360.546 111.931 360.864 112.272 361.498 112.272C361.844 112.272 362.231 112.188 362.66 112.02L362.814 112.804ZM366.888 112.258C367.812 112.258 368.339 111.852 368.47 111.04H369.604C369.501 111.712 369.203 112.235 368.708 112.608C368.223 112.972 367.616 113.154 366.888 113.154C365.992 113.154 365.264 112.837 364.704 112.202C364.144 111.558 363.864 110.704 363.864 109.64C363.864 108.576 364.144 107.727 364.704 107.092C365.273 106.457 366.025 106.14 366.958 106.14C367.901 106.14 368.601 106.504 369.058 107.232C369.525 107.96 369.688 108.847 369.548 109.892H364.97C364.97 110.583 365.138 111.152 365.474 111.6C365.81 112.039 366.281 112.258 366.888 112.258ZM367.7 107.19C367.485 107.078 367.224 107.022 366.916 107.022C366.347 107.022 365.894 107.218 365.558 107.61C365.231 107.993 365.04 108.473 364.984 109.052H368.554C368.554 108.119 368.269 107.498 367.7 107.19ZM374.009 106.14C374.802 106.14 375.432 106.345 375.899 106.756C376.366 107.157 376.669 107.661 376.809 108.268L375.689 108.366C375.568 107.974 375.372 107.671 375.101 107.456C374.83 107.232 374.532 107.12 374.205 107.12C373.608 107.12 373.122 107.344 372.749 107.792C372.385 108.24 372.203 108.851 372.203 109.626C372.203 110.391 372.38 111.007 372.735 111.474C373.099 111.941 373.547 112.174 374.079 112.174C374.62 112.174 375.022 112.053 375.283 111.81C375.554 111.558 375.689 111.203 375.689 110.746H376.823C376.823 111.465 376.571 112.048 376.067 112.496C375.572 112.935 374.924 113.154 374.121 113.154C373.272 113.154 372.548 112.832 371.951 112.188C371.363 111.544 371.069 110.69 371.069 109.626C371.069 108.553 371.363 107.703 371.951 107.078C372.539 106.453 373.225 106.14 374.009 106.14ZM382.488 112.804C381.686 113.177 380.953 113.257 380.29 113.042C379.814 112.893 379.478 112.58 379.282 112.104C379.18 111.871 379.128 111.591 379.128 111.264V107.148H378.05V106.308H379.128V104.446H380.22V106.308H382.32V107.148H380.22V111.25C380.22 111.931 380.538 112.272 381.172 112.272C381.518 112.272 381.905 112.188 382.334 112.02L382.488 112.804ZM388.802 111.67C388.345 112.641 387.603 113.126 386.576 113.126C385.82 113.126 385.209 112.916 384.742 112.496C384.285 112.076 384.056 111.427 384.056 110.55V106.294H385.162V110.466C385.162 111.595 385.685 112.16 386.73 112.16C387.337 112.16 387.827 111.927 388.2 111.46C388.583 110.993 388.783 110.396 388.802 109.668V106.294H389.908V113H388.802V111.67ZM395.472 107.246C394.417 107.246 393.871 108.077 393.834 109.738V113H392.728V106.294H393.834V107.582C394.17 106.649 394.763 106.182 395.612 106.182C395.883 106.182 396.139 106.224 396.382 106.308L396.326 107.386C396.046 107.293 395.761 107.246 395.472 107.246ZM402.218 108.66C402.218 108.053 402.092 107.619 401.84 107.358C401.588 107.097 401.219 106.966 400.734 106.966C400.258 106.966 399.871 107.064 399.572 107.26C399.283 107.447 399.138 107.745 399.138 108.156H397.92C397.92 107.129 398.471 106.495 399.572 106.252C399.908 106.177 400.272 106.14 400.664 106.14C401.495 106.14 402.143 106.35 402.61 106.77C403.077 107.19 403.31 107.829 403.31 108.688V113H402.358L402.246 111.88C401.835 112.729 401.093 113.154 400.02 113.154C399.301 113.154 398.723 112.953 398.284 112.552C397.855 112.151 397.64 111.651 397.64 111.054C397.64 110.457 397.878 109.99 398.354 109.654C398.839 109.318 399.441 109.15 400.16 109.15C400.879 109.15 401.565 109.271 402.218 109.514V108.66ZM402.218 110.214C401.555 110.027 400.977 109.934 400.482 109.934C399.987 109.934 399.586 110.023 399.278 110.2C398.97 110.377 398.816 110.657 398.816 111.04C398.816 111.88 399.292 112.3 400.244 112.3C400.785 112.3 401.247 112.109 401.63 111.726C402.022 111.334 402.218 110.83 402.218 110.214ZM413.626 107.302V103.466H414.718V113H413.822L413.682 111.88C413.467 112.3 413.183 112.617 412.828 112.832C412.473 113.047 412.086 113.154 411.666 113.154C410.817 113.154 410.103 112.827 409.524 112.174C408.955 111.521 408.67 110.671 408.67 109.626C408.67 108.571 408.95 107.727 409.51 107.092C410.079 106.457 410.793 106.14 411.652 106.14C412.52 106.14 413.178 106.527 413.626 107.302ZM411.722 107.12C411.181 107.12 410.723 107.349 410.35 107.806C409.986 108.263 409.804 108.875 409.804 109.64C409.804 110.405 409.991 111.021 410.364 111.488C410.737 111.945 411.185 112.174 411.708 112.174C412.231 112.174 412.674 112.001 413.038 111.656C413.411 111.301 413.607 110.83 413.626 110.242V109.15C413.626 108.525 413.444 108.03 413.08 107.666C412.716 107.302 412.263 107.12 411.722 107.12ZM419.867 112.258C420.791 112.258 421.318 111.852 421.449 111.04H422.583C422.48 111.712 422.181 112.235 421.687 112.608C421.201 112.972 420.595 113.154 419.867 113.154C418.971 113.154 418.243 112.837 417.683 112.202C417.123 111.558 416.843 110.704 416.843 109.64C416.843 108.576 417.123 107.727 417.683 107.092C418.252 106.457 419.003 106.14 419.937 106.14C420.879 106.14 421.579 106.504 422.037 107.232C422.503 107.96 422.667 108.847 422.527 109.892H417.949C417.949 110.583 418.117 111.152 418.453 111.6C418.789 112.039 419.26 112.258 419.867 112.258ZM420.679 107.19C420.464 107.078 420.203 107.022 419.895 107.022C419.325 107.022 418.873 107.218 418.537 107.61C418.21 107.993 418.019 108.473 417.963 109.052H421.533C421.533 108.119 421.248 107.498 420.679 107.19ZM335.588 122.294H336.694V129H335.588V122.294ZM336.134 120.726C335.91 120.726 335.733 120.665 335.602 120.544C335.481 120.413 335.42 120.245 335.42 120.04C335.42 119.825 335.481 119.657 335.602 119.536C335.733 119.405 335.91 119.34 336.134 119.34C336.358 119.34 336.536 119.405 336.666 119.536C336.806 119.657 336.876 119.825 336.876 120.04C336.876 120.245 336.806 120.413 336.666 120.544C336.536 120.665 336.358 120.726 336.134 120.726ZM340.766 123.596C341.205 122.625 341.956 122.14 343.02 122.14C343.813 122.14 344.429 122.401 344.868 122.924C345.316 123.447 345.54 124.161 345.54 125.066V129H344.448V125.066C344.448 124.422 344.294 123.937 343.986 123.61C343.687 123.283 343.258 123.12 342.698 123.12C342.138 123.12 341.685 123.349 341.34 123.806C340.995 124.263 340.813 124.898 340.794 125.71V129H339.688V122.308H340.64L340.766 123.596ZM351.386 120.404C351.078 120.283 350.835 120.222 350.658 120.222C350.331 120.222 350.074 120.301 349.888 120.46C349.701 120.619 349.608 120.899 349.608 121.3V122.308H350.994V123.064H349.608V129H348.516V123.064H347.41V122.308H348.516V121.286C348.516 120.623 348.698 120.138 349.062 119.83C349.426 119.513 349.846 119.354 350.322 119.354C350.798 119.354 351.218 119.415 351.582 119.536L351.386 120.404ZM355.344 122.14C356.278 122.14 357.029 122.443 357.598 123.05C358.177 123.657 358.466 124.525 358.466 125.654C358.466 126.774 358.177 127.637 357.598 128.244C357.029 128.851 356.278 129.154 355.344 129.154C354.411 129.154 353.655 128.851 353.076 128.244C352.507 127.637 352.222 126.774 352.222 125.654C352.222 124.525 352.507 123.657 353.076 123.05C353.655 122.443 354.411 122.14 355.344 122.14ZM357.346 125.654C357.346 124.851 357.178 124.226 356.842 123.778C356.506 123.321 356.012 123.092 355.358 123.092C354.714 123.092 354.22 123.321 353.874 123.778C353.529 124.226 353.356 124.851 353.356 125.654C353.356 126.447 353.52 127.073 353.846 127.53C354.173 127.978 354.658 128.202 355.302 128.202C355.956 128.202 356.46 127.978 356.814 127.53C357.169 127.073 357.346 126.447 357.346 125.654ZM363.309 123.246C362.254 123.246 361.708 124.077 361.671 125.738V129H360.565V122.294H361.671V123.582C362.007 122.649 362.6 122.182 363.449 122.182C363.72 122.182 363.976 122.224 364.219 122.308L364.163 123.386C363.883 123.293 363.598 123.246 363.309 123.246ZM366.975 123.596C367.414 122.625 368.165 122.14 369.229 122.14C369.808 122.14 370.293 122.285 370.685 122.574C371.077 122.854 371.362 123.246 371.539 123.75C371.959 122.677 372.738 122.14 373.877 122.14C374.68 122.14 375.3 122.401 375.739 122.924C376.178 123.447 376.397 124.161 376.397 125.066V129H375.305V125.066C375.305 124.422 375.151 123.937 374.843 123.61C374.544 123.283 374.11 123.12 373.541 123.12C372.972 123.12 372.528 123.353 372.211 123.82C371.903 124.287 371.749 124.931 371.749 125.752V129H370.657V125.066C370.657 124.422 370.503 123.937 370.195 123.61C369.896 123.283 369.467 123.12 368.907 123.12C368.347 123.12 367.894 123.349 367.549 123.806C367.204 124.263 367.022 124.898 367.003 125.71V129H365.897V122.308H366.849L366.975 123.596ZM383.139 124.66C383.139 124.053 383.013 123.619 382.761 123.358C382.509 123.097 382.14 122.966 381.655 122.966C381.179 122.966 380.792 123.064 380.493 123.26C380.204 123.447 380.059 123.745 380.059 124.156H378.841C378.841 123.129 379.392 122.495 380.493 122.252C380.829 122.177 381.193 122.14 381.585 122.14C382.416 122.14 383.064 122.35 383.531 122.77C383.998 123.19 384.231 123.829 384.231 124.688V129H383.279L383.167 127.88C382.756 128.729 382.014 129.154 380.941 129.154C380.222 129.154 379.644 128.953 379.205 128.552C378.776 128.151 378.561 127.651 378.561 127.054C378.561 126.457 378.799 125.99 379.275 125.654C379.76 125.318 380.362 125.15 381.081 125.15C381.8 125.15 382.486 125.271 383.139 125.514V124.66ZM383.139 126.214C382.476 126.027 381.898 125.934 381.403 125.934C380.908 125.934 380.507 126.023 380.199 126.2C379.891 126.377 379.737 126.657 379.737 127.04C379.737 127.88 380.213 128.3 381.165 128.3C381.706 128.3 382.168 128.109 382.551 127.726C382.943 127.334 383.139 126.83 383.139 126.214ZM389.055 122.14C389.848 122.14 390.478 122.345 390.945 122.756C391.412 123.157 391.715 123.661 391.855 124.268L390.735 124.366C390.614 123.974 390.418 123.671 390.147 123.456C389.876 123.232 389.578 123.12 389.251 123.12C388.654 123.12 388.168 123.344 387.795 123.792C387.431 124.24 387.249 124.851 387.249 125.626C387.249 126.391 387.426 127.007 387.781 127.474C388.145 127.941 388.593 128.174 389.125 128.174C389.666 128.174 390.068 128.053 390.329 127.81C390.6 127.558 390.735 127.203 390.735 126.746H391.869C391.869 127.465 391.617 128.048 391.113 128.496C390.618 128.935 389.97 129.154 389.167 129.154C388.318 129.154 387.594 128.832 386.997 128.188C386.409 127.544 386.115 126.69 386.115 125.626C386.115 124.553 386.409 123.703 386.997 123.078C387.585 122.453 388.271 122.14 389.055 122.14ZM394.104 122.294H395.21V129H394.104V122.294ZM394.65 120.726C394.426 120.726 394.249 120.665 394.118 120.544C393.997 120.413 393.936 120.245 393.936 120.04C393.936 119.825 393.997 119.657 394.118 119.536C394.249 119.405 394.426 119.34 394.65 119.34C394.874 119.34 395.051 119.405 395.182 119.536C395.322 119.657 395.392 119.825 395.392 120.04C395.392 120.245 395.322 120.413 395.182 120.544C395.051 120.665 394.874 120.726 394.65 120.726ZM400.64 122.14C399.706 122.14 398.95 122.443 398.372 123.05C397.802 123.657 397.518 124.525 397.518 125.654C397.518 126.774 397.802 127.637 398.372 128.244C398.95 128.851 399.706 129.154 400.64 129.154C401.573 129.154 402.324 128.851 402.894 128.244C403.472 127.637 403.762 126.774 403.762 125.654C403.762 124.525 403.472 123.657 402.894 123.05C402.324 122.443 401.573 122.14 400.64 122.14ZM398.652 125.654C398.652 124.851 398.824 124.226 399.17 123.778C399.515 123.321 400.01 123.092 400.654 123.092C401.307 123.092 401.802 123.321 402.138 123.778C402.474 124.226 402.642 124.851 402.642 125.654C402.642 126.447 402.464 127.073 402.11 127.53C401.755 127.978 401.251 128.202 400.598 128.202C399.954 128.202 399.468 127.978 399.142 127.53C398.815 127.073 398.652 126.447 398.652 125.654ZM402.502 119.746L399.086 121.328L398.764 120.628L402.054 118.766L402.502 119.746ZM406.938 123.596C407.377 122.625 408.128 122.14 409.192 122.14C409.985 122.14 410.601 122.401 411.04 122.924C411.488 123.447 411.712 124.161 411.712 125.066V129H410.62V125.066C410.62 124.422 410.466 123.937 410.158 123.61C409.859 123.283 409.43 123.12 408.87 123.12C408.31 123.12 407.857 123.349 407.512 123.806C407.167 124.263 406.985 124.898 406.966 125.71V129H405.86V122.308H406.812L406.938 123.596Z" fill="#333333"/>
<path d="M489.011 103.194C490.336 103.194 491.395 103.595 492.189 104.398C492.991 105.191 493.393 106.26 493.393 107.604C493.393 108.939 492.991 110.007 492.189 110.81C491.395 111.603 490.336 112 489.011 112H486.421V103.194H489.011ZM487.527 111.034H489.011C489.991 111.034 490.77 110.712 491.349 110.068C491.927 109.415 492.217 108.589 492.217 107.59C492.217 106.591 491.923 105.775 491.335 105.14C490.756 104.496 489.981 104.174 489.011 104.174H487.527V111.034ZM495.76 105.294H496.866V112H495.76V105.294ZM496.306 103.726C496.082 103.726 495.905 103.665 495.774 103.544C495.653 103.413 495.592 103.245 495.592 103.04C495.592 102.825 495.653 102.657 495.774 102.536C495.905 102.405 496.082 102.34 496.306 102.34C496.53 102.34 496.708 102.405 496.838 102.536C496.978 102.657 497.048 102.825 497.048 103.04C497.048 103.245 496.978 103.413 496.838 103.544C496.708 103.665 496.53 103.726 496.306 103.726ZM499.524 106.946C499.524 106.395 499.757 105.957 500.224 105.63C500.7 105.303 501.339 105.14 502.142 105.14C502.945 105.14 503.57 105.308 504.018 105.644C504.475 105.98 504.713 106.405 504.732 106.918H503.654C503.57 106.311 503.057 106.008 502.114 106.008C501.657 106.008 501.302 106.111 501.05 106.316C500.807 106.521 500.686 106.745 500.686 106.988C500.686 107.221 500.779 107.422 500.966 107.59C501.153 107.749 501.451 107.889 501.862 108.01L503.206 108.458C503.775 108.635 504.209 108.864 504.508 109.144C504.816 109.415 504.97 109.793 504.97 110.278C504.97 110.754 504.723 111.188 504.228 111.58C503.733 111.963 503.043 112.154 502.156 112.154C501.269 112.154 500.579 111.958 500.084 111.566C499.589 111.165 499.328 110.651 499.3 110.026H500.364C500.383 110.446 500.551 110.763 500.868 110.978C501.195 111.183 501.601 111.286 502.086 111.286C502.571 111.286 502.973 111.183 503.29 110.978C503.607 110.773 503.766 110.53 503.766 110.25C503.766 109.961 503.673 109.741 503.486 109.592C503.299 109.443 502.996 109.312 502.576 109.2L501.274 108.766C500.107 108.421 499.524 107.814 499.524 106.946ZM509.553 111.258C510.477 111.258 511.004 110.852 511.135 110.04H512.269C512.166 110.712 511.868 111.235 511.373 111.608C510.888 111.972 510.281 112.154 509.553 112.154C508.657 112.154 507.929 111.837 507.369 111.202C506.809 110.558 506.529 109.704 506.529 108.64C506.529 107.576 506.809 106.727 507.369 106.092C507.938 105.457 508.69 105.14 509.623 105.14C510.566 105.14 511.266 105.504 511.723 106.232C512.19 106.96 512.353 107.847 512.213 108.892H507.635C507.635 109.583 507.803 110.152 508.139 110.6C508.475 111.039 508.946 111.258 509.553 111.258ZM510.365 106.19C510.15 106.078 509.889 106.022 509.581 106.022C509.012 106.022 508.559 106.218 508.223 106.61C507.896 106.993 507.705 107.473 507.649 108.052H511.219C511.219 107.119 510.934 106.498 510.365 106.19ZM517.78 105.14C516.716 105.14 515.965 105.625 515.526 106.596L515.4 105.308H514.448V112H515.554V108.71C515.573 107.898 515.755 107.263 516.1 106.806C516.446 106.349 516.898 106.12 517.458 106.12C518.018 106.12 518.448 106.283 518.746 106.61C519.054 106.937 519.208 107.422 519.208 108.066V112H520.3V108.066C520.3 107.161 520.076 106.447 519.628 105.924C519.19 105.401 518.574 105.14 517.78 105.14ZM516.352 103.026C516.054 103.026 515.788 103.264 515.554 103.74L515.106 103.474C515.218 102.998 515.382 102.639 515.596 102.396C515.811 102.144 516.04 102.018 516.282 102.018C516.525 102.018 516.805 102.097 517.122 102.256C517.552 102.471 517.827 102.606 517.948 102.662C518.079 102.718 518.205 102.746 518.326 102.746C518.448 102.746 518.574 102.69 518.704 102.578C518.835 102.457 518.947 102.27 519.04 102.018L519.53 102.34C519.428 102.788 519.26 103.133 519.026 103.376C518.802 103.619 518.592 103.74 518.396 103.74C518.21 103.74 518.037 103.712 517.878 103.656C517.72 103.6 517.5 103.502 517.22 103.362C516.94 103.213 516.749 103.119 516.646 103.082C516.553 103.045 516.455 103.026 516.352 103.026ZM525.305 105.14C526.239 105.14 526.99 105.443 527.559 106.05C528.138 106.657 528.427 107.525 528.427 108.654C528.427 109.774 528.138 110.637 527.559 111.244C526.99 111.851 526.239 112.154 525.305 112.154C524.372 112.154 523.616 111.851 523.037 111.244C522.468 110.637 522.183 109.774 522.183 108.654C522.183 107.525 522.468 106.657 523.037 106.05C523.616 105.443 524.372 105.14 525.305 105.14ZM527.307 108.654C527.307 107.851 527.139 107.226 526.803 106.778C526.467 106.321 525.973 106.092 525.319 106.092C524.675 106.092 524.181 106.321 523.835 106.778C523.49 107.226 523.317 107.851 523.317 108.654C523.317 109.447 523.481 110.073 523.807 110.53C524.134 110.978 524.619 111.202 525.263 111.202C525.917 111.202 526.421 110.978 526.775 110.53C527.13 110.073 527.307 109.447 527.307 108.654ZM538.258 106.302V102.466H539.35V112H538.454L538.314 110.88C538.099 111.3 537.815 111.617 537.46 111.832C537.105 112.047 536.718 112.154 536.298 112.154C535.449 112.154 534.735 111.827 534.156 111.174C533.587 110.521 533.302 109.671 533.302 108.626C533.302 107.571 533.582 106.727 534.142 106.092C534.711 105.457 535.425 105.14 536.284 105.14C537.152 105.14 537.81 105.527 538.258 106.302ZM536.354 106.12C535.813 106.12 535.355 106.349 534.982 106.806C534.618 107.263 534.436 107.875 534.436 108.64C534.436 109.405 534.623 110.021 534.996 110.488C535.369 110.945 535.817 111.174 536.34 111.174C536.863 111.174 537.306 111.001 537.67 110.656C538.043 110.301 538.239 109.83 538.258 109.242V108.15C538.258 107.525 538.076 107.03 537.712 106.666C537.348 106.302 536.895 106.12 536.354 106.12ZM544.498 111.258C545.422 111.258 545.95 110.852 546.08 110.04H547.214C547.112 110.712 546.813 111.235 546.318 111.608C545.833 111.972 545.226 112.154 544.498 112.154C543.602 112.154 542.874 111.837 542.314 111.202C541.754 110.558 541.474 109.704 541.474 108.64C541.474 107.576 541.754 106.727 542.314 106.092C542.884 105.457 543.635 105.14 544.568 105.14C545.511 105.14 546.211 105.504 546.668 106.232C547.135 106.96 547.298 107.847 547.158 108.892H542.58C542.58 109.583 542.748 110.152 543.084 110.6C543.42 111.039 543.892 111.258 544.498 111.258ZM545.31 106.19C545.096 106.078 544.834 106.022 544.526 106.022C543.957 106.022 543.504 106.218 543.168 106.61C542.842 106.993 542.65 107.473 542.594 108.052H546.164C546.164 107.119 545.88 106.498 545.31 106.19ZM481.514 121.294H482.62V128H481.514V121.294ZM482.06 119.726C481.836 119.726 481.659 119.665 481.528 119.544C481.407 119.413 481.346 119.245 481.346 119.04C481.346 118.825 481.407 118.657 481.528 118.536C481.659 118.405 481.836 118.34 482.06 118.34C482.284 118.34 482.462 118.405 482.592 118.536C482.732 118.657 482.802 118.825 482.802 119.04C482.802 119.245 482.732 119.413 482.592 119.544C482.462 119.665 482.284 119.726 482.06 119.726ZM486.692 122.596C487.131 121.625 487.882 121.14 488.946 121.14C489.739 121.14 490.355 121.401 490.794 121.924C491.242 122.447 491.466 123.161 491.466 124.066V128H490.374V124.066C490.374 123.422 490.22 122.937 489.912 122.61C489.613 122.283 489.184 122.12 488.624 122.12C488.064 122.12 487.611 122.349 487.266 122.806C486.921 123.263 486.739 123.898 486.72 124.71V128H485.614V121.308H486.566L486.692 122.596ZM497.563 127.804C496.761 128.177 496.028 128.257 495.365 128.042C494.889 127.893 494.553 127.58 494.357 127.104C494.255 126.871 494.203 126.591 494.203 126.264V122.148H493.125V121.308H494.203V119.446H495.295V121.308H497.395V122.148H495.295V126.25C495.295 126.931 495.613 127.272 496.247 127.272C496.593 127.272 496.98 127.188 497.409 127.02L497.563 127.804ZM501.637 127.258C502.561 127.258 503.088 126.852 503.219 126.04H504.353C504.25 126.712 503.952 127.235 503.457 127.608C502.972 127.972 502.365 128.154 501.637 128.154C500.741 128.154 500.013 127.837 499.453 127.202C498.893 126.558 498.613 125.704 498.613 124.64C498.613 123.576 498.893 122.727 499.453 122.092C500.022 121.457 500.774 121.14 501.707 121.14C502.65 121.14 503.35 121.504 503.807 122.232C504.274 122.96 504.437 123.847 504.297 124.892H499.719C499.719 125.583 499.887 126.152 500.223 126.6C500.559 127.039 501.03 127.258 501.637 127.258ZM502.449 122.19C502.234 122.078 501.973 122.022 501.665 122.022C501.096 122.022 500.643 122.218 500.307 122.61C499.98 122.993 499.789 123.473 499.733 124.052H503.303C503.303 123.119 503.018 122.498 502.449 122.19ZM509.262 122.246C508.207 122.246 507.661 123.077 507.624 124.738V128H506.518V121.294H507.624V122.582C507.96 121.649 508.553 121.182 509.402 121.182C509.673 121.182 509.929 121.224 510.172 121.308L510.116 122.386C509.836 122.293 509.551 122.246 509.262 122.246ZM516.008 123.66C516.008 123.053 515.882 122.619 515.63 122.358C515.378 122.097 515.01 121.966 514.524 121.966C514.048 121.966 513.661 122.064 513.362 122.26C513.073 122.447 512.928 122.745 512.928 123.156H511.71C511.71 122.129 512.261 121.495 513.362 121.252C513.698 121.177 514.062 121.14 514.454 121.14C515.285 121.14 515.934 121.35 516.4 121.77C516.867 122.19 517.1 122.829 517.1 123.688V128H516.148L516.036 126.88C515.626 127.729 514.884 128.154 513.81 128.154C513.092 128.154 512.513 127.953 512.074 127.552C511.645 127.151 511.43 126.651 511.43 126.054C511.43 125.457 511.668 124.99 512.144 124.654C512.63 124.318 513.232 124.15 513.95 124.15C514.669 124.15 515.355 124.271 516.008 124.514V123.66ZM516.008 125.214C515.346 125.027 514.767 124.934 514.272 124.934C513.778 124.934 513.376 125.023 513.068 125.2C512.76 125.377 512.606 125.657 512.606 126.04C512.606 126.88 513.082 127.3 514.034 127.3C514.576 127.3 515.038 127.109 515.42 126.726C515.812 126.334 516.008 125.83 516.008 125.214ZM521.924 121.14C522.718 121.14 523.348 121.345 523.814 121.756C524.281 122.157 524.584 122.661 524.724 123.268L523.604 123.366C523.483 122.974 523.287 122.671 523.016 122.456C522.746 122.232 522.447 122.12 522.12 122.12C521.523 122.12 521.038 122.344 520.664 122.792C520.3 123.24 520.118 123.851 520.118 124.626C520.118 125.391 520.296 126.007 520.65 126.474C521.014 126.941 521.462 127.174 521.994 127.174C522.536 127.174 522.937 127.053 523.198 126.81C523.469 126.558 523.604 126.203 523.604 125.746H524.738C524.738 126.465 524.486 127.048 523.982 127.496C523.488 127.935 522.839 128.154 522.036 128.154C521.187 128.154 520.464 127.832 519.866 127.188C519.278 126.544 518.984 125.69 518.984 124.626C518.984 123.553 519.278 122.703 519.866 122.078C520.454 121.453 521.14 121.14 521.924 121.14ZM529.129 121.14C529.923 121.14 530.553 121.345 531.019 121.756C531.486 122.157 531.789 122.661 531.929 123.268L530.809 123.366C530.688 122.974 530.492 122.671 530.221 122.456C529.951 122.232 529.652 122.12 529.325 122.12C528.728 122.12 528.243 122.344 527.869 122.792C527.505 123.24 527.323 123.851 527.323 124.626C527.323 125.391 527.501 126.007 527.855 126.474C528.219 126.941 528.667 127.174 529.199 127.174C529.741 127.174 530.142 127.053 530.403 126.81C530.674 126.558 530.809 126.203 530.809 125.746H531.943C531.943 126.465 531.691 127.048 531.187 127.496C530.693 127.935 530.044 128.154 529.241 128.154C528.392 128.154 527.669 127.832 527.071 127.188C526.483 126.544 526.189 125.69 526.189 124.626C526.189 123.553 526.483 122.703 527.071 122.078C527.659 121.453 528.345 121.14 529.129 121.14ZM534.178 121.294H535.284V128H534.178V121.294ZM534.724 119.726C534.5 119.726 534.323 119.665 534.192 119.544C534.071 119.413 534.01 119.245 534.01 119.04C534.01 118.825 534.071 118.657 534.192 118.536C534.323 118.405 534.5 118.34 534.724 118.34C534.948 118.34 535.126 118.405 535.256 118.536C535.396 118.657 535.466 118.825 535.466 119.04C535.466 119.245 535.396 119.413 535.256 119.544C535.126 119.665 534.948 119.726 534.724 119.726ZM540.714 121.14C539.781 121.14 539.025 121.443 538.446 122.05C537.877 122.657 537.592 123.525 537.592 124.654C537.592 125.774 537.877 126.637 538.446 127.244C539.025 127.851 539.781 128.154 540.714 128.154C541.647 128.154 542.399 127.851 542.968 127.244C543.547 126.637 543.836 125.774 543.836 124.654C543.836 123.525 543.547 122.657 542.968 122.05C542.399 121.443 541.647 121.14 540.714 121.14ZM538.726 124.654C538.726 123.851 538.899 123.226 539.244 122.778C539.589 122.321 540.084 122.092 540.728 122.092C541.381 122.092 541.876 122.321 542.212 122.778C542.548 123.226 542.716 123.851 542.716 124.654C542.716 125.447 542.539 126.073 542.184 126.53C541.829 126.978 541.325 127.202 540.672 127.202C540.028 127.202 539.543 126.978 539.216 126.53C538.889 126.073 538.726 125.447 538.726 124.654ZM542.576 118.746L539.16 120.328L538.838 119.628L542.128 117.766L542.576 118.746ZM547.012 122.596C547.451 121.625 548.202 121.14 549.266 121.14C550.06 121.14 550.676 121.401 551.114 121.924C551.562 122.447 551.786 123.161 551.786 124.066V128H550.694V124.066C550.694 123.422 550.54 122.937 550.232 122.61C549.934 122.283 549.504 122.12 548.944 122.12C548.384 122.12 547.932 122.349 547.586 122.806C547.241 123.263 547.059 123.898 547.04 124.71V128H545.934V121.308H546.886L547.012 122.596Z" fill="#333333"/>
<path d="M621.079 103.194C622.049 103.194 622.787 103.441 623.291 103.936C623.804 104.421 624.061 105.079 624.061 105.91C624.061 106.741 623.804 107.399 623.291 107.884C622.787 108.36 622.049 108.598 621.079 108.598H619.343V112H618.237V103.194H621.079ZM621.079 107.646C621.685 107.646 622.143 107.492 622.451 107.184C622.768 106.876 622.927 106.456 622.927 105.924C622.927 105.383 622.768 104.953 622.451 104.636C622.143 104.309 621.685 104.146 621.079 104.146H619.343V107.646H621.079ZM628.747 106.246C627.692 106.246 627.146 107.077 627.109 108.738V112H626.003V105.294H627.109V106.582C627.445 105.649 628.037 105.182 628.887 105.182C629.157 105.182 629.414 105.224 629.657 105.308L629.601 106.386C629.321 106.293 629.036 106.246 628.747 106.246ZM633.757 105.14C634.69 105.14 635.441 105.443 636.011 106.05C636.589 106.657 636.879 107.525 636.879 108.654C636.879 109.774 636.589 110.637 636.011 111.244C635.441 111.851 634.69 112.154 633.757 112.154C632.823 112.154 632.067 111.851 631.489 111.244C630.919 110.637 630.635 109.774 630.635 108.654C630.635 107.525 630.919 106.657 631.489 106.05C632.067 105.443 632.823 105.14 633.757 105.14ZM635.759 108.654C635.759 107.851 635.591 107.226 635.255 106.778C634.919 106.321 634.424 106.092 633.771 106.092C633.127 106.092 632.632 106.321 632.287 106.778C631.941 107.226 631.769 107.851 631.769 108.654C631.769 109.447 631.932 110.073 632.259 110.53C632.585 110.978 633.071 111.202 633.715 111.202C634.368 111.202 634.872 110.978 635.227 110.53C635.581 110.073 635.759 109.447 635.759 108.654ZM642.491 111.804C641.688 112.177 640.956 112.257 640.293 112.042C639.817 111.893 639.481 111.58 639.285 111.104C639.182 110.871 639.131 110.591 639.131 110.264V106.148H638.053V105.308H639.131V103.446H640.223V105.308H642.323V106.148H640.223V110.25C640.223 110.931 640.54 111.272 641.175 111.272C641.52 111.272 641.908 111.188 642.337 111.02L642.491 111.804ZM646.663 105.14C647.596 105.14 648.347 105.443 648.917 106.05C649.495 106.657 649.785 107.525 649.785 108.654C649.785 109.774 649.495 110.637 648.917 111.244C648.347 111.851 647.596 112.154 646.663 112.154C645.729 112.154 644.973 111.851 644.395 111.244C643.825 110.637 643.541 109.774 643.541 108.654C643.541 107.525 643.825 106.657 644.395 106.05C644.973 105.443 645.729 105.14 646.663 105.14ZM648.665 108.654C648.665 107.851 648.497 107.226 648.161 106.778C647.825 106.321 647.33 106.092 646.677 106.092C646.033 106.092 645.538 106.321 645.193 106.778C644.847 107.226 644.675 107.851 644.675 108.654C644.675 109.447 644.838 110.073 645.165 110.53C645.491 110.978 645.977 111.202 646.621 111.202C647.274 111.202 647.778 110.978 648.133 110.53C648.487 110.073 648.665 109.447 648.665 108.654ZM655.397 111.804C654.595 112.177 653.862 112.257 653.199 112.042C652.723 111.893 652.387 111.58 652.191 111.104C652.089 110.871 652.037 110.591 652.037 110.264V106.148H650.959V105.308H652.037V103.446H653.129V105.308H655.229V106.148H653.129V110.25C653.129 110.931 653.447 111.272 654.081 111.272C654.427 111.272 654.814 111.188 655.243 111.02L655.397 111.804ZM657.231 105.294H658.337V112H657.231V105.294ZM657.777 103.726C657.553 103.726 657.376 103.665 657.245 103.544C657.124 103.413 657.063 103.245 657.063 103.04C657.063 102.825 657.124 102.657 657.245 102.536C657.376 102.405 657.553 102.34 657.777 102.34C658.001 102.34 658.178 102.405 658.309 102.536C658.449 102.657 658.519 102.825 658.519 103.04C658.519 103.245 658.449 103.413 658.309 103.544C658.178 103.665 658.001 103.726 657.777 103.726ZM662.381 106.33C662.819 105.537 663.473 105.14 664.341 105.14C665.218 105.14 665.946 105.462 666.525 106.106C667.113 106.75 667.407 107.599 667.407 108.654C667.407 109.709 667.113 110.558 666.525 111.202C665.937 111.837 665.213 112.154 664.355 112.154C663.496 112.154 662.861 111.832 662.451 111.188V115.29H661.345V105.308H662.255L662.381 106.33ZM664.299 111.174C664.821 111.174 665.279 110.95 665.671 110.502C666.072 110.054 666.273 109.443 666.273 108.668C666.273 107.884 666.081 107.263 665.699 106.806C665.325 106.349 664.868 106.12 664.327 106.12C663.785 106.12 663.342 106.293 662.997 106.638C662.651 106.974 662.469 107.431 662.451 108.01V109.284C662.451 109.872 662.628 110.334 662.983 110.67C663.337 111.006 663.776 111.174 664.299 111.174ZM673.801 107.66C673.801 107.053 673.675 106.619 673.423 106.358C673.171 106.097 672.802 105.966 672.317 105.966C671.841 105.966 671.454 106.064 671.155 106.26C670.866 106.447 670.721 106.745 670.721 107.156H669.503C669.503 106.129 670.054 105.495 671.155 105.252C671.491 105.177 671.855 105.14 672.247 105.14C673.078 105.14 673.726 105.35 674.193 105.77C674.66 106.19 674.893 106.829 674.893 107.688V112H673.941L673.829 110.88C673.418 111.729 672.676 112.154 671.603 112.154C670.884 112.154 670.306 111.953 669.867 111.552C669.438 111.151 669.223 110.651 669.223 110.054C669.223 109.457 669.461 108.99 669.937 108.654C670.422 108.318 671.024 108.15 671.743 108.15C672.462 108.15 673.148 108.271 673.801 108.514V107.66ZM673.801 109.214C673.138 109.027 672.56 108.934 672.065 108.934C671.57 108.934 671.169 109.023 670.861 109.2C670.553 109.377 670.399 109.657 670.399 110.04C670.399 110.88 670.875 111.3 671.827 111.3C672.368 111.3 672.83 111.109 673.213 110.726C673.605 110.334 673.801 109.83 673.801 109.214ZM681.873 106.302V102.466H682.965V112H682.069L681.929 110.88C681.714 111.3 681.43 111.617 681.075 111.832C680.72 112.047 680.333 112.154 679.913 112.154C679.064 112.154 678.35 111.827 677.771 111.174C677.202 110.521 676.917 109.671 676.917 108.626C676.917 107.571 677.197 106.727 677.757 106.092C678.326 105.457 679.04 105.14 679.899 105.14C680.767 105.14 681.425 105.527 681.873 106.302ZM679.969 106.12C679.428 106.12 678.97 106.349 678.597 106.806C678.233 107.263 678.051 107.875 678.051 108.64C678.051 109.405 678.238 110.021 678.611 110.488C678.984 110.945 679.432 111.174 679.955 111.174C680.478 111.174 680.921 111.001 681.285 110.656C681.658 110.301 681.854 109.83 681.873 109.242V108.15C681.873 107.525 681.691 107.03 681.327 106.666C680.963 106.302 680.51 106.12 679.969 106.12ZM688.212 105.14C689.145 105.14 689.896 105.443 690.466 106.05C691.044 106.657 691.334 107.525 691.334 108.654C691.334 109.774 691.044 110.637 690.466 111.244C689.896 111.851 689.145 112.154 688.212 112.154C687.278 112.154 686.522 111.851 685.944 111.244C685.374 110.637 685.09 109.774 685.09 108.654C685.09 107.525 685.374 106.657 685.944 106.05C686.522 105.443 687.278 105.14 688.212 105.14ZM690.214 108.654C690.214 107.851 690.046 107.226 689.71 106.778C689.374 106.321 688.879 106.092 688.226 106.092C687.582 106.092 687.087 106.321 686.742 106.778C686.396 107.226 686.224 107.851 686.224 108.654C686.224 109.447 686.387 110.073 686.714 110.53C687.04 110.978 687.526 111.202 688.17 111.202C688.823 111.202 689.327 110.978 689.682 110.53C690.036 110.073 690.214 109.447 690.214 108.654ZM695.438 113.946C695.895 114.301 696.376 114.478 696.88 114.478C697.253 114.478 697.575 114.291 697.846 113.918C698.042 113.647 698.219 113.237 698.378 112.686L698.574 112L695.83 105.308H697.062L699.092 110.642L700.674 105.308H701.794L699.288 113.33C699.073 114.011 698.789 114.534 698.434 114.898C698.089 115.262 697.645 115.444 697.104 115.444C696.572 115.444 696.017 115.281 695.438 114.954V113.946ZM644.439 127.804C643.637 128.177 642.904 128.257 642.241 128.042C641.765 127.893 641.429 127.58 641.233 127.104C641.131 126.871 641.079 126.591 641.079 126.264V122.148H640.001V121.308H641.079V119.446H642.171V121.308H644.271V122.148H642.171V126.25C642.171 126.931 642.489 127.272 643.123 127.272C643.469 127.272 643.856 127.188 644.285 127.02L644.439 127.804ZM648.513 127.258C649.437 127.258 649.964 126.852 650.095 126.04H651.229C651.126 126.712 650.828 127.235 650.333 127.608C649.848 127.972 649.241 128.154 648.513 128.154C647.617 128.154 646.889 127.837 646.329 127.202C645.769 126.558 645.489 125.704 645.489 124.64C645.489 123.576 645.769 122.727 646.329 122.092C646.898 121.457 647.65 121.14 648.583 121.14C649.526 121.14 650.226 121.504 650.683 122.232C651.15 122.96 651.313 123.847 651.173 124.892H646.595C646.595 125.583 646.763 126.152 647.099 126.6C647.435 127.039 647.906 127.258 648.513 127.258ZM649.325 122.19C649.11 122.078 648.849 122.022 648.541 122.022C647.972 122.022 647.519 122.218 647.183 122.61C646.856 122.993 646.665 123.473 646.609 124.052H650.179C650.179 123.119 649.894 122.498 649.325 122.19ZM653.058 122.946C653.058 122.395 653.291 121.957 653.758 121.63C654.234 121.303 654.873 121.14 655.676 121.14C656.479 121.14 657.104 121.308 657.552 121.644C658.009 121.98 658.247 122.405 658.266 122.918H657.188C657.104 122.311 656.591 122.008 655.648 122.008C655.191 122.008 654.836 122.111 654.584 122.316C654.341 122.521 654.22 122.745 654.22 122.988C654.22 123.221 654.313 123.422 654.5 123.59C654.687 123.749 654.985 123.889 655.396 124.01L656.74 124.458C657.309 124.635 657.743 124.864 658.042 125.144C658.35 125.415 658.504 125.793 658.504 126.278C658.504 126.754 658.257 127.188 657.762 127.58C657.267 127.963 656.577 128.154 655.69 128.154C654.803 128.154 654.113 127.958 653.618 127.566C653.123 127.165 652.862 126.651 652.834 126.026H653.898C653.917 126.446 654.085 126.763 654.402 126.978C654.729 127.183 655.135 127.286 655.62 127.286C656.105 127.286 656.507 127.183 656.824 126.978C657.141 126.773 657.3 126.53 657.3 126.25C657.3 125.961 657.207 125.741 657.02 125.592C656.833 125.443 656.53 125.312 656.11 125.2L654.808 124.766C653.641 124.421 653.058 123.814 653.058 122.946ZM664.277 127.804C663.475 128.177 662.742 128.257 662.079 128.042C661.603 127.893 661.267 127.58 661.071 127.104C660.969 126.871 660.917 126.591 660.917 126.264V122.148H659.839V121.308H660.917V119.446H662.009V121.308H664.109V122.148H662.009V126.25C662.009 126.931 662.327 127.272 662.961 127.272C663.307 127.272 663.694 127.188 664.123 127.02L664.277 127.804ZM668.351 127.258C669.275 127.258 669.802 126.852 669.933 126.04H671.067C670.964 126.712 670.666 127.235 670.171 127.608C669.686 127.972 669.079 128.154 668.351 128.154C667.455 128.154 666.727 127.837 666.167 127.202C665.607 126.558 665.327 125.704 665.327 124.64C665.327 123.576 665.607 122.727 666.167 122.092C666.736 121.457 667.488 121.14 668.421 121.14C669.364 121.14 670.064 121.504 670.521 122.232C670.988 122.96 671.151 123.847 671.011 124.892H666.433C666.433 125.583 666.601 126.152 666.937 126.6C667.273 127.039 667.744 127.258 668.351 127.258ZM669.163 122.19C668.948 122.078 668.687 122.022 668.379 122.022C667.81 122.022 667.357 122.218 667.021 122.61C666.694 122.993 666.503 123.473 666.447 124.052H670.017C670.017 123.119 669.732 122.498 669.163 122.19ZM675.654 121.14C676.587 121.14 677.339 121.443 677.908 122.05C678.487 122.657 678.776 123.525 678.776 124.654C678.776 125.774 678.487 126.637 677.908 127.244C677.339 127.851 676.587 128.154 675.654 128.154C674.721 128.154 673.965 127.851 673.386 127.244C672.817 126.637 672.532 125.774 672.532 124.654C672.532 123.525 672.817 122.657 673.386 122.05C673.965 121.443 674.721 121.14 675.654 121.14ZM677.656 124.654C677.656 123.851 677.488 123.226 677.152 122.778C676.816 122.321 676.321 122.092 675.668 122.092C675.024 122.092 674.529 122.321 674.184 122.778C673.839 123.226 673.666 123.851 673.666 124.654C673.666 125.447 673.829 126.073 674.156 126.53C674.483 126.978 674.968 127.202 675.612 127.202C676.265 127.202 676.769 126.978 677.124 126.53C677.479 126.073 677.656 125.447 677.656 124.654Z" fill="#333333"/>
</svg>
