<svg width="618" height="164" viewBox="0 0 618 164" fill="none" xmlns="http://www.w3.org/2000/svg">
<path d="M103.914 33.5H70.9141C67.8203 33.5 65.4141 35.9922 65.4141 39V63.6641C65.4141 66.6719 67.8203 69.0781 70.9141 69.0781H79.1641V76.2109C79.1641 77.0703 80.1094 77.5 80.7969 77.0703L91.5391 68.9922H103.914C106.922 68.9922 109.414 66.5 109.414 63.5781V39C109.414 35.9922 107.008 33.5 103.914 33.5ZM106.75 63.75C106.75 65.2969 105.461 66.5 104 66.5H91.5391C90.9375 66.5 90.4219 66.7578 89.9062 67.1016L82 73.0312V67.875C82 67.1875 81.3125 66.5 80.625 66.5H71C69.4531 66.5 68.25 65.2969 68.25 63.75V39C68.25 37.5391 69.4531 36.25 71 36.25H104C105.461 36.25 106.75 37.5391 106.75 39V63.75ZM93.3438 45.875L85.1797 54.0391L81.5703 50.4297C81.0547 49.9141 80.1094 49.9141 79.5938 50.4297C79.0781 50.9453 79.0781 51.8906 79.5938 52.4062L84.2344 56.9609C84.4922 57.2188 84.8359 57.3906 85.1797 57.3906C85.5234 57.3906 85.8672 57.2188 86.125 56.9609L95.3203 47.7656C95.8359 47.25 95.8359 46.3906 95.3203 45.875C94.8047 45.3594 93.8594 45.3594 93.3438 45.875Z" fill="#333333"/>
<path d="M222.969 69.25H219.531C215.922 69.25 213 72.3438 213 76.125C213 76.8984 213.602 77.5 214.375 77.5C215.062 77.5 215.75 76.8984 215.75 76.125C215.75 73.8906 217.383 72 219.531 72H222.969C225.031 72 226.75 73.8906 226.75 76.125C226.75 76.8984 227.352 77.5 228.125 77.5C228.812 77.5 229.5 76.8984 229.5 76.125C229.5 72.3438 226.492 69.25 222.969 69.25ZM261.469 69.25H258.031C254.422 69.25 251.5 72.3438 251.5 76.125C251.5 76.8984 252.102 77.5 252.875 77.5C253.562 77.5 254.25 76.8984 254.25 76.125C254.25 73.8906 255.883 72 258.031 72H261.469C263.531 72 265.25 73.8906 265.25 76.125C265.25 76.8984 265.852 77.5 266.625 77.5C267.312 77.5 268 76.8984 268 76.125C268 72.3438 264.992 69.25 261.469 69.25ZM242.219 69.25H238.781C235.172 69.25 232.25 72.3438 232.25 76.125C232.25 76.8984 232.852 77.5 233.625 77.5C234.312 77.5 235 76.8984 235 76.125C235 73.8906 236.633 72 238.781 72H242.219C244.281 72 246 73.8906 246 76.125C246 76.8984 246.602 77.5 247.375 77.5C248.062 77.5 248.75 76.8984 248.75 76.125C248.75 72.3438 245.742 69.25 242.219 69.25ZM235 61C235 64.0938 237.406 66.5 240.414 66.5C243.508 66.5 245.914 64.0938 245.914 61C245.914 57.9922 243.508 55.5 240.5 55.5C237.406 55.5 235 57.9922 235 61ZM243.25 61C243.25 62.5469 241.961 63.75 240.5 63.75C238.953 63.75 237.75 62.5469 237.75 61C237.75 59.5391 238.953 58.25 240.5 58.25C241.961 58.25 243.25 59.5391 243.25 61ZM259.75 55.5C256.656 55.5 254.25 57.9922 254.25 61C254.25 64.0938 256.656 66.5 259.75 66.5C262.758 66.5 265.164 64.0938 265.164 61C265.164 57.9922 262.758 55.5 259.75 55.5ZM259.75 63.75C258.203 63.75 257 62.5469 257 61C257 59.5391 258.203 58.25 259.75 58.25C261.211 58.25 262.5 59.5391 262.5 61C262.5 62.5469 261.211 63.75 259.75 63.75ZM221.25 66.5C224.258 66.5 226.664 64.0078 226.664 61C226.664 57.9062 224.258 55.5 221.25 55.5C218.156 55.5 215.75 57.9922 215.75 61C215.75 64.0938 218.156 66.5 221.25 66.5ZM221.25 58.25C222.711 58.25 224 59.5391 224 61C224 62.5469 222.711 63.75 221.25 63.75C219.703 63.75 218.5 62.5469 218.5 61C218.5 59.5391 219.703 58.25 221.25 58.25ZM217.125 54.125C217.812 54.125 218.5 53.5234 218.5 52.75V37.625C218.5 36.9375 219.102 36.25 219.875 36.25H261.125C261.812 36.25 262.5 36.9375 262.5 37.625V52.75C262.5 53.5234 263.102 54.125 263.875 54.125C264.562 54.125 265.25 53.5234 265.25 52.75V37.625C265.25 35.3906 263.359 33.5859 261.125 33.5859H219.875C217.555 33.5 215.75 35.3906 215.75 37.625V52.75C215.75 53.5234 216.352 54.125 217.125 54.125Z" fill="#333333"/>
<path d="M398.914 69.25H388C387.227 69.25 386.625 69.8516 386.625 70.625V72.6016C386.625 73.1172 386.711 73.6328 387.055 74.0625L388.516 76.2969C388.945 76.9844 389.977 77.5 390.836 77.5H396.078C396.938 77.5 397.969 76.9844 398.398 76.2969L399.859 74.0625C400.117 73.7188 400.289 73.0312 400.289 72.6016V70.625C400.289 69.9375 399.688 69.25 398.914 69.25ZM397.539 72.6016L396.164 74.6641C396.164 74.75 396.078 74.75 396.078 74.75L390.922 74.8359C390.922 74.75 390.836 74.75 390.836 74.75L389.375 72.6016V72H397.625V72.5156C397.539 72.5156 397.539 72.6016 397.539 72.6016ZM404.07 37.9688C401.234 35.1328 397.367 33.4141 393.414 33.5859C385.078 33.5859 378.375 40.375 378.375 48.7969C378.375 52.4922 379.664 56.0156 382.07 58.7656C383.188 60.1406 385.164 63.0625 385.852 65.3828C385.938 66.0703 386.625 66.5859 387.312 66.5C388.086 66.4141 388.602 65.7266 388.602 65.0391L388.516 64.6953C387.656 61.6875 385.422 58.4219 384.133 57.0469C382.156 54.7266 381.125 51.8047 381.125 48.7969C381.125 41.8359 386.539 36.3359 393.414 36.3359H393.5C396.766 36.3359 399.859 37.5391 402.18 39.9453C404.5 42.2656 405.875 45.4453 405.875 48.7969C405.875 51.8047 404.758 54.7266 402.781 57.0469C401.492 58.4219 399.258 61.6875 398.398 64.6953L398.312 65.0391C398.227 65.7266 398.742 66.5 399.516 66.5859C399.602 66.5859 399.688 66.5859 399.688 66.5859C400.375 66.5859 400.977 66.1562 401.062 65.4688C401.75 63.0625 403.727 60.1406 404.844 58.8516C407.25 56.0156 408.625 52.4922 408.625 48.7969C408.625 44.6719 406.992 40.8047 404.07 37.9688ZM394.875 40.4609C394.875 39.6875 394.188 39.0859 393.5 39.0859C388.172 39.0859 383.875 43.3828 383.875 48.625C383.875 49.3984 384.477 50 385.25 50C385.938 50 386.625 49.3984 386.625 48.625C386.625 44.8438 389.633 41.8359 393.5 41.8359C394.188 41.8359 394.875 41.1484 394.875 40.4609Z" fill="#333333"/>
<path d="M568.5 41.75V39C568.5 37.5391 567.211 36.25 565.75 36.25H563C561.453 36.25 560.25 37.5391 560.25 39H532.75C532.75 37.5391 531.461 36.25 530 36.25H527.25C525.703 36.25 524.5 37.5391 524.5 39V41.75C524.5 43.2969 525.703 44.5 527.25 44.5V66.5C525.703 66.5 524.5 67.7891 524.5 69.25V72C524.5 73.5469 525.703 74.75 527.25 74.75H530C531.461 74.75 532.75 73.5469 532.75 72H560.25C560.25 73.5469 561.453 74.75 563 74.75H565.75C567.211 74.75 568.5 73.5469 568.5 72V69.25C568.5 67.7891 567.211 66.5 565.75 66.5V44.5C567.211 44.5 568.5 43.2969 568.5 41.75ZM527.25 39H530V41.75H527.25V39ZM530 72H527.25V69.25H530V72ZM560.25 69.25H532.75C532.75 67.7891 531.461 66.5 530 66.5V44.5C531.461 44.5 532.75 43.2969 532.75 41.75H560.25C560.25 43.2969 561.453 44.5 563 44.5V66.5C561.453 66.5 560.25 67.7891 560.25 69.25ZM565.75 72H563V69.25H565.75V72ZM563 41.75V39H565.75V41.75H563ZM549.25 55.5V47.25C549.25 45.7891 547.961 44.5 546.5 44.5H535.5C533.953 44.5 532.75 45.7891 532.75 47.25V55.5C532.75 57.0469 533.953 58.25 535.5 58.25H546.5C547.961 58.25 549.25 57.0469 549.25 55.5ZM535.5 47.25H546.5V55.5H535.5V47.25ZM557.5 52.75H553.375C552.602 52.75 552 53.4375 552 54.125C552 54.8984 552.602 55.5 553.289 55.5H557.5V63.75H546.5V62.375C546.5 61.6875 545.812 61 545.125 61C544.352 61 543.75 61.6875 543.75 62.375V63.75C543.75 65.2969 544.953 66.5 546.5 66.5H557.5C558.961 66.5 560.25 65.2969 560.25 63.75V55.5C560.25 54.0391 558.961 52.75 557.5 52.75Z" fill="#333333"/>
<path d="M52.3209 103.194H57.7389V104.146H53.4269V107.1H57.4869V108.038H53.4269V111.034H57.7389V112H52.3209V103.194ZM61.2602 106.596C61.6989 105.625 62.4502 105.14 63.5142 105.14C64.3076 105.14 64.9236 105.401 65.3622 105.924C65.8102 106.447 66.0342 107.161 66.0342 108.066V112H64.9422V108.066C64.9422 107.422 64.7882 106.937 64.4802 106.61C64.1816 106.283 63.7522 106.12 63.1922 106.12C62.6322 106.12 62.1796 106.349 61.8342 106.806C61.4889 107.263 61.3069 107.898 61.2882 108.71V112H60.1822V105.308H61.1342L61.2602 106.596ZM72.1318 111.804C71.3291 112.177 70.5964 112.257 69.9338 112.042C69.4578 111.893 69.1218 111.58 68.9258 111.104C68.8231 110.871 68.7718 110.591 68.7718 110.264V106.148H67.6938V105.308H68.7718V103.446H69.8638V105.308H71.9638V106.148H69.8638V110.25C69.8638 110.931 70.1811 111.272 70.8158 111.272C71.1611 111.272 71.5484 111.188 71.9778 111.02L72.1318 111.804ZM76.6254 106.246C75.5708 106.246 75.0248 107.077 74.9874 108.738V112H73.8814V105.294H74.9874V106.582C75.3234 105.649 75.9161 105.182 76.7654 105.182C77.0361 105.182 77.2928 105.224 77.5354 105.308L77.4794 106.386C77.1994 106.293 76.9148 106.246 76.6254 106.246ZM81.5375 111.258C82.4615 111.258 82.9888 110.852 83.1195 110.04H84.2535C84.1508 110.712 83.8521 111.235 83.3575 111.608C82.8721 111.972 82.2655 112.154 81.5375 112.154C80.6415 112.154 79.9135 111.837 79.3535 111.202C78.7935 110.558 78.5135 109.704 78.5135 108.64C78.5135 107.576 78.7935 106.727 79.3535 106.092C79.9228 105.457 80.6741 105.14 81.6075 105.14C82.5501 105.14 83.2501 105.504 83.7075 106.232C84.1741 106.96 84.3375 107.847 84.1975 108.892H79.6195C79.6195 109.583 79.7875 110.152 80.1235 110.6C80.4595 111.039 80.9308 111.258 81.5375 111.258ZM82.3495 106.19C82.1348 106.078 81.8735 106.022 81.5655 106.022C80.9961 106.022 80.5435 106.218 80.2075 106.61C79.8808 106.993 79.6895 107.473 79.6335 108.052H83.2035C83.2035 107.119 82.9188 106.498 82.3495 106.19ZM86.5166 105.308L88.5326 110.838L90.5626 105.308H91.8086L89.1486 112H87.9306L85.2706 105.308H86.5166ZM93.5436 105.294H94.6496V112H93.5436V105.294ZM94.0896 103.726C93.8656 103.726 93.6882 103.665 93.5576 103.544C93.4362 103.413 93.3756 103.245 93.3756 103.04C93.3756 102.825 93.4362 102.657 93.5576 102.536C93.6882 102.405 93.8656 102.34 94.0896 102.34C94.3136 102.34 94.4909 102.405 94.6216 102.536C94.7616 102.657 94.8316 102.825 94.8316 103.04C94.8316 103.245 94.7616 103.413 94.6216 103.544C94.4909 103.665 94.3136 103.726 94.0896 103.726ZM97.3072 106.946C97.3072 106.395 97.5405 105.957 98.0072 105.63C98.4832 105.303 99.1225 105.14 99.9252 105.14C100.728 105.14 101.353 105.308 101.801 105.644C102.258 105.98 102.496 106.405 102.515 106.918H101.437C101.353 106.311 100.84 106.008 99.8972 106.008C99.4398 106.008 99.0852 106.111 98.8332 106.316C98.5905 106.521 98.4692 106.745 98.4692 106.988C98.4692 107.221 98.5625 107.422 98.7492 107.59C98.9358 107.749 99.2345 107.889 99.6452 108.01L100.989 108.458C101.558 108.635 101.992 108.864 102.291 109.144C102.599 109.415 102.753 109.793 102.753 110.278C102.753 110.754 102.506 111.188 102.011 111.58C101.516 111.963 100.826 112.154 99.9392 112.154C99.0525 112.154 98.3618 111.958 97.8672 111.566C97.3725 111.165 97.1112 110.651 97.0832 110.026H98.1472C98.1658 110.446 98.3338 110.763 98.6512 110.978C98.9778 111.183 99.3838 111.286 99.8692 111.286C100.354 111.286 100.756 111.183 101.073 110.978C101.39 110.773 101.549 110.53 101.549 110.25C101.549 109.961 101.456 109.741 101.269 109.592C101.082 109.443 100.779 109.312 100.359 109.2L99.0572 108.766C97.8905 108.421 97.3072 107.814 97.3072 106.946ZM108.526 111.804C107.724 112.177 106.991 112.257 106.328 112.042C105.852 111.893 105.516 111.58 105.32 111.104C105.218 110.871 105.166 110.591 105.166 110.264V106.148H104.088V105.308H105.166V103.446H106.258V105.308H108.358V106.148H106.258V110.25C106.258 110.931 106.576 111.272 107.21 111.272C107.556 111.272 107.943 111.188 108.372 111.02L108.526 111.804ZM114.434 107.66C114.434 107.053 114.308 106.619 114.056 106.358C113.804 106.097 113.435 105.966 112.95 105.966C112.474 105.966 112.087 106.064 111.788 106.26C111.499 106.447 111.354 106.745 111.354 107.156H110.136C110.136 106.129 110.687 105.495 111.788 105.252C112.124 105.177 112.488 105.14 112.88 105.14C113.711 105.14 114.359 105.35 114.826 105.77C115.293 106.19 115.526 106.829 115.526 107.688V112H114.574L114.462 110.88C114.051 111.729 113.309 112.154 112.236 112.154C111.517 112.154 110.939 111.953 110.5 111.552C110.071 111.151 109.856 110.651 109.856 110.054C109.856 109.457 110.094 108.99 110.57 108.654C111.055 108.318 111.657 108.15 112.376 108.15C113.095 108.15 113.781 108.271 114.434 108.514V107.66ZM114.434 109.214C113.771 109.027 113.193 108.934 112.698 108.934C112.203 108.934 111.802 109.023 111.494 109.2C111.186 109.377 111.032 109.657 111.032 110.04C111.032 110.88 111.508 111.3 112.46 111.3C113.001 111.3 113.463 111.109 113.846 110.726C114.238 110.334 114.434 109.83 114.434 109.214ZM117.774 106.946C117.774 106.395 118.007 105.957 118.474 105.63C118.95 105.303 119.589 105.14 120.392 105.14C121.195 105.14 121.82 105.308 122.268 105.644C122.725 105.98 122.963 106.405 122.982 106.918H121.904C121.82 106.311 121.307 106.008 120.364 106.008C119.907 106.008 119.552 106.111 119.3 106.316C119.057 106.521 118.936 106.745 118.936 106.988C118.936 107.221 119.029 107.422 119.216 107.59C119.403 107.749 119.701 107.889 120.112 108.01L121.456 108.458C122.025 108.635 122.459 108.864 122.758 109.144C123.066 109.415 123.22 109.793 123.22 110.278C123.22 110.754 122.973 111.188 122.478 111.58C121.983 111.963 121.293 112.154 120.406 112.154C119.519 112.154 118.829 111.958 118.334 111.566C117.839 111.165 117.578 110.651 117.55 110.026H118.614C118.633 110.446 118.801 110.763 119.118 110.978C119.445 111.183 119.851 111.286 120.336 111.286C120.821 111.286 121.223 111.183 121.54 110.978C121.857 110.773 122.016 110.53 122.016 110.25C122.016 109.961 121.923 109.741 121.736 109.592C121.549 109.443 121.246 109.312 120.826 109.2L119.524 108.766C118.357 108.421 117.774 107.814 117.774 106.946ZM46.6597 122.946C46.6597 122.395 46.893 121.957 47.3597 121.63C47.8357 121.303 48.475 121.14 49.2777 121.14C50.0804 121.14 50.7057 121.308 51.1537 121.644C51.611 121.98 51.849 122.405 51.8677 122.918H50.7897C50.7057 122.311 50.1924 122.008 49.2497 122.008C48.7924 122.008 48.4377 122.111 48.1857 122.316C47.943 122.521 47.8217 122.745 47.8217 122.988C47.8217 123.221 47.915 123.422 48.1017 123.59C48.2884 123.749 48.587 123.889 48.9977 124.01L50.3417 124.458C50.911 124.635 51.345 124.864 51.6437 125.144C51.9517 125.415 52.1057 125.793 52.1057 126.278C52.1057 126.754 51.8584 127.188 51.3637 127.58C50.869 127.963 50.1784 128.154 49.2917 128.154C48.405 128.154 47.7144 127.958 47.2197 127.566C46.725 127.165 46.4637 126.651 46.4357 126.026H47.4997C47.5184 126.446 47.6864 126.763 48.0037 126.978C48.3304 127.183 48.7364 127.286 49.2217 127.286C49.707 127.286 50.1084 127.183 50.4257 126.978C50.743 126.773 50.9017 126.53 50.9017 126.25C50.9017 125.961 50.8084 125.741 50.6217 125.592C50.435 125.443 50.1317 125.312 49.7117 125.2L48.4097 124.766C47.243 124.421 46.6597 123.814 46.6597 122.946ZM57.8788 127.804C57.0762 128.177 56.3435 128.257 55.6808 128.042C55.2048 127.893 54.8688 127.58 54.6728 127.104C54.5702 126.871 54.5188 126.591 54.5188 126.264V122.148H53.4408V121.308H54.5188V119.446H55.6108V121.308H57.7108V122.148H55.6108V126.25C55.6108 126.931 55.9282 127.272 56.5628 127.272C56.9082 127.272 57.2955 127.188 57.7248 127.02L57.8788 127.804ZM63.7865 123.66C63.7865 123.053 63.6605 122.619 63.4085 122.358C63.1565 122.097 62.7878 121.966 62.3025 121.966C61.8265 121.966 61.4392 122.064 61.1405 122.26C60.8512 122.447 60.7065 122.745 60.7065 123.156H59.4885C59.4885 122.129 60.0392 121.495 61.1405 121.252C61.4765 121.177 61.8405 121.14 62.2325 121.14C63.0632 121.14 63.7118 121.35 64.1785 121.77C64.6452 122.19 64.8785 122.829 64.8785 123.688V128H63.9265L63.8145 126.88C63.4038 127.729 62.6618 128.154 61.5885 128.154C60.8698 128.154 60.2912 127.953 59.8525 127.552C59.4232 127.151 59.2085 126.651 59.2085 126.054C59.2085 125.457 59.4465 124.99 59.9225 124.654C60.4078 124.318 61.0098 124.15 61.7285 124.15C62.4472 124.15 63.1332 124.271 63.7865 124.514V123.66ZM63.7865 125.214C63.1238 125.027 62.5452 124.934 62.0505 124.934C61.5558 124.934 61.1545 125.023 60.8465 125.2C60.5385 125.377 60.3845 125.657 60.3845 126.04C60.3845 126.88 60.8605 127.3 61.8125 127.3C62.3538 127.3 62.8158 127.109 63.1985 126.726C63.5905 126.334 63.7865 125.83 63.7865 125.214ZM69.4785 124.458L68.5825 125.186V128H67.4765V118.466H68.5825V124.01L71.8165 121.308H73.3565L70.2765 123.814L73.5105 128H72.1525L69.4785 124.458ZM77.6888 127.258C78.6128 127.258 79.1402 126.852 79.2708 126.04H80.4048C80.3022 126.712 80.0035 127.235 79.5088 127.608C79.0235 127.972 78.4168 128.154 77.6888 128.154C76.7928 128.154 76.0648 127.837 75.5048 127.202C74.9448 126.558 74.6648 125.704 74.6648 124.64C74.6648 123.576 74.9448 122.727 75.5048 122.092C76.0742 121.457 76.8255 121.14 77.7588 121.14C78.7015 121.14 79.4015 121.504 79.8588 122.232C80.3255 122.96 80.4888 123.847 80.3488 124.892H75.7708C75.7708 125.583 75.9388 126.152 76.2748 126.6C76.6108 127.039 77.0822 127.258 77.6888 127.258ZM78.5008 122.19C78.2862 122.078 78.0248 122.022 77.7168 122.022C77.1475 122.022 76.6948 122.218 76.3588 122.61C76.0322 122.993 75.8408 123.473 75.7848 124.052H79.3548C79.3548 123.119 79.0702 122.498 78.5008 122.19ZM83.6899 122.54C84.1379 121.607 84.8799 121.14 85.9159 121.14C86.7093 121.14 87.3253 121.401 87.7639 121.924C88.2119 122.447 88.4359 123.161 88.4359 124.066V128H87.3439V124.066C87.3439 123.422 87.1899 122.937 86.8819 122.61C86.5833 122.283 86.1493 122.12 85.5799 122.12C85.0106 122.12 84.5533 122.363 84.2079 122.848C83.8626 123.324 83.6899 123.987 83.6899 124.836V128H82.5839V118.466H83.6899V122.54ZM93.4411 121.14C94.3745 121.14 95.1258 121.443 95.6951 122.05C96.2738 122.657 96.5631 123.525 96.5631 124.654C96.5631 125.774 96.2738 126.637 95.6951 127.244C95.1258 127.851 94.3745 128.154 93.4411 128.154C92.5078 128.154 91.7518 127.851 91.1731 127.244C90.6038 126.637 90.3191 125.774 90.3191 124.654C90.3191 123.525 90.6038 122.657 91.1731 122.05C91.7518 121.443 92.5078 121.14 93.4411 121.14ZM95.4431 124.654C95.4431 123.851 95.2751 123.226 94.9391 122.778C94.6031 122.321 94.1085 122.092 93.4551 122.092C92.8111 122.092 92.3165 122.321 91.9711 122.778C91.6258 123.226 91.4531 123.851 91.4531 124.654C91.4531 125.447 91.6165 126.073 91.9431 126.53C92.2698 126.978 92.7551 127.202 93.3991 127.202C94.0525 127.202 94.5565 126.978 94.9111 126.53C95.2658 126.073 95.4431 125.447 95.4431 124.654ZM98.6757 118.466H99.7817V128H98.6757V118.466ZM106.982 122.302V118.466H108.074V128H107.178L107.038 126.88C106.823 127.3 106.538 127.617 106.184 127.832C105.829 128.047 105.442 128.154 105.022 128.154C104.172 128.154 103.458 127.827 102.88 127.174C102.31 126.521 102.026 125.671 102.026 124.626C102.026 123.571 102.306 122.727 102.866 122.092C103.435 121.457 104.149 121.14 105.008 121.14C105.876 121.14 106.534 121.527 106.982 122.302ZM105.078 122.12C104.536 122.12 104.079 122.349 103.706 122.806C103.342 123.263 103.16 123.875 103.16 124.64C103.16 125.405 103.346 126.021 103.72 126.488C104.093 126.945 104.541 127.174 105.064 127.174C105.586 127.174 106.03 127.001 106.394 126.656C106.767 126.301 106.963 125.83 106.982 125.242V124.15C106.982 123.525 106.8 123.03 106.436 122.666C106.072 122.302 105.619 122.12 105.078 122.12ZM113.222 127.258C114.146 127.258 114.673 126.852 114.804 126.04H115.938C115.835 126.712 115.537 127.235 115.042 127.608C114.557 127.972 113.95 128.154 113.222 128.154C112.326 128.154 111.598 127.837 111.038 127.202C110.478 126.558 110.198 125.704 110.198 124.64C110.198 123.576 110.478 122.727 111.038 122.092C111.607 121.457 112.359 121.14 113.292 121.14C114.235 121.14 114.935 121.504 115.392 122.232C115.859 122.96 116.022 123.847 115.882 124.892H111.304C111.304 125.583 111.472 126.152 111.808 126.6C112.144 127.039 112.615 127.258 113.222 127.258ZM114.034 122.19C113.819 122.078 113.558 122.022 113.25 122.022C112.681 122.022 112.228 122.218 111.892 122.61C111.565 122.993 111.374 123.473 111.318 124.052H114.888C114.888 123.119 114.603 122.498 114.034 122.19ZM120.847 122.246C119.792 122.246 119.246 123.077 119.209 124.738V128H118.103V121.294H119.209V122.582C119.545 121.649 120.138 121.182 120.987 121.182C121.258 121.182 121.514 121.224 121.757 121.308L121.701 122.386C121.421 122.293 121.136 122.246 120.847 122.246ZM123.099 122.946C123.099 122.395 123.332 121.957 123.799 121.63C124.275 121.303 124.914 121.14 125.717 121.14C126.52 121.14 127.145 121.308 127.593 121.644C128.05 121.98 128.288 122.405 128.307 122.918H127.229C127.145 122.311 126.632 122.008 125.689 122.008C125.232 122.008 124.877 122.111 124.625 122.316C124.382 122.521 124.261 122.745 124.261 122.988C124.261 123.221 124.354 123.422 124.541 123.59C124.728 123.749 125.026 123.889 125.437 124.01L126.781 124.458C127.35 124.635 127.784 124.864 128.083 125.144C128.391 125.415 128.545 125.793 128.545 126.278C128.545 126.754 128.298 127.188 127.803 127.58C127.308 127.963 126.618 128.154 125.731 128.154C124.844 128.154 124.154 127.958 123.659 127.566C123.164 127.165 122.903 126.651 122.875 126.026H123.939C123.958 126.446 124.126 126.763 124.443 126.978C124.77 127.183 125.176 127.286 125.661 127.286C126.146 127.286 126.548 127.183 126.865 126.978C127.182 126.773 127.341 126.53 127.341 126.25C127.341 125.961 127.248 125.741 127.061 125.592C126.874 125.443 126.571 125.312 126.151 125.2L124.849 124.766C123.682 124.421 123.099 123.814 123.099 122.946Z" fill="#333333"/>
<path d="M207.906 103.194L210.048 110.516L212.218 104.104H212.96L215.116 110.516L217.58 103.194H218.798L215.69 112H214.528L212.61 106.358L210.622 112H209.46L206.674 103.194H207.906ZM222.358 105.14C223.291 105.14 224.043 105.443 224.612 106.05C225.191 106.657 225.48 107.525 225.48 108.654C225.48 109.774 225.191 110.637 224.612 111.244C224.043 111.851 223.291 112.154 222.358 112.154C221.425 112.154 220.669 111.851 220.09 111.244C219.521 110.637 219.236 109.774 219.236 108.654C219.236 107.525 219.521 106.657 220.09 106.05C220.669 105.443 221.425 105.14 222.358 105.14ZM224.36 108.654C224.36 107.851 224.192 107.226 223.856 106.778C223.52 106.321 223.025 106.092 222.372 106.092C221.728 106.092 221.233 106.321 220.888 106.778C220.543 107.226 220.37 107.851 220.37 108.654C220.37 109.447 220.533 110.073 220.86 110.53C221.187 110.978 221.672 111.202 222.316 111.202C222.969 111.202 223.473 110.978 223.828 110.53C224.183 110.073 224.36 109.447 224.36 108.654ZM230.323 106.246C229.268 106.246 228.722 107.077 228.685 108.738V112H227.579V105.294H228.685V106.582C229.021 105.649 229.613 105.182 230.463 105.182C230.733 105.182 230.99 105.224 231.233 105.308L231.177 106.386C230.897 106.293 230.612 106.246 230.323 106.246ZM234.927 108.458L234.031 109.186V112H232.925V102.466H234.031V108.01L237.265 105.308H238.805L235.725 107.814L238.959 112H237.601L234.927 108.458ZM240.477 106.946C240.477 106.395 240.71 105.957 241.177 105.63C241.653 105.303 242.292 105.14 243.095 105.14C243.898 105.14 244.523 105.308 244.971 105.644C245.428 105.98 245.666 106.405 245.685 106.918H244.607C244.523 106.311 244.01 106.008 243.067 106.008C242.61 106.008 242.255 106.111 242.003 106.316C241.76 106.521 241.639 106.745 241.639 106.988C241.639 107.221 241.732 107.422 241.919 107.59C242.106 107.749 242.404 107.889 242.815 108.01L244.159 108.458C244.728 108.635 245.162 108.864 245.461 109.144C245.769 109.415 245.923 109.793 245.923 110.278C245.923 110.754 245.676 111.188 245.181 111.58C244.686 111.963 243.996 112.154 243.109 112.154C242.222 112.154 241.532 111.958 241.037 111.566C240.542 111.165 240.281 110.651 240.253 110.026H241.317C241.336 110.446 241.504 110.763 241.821 110.978C242.148 111.183 242.554 111.286 243.039 111.286C243.524 111.286 243.926 111.183 244.243 110.978C244.56 110.773 244.719 110.53 244.719 110.25C244.719 109.961 244.626 109.741 244.439 109.592C244.252 109.443 243.949 109.312 243.529 109.2L242.227 108.766C241.06 108.421 240.477 107.814 240.477 106.946ZM249.302 106.54C249.75 105.607 250.492 105.14 251.528 105.14C252.322 105.14 252.938 105.401 253.376 105.924C253.824 106.447 254.048 107.161 254.048 108.066V112H252.956V108.066C252.956 107.422 252.802 106.937 252.494 106.61C252.196 106.283 251.762 106.12 251.192 106.12C250.623 106.12 250.166 106.363 249.82 106.848C249.475 107.324 249.302 107.987 249.302 108.836V112H248.196V102.466H249.302V106.54ZM259.053 105.14C259.987 105.14 260.738 105.443 261.307 106.05C261.886 106.657 262.175 107.525 262.175 108.654C262.175 109.774 261.886 110.637 261.307 111.244C260.738 111.851 259.987 112.154 259.053 112.154C258.12 112.154 257.364 111.851 256.785 111.244C256.216 110.637 255.931 109.774 255.931 108.654C255.931 107.525 256.216 106.657 256.785 106.05C257.364 105.443 258.12 105.14 259.053 105.14ZM261.055 108.654C261.055 107.851 260.887 107.226 260.551 106.778C260.215 106.321 259.721 106.092 259.067 106.092C258.423 106.092 257.929 106.321 257.583 106.778C257.238 107.226 257.065 107.851 257.065 108.654C257.065 109.447 257.229 110.073 257.555 110.53C257.882 110.978 258.367 111.202 259.011 111.202C259.665 111.202 260.169 110.978 260.523 110.53C260.878 110.073 261.055 109.447 261.055 108.654ZM265.324 106.33C265.763 105.537 266.416 105.14 267.284 105.14C268.161 105.14 268.889 105.462 269.468 106.106C270.056 106.75 270.35 107.599 270.35 108.654C270.35 109.709 270.056 110.558 269.468 111.202C268.88 111.837 268.157 112.154 267.298 112.154C266.439 112.154 265.805 111.832 265.394 111.188V115.29H264.288V105.308H265.198L265.324 106.33ZM267.242 111.174C267.765 111.174 268.222 110.95 268.614 110.502C269.015 110.054 269.216 109.443 269.216 108.668C269.216 107.884 269.025 107.263 268.642 106.806C268.269 106.349 267.811 106.12 267.27 106.12C266.729 106.12 266.285 106.293 265.94 106.638C265.595 106.974 265.413 107.431 265.394 108.01V109.284C265.394 109.872 265.571 110.334 265.926 110.67C266.281 111.006 266.719 111.174 267.242 111.174ZM222.212 127.258C223.136 127.258 223.664 126.852 223.794 126.04H224.928C224.826 126.712 224.527 127.235 224.032 127.608C223.547 127.972 222.94 128.154 222.212 128.154C221.316 128.154 220.588 127.837 220.028 127.202C219.468 126.558 219.188 125.704 219.188 124.64C219.188 123.576 219.468 122.727 220.028 122.092C220.598 121.457 221.349 121.14 222.282 121.14C223.225 121.14 223.925 121.504 224.382 122.232C224.849 122.96 225.012 123.847 224.872 124.892H220.294C220.294 125.583 220.462 126.152 220.798 126.6C221.134 127.039 221.606 127.258 222.212 127.258ZM223.024 122.19C222.81 122.078 222.548 122.022 222.24 122.022C221.671 122.022 221.218 122.218 220.882 122.61C220.556 122.993 220.364 123.473 220.308 124.052H223.878C223.878 123.119 223.594 122.498 223.024 122.19ZM229.389 121.14C230.341 121.14 231.032 121.56 231.461 122.4L231.699 121.308H232.455V129.134C232.455 129.591 232.507 129.895 232.609 130.044C232.721 130.203 232.843 130.315 232.973 130.38C233.113 130.455 233.281 130.525 233.477 130.59L233.113 131.444C232.479 131.276 232.026 131.01 231.755 130.646C231.494 130.282 231.363 129.755 231.363 129.064V126.936C230.981 127.748 230.351 128.154 229.473 128.154C228.605 128.154 227.877 127.837 227.289 127.202C226.701 126.558 226.407 125.709 226.407 124.654C226.407 123.599 226.697 122.75 227.275 122.106C227.863 121.462 228.568 121.14 229.389 121.14ZM229.487 122.12C228.946 122.12 228.484 122.349 228.101 122.806C227.728 123.263 227.541 123.884 227.541 124.668C227.541 125.443 227.742 126.054 228.143 126.502C228.545 126.95 229.011 127.174 229.543 127.174C230.309 127.174 230.855 126.833 231.181 126.152C231.293 125.937 231.354 125.681 231.363 125.382V124.108C231.363 123.492 231.186 123.007 230.831 122.652C230.477 122.297 230.029 122.12 229.487 122.12ZM239.847 126.67C239.389 127.641 238.647 128.126 237.621 128.126C236.865 128.126 236.253 127.916 235.787 127.496C235.329 127.076 235.101 126.427 235.101 125.55V121.294H236.207V125.466C236.207 126.595 236.729 127.16 237.775 127.16C238.381 127.16 238.871 126.927 239.245 126.46C239.627 125.993 239.828 125.396 239.847 124.668V121.294H240.953V128H239.847V126.67ZM243.857 121.294H244.963V128H243.857V121.294ZM244.403 119.726C244.179 119.726 244.002 119.665 243.871 119.544C243.75 119.413 243.689 119.245 243.689 119.04C243.689 118.825 243.75 118.657 243.871 118.536C244.002 118.405 244.179 118.34 244.403 118.34C244.627 118.34 244.804 118.405 244.935 118.536C245.075 118.657 245.145 118.825 245.145 119.04C245.145 119.245 245.075 119.413 244.935 119.544C244.804 119.665 244.627 119.726 244.403 119.726ZM249.007 122.33C249.445 121.537 250.099 121.14 250.967 121.14C251.844 121.14 252.572 121.462 253.151 122.106C253.739 122.75 254.033 123.599 254.033 124.654C254.033 125.709 253.739 126.558 253.151 127.202C252.563 127.837 251.839 128.154 250.981 128.154C250.122 128.154 249.487 127.832 249.077 127.188V131.29H247.971V121.308H248.881L249.007 122.33ZM250.925 127.174C251.447 127.174 251.905 126.95 252.297 126.502C252.698 126.054 252.899 125.443 252.899 124.668C252.899 123.884 252.707 123.263 252.325 122.806C251.951 122.349 251.494 122.12 250.953 122.12C250.411 122.12 249.968 122.293 249.623 122.638C249.277 122.974 249.095 123.431 249.077 124.01V125.284C249.077 125.872 249.254 126.334 249.609 126.67C249.963 127.006 250.402 127.174 250.925 127.174ZM258.691 121.14C259.624 121.14 260.376 121.443 260.945 122.05C261.524 122.657 261.813 123.525 261.813 124.654C261.813 125.774 261.524 126.637 260.945 127.244C260.376 127.851 259.624 128.154 258.691 128.154C257.758 128.154 257.002 127.851 256.423 127.244C255.854 126.637 255.569 125.774 255.569 124.654C255.569 123.525 255.854 122.657 256.423 122.05C257.002 121.443 257.758 121.14 258.691 121.14ZM260.693 124.654C260.693 123.851 260.525 123.226 260.189 122.778C259.853 122.321 259.358 122.092 258.705 122.092C258.061 122.092 257.566 122.321 257.221 122.778C256.876 123.226 256.703 123.851 256.703 124.654C256.703 125.447 256.866 126.073 257.193 126.53C257.52 126.978 258.005 127.202 258.649 127.202C259.302 127.202 259.806 126.978 260.161 126.53C260.516 126.073 260.693 125.447 260.693 124.654Z" fill="#333333"/>
<path d="M338.627 103.194H341.917C342.841 103.194 343.55 103.413 344.045 103.852C344.549 104.291 344.801 104.841 344.801 105.504C344.801 106.008 344.661 106.447 344.381 106.82C344.11 107.193 343.695 107.445 343.135 107.576C343.686 107.669 344.124 107.907 344.451 108.29C344.787 108.673 344.955 109.107 344.955 109.592C344.955 110.675 344.428 111.407 343.373 111.79C342.981 111.93 342.5 112 341.931 112H338.627V103.194ZM341.903 111.034C342.575 111.034 343.056 110.899 343.345 110.628C343.634 110.357 343.779 109.998 343.779 109.55C343.779 109.102 343.62 108.747 343.303 108.486C342.986 108.215 342.519 108.08 341.903 108.08H339.733V111.034H341.903ZM339.733 107.128H341.889C342.43 107.128 342.86 106.997 343.177 106.736C343.504 106.465 343.667 106.097 343.667 105.63C343.667 105.163 343.508 104.799 343.191 104.538C342.883 104.277 342.449 104.146 341.889 104.146H339.733V107.128ZM350.066 106.246C349.011 106.246 348.465 107.077 348.428 108.738V112H347.322V105.294H348.428V106.582C348.764 105.649 349.357 105.182 350.206 105.182C350.477 105.182 350.733 105.224 350.976 105.308L350.92 106.386C350.64 106.293 350.355 106.246 350.066 106.246ZM356.812 107.66C356.812 107.053 356.686 106.619 356.434 106.358C356.182 106.097 355.813 105.966 355.328 105.966C354.852 105.966 354.465 106.064 354.166 106.26C353.877 106.447 353.732 106.745 353.732 107.156H352.514C352.514 106.129 353.065 105.495 354.166 105.252C354.502 105.177 354.866 105.14 355.258 105.14C356.089 105.14 356.737 105.35 357.204 105.77C357.671 106.19 357.904 106.829 357.904 107.688V112H356.952L356.84 110.88C356.429 111.729 355.687 112.154 354.614 112.154C353.895 112.154 353.317 111.953 352.878 111.552C352.449 111.151 352.234 110.651 352.234 110.054C352.234 109.457 352.472 108.99 352.948 108.654C353.433 108.318 354.035 108.15 354.754 108.15C355.473 108.15 356.159 108.271 356.812 108.514V107.66ZM356.812 109.214C356.149 109.027 355.571 108.934 355.076 108.934C354.581 108.934 354.18 109.023 353.872 109.2C353.564 109.377 353.41 109.657 353.41 110.04C353.41 110.88 353.886 111.3 354.838 111.3C355.379 111.3 355.841 111.109 356.224 110.726C356.616 110.334 356.812 109.83 356.812 109.214ZM360.572 105.294H361.678V112H360.572V105.294ZM361.118 103.726C360.894 103.726 360.717 103.665 360.586 103.544C360.465 103.413 360.404 103.245 360.404 103.04C360.404 102.825 360.465 102.657 360.586 102.536C360.717 102.405 360.894 102.34 361.118 102.34C361.342 102.34 361.519 102.405 361.65 102.536C361.79 102.657 361.86 102.825 361.86 103.04C361.86 103.245 361.79 103.413 361.65 103.544C361.519 103.665 361.342 103.726 361.118 103.726ZM365.749 106.596C366.188 105.625 366.939 105.14 368.003 105.14C368.797 105.14 369.413 105.401 369.851 105.924C370.299 106.447 370.523 107.161 370.523 108.066V112H369.431V108.066C369.431 107.422 369.277 106.937 368.969 106.61C368.671 106.283 368.241 106.12 367.681 106.12C367.121 106.12 366.669 106.349 366.323 106.806C365.978 107.263 365.796 107.898 365.777 108.71V112H364.671V105.308H365.623L365.749 106.596ZM372.771 106.946C372.771 106.395 373.004 105.957 373.471 105.63C373.947 105.303 374.586 105.14 375.389 105.14C376.192 105.14 376.817 105.308 377.265 105.644C377.722 105.98 377.96 106.405 377.979 106.918H376.901C376.817 106.311 376.304 106.008 375.361 106.008C374.904 106.008 374.549 106.111 374.297 106.316C374.054 106.521 373.933 106.745 373.933 106.988C373.933 107.221 374.026 107.422 374.213 107.59C374.4 107.749 374.698 107.889 375.109 108.01L376.453 108.458C377.022 108.635 377.456 108.864 377.755 109.144C378.063 109.415 378.217 109.793 378.217 110.278C378.217 110.754 377.97 111.188 377.475 111.58C376.98 111.963 376.29 112.154 375.403 112.154C374.516 112.154 373.826 111.958 373.331 111.566C372.836 111.165 372.575 110.651 372.547 110.026H373.611C373.63 110.446 373.798 110.763 374.115 110.978C374.442 111.183 374.848 111.286 375.333 111.286C375.818 111.286 376.22 111.183 376.537 110.978C376.854 110.773 377.013 110.53 377.013 110.25C377.013 109.961 376.92 109.741 376.733 109.592C376.546 109.443 376.243 109.312 375.823 109.2L374.521 108.766C373.354 108.421 372.771 107.814 372.771 106.946ZM383.99 111.804C383.188 112.177 382.455 112.257 381.792 112.042C381.316 111.893 380.98 111.58 380.784 111.104C380.682 110.871 380.63 110.591 380.63 110.264V106.148H379.552V105.308H380.63V103.446H381.722V105.308H383.822V106.148H381.722V110.25C381.722 110.931 382.04 111.272 382.674 111.272C383.02 111.272 383.407 111.188 383.836 111.02L383.99 111.804ZM388.162 105.14C389.095 105.14 389.847 105.443 390.416 106.05C390.995 106.657 391.284 107.525 391.284 108.654C391.284 109.774 390.995 110.637 390.416 111.244C389.847 111.851 389.095 112.154 388.162 112.154C387.229 112.154 386.473 111.851 385.894 111.244C385.325 110.637 385.04 109.774 385.04 108.654C385.04 107.525 385.325 106.657 385.894 106.05C386.473 105.443 387.229 105.14 388.162 105.14ZM390.164 108.654C390.164 107.851 389.996 107.226 389.66 106.778C389.324 106.321 388.829 106.092 388.176 106.092C387.532 106.092 387.037 106.321 386.692 106.778C386.347 107.226 386.174 107.851 386.174 108.654C386.174 109.447 386.337 110.073 386.664 110.53C386.991 110.978 387.476 111.202 388.12 111.202C388.773 111.202 389.277 110.978 389.632 110.53C389.987 110.073 390.164 109.447 390.164 108.654ZM396.126 106.246C395.072 106.246 394.526 107.077 394.488 108.738V112H393.382V105.294H394.488V106.582C394.824 105.649 395.417 105.182 396.266 105.182C396.537 105.182 396.794 105.224 397.036 105.308L396.98 106.386C396.7 106.293 396.416 106.246 396.126 106.246ZM399.792 106.596C400.231 105.625 400.982 105.14 402.046 105.14C402.625 105.14 403.11 105.285 403.502 105.574C403.894 105.854 404.179 106.246 404.356 106.75C404.776 105.677 405.556 105.14 406.694 105.14C407.497 105.14 408.118 105.401 408.556 105.924C408.995 106.447 409.214 107.161 409.214 108.066V112H408.122V108.066C408.122 107.422 407.968 106.937 407.66 106.61C407.362 106.283 406.928 106.12 406.358 106.12C405.789 106.12 405.346 106.353 405.028 106.82C404.72 107.287 404.566 107.931 404.566 108.752V112H403.474V108.066C403.474 107.422 403.32 106.937 403.012 106.61C402.714 106.283 402.284 106.12 401.724 106.12C401.164 106.12 400.712 106.349 400.366 106.806C400.021 107.263 399.839 107.898 399.82 108.71V112H398.714V105.308H399.666L399.792 106.596ZM411.882 105.294H412.988V112H411.882V105.294ZM412.428 103.726C412.204 103.726 412.027 103.665 411.896 103.544C411.775 103.413 411.714 103.245 411.714 103.04C411.714 102.825 411.775 102.657 411.896 102.536C412.027 102.405 412.204 102.34 412.428 102.34C412.652 102.34 412.83 102.405 412.96 102.536C413.1 102.657 413.17 102.825 413.17 103.04C413.17 103.245 413.1 103.413 412.96 103.544C412.83 103.665 412.652 103.726 412.428 103.726ZM417.06 106.596C417.499 105.625 418.25 105.14 419.314 105.14C420.107 105.14 420.723 105.401 421.162 105.924C421.61 106.447 421.834 107.161 421.834 108.066V112H420.742V108.066C420.742 107.422 420.588 106.937 420.28 106.61C419.981 106.283 419.552 106.12 418.992 106.12C418.432 106.12 417.979 106.349 417.634 106.806C417.289 107.263 417.107 107.898 417.088 108.71V112H415.982V105.308H416.934L417.06 106.596ZM424.712 111.79C424.152 111.519 423.872 111.104 423.872 110.544C423.872 110.255 423.979 110.003 424.194 109.788C424.418 109.564 424.693 109.415 425.02 109.34C424.516 108.892 424.264 108.304 424.264 107.576C424.264 106.848 424.52 106.26 425.034 105.812C425.556 105.364 426.172 105.14 426.882 105.14C427.591 105.14 428.193 105.308 428.688 105.644C428.753 105.149 428.949 104.753 429.276 104.454C429.612 104.155 430.05 104.006 430.592 104.006L430.494 105.098C429.672 105.098 429.243 105.443 429.206 106.134C429.532 106.535 429.696 107.016 429.696 107.576C429.696 108.295 429.434 108.887 428.912 109.354C428.398 109.811 427.754 110.04 426.98 110.04C426.448 110.04 425.976 109.933 425.566 109.718C425.379 109.755 425.211 109.844 425.062 109.984C424.912 110.115 424.838 110.297 424.838 110.53C424.838 111.025 425.248 111.272 426.07 111.272H428.674C429.299 111.272 429.794 111.407 430.158 111.678C430.522 111.939 430.704 112.308 430.704 112.784C430.704 113.493 430.344 114.114 429.626 114.646C428.916 115.178 428.016 115.444 426.924 115.444C425.832 115.444 424.973 115.239 424.348 114.828C423.722 114.427 423.41 113.918 423.41 113.302C423.41 112.901 423.526 112.574 423.76 112.322C424.002 112.07 424.32 111.893 424.712 111.79ZM424.502 113.26C424.502 113.615 424.693 113.918 425.076 114.17C425.468 114.431 426.056 114.562 426.84 114.562C427.633 114.562 428.291 114.389 428.814 114.044C429.346 113.708 429.612 113.311 429.612 112.854C429.612 112.639 429.532 112.453 429.374 112.294C429.224 112.145 428.991 112.07 428.674 112.07H425.972C425.496 112.089 425.132 112.201 424.88 112.406C424.628 112.621 424.502 112.905 424.502 113.26ZM428.618 107.576C428.618 107.091 428.473 106.699 428.184 106.4C427.894 106.092 427.493 105.938 426.98 105.938C426.476 105.938 426.079 106.092 425.79 106.4C425.5 106.699 425.356 107.091 425.356 107.576C425.356 108.061 425.5 108.463 425.79 108.78C426.088 109.088 426.49 109.242 426.994 109.242C427.498 109.242 427.894 109.083 428.184 108.766C428.473 108.449 428.618 108.052 428.618 107.576ZM440.066 106.302V102.466H441.158V112H440.262L440.122 110.88C439.907 111.3 439.622 111.617 439.268 111.832C438.913 112.047 438.526 112.154 438.106 112.154C437.256 112.154 436.542 111.827 435.964 111.174C435.394 110.521 435.11 109.671 435.11 108.626C435.11 107.571 435.39 106.727 435.95 106.092C436.519 105.457 437.233 105.14 438.092 105.14C438.96 105.14 439.618 105.527 440.066 106.302ZM438.162 106.12C437.62 106.12 437.163 106.349 436.79 106.806C436.426 107.263 436.244 107.875 436.244 108.64C436.244 109.405 436.43 110.021 436.804 110.488C437.177 110.945 437.625 111.174 438.148 111.174C438.67 111.174 439.114 111.001 439.478 110.656C439.851 110.301 440.047 109.83 440.066 109.242V108.15C440.066 107.525 439.884 107.03 439.52 106.666C439.156 106.302 438.703 106.12 438.162 106.12ZM446.306 111.258C447.23 111.258 447.757 110.852 447.888 110.04H449.022C448.919 110.712 448.621 111.235 448.126 111.608C447.641 111.972 447.034 112.154 446.306 112.154C445.41 112.154 444.682 111.837 444.122 111.202C443.562 110.558 443.282 109.704 443.282 108.64C443.282 107.576 443.562 106.727 444.122 106.092C444.691 105.457 445.443 105.14 446.376 105.14C447.319 105.14 448.019 105.504 448.476 106.232C448.943 106.96 449.106 107.847 448.966 108.892H444.388C444.388 109.583 444.556 110.152 444.892 110.6C445.228 111.039 445.699 111.258 446.306 111.258ZM447.118 106.19C446.903 106.078 446.642 106.022 446.334 106.022C445.765 106.022 445.312 106.218 444.976 106.61C444.649 106.993 444.458 107.473 444.402 108.052H447.972C447.972 107.119 447.687 106.498 447.118 106.19ZM377.532 121.294H378.638V128H377.532V121.294ZM378.078 119.726C377.854 119.726 377.677 119.665 377.546 119.544C377.425 119.413 377.364 119.245 377.364 119.04C377.364 118.825 377.425 118.657 377.546 118.536C377.677 118.405 377.854 118.34 378.078 118.34C378.302 118.34 378.479 118.405 378.61 118.536C378.75 118.657 378.82 118.825 378.82 119.04C378.82 119.245 378.75 119.413 378.61 119.544C378.479 119.665 378.302 119.726 378.078 119.726ZM386.027 122.302V118.466H387.119V128H386.223L386.083 126.88C385.869 127.3 385.584 127.617 385.229 127.832C384.875 128.047 384.487 128.154 384.067 128.154C383.218 128.154 382.504 127.827 381.925 127.174C381.356 126.521 381.071 125.671 381.071 124.626C381.071 123.571 381.351 122.727 381.911 122.092C382.481 121.457 383.195 121.14 384.053 121.14C384.921 121.14 385.579 121.527 386.027 122.302ZM384.123 122.12C383.582 122.12 383.125 122.349 382.751 122.806C382.387 123.263 382.205 123.875 382.205 124.64C382.205 125.405 382.392 126.021 382.765 126.488C383.139 126.945 383.587 127.174 384.109 127.174C384.632 127.174 385.075 127.001 385.439 126.656C385.813 126.301 386.009 125.83 386.027 125.242V124.15C386.027 123.525 385.845 123.03 385.481 122.666C385.117 122.302 384.665 122.12 384.123 122.12ZM392.268 127.258C393.192 127.258 393.719 126.852 393.85 126.04H394.984C394.881 126.712 394.583 127.235 394.088 127.608C393.603 127.972 392.996 128.154 392.268 128.154C391.372 128.154 390.644 127.837 390.084 127.202C389.524 126.558 389.244 125.704 389.244 124.64C389.244 123.576 389.524 122.727 390.084 122.092C390.653 121.457 391.405 121.14 392.338 121.14C393.281 121.14 393.981 121.504 394.438 122.232C394.905 122.96 395.068 123.847 394.928 124.892H390.35C390.35 125.583 390.518 126.152 390.854 126.6C391.19 127.039 391.661 127.258 392.268 127.258ZM393.08 122.19C392.865 122.078 392.604 122.022 392.296 122.022C391.727 122.022 391.274 122.218 390.938 122.61C390.611 122.993 390.42 123.473 390.364 124.052H393.934C393.934 123.119 393.649 122.498 393.08 122.19ZM401.307 123.66C401.307 123.053 401.181 122.619 400.929 122.358C400.677 122.097 400.308 121.966 399.823 121.966C399.347 121.966 398.96 122.064 398.661 122.26C398.372 122.447 398.227 122.745 398.227 123.156H397.009C397.009 122.129 397.56 121.495 398.661 121.252C398.997 121.177 399.361 121.14 399.753 121.14C400.584 121.14 401.232 121.35 401.699 121.77C402.166 122.19 402.399 122.829 402.399 123.688V128H401.447L401.335 126.88C400.924 127.729 400.182 128.154 399.109 128.154C398.39 128.154 397.812 127.953 397.373 127.552C396.944 127.151 396.729 126.651 396.729 126.054C396.729 125.457 396.967 124.99 397.443 124.654C397.928 124.318 398.53 124.15 399.249 124.15C399.968 124.15 400.654 124.271 401.307 124.514V123.66ZM401.307 125.214C400.644 125.027 400.066 124.934 399.571 124.934C399.076 124.934 398.675 125.023 398.367 125.2C398.059 125.377 397.905 125.657 397.905 126.04C397.905 126.88 398.381 127.3 399.333 127.3C399.874 127.3 400.336 127.109 400.719 126.726C401.111 126.334 401.307 125.83 401.307 125.214ZM404.647 122.946C404.647 122.395 404.88 121.957 405.347 121.63C405.823 121.303 406.462 121.14 407.265 121.14C408.068 121.14 408.693 121.308 409.141 121.644C409.598 121.98 409.836 122.405 409.855 122.918H408.777C408.693 122.311 408.18 122.008 407.237 122.008C406.78 122.008 406.425 122.111 406.173 122.316C405.93 122.521 405.809 122.745 405.809 122.988C405.809 123.221 405.902 123.422 406.089 123.59C406.276 123.749 406.574 123.889 406.985 124.01L408.329 124.458C408.898 124.635 409.332 124.864 409.631 125.144C409.939 125.415 410.093 125.793 410.093 126.278C410.093 126.754 409.846 127.188 409.351 127.58C408.856 127.963 408.166 128.154 407.279 128.154C406.392 128.154 405.702 127.958 405.207 127.566C404.712 127.165 404.451 126.651 404.423 126.026H405.487C405.506 126.446 405.674 126.763 405.991 126.978C406.318 127.183 406.724 127.286 407.209 127.286C407.694 127.286 408.096 127.183 408.413 126.978C408.73 126.773 408.889 126.53 408.889 126.25C408.889 125.961 408.796 125.741 408.609 125.592C408.422 125.443 408.119 125.312 407.699 125.2L406.397 124.766C405.23 124.421 404.647 123.814 404.647 122.946Z" fill="#333333"/>
<path d="M499.719 103.194C501.045 103.194 502.104 103.595 502.897 104.398C503.7 105.191 504.101 106.26 504.101 107.604C504.101 108.939 503.7 110.007 502.897 110.81C502.104 111.603 501.045 112 499.719 112H497.129V103.194H499.719ZM498.235 111.034H499.719C500.699 111.034 501.479 110.712 502.057 110.068C502.636 109.415 502.925 108.589 502.925 107.59C502.925 106.591 502.631 105.775 502.043 105.14C501.465 104.496 500.69 104.174 499.719 104.174H498.235V111.034ZM506.469 105.294H507.575V112H506.469V105.294ZM507.015 103.726C506.791 103.726 506.614 103.665 506.483 103.544C506.362 103.413 506.301 103.245 506.301 103.04C506.301 102.825 506.362 102.657 506.483 102.536C506.614 102.405 506.791 102.34 507.015 102.34C507.239 102.34 507.417 102.405 507.547 102.536C507.687 102.657 507.757 102.825 507.757 103.04C507.757 103.245 507.687 103.413 507.547 103.544C507.417 103.665 507.239 103.726 507.015 103.726ZM510.233 106.946C510.233 106.395 510.466 105.957 510.933 105.63C511.409 105.303 512.048 105.14 512.851 105.14C513.654 105.14 514.279 105.308 514.727 105.644C515.184 105.98 515.422 106.405 515.441 106.918H514.363C514.279 106.311 513.766 106.008 512.823 106.008C512.366 106.008 512.011 106.111 511.759 106.316C511.516 106.521 511.395 106.745 511.395 106.988C511.395 107.221 511.488 107.422 511.675 107.59C511.862 107.749 512.16 107.889 512.571 108.01L513.915 108.458C514.484 108.635 514.918 108.864 515.217 109.144C515.525 109.415 515.679 109.793 515.679 110.278C515.679 110.754 515.432 111.188 514.937 111.58C514.442 111.963 513.752 112.154 512.865 112.154C511.978 112.154 511.288 111.958 510.793 111.566C510.298 111.165 510.037 110.651 510.009 110.026H511.073C511.092 110.446 511.26 110.763 511.577 110.978C511.904 111.183 512.31 111.286 512.795 111.286C513.28 111.286 513.682 111.183 513.999 110.978C514.316 110.773 514.475 110.53 514.475 110.25C514.475 109.961 514.382 109.741 514.195 109.592C514.008 109.443 513.705 109.312 513.285 109.2L511.983 108.766C510.816 108.421 510.233 107.814 510.233 106.946ZM520.262 111.258C521.186 111.258 521.713 110.852 521.844 110.04H522.978C522.875 110.712 522.577 111.235 522.082 111.608C521.597 111.972 520.99 112.154 520.262 112.154C519.366 112.154 518.638 111.837 518.078 111.202C517.518 110.558 517.238 109.704 517.238 108.64C517.238 107.576 517.518 106.727 518.078 106.092C518.647 105.457 519.399 105.14 520.332 105.14C521.275 105.14 521.975 105.504 522.432 106.232C522.899 106.96 523.062 107.847 522.922 108.892H518.344C518.344 109.583 518.512 110.152 518.848 110.6C519.184 111.039 519.655 111.258 520.262 111.258ZM521.074 106.19C520.859 106.078 520.598 106.022 520.29 106.022C519.721 106.022 519.268 106.218 518.932 106.61C518.605 106.993 518.414 107.473 518.358 108.052H521.928C521.928 107.119 521.643 106.498 521.074 106.19ZM528.489 105.14C527.425 105.14 526.674 105.625 526.235 106.596L526.109 105.308H525.157V112H526.263V108.71C526.282 107.898 526.464 107.263 526.809 106.806C527.154 106.349 527.607 106.12 528.167 106.12C528.727 106.12 529.156 106.283 529.455 106.61C529.763 106.937 529.917 107.422 529.917 108.066V112H531.009V108.066C531.009 107.161 530.785 106.447 530.337 105.924C529.898 105.401 529.282 105.14 528.489 105.14ZM527.061 103.026C526.762 103.026 526.496 103.264 526.263 103.74L525.815 103.474C525.927 102.998 526.09 102.639 526.305 102.396C526.52 102.144 526.748 102.018 526.991 102.018C527.234 102.018 527.514 102.097 527.831 102.256C528.26 102.471 528.536 102.606 528.657 102.662C528.788 102.718 528.914 102.746 529.035 102.746C529.156 102.746 529.282 102.69 529.413 102.578C529.544 102.457 529.656 102.27 529.749 102.018L530.239 102.34C530.136 102.788 529.968 103.133 529.735 103.376C529.511 103.619 529.301 103.74 529.105 103.74C528.918 103.74 528.746 103.712 528.587 103.656C528.428 103.6 528.209 103.502 527.929 103.362C527.649 103.213 527.458 103.119 527.355 103.082C527.262 103.045 527.164 103.026 527.061 103.026ZM536.014 105.14C536.948 105.14 537.699 105.443 538.268 106.05C538.847 106.657 539.136 107.525 539.136 108.654C539.136 109.774 538.847 110.637 538.268 111.244C537.699 111.851 536.948 112.154 536.014 112.154C535.081 112.154 534.325 111.851 533.746 111.244C533.177 110.637 532.892 109.774 532.892 108.654C532.892 107.525 533.177 106.657 533.746 106.05C534.325 105.443 535.081 105.14 536.014 105.14ZM538.016 108.654C538.016 107.851 537.848 107.226 537.512 106.778C537.176 106.321 536.682 106.092 536.028 106.092C535.384 106.092 534.89 106.321 534.544 106.778C534.199 107.226 534.026 107.851 534.026 108.654C534.026 109.447 534.19 110.073 534.516 110.53C534.843 110.978 535.328 111.202 535.972 111.202C536.626 111.202 537.13 110.978 537.484 110.53C537.839 110.073 538.016 109.447 538.016 108.654ZM543.241 113.946C543.698 114.301 544.179 114.478 544.683 114.478C545.056 114.478 545.378 114.291 545.649 113.918C545.845 113.647 546.022 113.237 546.181 112.686L546.377 112L543.633 105.308H544.865L546.895 110.642L548.477 105.308H549.597L547.091 113.33C546.876 114.011 546.592 114.534 546.237 114.898C545.892 115.262 545.448 115.444 544.907 115.444C544.375 115.444 543.82 115.281 543.241 114.954V113.946ZM553.372 103.194H560.218V104.146H557.348V112H556.242V104.146H553.372V103.194ZM562.973 111.258C563.897 111.258 564.424 110.852 564.555 110.04H565.689C565.586 110.712 565.288 111.235 564.793 111.608C564.308 111.972 563.701 112.154 562.973 112.154C562.077 112.154 561.349 111.837 560.789 111.202C560.229 110.558 559.949 109.704 559.949 108.64C559.949 107.576 560.229 106.727 560.789 106.092C561.358 105.457 562.11 105.14 563.043 105.14C563.986 105.14 564.686 105.504 565.143 106.232C565.61 106.96 565.773 107.847 565.633 108.892H561.055C561.055 109.583 561.223 110.152 561.559 110.6C561.895 111.039 562.366 111.258 562.973 111.258ZM563.785 106.19C563.57 106.078 563.309 106.022 563.001 106.022C562.432 106.022 561.979 106.218 561.643 106.61C561.316 106.993 561.125 107.473 561.069 108.052H564.639C564.639 107.119 564.354 106.498 563.785 106.19ZM567.518 106.946C567.518 106.395 567.751 105.957 568.218 105.63C568.694 105.303 569.333 105.14 570.136 105.14C570.939 105.14 571.564 105.308 572.012 105.644C572.469 105.98 572.707 106.405 572.726 106.918H571.648C571.564 106.311 571.051 106.008 570.108 106.008C569.651 106.008 569.296 106.111 569.044 106.316C568.801 106.521 568.68 106.745 568.68 106.988C568.68 107.221 568.773 107.422 568.96 107.59C569.147 107.749 569.445 107.889 569.856 108.01L571.2 108.458C571.769 108.635 572.203 108.864 572.502 109.144C572.81 109.415 572.964 109.793 572.964 110.278C572.964 110.754 572.717 111.188 572.222 111.58C571.727 111.963 571.037 112.154 570.15 112.154C569.263 112.154 568.573 111.958 568.078 111.566C567.583 111.165 567.322 110.651 567.294 110.026H568.358C568.377 110.446 568.545 110.763 568.862 110.978C569.189 111.183 569.595 111.286 570.08 111.286C570.565 111.286 570.967 111.183 571.284 110.978C571.601 110.773 571.76 110.53 571.76 110.25C571.76 109.961 571.667 109.741 571.48 109.592C571.293 109.443 570.99 109.312 570.57 109.2L569.268 108.766C568.101 108.421 567.518 107.814 567.518 106.946ZM578.737 111.804C577.935 112.177 577.202 112.257 576.539 112.042C576.063 111.893 575.727 111.58 575.531 111.104C575.429 110.871 575.377 110.591 575.377 110.264V106.148H574.299V105.308H575.377V103.446H576.469V105.308H578.569V106.148H576.469V110.25C576.469 110.931 576.787 111.272 577.421 111.272C577.767 111.272 578.154 111.188 578.583 111.02L578.737 111.804ZM582.811 111.258C583.735 111.258 584.262 110.852 584.393 110.04H585.527C585.424 110.712 585.126 111.235 584.631 111.608C584.146 111.972 583.539 112.154 582.811 112.154C581.915 112.154 581.187 111.837 580.627 111.202C580.067 110.558 579.787 109.704 579.787 108.64C579.787 107.576 580.067 106.727 580.627 106.092C581.196 105.457 581.948 105.14 582.881 105.14C583.824 105.14 584.524 105.504 584.981 106.232C585.448 106.96 585.611 107.847 585.471 108.892H580.893C580.893 109.583 581.061 110.152 581.397 110.6C581.733 111.039 582.204 111.258 582.811 111.258ZM583.623 106.19C583.408 106.078 583.147 106.022 582.839 106.022C582.27 106.022 581.817 106.218 581.481 106.61C581.154 106.993 580.963 107.473 580.907 108.052H584.477C584.477 107.119 584.192 106.498 583.623 106.19ZM590.114 105.14C591.047 105.14 591.799 105.443 592.368 106.05C592.947 106.657 593.236 107.525 593.236 108.654C593.236 109.774 592.947 110.637 592.368 111.244C591.799 111.851 591.047 112.154 590.114 112.154C589.181 112.154 588.425 111.851 587.846 111.244C587.277 110.637 586.992 109.774 586.992 108.654C586.992 107.525 587.277 106.657 587.846 106.05C588.425 105.443 589.181 105.14 590.114 105.14ZM592.116 108.654C592.116 107.851 591.948 107.226 591.612 106.778C591.276 106.321 590.781 106.092 590.128 106.092C589.484 106.092 588.989 106.321 588.644 106.778C588.299 107.226 588.126 107.851 588.126 108.654C588.126 109.447 588.289 110.073 588.616 110.53C588.943 110.978 589.428 111.202 590.072 111.202C590.725 111.202 591.229 110.978 591.584 110.53C591.939 110.073 592.116 109.447 592.116 108.654ZM515.079 119.194C516.049 119.194 516.787 119.441 517.291 119.936C517.804 120.421 518.061 121.079 518.061 121.91C518.061 122.741 517.804 123.399 517.291 123.884C516.787 124.36 516.049 124.598 515.079 124.598H513.343V128H512.237V119.194H515.079ZM515.079 123.646C515.685 123.646 516.143 123.492 516.451 123.184C516.768 122.876 516.927 122.456 516.927 121.924C516.927 121.383 516.768 120.953 516.451 120.636C516.143 120.309 515.685 120.146 515.079 120.146H513.343V123.646H515.079ZM520.017 118.466H521.123V128H520.017V118.466ZM528.084 123.66C528.084 123.053 527.958 122.619 527.706 122.358C527.454 122.097 527.086 121.966 526.6 121.966C526.124 121.966 525.737 122.064 525.438 122.26C525.149 122.447 525.004 122.745 525.004 123.156H523.786C523.786 122.129 524.337 121.495 525.438 121.252C525.774 121.177 526.138 121.14 526.53 121.14C527.361 121.14 528.01 121.35 528.476 121.77C528.943 122.19 529.176 122.829 529.176 123.688V128H528.224L528.112 126.88C527.702 127.729 526.96 128.154 525.886 128.154C525.168 128.154 524.589 127.953 524.15 127.552C523.721 127.151 523.506 126.651 523.506 126.054C523.506 125.457 523.744 124.99 524.22 124.654C524.706 124.318 525.308 124.15 526.026 124.15C526.745 124.15 527.431 124.271 528.084 124.514V123.66ZM528.084 125.214C527.422 125.027 526.843 124.934 526.348 124.934C525.854 124.934 525.452 125.023 525.144 125.2C524.836 125.377 524.682 125.657 524.682 126.04C524.682 126.88 525.158 127.3 526.11 127.3C526.652 127.3 527.114 127.109 527.496 126.726C527.888 126.334 528.084 125.83 528.084 125.214ZM535.274 127.804C534.472 128.177 533.739 128.257 533.076 128.042C532.6 127.893 532.264 127.58 532.068 127.104C531.966 126.871 531.914 126.591 531.914 126.264V122.148H530.836V121.308H531.914V119.446H533.006V121.308H535.106V122.148H533.006V126.25C533.006 126.931 533.324 127.272 533.958 127.272C534.304 127.272 534.691 127.188 535.12 127.02L535.274 127.804ZM541.182 123.66C541.182 123.053 541.056 122.619 540.804 122.358C540.552 122.097 540.183 121.966 539.698 121.966C539.222 121.966 538.835 122.064 538.536 122.26C538.247 122.447 538.102 122.745 538.102 123.156H536.884C536.884 122.129 537.435 121.495 538.536 121.252C538.872 121.177 539.236 121.14 539.628 121.14C540.459 121.14 541.107 121.35 541.574 121.77C542.041 122.19 542.274 122.829 542.274 123.688V128H541.322L541.21 126.88C540.799 127.729 540.057 128.154 538.984 128.154C538.265 128.154 537.687 127.953 537.248 127.552C536.819 127.151 536.604 126.651 536.604 126.054C536.604 125.457 536.842 124.99 537.318 124.654C537.803 124.318 538.405 124.15 539.124 124.15C539.843 124.15 540.529 124.271 541.182 124.514V123.66ZM541.182 125.214C540.519 125.027 539.941 124.934 539.446 124.934C538.951 124.934 538.55 125.023 538.242 125.2C537.934 125.377 537.78 125.657 537.78 126.04C537.78 126.88 538.256 127.3 539.208 127.3C539.749 127.3 540.211 127.109 540.594 126.726C540.986 126.334 541.182 125.83 541.182 125.214ZM548.12 119.404C547.812 119.283 547.569 119.222 547.392 119.222C547.065 119.222 546.809 119.301 546.622 119.46C546.435 119.619 546.342 119.899 546.342 120.3V121.308H547.728V122.064H546.342V128H545.25V122.064H544.144V121.308H545.25V120.286C545.25 119.623 545.432 119.138 545.796 118.83C546.16 118.513 546.58 118.354 547.056 118.354C547.532 118.354 547.952 118.415 548.316 118.536L548.12 119.404ZM552.079 121.14C553.012 121.14 553.764 121.443 554.333 122.05C554.912 122.657 555.201 123.525 555.201 124.654C555.201 125.774 554.912 126.637 554.333 127.244C553.764 127.851 553.012 128.154 552.079 128.154C551.146 128.154 550.39 127.851 549.811 127.244C549.242 126.637 548.957 125.774 548.957 124.654C548.957 123.525 549.242 122.657 549.811 122.05C550.39 121.443 551.146 121.14 552.079 121.14ZM554.081 124.654C554.081 123.851 553.913 123.226 553.577 122.778C553.241 122.321 552.746 122.092 552.093 122.092C551.449 122.092 550.954 122.321 550.609 122.778C550.264 123.226 550.091 123.851 550.091 124.654C550.091 125.447 550.254 126.073 550.581 126.53C550.908 126.978 551.393 127.202 552.037 127.202C552.69 127.202 553.194 126.978 553.549 126.53C553.904 126.073 554.081 125.447 554.081 124.654ZM560.043 122.246C558.989 122.246 558.443 123.077 558.405 124.738V128H557.299V121.294H558.405V122.582C558.741 121.649 559.334 121.182 560.183 121.182C560.454 121.182 560.711 121.224 560.953 121.308L560.897 122.386C560.617 122.293 560.333 122.246 560.043 122.246ZM563.709 122.596C564.148 121.625 564.899 121.14 565.963 121.14C566.542 121.14 567.027 121.285 567.419 121.574C567.811 121.854 568.096 122.246 568.273 122.75C568.693 121.677 569.473 121.14 570.611 121.14C571.414 121.14 572.035 121.401 572.473 121.924C572.912 122.447 573.131 123.161 573.131 124.066V128H572.039V124.066C572.039 123.422 571.885 122.937 571.577 122.61C571.279 122.283 570.845 122.12 570.275 122.12C569.706 122.12 569.263 122.353 568.945 122.82C568.637 123.287 568.483 123.931 568.483 124.752V128H567.391V124.066C567.391 123.422 567.237 122.937 566.929 122.61C566.631 122.283 566.201 122.12 565.641 122.12C565.081 122.12 564.629 122.349 564.283 122.806C563.938 123.263 563.756 123.898 563.737 124.71V128H562.631V121.308H563.583L563.709 122.596ZM579.873 123.66C579.873 123.053 579.747 122.619 579.495 122.358C579.243 122.097 578.875 121.966 578.389 121.966C577.913 121.966 577.526 122.064 577.227 122.26C576.938 122.447 576.793 122.745 576.793 123.156H575.575C575.575 122.129 576.126 121.495 577.227 121.252C577.563 121.177 577.927 121.14 578.319 121.14C579.15 121.14 579.799 121.35 580.265 121.77C580.732 122.19 580.965 122.829 580.965 123.688V128H580.013L579.901 126.88C579.491 127.729 578.749 128.154 577.675 128.154C576.957 128.154 576.378 127.953 575.939 127.552C575.51 127.151 575.295 126.651 575.295 126.054C575.295 125.457 575.533 124.99 576.009 124.654C576.495 124.318 577.097 124.15 577.815 124.15C578.534 124.15 579.22 124.271 579.873 124.514V123.66ZM579.873 125.214C579.211 125.027 578.632 124.934 578.137 124.934C577.643 124.934 577.241 125.023 576.933 125.2C576.625 125.377 576.471 125.657 576.471 126.04C576.471 126.88 576.947 127.3 577.899 127.3C578.441 127.3 578.903 127.109 579.285 126.726C579.677 126.334 579.873 125.83 579.873 125.214Z" fill="#333333"/>
</svg>
