<svg width="445" height="164" viewBox="0 0 445 164" fill="none" xmlns="http://www.w3.org/2000/svg">
<path d="M373.414 62C378.398 62 382.352 58.0469 382.352 53.0625C382.352 48.1641 378.312 44.125 373.414 44.125C368.516 44.125 364.562 48.1641 364.562 53.0625C364.477 58.0469 368.516 62 373.414 62ZM373.414 46.875C376.852 46.875 379.602 49.7109 379.602 53.0625C379.602 56.5 376.852 59.25 373.414 59.25C370.062 59.25 367.227 56.5 367.227 53.0625C367.227 49.7109 370.062 46.875 373.414 46.875ZM377.711 64.75H369.203C362.414 64.75 357 69.9062 357 76.2656C357 77.5547 358.031 78.5 359.406 78.5H387.508C388.883 78.5 390 77.5547 390 76.2656C390 69.9062 384.5 64.75 377.711 64.75ZM359.75 75.75C360.008 71.1953 364.133 67.5 369.117 67.5H377.711C382.781 67.5 386.906 71.1953 387.164 75.75H359.75ZM390 48.25C393.781 48.25 396.875 45.2422 396.875 41.375C396.875 37.5938 393.781 34.5 390 34.5C386.133 34.5 383.125 37.5938 383.125 41.375C383.125 45.2422 386.133 48.25 390 48.25ZM390 37.25C392.234 37.25 394.125 39.1406 394.125 41.375C394.125 43.6953 392.234 45.5 390 45.5C387.68 45.5 385.875 43.6953 385.875 41.375C385.875 39.1406 387.68 37.25 390 37.25ZM357 48.25C360.781 48.25 363.875 45.2422 363.875 41.375C363.875 37.5938 360.781 34.5 357 34.5C353.133 34.5 350.125 37.5938 350.125 41.375C350.125 45.2422 353.133 48.25 357 48.25ZM357 37.25C359.234 37.25 361.125 39.1406 361.125 41.375C361.125 43.6953 359.234 45.5 357 45.5C354.68 45.5 352.875 43.6953 352.875 41.375C352.875 39.1406 354.68 37.25 357 37.25ZM394.211 51H388.625C387.594 51 386.648 51.2578 385.789 51.6875C385.102 52.0312 384.844 52.8047 385.102 53.4922C385.445 54.1797 386.305 54.5234 386.992 54.1797C387.508 53.9219 388.023 53.75 388.625 53.75H394.211C396.359 53.75 398.25 55.7266 398.25 58.1328V59.25C398.25 60.0234 398.852 60.625 399.625 60.625C400.312 60.625 401 60.0234 401 59.25V58.1328C401 54.2656 397.906 51 394.211 51ZM359.922 54.1797C360.609 54.5234 361.469 54.1797 361.812 53.4922C362.07 52.8047 361.812 52.0312 361.125 51.6875C360.266 51.2578 359.32 51 358.375 51H352.703C349.008 51 346 54.2656 346 58.1328V59.25C346 60.0234 346.602 60.625 347.375 60.625C348.062 60.625 348.75 60.0234 348.75 59.25V58.1328C348.75 55.7266 350.555 53.75 352.703 53.75H358.375C358.891 53.75 359.406 53.9219 359.922 54.1797Z" fill="#333333"/>
<path d="M92.9141 69.25H82C81.2266 69.25 80.625 69.8516 80.625 70.625V72.6016C80.625 73.1172 80.7109 73.6328 81.0547 74.0625L82.5156 76.2969C82.9453 76.9844 83.9766 77.5 84.8359 77.5H90.0781C90.9375 77.5 91.9688 76.9844 92.3984 76.2969L93.8594 74.0625C94.1172 73.7188 94.2891 73.0312 94.2891 72.6016V70.625C94.2891 69.9375 93.6875 69.25 92.9141 69.25ZM91.5391 72.6016L90.1641 74.6641C90.1641 74.75 90.0781 74.75 90.0781 74.75L84.9219 74.8359C84.9219 74.75 84.8359 74.75 84.8359 74.75L83.375 72.6016V72H91.625V72.5156C91.5391 72.5156 91.5391 72.6016 91.5391 72.6016ZM98.0703 37.9688C95.2344 35.1328 91.3672 33.4141 87.4141 33.5859C79.0781 33.5859 72.375 40.375 72.375 48.7969C72.375 52.4922 73.6641 56.0156 76.0703 58.7656C77.1875 60.1406 79.1641 63.0625 79.8516 65.3828C79.9375 66.0703 80.625 66.5859 81.3125 66.5C82.0859 66.4141 82.6016 65.7266 82.6016 65.0391L82.5156 64.6953C81.6562 61.6875 79.4219 58.4219 78.1328 57.0469C76.1562 54.7266 75.125 51.8047 75.125 48.7969C75.125 41.8359 80.5391 36.3359 87.4141 36.3359H87.5C90.7656 36.3359 93.8594 37.5391 96.1797 39.9453C98.5 42.2656 99.875 45.4453 99.875 48.7969C99.875 51.8047 98.7578 54.7266 96.7812 57.0469C95.4922 58.4219 93.2578 61.6875 92.3984 64.6953L92.3125 65.0391C92.2266 65.7266 92.7422 66.5 93.5156 66.5859C93.6016 66.5859 93.6875 66.5859 93.6875 66.5859C94.375 66.5859 94.9766 66.1562 95.0625 65.4688C95.75 63.0625 97.7266 60.1406 98.8438 58.8516C101.25 56.0156 102.625 52.4922 102.625 48.7969C102.625 44.6719 100.992 40.8047 98.0703 37.9688ZM88.875 40.4609C88.875 39.6875 88.1875 39.0859 87.5 39.0859C82.1719 39.0859 77.875 43.3828 77.875 48.625C77.875 49.3984 78.4766 50 79.25 50C79.9375 50 80.625 49.3984 80.625 48.625C80.625 44.8438 83.6328 41.8359 87.5 41.8359C88.1875 41.8359 88.875 41.1484 88.875 40.4609Z" fill="#333333"/>
<path d="M32.6269 104.194H35.9169C36.8409 104.194 37.5502 104.413 38.0449 104.852C38.5489 105.291 38.8009 105.841 38.8009 106.504C38.8009 107.008 38.6609 107.447 38.3809 107.82C38.1102 108.193 37.6949 108.445 37.1349 108.576C37.6856 108.669 38.1242 108.907 38.4509 109.29C38.7869 109.673 38.9549 110.107 38.9549 110.592C38.9549 111.675 38.4276 112.407 37.3729 112.79C36.9809 112.93 36.5002 113 35.9309 113H32.6269V104.194ZM35.9029 112.034C36.5749 112.034 37.0556 111.899 37.3449 111.628C37.6342 111.357 37.7789 110.998 37.7789 110.55C37.7789 110.102 37.6202 109.747 37.3029 109.486C36.9856 109.215 36.5189 109.08 35.9029 109.08H33.7329V112.034H35.9029ZM33.7329 108.128H35.8889C36.4302 108.128 36.8596 107.997 37.1769 107.736C37.5036 107.465 37.6669 107.097 37.6669 106.63C37.6669 106.163 37.5082 105.799 37.1909 105.538C36.8829 105.277 36.4489 105.146 35.8889 105.146H33.7329V108.128ZM44.0659 107.246C43.0112 107.246 42.4652 108.077 42.4279 109.738V113H41.3219V106.294H42.4279V107.582C42.7639 106.649 43.3565 106.182 44.2059 106.182C44.4765 106.182 44.7332 106.224 44.9759 106.308L44.9199 107.386C44.6399 107.293 44.3552 107.246 44.0659 107.246ZM50.8119 108.66C50.8119 108.053 50.6859 107.619 50.4339 107.358C50.1819 107.097 49.8132 106.966 49.3279 106.966C48.8519 106.966 48.4646 107.064 48.1659 107.26C47.8766 107.447 47.7319 107.745 47.7319 108.156H46.5139C46.5139 107.129 47.0646 106.495 48.1659 106.252C48.5019 106.177 48.8659 106.14 49.2579 106.14C50.0886 106.14 50.7372 106.35 51.2039 106.77C51.6706 107.19 51.9039 107.829 51.9039 108.688V113H50.9519L50.8399 111.88C50.4292 112.729 49.6872 113.154 48.6139 113.154C47.8952 113.154 47.3166 112.953 46.8779 112.552C46.4486 112.151 46.2339 111.651 46.2339 111.054C46.2339 110.457 46.4719 109.99 46.9479 109.654C47.4332 109.318 48.0352 109.15 48.7539 109.15C49.4726 109.15 50.1586 109.271 50.8119 109.514V108.66ZM50.8119 110.214C50.1492 110.027 49.5706 109.934 49.0759 109.934C48.5812 109.934 48.1799 110.023 47.8719 110.2C47.5639 110.377 47.4099 110.657 47.4099 111.04C47.4099 111.88 47.8859 112.3 48.8379 112.3C49.3792 112.3 49.8412 112.109 50.2239 111.726C50.6159 111.334 50.8119 110.83 50.8119 110.214ZM54.5719 106.294H55.6779V113H54.5719V106.294ZM55.1179 104.726C54.8939 104.726 54.7166 104.665 54.5859 104.544C54.4646 104.413 54.4039 104.245 54.4039 104.04C54.4039 103.825 54.4646 103.657 54.5859 103.536C54.7166 103.405 54.8939 103.34 55.1179 103.34C55.3419 103.34 55.5192 103.405 55.6499 103.536C55.7899 103.657 55.8599 103.825 55.8599 104.04C55.8599 104.245 55.7899 104.413 55.6499 104.544C55.5192 104.665 55.3419 104.726 55.1179 104.726ZM59.7495 107.596C60.1882 106.625 60.9395 106.14 62.0035 106.14C62.7968 106.14 63.4128 106.401 63.8515 106.924C64.2995 107.447 64.5235 108.161 64.5235 109.066V113H63.4315V109.066C63.4315 108.422 63.2775 107.937 62.9695 107.61C62.6708 107.283 62.2415 107.12 61.6815 107.12C61.1215 107.12 60.6688 107.349 60.3235 107.806C59.9782 108.263 59.7962 108.898 59.7775 109.71V113H58.6715V106.308H59.6235L59.7495 107.596ZM66.771 107.946C66.771 107.395 67.0044 106.957 67.471 106.63C67.947 106.303 68.5864 106.14 69.389 106.14C70.1917 106.14 70.817 106.308 71.265 106.644C71.7224 106.98 71.9604 107.405 71.979 107.918H70.901C70.817 107.311 70.3037 107.008 69.361 107.008C68.9037 107.008 68.549 107.111 68.297 107.316C68.0544 107.521 67.933 107.745 67.933 107.988C67.933 108.221 68.0264 108.422 68.213 108.59C68.3997 108.749 68.6984 108.889 69.109 109.01L70.453 109.458C71.0224 109.635 71.4564 109.864 71.755 110.144C72.063 110.415 72.217 110.793 72.217 111.278C72.217 111.754 71.9697 112.188 71.475 112.58C70.9804 112.963 70.2897 113.154 69.403 113.154C68.5164 113.154 67.8257 112.958 67.331 112.566C66.8364 112.165 66.575 111.651 66.547 111.026H67.611C67.6297 111.446 67.7977 111.763 68.115 111.978C68.4417 112.183 68.8477 112.286 69.333 112.286C69.8184 112.286 70.2197 112.183 70.537 111.978C70.8544 111.773 71.013 111.53 71.013 111.25C71.013 110.961 70.9197 110.741 70.733 110.592C70.5464 110.443 70.243 110.312 69.823 110.2L68.521 109.766C67.3544 109.421 66.771 108.814 66.771 107.946ZM77.9902 112.804C77.1875 113.177 76.4548 113.257 75.7922 113.042C75.3162 112.893 74.9802 112.58 74.7842 112.104C74.6815 111.871 74.6302 111.591 74.6302 111.264V107.148H73.5522V106.308H74.6302V104.446H75.7222V106.308H77.8222V107.148H75.7222V111.25C75.7222 111.931 76.0395 112.272 76.6742 112.272C77.0195 112.272 77.4068 112.188 77.8362 112.02L77.9902 112.804ZM82.1618 106.14C83.0952 106.14 83.8465 106.443 84.4158 107.05C84.9945 107.657 85.2838 108.525 85.2838 109.654C85.2838 110.774 84.9945 111.637 84.4158 112.244C83.8465 112.851 83.0952 113.154 82.1618 113.154C81.2285 113.154 80.4725 112.851 79.8938 112.244C79.3245 111.637 79.0398 110.774 79.0398 109.654C79.0398 108.525 79.3245 107.657 79.8938 107.05C80.4725 106.443 81.2285 106.14 82.1618 106.14ZM84.1638 109.654C84.1638 108.851 83.9958 108.226 83.6598 107.778C83.3238 107.321 82.8292 107.092 82.1758 107.092C81.5318 107.092 81.0372 107.321 80.6918 107.778C80.3465 108.226 80.1738 108.851 80.1738 109.654C80.1738 110.447 80.3372 111.073 80.6638 111.53C80.9905 111.978 81.4758 112.202 82.1198 112.202C82.7732 112.202 83.2772 111.978 83.6318 111.53C83.9865 111.073 84.1638 110.447 84.1638 109.654ZM90.1264 107.246C89.0718 107.246 88.5258 108.077 88.4884 109.738V113H87.3824V106.294H88.4884V107.582C88.8244 106.649 89.4171 106.182 90.2664 106.182C90.5371 106.182 90.7938 106.224 91.0364 106.308L90.9804 107.386C90.7004 107.293 90.4158 107.246 90.1264 107.246ZM93.7925 107.596C94.2311 106.625 94.9825 106.14 96.0465 106.14C96.6251 106.14 97.1105 106.285 97.5025 106.574C97.8945 106.854 98.1791 107.246 98.3565 107.75C98.7765 106.677 99.5558 106.14 100.694 106.14C101.497 106.14 102.118 106.401 102.556 106.924C102.995 107.447 103.214 108.161 103.214 109.066V113H102.122V109.066C102.122 108.422 101.968 107.937 101.66 107.61C101.362 107.283 100.928 107.12 100.358 107.12C99.7891 107.12 99.3458 107.353 99.0285 107.82C98.7205 108.287 98.5665 108.931 98.5665 109.752V113H97.4745V109.066C97.4745 108.422 97.3205 107.937 97.0125 107.61C96.7138 107.283 96.2845 107.12 95.7245 107.12C95.1645 107.12 94.7118 107.349 94.3665 107.806C94.0211 108.263 93.8391 108.898 93.8205 109.71V113H92.7145V106.308H93.6665L93.7925 107.596ZM105.882 106.294H106.988V113H105.882V106.294ZM106.428 104.726C106.204 104.726 106.027 104.665 105.896 104.544C105.775 104.413 105.714 104.245 105.714 104.04C105.714 103.825 105.775 103.657 105.896 103.536C106.027 103.405 106.204 103.34 106.428 103.34C106.652 103.34 106.83 103.405 106.96 103.536C107.1 103.657 107.17 103.825 107.17 104.04C107.17 104.245 107.1 104.413 106.96 104.544C106.83 104.665 106.652 104.726 106.428 104.726ZM111.06 107.596C111.499 106.625 112.25 106.14 113.314 106.14C114.107 106.14 114.723 106.401 115.162 106.924C115.61 107.447 115.834 108.161 115.834 109.066V113H114.742V109.066C114.742 108.422 114.588 107.937 114.28 107.61C113.981 107.283 113.552 107.12 112.992 107.12C112.432 107.12 111.979 107.349 111.634 107.806C111.289 108.263 111.107 108.898 111.088 109.71V113H109.982V106.308H110.934L111.06 107.596ZM118.712 112.79C118.152 112.519 117.872 112.104 117.872 111.544C117.872 111.255 117.979 111.003 118.194 110.788C118.418 110.564 118.693 110.415 119.02 110.34C118.516 109.892 118.264 109.304 118.264 108.576C118.264 107.848 118.52 107.26 119.034 106.812C119.556 106.364 120.172 106.14 120.882 106.14C121.591 106.14 122.193 106.308 122.688 106.644C122.753 106.149 122.949 105.753 123.276 105.454C123.612 105.155 124.05 105.006 124.592 105.006L124.494 106.098C123.672 106.098 123.243 106.443 123.206 107.134C123.532 107.535 123.696 108.016 123.696 108.576C123.696 109.295 123.434 109.887 122.912 110.354C122.398 110.811 121.754 111.04 120.98 111.04C120.448 111.04 119.976 110.933 119.566 110.718C119.379 110.755 119.211 110.844 119.062 110.984C118.912 111.115 118.838 111.297 118.838 111.53C118.838 112.025 119.248 112.272 120.07 112.272H122.674C123.299 112.272 123.794 112.407 124.158 112.678C124.522 112.939 124.704 113.308 124.704 113.784C124.704 114.493 124.344 115.114 123.626 115.646C122.916 116.178 122.016 116.444 120.924 116.444C119.832 116.444 118.973 116.239 118.348 115.828C117.722 115.427 117.41 114.918 117.41 114.302C117.41 113.901 117.526 113.574 117.76 113.322C118.002 113.07 118.32 112.893 118.712 112.79ZM118.502 114.26C118.502 114.615 118.693 114.918 119.076 115.17C119.468 115.431 120.056 115.562 120.84 115.562C121.633 115.562 122.291 115.389 122.814 115.044C123.346 114.708 123.612 114.311 123.612 113.854C123.612 113.639 123.532 113.453 123.374 113.294C123.224 113.145 122.991 113.07 122.674 113.07H119.972C119.496 113.089 119.132 113.201 118.88 113.406C118.628 113.621 118.502 113.905 118.502 114.26ZM122.618 108.576C122.618 108.091 122.473 107.699 122.184 107.4C121.894 107.092 121.493 106.938 120.98 106.938C120.476 106.938 120.079 107.092 119.79 107.4C119.5 107.699 119.356 108.091 119.356 108.576C119.356 109.061 119.5 109.463 119.79 109.78C120.088 110.088 120.49 110.242 120.994 110.242C121.498 110.242 121.894 110.083 122.184 109.766C122.473 109.449 122.618 109.052 122.618 108.576ZM134.066 107.302V103.466H135.158V113H134.262L134.122 111.88C133.907 112.3 133.622 112.617 133.268 112.832C132.913 113.047 132.526 113.154 132.106 113.154C131.256 113.154 130.542 112.827 129.964 112.174C129.394 111.521 129.11 110.671 129.11 109.626C129.11 108.571 129.39 107.727 129.95 107.092C130.519 106.457 131.233 106.14 132.092 106.14C132.96 106.14 133.618 106.527 134.066 107.302ZM132.162 107.12C131.62 107.12 131.163 107.349 130.79 107.806C130.426 108.263 130.244 108.875 130.244 109.64C130.244 110.405 130.43 111.021 130.804 111.488C131.177 111.945 131.625 112.174 132.148 112.174C132.67 112.174 133.114 112.001 133.478 111.656C133.851 111.301 134.047 110.83 134.066 110.242V109.15C134.066 108.525 133.884 108.03 133.52 107.666C133.156 107.302 132.703 107.12 132.162 107.12ZM140.306 112.258C141.23 112.258 141.757 111.852 141.888 111.04H143.022C142.919 111.712 142.621 112.235 142.126 112.608C141.641 112.972 141.034 113.154 140.306 113.154C139.41 113.154 138.682 112.837 138.122 112.202C137.562 111.558 137.282 110.704 137.282 109.64C137.282 108.576 137.562 107.727 138.122 107.092C138.691 106.457 139.443 106.14 140.376 106.14C141.319 106.14 142.019 106.504 142.476 107.232C142.943 107.96 143.106 108.847 142.966 109.892H138.388C138.388 110.583 138.556 111.152 138.892 111.6C139.228 112.039 139.699 112.258 140.306 112.258ZM141.118 107.19C140.903 107.078 140.642 107.022 140.334 107.022C139.765 107.022 139.312 107.218 138.976 107.61C138.649 107.993 138.458 108.473 138.402 109.052H141.972C141.972 108.119 141.687 107.498 141.118 107.19ZM71.5319 122.294H72.6379V129H71.5319V122.294ZM72.0779 120.726C71.8539 120.726 71.6765 120.665 71.5459 120.544C71.4245 120.413 71.3639 120.245 71.3639 120.04C71.3639 119.825 71.4245 119.657 71.5459 119.536C71.6765 119.405 71.8539 119.34 72.0779 119.34C72.3019 119.34 72.4792 119.405 72.6099 119.536C72.7499 119.657 72.8199 119.825 72.8199 120.04C72.8199 120.245 72.7499 120.413 72.6099 120.544C72.4792 120.665 72.3019 120.726 72.0779 120.726ZM80.0274 123.302V119.466H81.1194V129H80.2234L80.0834 127.88C79.8688 128.3 79.5841 128.617 79.2294 128.832C78.8748 129.047 78.4874 129.154 78.0674 129.154C77.2181 129.154 76.5041 128.827 75.9254 128.174C75.3561 127.521 75.0714 126.671 75.0714 125.626C75.0714 124.571 75.3514 123.727 75.9114 123.092C76.4808 122.457 77.1948 122.14 78.0534 122.14C78.9214 122.14 79.5794 122.527 80.0274 123.302ZM78.1234 123.12C77.5821 123.12 77.1248 123.349 76.7514 123.806C76.3874 124.263 76.2054 124.875 76.2054 125.64C76.2054 126.405 76.3921 127.021 76.7654 127.488C77.1388 127.945 77.5868 128.174 78.1094 128.174C78.6321 128.174 79.0754 128.001 79.4394 127.656C79.8128 127.301 80.0088 126.83 80.0274 126.242V125.15C80.0274 124.525 79.8454 124.03 79.4814 123.666C79.1174 123.302 78.6648 123.12 78.1234 123.12ZM86.2679 128.258C87.1919 128.258 87.7193 127.852 87.8499 127.04H88.9839C88.8813 127.712 88.5826 128.235 88.0879 128.608C87.6026 128.972 86.9959 129.154 86.2679 129.154C85.3719 129.154 84.6439 128.837 84.0839 128.202C83.5239 127.558 83.2439 126.704 83.2439 125.64C83.2439 124.576 83.5239 123.727 84.0839 123.092C84.6533 122.457 85.4046 122.14 86.3379 122.14C87.2806 122.14 87.9806 122.504 88.4379 123.232C88.9046 123.96 89.0679 124.847 88.9279 125.892H84.3499C84.3499 126.583 84.5179 127.152 84.8539 127.6C85.1899 128.039 85.6613 128.258 86.2679 128.258ZM87.0799 123.19C86.8653 123.078 86.6039 123.022 86.2959 123.022C85.7266 123.022 85.2739 123.218 84.9379 123.61C84.6113 123.993 84.4199 124.473 84.3639 125.052H87.9339C87.9339 124.119 87.6493 123.498 87.0799 123.19ZM95.307 124.66C95.307 124.053 95.181 123.619 94.929 123.358C94.677 123.097 94.3084 122.966 93.823 122.966C93.347 122.966 92.9597 123.064 92.661 123.26C92.3717 123.447 92.227 123.745 92.227 124.156H91.009C91.009 123.129 91.5597 122.495 92.661 122.252C92.997 122.177 93.361 122.14 93.753 122.14C94.5837 122.14 95.2324 122.35 95.699 122.77C96.1657 123.19 96.399 123.829 96.399 124.688V129H95.447L95.335 127.88C94.9244 128.729 94.1824 129.154 93.109 129.154C92.3904 129.154 91.8117 128.953 91.373 128.552C90.9437 128.151 90.729 127.651 90.729 127.054C90.729 126.457 90.967 125.99 91.443 125.654C91.9284 125.318 92.5304 125.15 93.249 125.15C93.9677 125.15 94.6537 125.271 95.307 125.514V124.66ZM95.307 126.214C94.6444 126.027 94.0657 125.934 93.571 125.934C93.0764 125.934 92.675 126.023 92.367 126.2C92.059 126.377 91.905 126.657 91.905 127.04C91.905 127.88 92.381 128.3 93.333 128.3C93.8744 128.3 94.3364 128.109 94.719 127.726C95.111 127.334 95.307 126.83 95.307 126.214ZM98.647 123.946C98.647 123.395 98.8803 122.957 99.347 122.63C99.823 122.303 100.462 122.14 101.265 122.14C102.068 122.14 102.693 122.308 103.141 122.644C103.598 122.98 103.836 123.405 103.855 123.918H102.777C102.693 123.311 102.18 123.008 101.237 123.008C100.78 123.008 100.425 123.111 100.173 123.316C99.9303 123.521 99.809 123.745 99.809 123.988C99.809 124.221 99.9023 124.422 100.089 124.59C100.276 124.749 100.574 124.889 100.985 125.01L102.329 125.458C102.898 125.635 103.332 125.864 103.631 126.144C103.939 126.415 104.093 126.793 104.093 127.278C104.093 127.754 103.846 128.188 103.351 128.58C102.856 128.963 102.166 129.154 101.279 129.154C100.392 129.154 99.7017 128.958 99.207 128.566C98.7123 128.165 98.451 127.651 98.423 127.026H99.487C99.5057 127.446 99.6737 127.763 99.991 127.978C100.318 128.183 100.724 128.286 101.209 128.286C101.694 128.286 102.096 128.183 102.413 127.978C102.73 127.773 102.889 127.53 102.889 127.25C102.889 126.961 102.796 126.741 102.609 126.592C102.422 126.443 102.119 126.312 101.699 126.2L100.397 125.766C99.2303 125.421 98.647 124.814 98.647 123.946Z" fill="#333333"/>
<path d="M252.5 42.75V40C252.5 38.5391 251.211 37.25 249.75 37.25H247C245.453 37.25 244.25 38.5391 244.25 40H216.75C216.75 38.5391 215.461 37.25 214 37.25H211.25C209.703 37.25 208.5 38.5391 208.5 40V42.75C208.5 44.2969 209.703 45.5 211.25 45.5V67.5C209.703 67.5 208.5 68.7891 208.5 70.25V73C208.5 74.5469 209.703 75.75 211.25 75.75H214C215.461 75.75 216.75 74.5469 216.75 73H244.25C244.25 74.5469 245.453 75.75 247 75.75H249.75C251.211 75.75 252.5 74.5469 252.5 73V70.25C252.5 68.7891 251.211 67.5 249.75 67.5V45.5C251.211 45.5 252.5 44.2969 252.5 42.75ZM211.25 40H214V42.75H211.25V40ZM214 73H211.25V70.25H214V73ZM244.25 70.25H216.75C216.75 68.7891 215.461 67.5 214 67.5V45.5C215.461 45.5 216.75 44.2969 216.75 42.75H244.25C244.25 44.2969 245.453 45.5 247 45.5V67.5C245.453 67.5 244.25 68.7891 244.25 70.25ZM249.75 73H247V70.25H249.75V73ZM247 42.75V40H249.75V42.75H247ZM233.25 56.5V48.25C233.25 46.7891 231.961 45.5 230.5 45.5H219.5C217.953 45.5 216.75 46.7891 216.75 48.25V56.5C216.75 58.0469 217.953 59.25 219.5 59.25H230.5C231.961 59.25 233.25 58.0469 233.25 56.5ZM219.5 48.25H230.5V56.5H219.5V48.25ZM241.5 53.75H237.375C236.602 53.75 236 54.4375 236 55.125C236 55.8984 236.602 56.5 237.289 56.5H241.5V64.75H230.5V63.375C230.5 62.6875 229.812 62 229.125 62C228.352 62 227.75 62.6875 227.75 63.375V64.75C227.75 66.2969 228.953 67.5 230.5 67.5H241.5C242.961 67.5 244.25 66.2969 244.25 64.75V56.5C244.25 55.0391 242.961 53.75 241.5 53.75Z" fill="#333333"/>
<path d="M197.137 104.194C198.108 104.194 198.845 104.441 199.349 104.936C199.863 105.421 200.119 106.079 200.119 106.91C200.119 107.741 199.863 108.399 199.349 108.884C198.845 109.36 198.108 109.598 197.137 109.598H195.401V113H194.295V104.194H197.137ZM197.137 108.646C197.744 108.646 198.201 108.492 198.509 108.184C198.827 107.876 198.985 107.456 198.985 106.924C198.985 106.383 198.827 105.953 198.509 105.636C198.201 105.309 197.744 105.146 197.137 105.146H195.401V108.646H197.137ZM204.805 107.246C203.75 107.246 203.204 108.077 203.167 109.738V113H202.061V106.294H203.167V107.582C203.503 106.649 204.096 106.182 204.945 106.182C205.216 106.182 205.472 106.224 205.715 106.308L205.659 107.386C205.379 107.293 205.094 107.246 204.805 107.246ZM209.815 106.14C210.748 106.14 211.5 106.443 212.069 107.05C212.648 107.657 212.937 108.525 212.937 109.654C212.937 110.774 212.648 111.637 212.069 112.244C211.5 112.851 210.748 113.154 209.815 113.154C208.882 113.154 208.126 112.851 207.547 112.244C206.978 111.637 206.693 110.774 206.693 109.654C206.693 108.525 206.978 107.657 207.547 107.05C208.126 106.443 208.882 106.14 209.815 106.14ZM211.817 109.654C211.817 108.851 211.649 108.226 211.313 107.778C210.977 107.321 210.482 107.092 209.829 107.092C209.185 107.092 208.69 107.321 208.345 107.778C208 108.226 207.827 108.851 207.827 109.654C207.827 110.447 207.99 111.073 208.317 111.53C208.644 111.978 209.129 112.202 209.773 112.202C210.426 112.202 210.93 111.978 211.285 111.53C211.64 111.073 211.817 110.447 211.817 109.654ZM218.55 112.804C217.747 113.177 217.014 113.257 216.352 113.042C215.876 112.893 215.54 112.58 215.344 112.104C215.241 111.871 215.19 111.591 215.19 111.264V107.148H214.112V106.308H215.19V104.446H216.282V106.308H218.382V107.148H216.282V111.25C216.282 111.931 216.599 112.272 217.234 112.272C217.579 112.272 217.966 112.188 218.396 112.02L218.55 112.804ZM222.721 106.14C223.655 106.14 224.406 106.443 224.975 107.05C225.554 107.657 225.843 108.525 225.843 109.654C225.843 110.774 225.554 111.637 224.975 112.244C224.406 112.851 223.655 113.154 222.721 113.154C221.788 113.154 221.032 112.851 220.453 112.244C219.884 111.637 219.599 110.774 219.599 109.654C219.599 108.525 219.884 107.657 220.453 107.05C221.032 106.443 221.788 106.14 222.721 106.14ZM224.723 109.654C224.723 108.851 224.555 108.226 224.219 107.778C223.883 107.321 223.389 107.092 222.735 107.092C222.091 107.092 221.597 107.321 221.251 107.778C220.906 108.226 220.733 108.851 220.733 109.654C220.733 110.447 220.897 111.073 221.223 111.53C221.55 111.978 222.035 112.202 222.679 112.202C223.333 112.202 223.837 111.978 224.191 111.53C224.546 111.073 224.723 110.447 224.723 109.654ZM231.456 112.804C230.653 113.177 229.921 113.257 229.258 113.042C228.782 112.893 228.446 112.58 228.25 112.104C228.147 111.871 228.096 111.591 228.096 111.264V107.148H227.018V106.308H228.096V104.446H229.188V106.308H231.288V107.148H229.188V111.25C229.188 111.931 229.505 112.272 230.14 112.272C230.485 112.272 230.873 112.188 231.302 112.02L231.456 112.804ZM233.29 106.294H234.396V113H233.29V106.294ZM233.836 104.726C233.612 104.726 233.434 104.665 233.304 104.544C233.182 104.413 233.122 104.245 233.122 104.04C233.122 103.825 233.182 103.657 233.304 103.536C233.434 103.405 233.612 103.34 233.836 103.34C234.06 103.34 234.237 103.405 234.368 103.536C234.508 103.657 234.578 103.825 234.578 104.04C234.578 104.245 234.508 104.413 234.368 104.544C234.237 104.665 234.06 104.726 233.836 104.726ZM238.439 107.33C238.878 106.537 239.531 106.14 240.399 106.14C241.277 106.14 242.005 106.462 242.583 107.106C243.171 107.75 243.465 108.599 243.465 109.654C243.465 110.709 243.171 111.558 242.583 112.202C241.995 112.837 241.272 113.154 240.413 113.154C239.555 113.154 238.92 112.832 238.509 112.188V116.29H237.403V106.308H238.313L238.439 107.33ZM240.357 112.174C240.88 112.174 241.337 111.95 241.729 111.502C242.131 111.054 242.331 110.443 242.331 109.668C242.331 108.884 242.14 108.263 241.757 107.806C241.384 107.349 240.927 107.12 240.385 107.12C239.844 107.12 239.401 107.293 239.055 107.638C238.71 107.974 238.528 108.431 238.509 109.01V110.284C238.509 110.872 238.687 111.334 239.041 111.67C239.396 112.006 239.835 112.174 240.357 112.174ZM249.86 108.66C249.86 108.053 249.734 107.619 249.482 107.358C249.23 107.097 248.861 106.966 248.376 106.966C247.9 106.966 247.512 107.064 247.214 107.26C246.924 107.447 246.78 107.745 246.78 108.156H245.562C245.562 107.129 246.112 106.495 247.214 106.252C247.55 106.177 247.914 106.14 248.306 106.14C249.136 106.14 249.785 106.35 250.252 106.77C250.718 107.19 250.952 107.829 250.952 108.688V113H250L249.888 111.88C249.477 112.729 248.735 113.154 247.662 113.154C246.943 113.154 246.364 112.953 245.926 112.552C245.496 112.151 245.282 111.651 245.282 111.054C245.282 110.457 245.52 109.99 245.996 109.654C246.481 109.318 247.083 109.15 247.802 109.15C248.52 109.15 249.206 109.271 249.86 109.514V108.66ZM249.86 110.214C249.197 110.027 248.618 109.934 248.124 109.934C247.629 109.934 247.228 110.023 246.92 110.2C246.612 110.377 246.458 110.657 246.458 111.04C246.458 111.88 246.934 112.3 247.886 112.3C248.427 112.3 248.889 112.109 249.272 111.726C249.664 111.334 249.86 110.83 249.86 110.214ZM257.932 107.302V103.466H259.024V113H258.128L257.988 111.88C257.773 112.3 257.488 112.617 257.134 112.832C256.779 113.047 256.392 113.154 255.972 113.154C255.122 113.154 254.408 112.827 253.83 112.174C253.26 111.521 252.976 110.671 252.976 109.626C252.976 108.571 253.256 107.727 253.816 107.092C254.385 106.457 255.099 106.14 255.958 106.14C256.826 106.14 257.484 106.527 257.932 107.302ZM256.028 107.12C255.486 107.12 255.029 107.349 254.656 107.806C254.292 108.263 254.11 108.875 254.11 109.64C254.11 110.405 254.296 111.021 254.67 111.488C255.043 111.945 255.491 112.174 256.014 112.174C256.536 112.174 256.98 112.001 257.344 111.656C257.717 111.301 257.913 110.83 257.932 110.242V109.15C257.932 108.525 257.75 108.03 257.386 107.666C257.022 107.302 256.569 107.12 256.028 107.12ZM264.27 106.14C265.204 106.14 265.955 106.443 266.524 107.05C267.103 107.657 267.392 108.525 267.392 109.654C267.392 110.774 267.103 111.637 266.524 112.244C265.955 112.851 265.204 113.154 264.27 113.154C263.337 113.154 262.581 112.851 262.002 112.244C261.433 111.637 261.148 110.774 261.148 109.654C261.148 108.525 261.433 107.657 262.002 107.05C262.581 106.443 263.337 106.14 264.27 106.14ZM266.272 109.654C266.272 108.851 266.104 108.226 265.768 107.778C265.432 107.321 264.938 107.092 264.284 107.092C263.64 107.092 263.146 107.321 262.8 107.778C262.455 108.226 262.282 108.851 262.282 109.654C262.282 110.447 262.446 111.073 262.772 111.53C263.099 111.978 263.584 112.202 264.228 112.202C264.882 112.202 265.386 111.978 265.74 111.53C266.095 111.073 266.272 110.447 266.272 109.654Z" fill="#333333"/>
<path d="M339.951 104.194H346.797V105.146H343.927V113H342.821V105.146H339.951V104.194ZM349.552 112.258C350.476 112.258 351.003 111.852 351.134 111.04H352.268C352.165 111.712 351.867 112.235 351.372 112.608C350.887 112.972 350.28 113.154 349.552 113.154C348.656 113.154 347.928 112.837 347.368 112.202C346.808 111.558 346.528 110.704 346.528 109.64C346.528 108.576 346.808 107.727 347.368 107.092C347.937 106.457 348.689 106.14 349.622 106.14C350.565 106.14 351.265 106.504 351.722 107.232C352.189 107.96 352.352 108.847 352.212 109.892H347.634C347.634 110.583 347.802 111.152 348.138 111.6C348.474 112.039 348.945 112.258 349.552 112.258ZM350.364 107.19C350.149 107.078 349.888 107.022 349.58 107.022C349.011 107.022 348.558 107.218 348.222 107.61C347.895 107.993 347.704 108.473 347.648 109.052H351.218C351.218 108.119 350.933 107.498 350.364 107.19ZM354.097 107.946C354.097 107.395 354.331 106.957 354.797 106.63C355.273 106.303 355.913 106.14 356.715 106.14C357.518 106.14 358.143 106.308 358.591 106.644C359.049 106.98 359.287 107.405 359.305 107.918H358.227C358.143 107.311 357.63 107.008 356.687 107.008C356.23 107.008 355.875 107.111 355.623 107.316C355.381 107.521 355.259 107.745 355.259 107.988C355.259 108.221 355.353 108.422 355.539 108.59C355.726 108.749 356.025 108.889 356.435 109.01L357.779 109.458C358.349 109.635 358.783 109.864 359.081 110.144C359.389 110.415 359.543 110.793 359.543 111.278C359.543 111.754 359.296 112.188 358.801 112.58C358.307 112.963 357.616 113.154 356.729 113.154C355.843 113.154 355.152 112.958 354.657 112.566C354.163 112.165 353.901 111.651 353.873 111.026H354.937C354.956 111.446 355.124 111.763 355.441 111.978C355.768 112.183 356.174 112.286 356.659 112.286C357.145 112.286 357.546 112.183 357.863 111.978C358.181 111.773 358.339 111.53 358.339 111.25C358.339 110.961 358.246 110.741 358.059 110.592C357.873 110.443 357.569 110.312 357.149 110.2L355.847 109.766C354.681 109.421 354.097 108.814 354.097 107.946ZM365.316 112.804C364.514 113.177 363.781 113.257 363.118 113.042C362.642 112.893 362.306 112.58 362.11 112.104C362.008 111.871 361.956 111.591 361.956 111.264V107.148H360.878V106.308H361.956V104.446H363.048V106.308H365.148V107.148H363.048V111.25C363.048 111.931 363.366 112.272 364 112.272C364.346 112.272 364.733 112.188 365.162 112.02L365.316 112.804ZM369.39 112.258C370.314 112.258 370.841 111.852 370.972 111.04H372.106C372.003 111.712 371.705 112.235 371.21 112.608C370.725 112.972 370.118 113.154 369.39 113.154C368.494 113.154 367.766 112.837 367.206 112.202C366.646 111.558 366.366 110.704 366.366 109.64C366.366 108.576 366.646 107.727 367.206 107.092C367.775 106.457 368.527 106.14 369.46 106.14C370.403 106.14 371.103 106.504 371.56 107.232C372.027 107.96 372.19 108.847 372.05 109.892H367.472C367.472 110.583 367.64 111.152 367.976 111.6C368.312 112.039 368.783 112.258 369.39 112.258ZM370.202 107.19C369.987 107.078 369.726 107.022 369.418 107.022C368.849 107.022 368.396 107.218 368.06 107.61C367.733 107.993 367.542 108.473 367.486 109.052H371.056C371.056 108.119 370.771 107.498 370.202 107.19ZM376.693 106.14C377.626 106.14 378.378 106.443 378.947 107.05C379.526 107.657 379.815 108.525 379.815 109.654C379.815 110.774 379.526 111.637 378.947 112.244C378.378 112.851 377.626 113.154 376.693 113.154C375.76 113.154 375.004 112.851 374.425 112.244C373.856 111.637 373.571 110.774 373.571 109.654C373.571 108.525 373.856 107.657 374.425 107.05C375.004 106.443 375.76 106.14 376.693 106.14ZM378.695 109.654C378.695 108.851 378.527 108.226 378.191 107.778C377.855 107.321 377.36 107.092 376.707 107.092C376.063 107.092 375.568 107.321 375.223 107.778C374.878 108.226 374.705 108.851 374.705 109.654C374.705 110.447 374.868 111.073 375.195 111.53C375.522 111.978 376.007 112.202 376.651 112.202C377.304 112.202 377.808 111.978 378.163 111.53C378.518 111.073 378.695 110.447 378.695 109.654ZM387.49 106.14C388.283 106.14 388.913 106.345 389.38 106.756C389.846 107.157 390.15 107.661 390.29 108.268L389.17 108.366C389.048 107.974 388.852 107.671 388.582 107.456C388.311 107.232 388.012 107.12 387.686 107.12C387.088 107.12 386.603 107.344 386.23 107.792C385.866 108.24 385.684 108.851 385.684 109.626C385.684 110.391 385.861 111.007 386.216 111.474C386.58 111.941 387.028 112.174 387.56 112.174C388.101 112.174 388.502 112.053 388.764 111.81C389.034 111.558 389.17 111.203 389.17 110.746H390.304C390.304 111.465 390.052 112.048 389.548 112.496C389.053 112.935 388.404 113.154 387.602 113.154C386.752 113.154 386.029 112.832 385.432 112.188C384.844 111.544 384.55 110.69 384.55 109.626C384.55 108.553 384.844 107.703 385.432 107.078C386.02 106.453 386.706 106.14 387.49 106.14ZM394.877 106.14C395.81 106.14 396.561 106.443 397.131 107.05C397.709 107.657 397.999 108.525 397.999 109.654C397.999 110.774 397.709 111.637 397.131 112.244C396.561 112.851 395.81 113.154 394.877 113.154C393.943 113.154 393.187 112.851 392.609 112.244C392.039 111.637 391.755 110.774 391.755 109.654C391.755 108.525 392.039 107.657 392.609 107.05C393.187 106.443 393.943 106.14 394.877 106.14ZM396.879 109.654C396.879 108.851 396.711 108.226 396.375 107.778C396.039 107.321 395.544 107.092 394.891 107.092C394.247 107.092 393.752 107.321 393.407 107.778C393.061 108.226 392.889 108.851 392.889 109.654C392.889 110.447 393.052 111.073 393.379 111.53C393.705 111.978 394.191 112.202 394.835 112.202C395.488 112.202 395.992 111.978 396.347 111.53C396.701 111.073 396.879 110.447 396.879 109.654ZM401.175 107.596C401.614 106.625 402.365 106.14 403.429 106.14C404.223 106.14 404.839 106.401 405.277 106.924C405.725 107.447 405.949 108.161 405.949 109.066V113H404.857V109.066C404.857 108.422 404.703 107.937 404.395 107.61C404.097 107.283 403.667 107.12 403.107 107.12C402.547 107.12 402.095 107.349 401.749 107.806C401.404 108.263 401.222 108.898 401.203 109.71V113H400.097V106.308H401.049L401.175 107.596ZM351.109 127.67C350.651 128.641 349.909 129.126 348.883 129.126C348.127 129.126 347.515 128.916 347.049 128.496C346.591 128.076 346.363 127.427 346.363 126.55V122.294H347.469V126.466C347.469 127.595 347.991 128.16 349.037 128.16C349.643 128.16 350.133 127.927 350.507 127.46C350.889 126.993 351.09 126.396 351.109 125.668V122.294H352.215V129H351.109V127.67ZM354.699 123.946C354.699 123.395 354.932 122.957 355.399 122.63C355.875 122.303 356.514 122.14 357.317 122.14C358.119 122.14 358.745 122.308 359.193 122.644C359.65 122.98 359.888 123.405 359.907 123.918H358.829C358.745 123.311 358.231 123.008 357.289 123.008C356.831 123.008 356.477 123.111 356.225 123.316C355.982 123.521 355.861 123.745 355.861 123.988C355.861 124.221 355.954 124.422 356.141 124.59C356.327 124.749 356.626 124.889 357.037 125.01L358.381 125.458C358.95 125.635 359.384 125.864 359.683 126.144C359.991 126.415 360.145 126.793 360.145 127.278C360.145 127.754 359.897 128.188 359.403 128.58C358.908 128.963 358.217 129.154 357.331 129.154C356.444 129.154 355.753 128.958 355.259 128.566C354.764 128.165 354.503 127.651 354.475 127.026H355.539C355.557 127.446 355.725 127.763 356.043 127.978C356.369 128.183 356.775 128.286 357.261 128.286C357.746 128.286 358.147 128.183 358.465 127.978C358.782 127.773 358.941 127.53 358.941 127.25C358.941 126.961 358.847 126.741 358.661 126.592C358.474 126.443 358.171 126.312 357.751 126.2L356.449 125.766C355.282 125.421 354.699 124.814 354.699 123.946ZM366.968 127.67C366.511 128.641 365.769 129.126 364.742 129.126C363.986 129.126 363.375 128.916 362.908 128.496C362.451 128.076 362.222 127.427 362.222 126.55V122.294H363.328V126.466C363.328 127.595 363.851 128.16 364.896 128.16C365.503 128.16 365.993 127.927 366.366 127.46C366.749 126.993 366.949 126.396 366.968 125.668V122.294H368.074V129H366.968V127.67ZM375.052 124.66C375.052 124.053 374.926 123.619 374.674 123.358C374.422 123.097 374.053 122.966 373.568 122.966C373.092 122.966 372.705 123.064 372.406 123.26C372.117 123.447 371.972 123.745 371.972 124.156H370.754C370.754 123.129 371.305 122.495 372.406 122.252C372.742 122.177 373.106 122.14 373.498 122.14C374.329 122.14 374.977 122.35 375.444 122.77C375.911 123.19 376.144 123.829 376.144 124.688V129H375.192L375.08 127.88C374.669 128.729 373.927 129.154 372.854 129.154C372.135 129.154 371.557 128.953 371.118 128.552C370.689 128.151 370.474 127.651 370.474 127.054C370.474 126.457 370.712 125.99 371.188 125.654C371.673 125.318 372.275 125.15 372.994 125.15C373.713 125.15 374.399 125.271 375.052 125.514V124.66ZM375.052 126.214C374.389 126.027 373.811 125.934 373.316 125.934C372.821 125.934 372.42 126.023 372.112 126.2C371.804 126.377 371.65 126.657 371.65 127.04C371.65 127.88 372.126 128.3 373.078 128.3C373.619 128.3 374.081 128.109 374.464 127.726C374.856 127.334 375.052 126.83 375.052 126.214ZM381.472 123.246C380.417 123.246 379.871 124.077 379.834 125.738V129H378.728V122.294H379.834V123.582C380.17 122.649 380.763 122.182 381.612 122.182C381.883 122.182 382.139 122.224 382.382 122.308L382.326 123.386C382.046 123.293 381.761 123.246 381.472 123.246ZM384.144 122.294H385.25V129H384.144V122.294ZM384.69 120.726C384.466 120.726 384.289 120.665 384.158 120.544C384.037 120.413 383.976 120.245 383.976 120.04C383.976 119.825 384.037 119.657 384.158 119.536C384.289 119.405 384.466 119.34 384.69 119.34C384.914 119.34 385.091 119.405 385.222 119.536C385.362 119.657 385.432 119.825 385.432 120.04C385.432 120.245 385.362 120.413 385.222 120.544C385.091 120.665 384.914 120.726 384.69 120.726ZM390.666 122.14C391.599 122.14 392.35 122.443 392.92 123.05C393.498 123.657 393.788 124.525 393.788 125.654C393.788 126.774 393.498 127.637 392.92 128.244C392.35 128.851 391.599 129.154 390.666 129.154C389.732 129.154 388.976 128.851 388.398 128.244C387.828 127.637 387.544 126.774 387.544 125.654C387.544 124.525 387.828 123.657 388.398 123.05C388.976 122.443 389.732 122.14 390.666 122.14ZM392.668 125.654C392.668 124.851 392.5 124.226 392.164 123.778C391.828 123.321 391.333 123.092 390.68 123.092C390.036 123.092 389.541 123.321 389.196 123.778C388.85 124.226 388.678 124.851 388.678 125.654C388.678 126.447 388.841 127.073 389.168 127.53C389.494 127.978 389.98 128.202 390.624 128.202C391.277 128.202 391.781 127.978 392.136 127.53C392.49 127.073 392.668 126.447 392.668 125.654ZM395.55 123.946C395.55 123.395 395.784 122.957 396.25 122.63C396.726 122.303 397.366 122.14 398.168 122.14C398.971 122.14 399.596 122.308 400.044 122.644C400.502 122.98 400.74 123.405 400.758 123.918H399.68C399.596 123.311 399.083 123.008 398.14 123.008C397.683 123.008 397.328 123.111 397.076 123.316C396.834 123.521 396.712 123.745 396.712 123.988C396.712 124.221 396.806 124.422 396.992 124.59C397.179 124.749 397.478 124.889 397.888 125.01L399.232 125.458C399.802 125.635 400.236 125.864 400.534 126.144C400.842 126.415 400.996 126.793 400.996 127.278C400.996 127.754 400.749 128.188 400.254 128.58C399.76 128.963 399.069 129.154 398.182 129.154C397.296 129.154 396.605 128.958 396.11 128.566C395.616 128.165 395.354 127.651 395.326 127.026H396.39C396.409 127.446 396.577 127.763 396.894 127.978C397.221 128.183 397.627 128.286 398.112 128.286C398.598 128.286 398.999 128.183 399.316 127.978C399.634 127.773 399.792 127.53 399.792 127.25C399.792 126.961 399.699 126.741 399.512 126.592C399.326 126.443 399.022 126.312 398.602 126.2L397.3 125.766C396.134 125.421 395.55 124.814 395.55 123.946Z" fill="#333333"/>
</svg>
