<svg width="737" height="164" viewBox="0 0 737 164" fill="none" xmlns="http://www.w3.org/2000/svg">
<path d="M95.0625 54.125C95.2344 54.125 95.3203 54.2109 95.4922 54.3828C95.6641 54.5547 95.75 54.6406 95.75 54.8125V56.1875C95.75 56.3594 95.6641 56.5312 95.4922 56.7031C95.3203 56.875 95.2344 56.875 95.0625 56.875H85.4375C85.2656 56.875 85.0938 56.875 84.9219 56.7031C84.75 56.5312 84.75 56.3594 84.75 56.1875V54.8125C84.75 54.6406 84.75 54.5547 84.9219 54.3828C85.0938 54.2109 85.2656 54.125 85.4375 54.125H95.0625ZM95.0625 62.375C95.2344 62.375 95.3203 62.4609 95.4922 62.6328C95.6641 62.8047 95.75 62.8906 95.75 63.0625V64.4375C95.75 64.6094 95.6641 64.7812 95.4922 64.9531C95.3203 65.125 95.2344 65.125 95.0625 65.125H85.4375C85.2656 65.125 85.0938 65.125 84.9219 64.9531C84.75 64.7812 84.75 64.6094 84.75 64.4375V63.0625C84.75 62.8906 84.75 62.8047 84.9219 62.6328C85.0938 62.4609 85.2656 62.375 85.4375 62.375H95.0625ZM80.625 53.4375C81.1406 53.4375 81.6562 53.6953 82.0859 54.0391C82.4297 54.4688 82.6875 54.9844 82.6875 55.5C82.6875 56.1016 82.4297 56.6172 82.0859 56.9609C81.6562 57.3906 81.1406 57.5625 80.625 57.5625C80.0234 57.5625 79.5078 57.3906 79.1641 56.9609C78.7344 56.6172 78.5625 56.1016 78.5625 55.5C78.5625 54.9844 78.7344 54.4688 79.1641 54.0391C79.5078 53.6953 80.0234 53.4375 80.625 53.4375ZM80.625 61.6875C81.1406 61.6875 81.6562 61.9453 82.0859 62.2891C82.4297 62.7188 82.6875 63.2344 82.6875 63.75C82.6875 64.3516 82.4297 64.8672 82.0859 65.2109C81.6562 65.6406 81.1406 65.8125 80.625 65.8125C80.0234 65.8125 79.5078 65.6406 79.1641 65.2109C78.7344 64.8672 78.5625 64.3516 78.5625 63.75C78.5625 63.2344 78.7344 62.7188 79.1641 62.2891C79.5078 61.9453 80.0234 61.6875 80.625 61.6875ZM99.875 39C100.992 39 101.938 39.4297 102.797 40.2031C103.57 41.0625 104 42.0078 104 43.125V73.375C104 74.5781 103.57 75.5234 102.797 76.2969C101.938 77.1562 100.992 77.5 99.875 77.5H75.125C73.9219 77.5 72.9766 77.1562 72.2031 76.2969C71.3438 75.5234 71 74.5781 71 73.375V43.125C71 42.0078 71.3438 41.0625 72.2031 40.2031C72.9766 39.4297 73.9219 39 75.125 39H82.7734C82.6875 38.8281 82.6875 38.5703 82.6875 38.3125C82.6875 37.0234 83.1172 35.9062 84.0625 34.9609C85.0078 34.0156 86.125 33.5 87.5 33.5C88.7891 33.5 89.9062 34.0156 90.8516 34.9609C91.7969 35.9062 92.3125 37.0234 92.3125 38.3125C92.3125 38.5703 92.2266 38.8281 92.2266 39H99.875ZM87.5 36.25C86.8984 36.25 86.3828 36.5078 86.0391 36.8516C85.6094 37.2812 85.4375 37.7969 85.4375 38.3125C85.4375 38.9141 85.6094 39.4297 86.0391 39.7734C86.3828 40.2031 86.8984 40.375 87.5 40.375C88.0156 40.375 88.5312 40.2031 88.9609 39.7734C89.3047 39.4297 89.5625 38.9141 89.5625 38.3125C89.5625 37.7969 89.3047 37.2812 88.9609 36.8516C88.5312 36.5078 88.0156 36.25 87.5 36.25ZM101.25 73.375V43.125C101.25 42.7812 101.078 42.4375 100.82 42.1797C100.562 41.9219 100.219 41.75 99.875 41.75H95.75V43.4688C95.75 43.8125 95.5781 44.0703 95.4062 44.2422C95.2344 44.4141 94.9766 44.5 94.7188 44.5H80.2812C79.9375 44.5 79.6797 44.4141 79.5078 44.2422C79.3359 44.0703 79.25 43.8125 79.25 43.4688V41.75H75.125C74.6953 41.75 74.3516 41.9219 74.0938 42.1797C73.8359 42.4375 73.75 42.7812 73.75 43.125V73.375C73.75 73.8047 73.8359 74.1484 74.0938 74.4062C74.3516 74.6641 74.6953 74.75 75.125 74.75H99.875C100.219 74.75 100.562 74.6641 100.82 74.4062C101.078 74.1484 101.25 73.8047 101.25 73.375Z" fill="#333333"/>
<path d="M247 34.5C248.461 34.5 249.75 35.1016 250.867 36.1328C251.898 37.25 252.5 38.5391 252.5 40V64.75C252.5 66.2969 251.898 67.5859 250.867 68.6172C249.75 69.7344 248.461 70.25 247 70.25H234.625L223.883 78.3281C223.711 78.5 223.453 78.5 223.195 78.5C222.938 78.5 222.68 78.4141 222.508 78.2422C222.336 78.0703 222.25 77.8125 222.25 77.4688V70.25H214C212.453 70.25 211.164 69.7344 210.133 68.6172C209.016 67.5859 208.5 66.2969 208.5 64.75V40C208.5 38.5391 209.016 37.25 210.133 36.1328C211.164 35.1016 212.453 34.5 214 34.5H247ZM249.75 64.75V40C249.75 39.3125 249.406 38.625 248.891 38.1094C248.375 37.5938 247.688 37.25 247 37.25H214C213.227 37.25 212.539 37.5938 212.023 38.1094C211.508 38.625 211.25 39.3125 211.25 40V64.75C211.25 65.5234 211.508 66.2109 212.023 66.7266C212.539 67.2422 213.227 67.5 214 67.5H225V74.0312L233.68 67.5H247C247.688 67.5 248.375 67.2422 248.891 66.7266C249.406 66.2109 249.75 65.5234 249.75 64.75ZM238.148 46.0156L239.18 47.0469C239.266 47.2188 239.352 47.3906 239.352 47.5625C239.352 47.7344 239.266 47.9062 239.18 47.9922L228.438 58.7344C228.266 58.9062 228.094 58.9062 227.922 58.9062C227.75 58.9062 227.578 58.8203 227.492 58.6484L221.82 53.0625C221.648 52.9766 221.648 52.8047 221.648 52.6328C221.648 52.4609 221.648 52.2891 221.82 52.1172L222.852 51.0859C222.938 51 223.109 50.9141 223.281 50.9141C223.453 50.9141 223.625 51 223.797 51.0859L228.008 55.2969L237.203 46.1016C237.289 45.9297 237.461 45.8438 237.633 45.8438C237.805 45.8438 237.977 45.9297 238.148 46.0156Z" fill="#333333"/>
<path d="M373.5 41.375C373.5 41.0312 373.328 40.6875 373.07 40.4297C372.812 40.1719 372.469 40 372.125 40C369.805 40 367.828 40.8594 366.281 42.4062C364.648 44.0391 363.875 46.0156 363.875 48.25C363.875 48.6797 363.961 49.0234 364.219 49.2812C364.477 49.5391 364.82 49.625 365.25 49.625C365.594 49.625 365.938 49.5391 366.195 49.2812C366.453 49.0234 366.625 48.6797 366.625 48.25C366.625 46.7891 367.141 45.5 368.258 44.3828C369.289 43.3516 370.578 42.75 372.125 42.75C372.469 42.75 372.812 42.6641 373.07 42.4062C373.328 42.1484 373.5 41.8047 373.5 41.375ZM388.625 49.625C388.625 46.875 387.938 44.3828 386.562 42.0625C385.188 39.7422 383.383 37.9375 381.062 36.5625C378.742 35.1875 376.25 34.5 373.5 34.5C370.75 34.5 368.172 35.1875 365.938 36.5625C363.617 37.9375 361.812 39.7422 360.438 41.9766C359.062 44.2969 358.375 46.7891 358.375 49.5391C358.375 51.8594 358.633 53.75 359.32 55.2109C359.664 56.2422 360.523 57.4453 361.812 58.9062C362.672 60.1094 363.445 61.0547 363.961 61.8281C364.82 63.1172 365.508 64.5781 366.109 66.2109C366.195 66.4688 366.367 66.7266 366.625 66.8984V74.375C366.625 74.8906 366.711 75.3203 367.055 75.6641L368.773 77.7266C369.117 78.2422 369.719 78.5 370.406 78.5H376.594C377.281 78.5 377.797 78.2422 378.227 77.7266L379.945 75.6641C380.203 75.3203 380.375 74.8906 380.375 74.375V66.8984C380.547 66.7266 380.719 66.4688 380.805 66.2109C381.406 64.6641 382.18 63.2031 383.039 61.8281C383.555 61.0547 384.242 60.1094 385.188 58.9062C386.391 57.4453 387.164 56.2422 387.68 55.2969C388.281 53.8359 388.625 51.9453 388.625 49.625ZM377.625 73V74.1172L376.336 75.75H370.664L369.375 74.1172V73H377.625ZM377.625 67.5V70.25H369.375V67.5H377.625ZM385.875 49.625C385.875 51.5156 385.617 53.0625 385.102 54.2656C384.758 55.0391 384.07 56.0703 383.039 57.2734C382.008 58.3906 381.32 59.3359 380.805 60.1094C379.945 61.4844 379.172 63.0312 378.484 64.75H368.516C367.828 63.0312 367.055 61.4844 366.195 60.1094C365.68 59.3359 364.906 58.3906 363.961 57.1875C362.93 55.9844 362.242 55.0391 361.898 54.2656C361.383 53.0625 361.125 51.5156 361.125 49.625C361.125 47.3906 361.641 45.3281 362.758 43.4375C363.875 41.5469 365.422 40.0859 367.312 38.9688C369.203 37.8516 371.266 37.25 373.5 37.25C375.734 37.25 377.797 37.8516 379.688 38.9688C381.578 40.0859 383.039 41.5469 384.156 43.4375C385.273 45.3281 385.875 47.3906 385.875 49.625Z" fill="#333333"/>
<path d="M541.25 63.75C541.938 63.75 542.625 64.0938 543.141 64.6094C543.656 65.125 544 65.8125 544 66.5V74.75C544 75.5234 543.656 76.2109 543.141 76.7266C542.625 77.2422 541.938 77.5 541.25 77.5H533C532.227 77.5 531.539 77.2422 531.023 76.7266C530.508 76.2109 530.25 75.5234 530.25 74.75V66.5C530.25 65.8125 530.508 65.125 531.023 64.6094C531.539 64.0938 532.227 63.75 533 63.75H535.75V55.5H517.875V63.75H520.625C521.312 63.75 522 64.0938 522.516 64.6094C523.031 65.125 523.375 65.8125 523.375 66.5V74.75C523.375 75.5234 523.031 76.2109 522.516 76.7266C522 77.2422 521.312 77.5 520.625 77.5H512.375C511.602 77.5 510.914 77.2422 510.398 76.7266C509.883 76.2109 509.625 75.5234 509.625 74.75V66.5C509.625 65.8125 509.883 65.125 510.398 64.6094C510.914 64.0938 511.602 63.75 512.375 63.75H515.125V55.5H497.25V63.75H500C500.688 63.75 501.375 64.0938 501.891 64.6094C502.406 65.125 502.75 65.8125 502.75 66.5V74.75C502.75 75.5234 502.406 76.2109 501.891 76.7266C501.375 77.2422 500.688 77.5 500 77.5H491.75C490.977 77.5 490.289 77.2422 489.773 76.7266C489.258 76.2109 489 75.5234 489 74.75V66.5C489 65.8125 489.258 65.125 489.773 64.6094C490.289 64.0938 490.977 63.75 491.75 63.75H494.5V55.3281C494.5 54.6406 494.758 54.0391 495.273 53.5234C495.789 53.0078 496.391 52.75 497.078 52.75H515.125V47.25H511C510.227 47.25 509.539 46.9922 509.023 46.4766C508.508 45.9609 508.25 45.2734 508.25 44.5V36.25C508.25 35.5625 508.508 34.875 509.023 34.3594C509.539 33.8438 510.227 33.5 511 33.5H522C522.688 33.5 523.375 33.8438 523.891 34.3594C524.406 34.875 524.75 35.5625 524.75 36.25V44.5C524.75 45.2734 524.406 45.9609 523.891 46.4766C523.375 46.9922 522.688 47.25 522 47.25H517.875V52.75H535.922C536.609 52.75 537.211 53.0078 537.727 53.5234C538.242 54.0391 538.5 54.6406 538.5 55.3281V63.75H541.25ZM500 66.5H491.75V74.75H500V66.5ZM520.625 66.5H512.375V74.75H520.625V66.5ZM511 44.5H522V36.25H511V44.5ZM541.25 74.75V66.5H533V74.75H541.25Z" fill="#333333"/>
<path d="M668.219 51C668.477 51 668.734 51.1719 668.906 51.3438C669.078 51.5156 669.25 51.7734 669.25 52.0312V66.4688C669.25 66.8125 669.078 67.0703 668.906 67.2422C668.734 67.4141 668.477 67.5 668.219 67.5H651.031C650.688 67.5 650.43 67.4141 650.258 67.2422C650.086 67.0703 650 66.8125 650 66.4688V62H642.781C642.438 62 642.18 61.9141 642.008 61.7422C641.836 61.5703 641.75 61.3125 641.75 60.9688V46.5312C641.75 46.2734 641.836 46.0156 642.008 45.8438C642.18 45.6719 642.438 45.5 642.781 45.5H659.969C660.227 45.5 660.484 45.6719 660.656 45.8438C660.828 46.0156 661 46.2734 661 46.5312V51H668.219ZM644.5 48.25V59.25H658.25V48.25H644.5ZM666.5 64.75V53.75H661V60.9688C661 61.3125 660.828 61.5703 660.656 61.7422C660.484 61.9141 660.227 62 659.969 62H652.75V64.75H666.5ZM676.469 45.5H674.75V67.5H676.469C676.727 67.5 676.984 67.6719 677.156 67.8438C677.328 68.0156 677.5 68.2734 677.5 68.5312V74.7188C677.5 75.0625 677.328 75.3203 677.156 75.4922C676.984 75.6641 676.727 75.75 676.469 75.75H670.281C669.938 75.75 669.68 75.6641 669.508 75.4922C669.336 75.3203 669.25 75.0625 669.25 74.7188V73H641.75V74.7188C641.75 75.0625 641.578 75.3203 641.406 75.4922C641.234 75.6641 640.977 75.75 640.719 75.75H634.531C634.188 75.75 633.93 75.6641 633.758 75.4922C633.586 75.3203 633.5 75.0625 633.5 74.7188V68.5312C633.5 68.2734 633.586 68.0156 633.758 67.8438C633.93 67.6719 634.188 67.5 634.531 67.5H636.25V45.5H634.531C634.188 45.5 633.93 45.4141 633.758 45.2422C633.586 45.0703 633.5 44.8125 633.5 44.4688V38.2812C633.5 38.0234 633.586 37.7656 633.758 37.5938C633.93 37.4219 634.188 37.25 634.531 37.25H640.719C640.977 37.25 641.234 37.4219 641.406 37.5938C641.578 37.7656 641.75 38.0234 641.75 38.2812V40H669.25V38.2812C669.25 38.0234 669.336 37.7656 669.508 37.5938C669.68 37.4219 669.938 37.25 670.281 37.25H676.469C676.727 37.25 676.984 37.4219 677.156 37.5938C677.328 37.7656 677.5 38.0234 677.5 38.2812V44.4688C677.5 44.8125 677.328 45.0703 677.156 45.2422C676.984 45.4141 676.727 45.5 676.469 45.5ZM672 67.5V45.5H670.281C669.938 45.5 669.68 45.4141 669.508 45.2422C669.336 45.0703 669.25 44.8125 669.25 44.4688V42.75H641.75V44.4688C641.75 44.8125 641.578 45.0703 641.406 45.2422C641.234 45.4141 640.977 45.5 640.719 45.5H639V67.5H640.719C640.977 67.5 641.234 67.6719 641.406 67.8438C641.578 68.0156 641.75 68.2734 641.75 68.5312V70.25H669.25V68.5312C669.25 68.2734 669.336 68.0156 669.508 67.8438C669.68 67.6719 669.938 67.5 670.281 67.5H672ZM639 40H636.25V42.75H639V40ZM674.75 40H672V42.75H674.75V40ZM639 70.25H636.25V73H639V70.25ZM674.75 70.25H672V73H674.75V70.25Z" fill="#333333"/>
<path d="M29.7555 104.194H35.1735V105.146H30.8615V108.1H34.9215V109.038H30.8615V112.034H35.1735V113H29.7555V104.194ZM38.6948 107.596C39.1335 106.625 39.8848 106.14 40.9488 106.14C41.7421 106.14 42.3581 106.401 42.7968 106.924C43.2448 107.447 43.4688 108.161 43.4688 109.066V113H42.3768V109.066C42.3768 108.422 42.2228 107.937 41.9148 107.61C41.6161 107.283 41.1868 107.12 40.6268 107.12C40.0668 107.12 39.6141 107.349 39.2688 107.806C38.9235 108.263 38.7415 108.898 38.7228 109.71V113H37.6168V106.308H38.5688L38.6948 107.596ZM49.5663 112.804C48.7637 113.177 48.031 113.257 47.3683 113.042C46.8923 112.893 46.5563 112.58 46.3603 112.104C46.2577 111.871 46.2063 111.591 46.2063 111.264V107.148H45.1283V106.308H46.2063V104.446H47.2983V106.308H49.3983V107.148H47.2983V111.25C47.2983 111.931 47.6157 112.272 48.2503 112.272C48.5957 112.272 48.983 112.188 49.4123 112.02L49.5663 112.804ZM53.64 112.258C54.564 112.258 55.0913 111.852 55.222 111.04H56.356C56.2533 111.712 55.9547 112.235 55.46 112.608C54.9747 112.972 54.368 113.154 53.64 113.154C52.744 113.154 52.016 112.837 51.456 112.202C50.896 111.558 50.616 110.704 50.616 109.64C50.616 108.576 50.896 107.727 51.456 107.092C52.0253 106.457 52.7767 106.14 53.71 106.14C54.6527 106.14 55.3527 106.504 55.81 107.232C56.2767 107.96 56.44 108.847 56.3 109.892H51.722C51.722 110.583 51.89 111.152 52.226 111.6C52.562 112.039 53.0333 112.258 53.64 112.258ZM54.452 107.19C54.2373 107.078 53.976 107.022 53.668 107.022C53.0987 107.022 52.646 107.218 52.31 107.61C51.9833 107.993 51.792 108.473 51.736 109.052H55.306C55.306 108.119 55.0213 107.498 54.452 107.19ZM59.5991 107.596C60.0378 106.625 60.7891 106.14 61.8531 106.14C62.6464 106.14 63.2624 106.401 63.7011 106.924C64.1491 107.447 64.3731 108.161 64.3731 109.066V113H63.2811V109.066C63.2811 108.422 63.1271 107.937 62.8191 107.61C62.5204 107.283 62.0911 107.12 61.5311 107.12C60.9711 107.12 60.5184 107.349 60.1731 107.806C59.8278 108.263 59.6458 108.898 59.6271 109.71V113H58.5211V106.308H59.4731L59.5991 107.596ZM71.3526 107.302V103.466H72.4446V113H71.5486L71.4086 111.88C71.194 112.3 70.9093 112.617 70.5546 112.832C70.2 113.047 69.8126 113.154 69.3926 113.154C68.5433 113.154 67.8293 112.827 67.2506 112.174C66.6813 111.521 66.3966 110.671 66.3966 109.626C66.3966 108.571 66.6766 107.727 67.2366 107.092C67.806 106.457 68.52 106.14 69.3786 106.14C70.2466 106.14 70.9046 106.527 71.3526 107.302ZM69.4486 107.12C68.9073 107.12 68.45 107.349 68.0766 107.806C67.7126 108.263 67.5306 108.875 67.5306 109.64C67.5306 110.405 67.7173 111.021 68.0906 111.488C68.464 111.945 68.912 112.174 69.4346 112.174C69.9573 112.174 70.4006 112.001 70.7646 111.656C71.138 111.301 71.334 110.83 71.3526 110.242V109.15C71.3526 108.525 71.1706 108.03 70.8066 107.666C70.4426 107.302 69.99 107.12 69.4486 107.12ZM75.3531 106.294H76.4591V113H75.3531V106.294ZM75.8991 104.726C75.6751 104.726 75.4978 104.665 75.3671 104.544C75.2458 104.413 75.1851 104.245 75.1851 104.04C75.1851 103.825 75.2458 103.657 75.3671 103.536C75.4978 103.405 75.6751 103.34 75.8991 103.34C76.1231 103.34 76.3005 103.405 76.4311 103.536C76.5711 103.657 76.6411 103.825 76.6411 104.04C76.6411 104.245 76.5711 104.413 76.4311 104.544C76.3005 104.665 76.1231 104.726 75.8991 104.726ZM80.5307 107.596C80.9694 106.625 81.7207 106.14 82.7847 106.14C83.3634 106.14 83.8487 106.285 84.2407 106.574C84.6327 106.854 84.9174 107.246 85.0947 107.75C85.5147 106.677 86.2941 106.14 87.4327 106.14C88.2354 106.14 88.8561 106.401 89.2947 106.924C89.7334 107.447 89.9527 108.161 89.9527 109.066V113H88.8607V109.066C88.8607 108.422 88.7067 107.937 88.3987 107.61C88.1001 107.283 87.6661 107.12 87.0967 107.12C86.5274 107.12 86.0841 107.353 85.7667 107.82C85.4587 108.287 85.3047 108.931 85.3047 109.752V113H84.2127V109.066C84.2127 108.422 84.0587 107.937 83.7507 107.61C83.4521 107.283 83.0227 107.12 82.4627 107.12C81.9027 107.12 81.4501 107.349 81.1047 107.806C80.7594 108.263 80.5774 108.898 80.5587 109.71V113H79.4527V106.308H80.4047L80.5307 107.596ZM92.6207 106.294H93.7267V113H92.6207V106.294ZM93.1667 104.726C92.9427 104.726 92.7654 104.665 92.6347 104.544C92.5134 104.413 92.4527 104.245 92.4527 104.04C92.4527 103.825 92.5134 103.657 92.6347 103.536C92.7654 103.405 92.9427 103.34 93.1667 103.34C93.3907 103.34 93.5681 103.405 93.6987 103.536C93.8387 103.657 93.9087 103.825 93.9087 104.04C93.9087 104.245 93.8387 104.413 93.6987 104.544C93.5681 104.665 93.3907 104.726 93.1667 104.726ZM99.0443 112.258C99.9683 112.258 100.496 111.852 100.626 111.04H101.76C101.658 111.712 101.359 112.235 100.864 112.608C100.379 112.972 99.7723 113.154 99.0443 113.154C98.1483 113.154 97.4203 112.837 96.8603 112.202C96.3003 111.558 96.0203 110.704 96.0203 109.64C96.0203 108.576 96.3003 107.727 96.8603 107.092C97.4296 106.457 98.181 106.14 99.1143 106.14C100.057 106.14 100.757 106.504 101.214 107.232C101.681 107.96 101.844 108.847 101.704 109.892H97.1263C97.1263 110.583 97.2943 111.152 97.6303 111.6C97.9663 112.039 98.4376 112.258 99.0443 112.258ZM99.8563 107.19C99.6416 107.078 99.3803 107.022 99.0723 107.022C98.503 107.022 98.0503 107.218 97.7143 107.61C97.3876 107.993 97.1963 108.473 97.1403 109.052H100.71C100.71 108.119 100.426 107.498 99.8563 107.19ZM105.003 107.596C105.442 106.625 106.193 106.14 107.257 106.14C108.051 106.14 108.667 106.401 109.105 106.924C109.553 107.447 109.777 108.161 109.777 109.066V113H108.685V109.066C108.685 108.422 108.531 107.937 108.223 107.61C107.925 107.283 107.495 107.12 106.935 107.12C106.375 107.12 105.923 107.349 105.577 107.806C105.232 108.263 105.05 108.898 105.031 109.71V113H103.925V106.308H104.877L105.003 107.596ZM115.875 112.804C115.072 113.177 114.34 113.257 113.677 113.042C113.201 112.893 112.865 112.58 112.669 112.104C112.566 111.871 112.515 111.591 112.515 111.264V107.148H111.437V106.308H112.515V104.446H113.607V106.308H115.707V107.148H113.607V111.25C113.607 111.931 113.924 112.272 114.559 112.272C114.904 112.272 115.292 112.188 115.721 112.02L115.875 112.804ZM120.047 106.14C120.98 106.14 121.731 106.443 122.301 107.05C122.879 107.657 123.169 108.525 123.169 109.654C123.169 110.774 122.879 111.637 122.301 112.244C121.731 112.851 120.98 113.154 120.047 113.154C119.113 113.154 118.357 112.851 117.779 112.244C117.209 111.637 116.925 110.774 116.925 109.654C116.925 108.525 117.209 107.657 117.779 107.05C118.357 106.443 119.113 106.14 120.047 106.14ZM122.049 109.654C122.049 108.851 121.881 108.226 121.545 107.778C121.209 107.321 120.714 107.092 120.061 107.092C119.417 107.092 118.922 107.321 118.577 107.778C118.231 108.226 118.059 108.851 118.059 109.654C118.059 110.447 118.222 111.073 118.549 111.53C118.875 111.978 119.361 112.202 120.005 112.202C120.658 112.202 121.162 111.978 121.517 111.53C121.871 111.073 122.049 110.447 122.049 109.654ZM132.999 107.302V103.466H134.091V113H133.195L133.055 111.88C132.84 112.3 132.556 112.617 132.201 112.832C131.846 113.047 131.459 113.154 131.039 113.154C130.19 113.154 129.476 112.827 128.897 112.174C128.328 111.521 128.043 110.671 128.043 109.626C128.043 108.571 128.323 107.727 128.883 107.092C129.452 106.457 130.166 106.14 131.025 106.14C131.893 106.14 132.551 106.527 132.999 107.302ZM131.095 107.12C130.554 107.12 130.096 107.349 129.723 107.806C129.359 108.263 129.177 108.875 129.177 109.64C129.177 110.405 129.364 111.021 129.737 111.488C130.11 111.945 130.558 112.174 131.081 112.174C131.604 112.174 132.047 112.001 132.411 111.656C132.784 111.301 132.98 110.83 132.999 110.242V109.15C132.999 108.525 132.817 108.03 132.453 107.666C132.089 107.302 131.636 107.12 131.095 107.12ZM139.24 112.258C140.164 112.258 140.691 111.852 140.822 111.04H141.956C141.853 111.712 141.554 112.235 141.06 112.608C140.574 112.972 139.968 113.154 139.24 113.154C138.344 113.154 137.616 112.837 137.056 112.202C136.496 111.558 136.216 110.704 136.216 109.64C136.216 108.576 136.496 107.727 137.056 107.092C137.625 106.457 138.376 106.14 139.31 106.14C140.252 106.14 140.952 106.504 141.41 107.232C141.876 107.96 142.04 108.847 141.9 109.892H137.322C137.322 110.583 137.49 111.152 137.826 111.6C138.162 112.039 138.633 112.258 139.24 112.258ZM140.052 107.19C139.837 107.078 139.576 107.022 139.268 107.022C138.698 107.022 138.246 107.218 137.91 107.61C137.583 107.993 137.392 108.473 137.336 109.052H140.906C140.906 108.119 140.621 107.498 140.052 107.19ZM144.135 103.466H145.241V113H144.135V103.466ZM63.2289 122.14C64.0222 122.14 64.6522 122.345 65.1189 122.756C65.5855 123.157 65.8889 123.661 66.0289 124.268L64.9089 124.366C64.7875 123.974 64.5915 123.671 64.3209 123.456C64.0502 123.232 63.7515 123.12 63.4249 123.12C62.8275 123.12 62.3422 123.344 61.9689 123.792C61.6049 124.24 61.4229 124.851 61.4229 125.626C61.4229 126.391 61.6002 127.007 61.9549 127.474C62.3189 127.941 62.7669 128.174 63.2989 128.174C63.8402 128.174 64.2415 128.053 64.5029 127.81C64.7735 127.558 64.9089 127.203 64.9089 126.746H66.0429C66.0429 127.465 65.7909 128.048 65.2869 128.496C64.7922 128.935 64.1435 129.154 63.3409 129.154C62.4915 129.154 61.7682 128.832 61.1709 128.188C60.5829 127.544 60.2889 126.69 60.2889 125.626C60.2889 124.553 60.5829 123.703 61.1709 123.078C61.7589 122.453 62.4449 122.14 63.2289 122.14ZM70.6159 122.14C71.5493 122.14 72.3006 122.443 72.8699 123.05C73.4486 123.657 73.7379 124.525 73.7379 125.654C73.7379 126.774 73.4486 127.637 72.8699 128.244C72.3006 128.851 71.5493 129.154 70.6159 129.154C69.6826 129.154 68.9266 128.851 68.3479 128.244C67.7786 127.637 67.4939 126.774 67.4939 125.654C67.4939 124.525 67.7786 123.657 68.3479 123.05C68.9266 122.443 69.6826 122.14 70.6159 122.14ZM72.6179 125.654C72.6179 124.851 72.4499 124.226 72.1139 123.778C71.7779 123.321 71.2833 123.092 70.6299 123.092C69.9859 123.092 69.4913 123.321 69.1459 123.778C68.8006 124.226 68.6279 124.851 68.6279 125.654C68.6279 126.447 68.7913 127.073 69.1179 127.53C69.4446 127.978 69.9299 128.202 70.5739 128.202C71.2273 128.202 71.7313 127.978 72.0859 127.53C72.4406 127.073 72.6179 126.447 72.6179 125.654ZM76.9145 123.596C77.3532 122.625 78.1045 122.14 79.1685 122.14C79.9619 122.14 80.5779 122.401 81.0165 122.924C81.4645 123.447 81.6885 124.161 81.6885 125.066V129H80.5965V125.066C80.5965 124.422 80.4425 123.937 80.1345 123.61C79.8359 123.283 79.4065 123.12 78.8465 123.12C78.2865 123.12 77.8339 123.349 77.4885 123.806C77.1432 124.263 76.9612 124.898 76.9425 125.71V129H75.8365V122.308H76.7885L76.9145 123.596ZM87.7861 128.804C86.9834 129.177 86.2507 129.257 85.5881 129.042C85.1121 128.893 84.7761 128.58 84.5801 128.104C84.4774 127.871 84.4261 127.591 84.4261 127.264V123.148H83.3481V122.308H84.4261V120.446H85.5181V122.308H87.6181V123.148H85.5181V127.25C85.5181 127.931 85.8354 128.272 86.4701 128.272C86.8154 128.272 87.2027 128.188 87.6321 128.02L87.7861 128.804ZM91.8597 128.258C92.7837 128.258 93.3111 127.852 93.4417 127.04H94.5757C94.4731 127.712 94.1744 128.235 93.6797 128.608C93.1944 128.972 92.5877 129.154 91.8597 129.154C90.9637 129.154 90.2357 128.837 89.6757 128.202C89.1157 127.558 88.8357 126.704 88.8357 125.64C88.8357 124.576 89.1157 123.727 89.6757 123.092C90.2451 122.457 90.9964 122.14 91.9297 122.14C92.8724 122.14 93.5724 122.504 94.0297 123.232C94.4964 123.96 94.6597 124.847 94.5197 125.892H89.9417C89.9417 126.583 90.1097 127.152 90.4457 127.6C90.7817 128.039 91.2531 128.258 91.8597 128.258ZM92.6717 123.19C92.4571 123.078 92.1957 123.022 91.8877 123.022C91.3184 123.022 90.8657 123.218 90.5297 123.61C90.2031 123.993 90.0117 124.473 89.9557 125.052H93.5257C93.5257 124.119 93.2411 123.498 92.6717 123.19ZM102.131 129H100.787L98.8688 126.466L97.0488 129H95.7048L98.2388 125.654L95.7048 122.294H97.0488L98.9668 124.814L100.801 122.294H102.145L99.5828 125.654L102.131 129ZM107.419 128.804C106.616 129.177 105.884 129.257 105.221 129.042C104.745 128.893 104.409 128.58 104.213 128.104C104.11 127.871 104.059 127.591 104.059 127.264V123.148H102.981V122.308H104.059V120.446H105.151V122.308H107.251V123.148H105.151V127.25C105.151 127.931 105.468 128.272 106.103 128.272C106.448 128.272 106.836 128.188 107.265 128.02L107.419 128.804ZM111.591 122.14C112.524 122.14 113.275 122.443 113.845 123.05C114.423 123.657 114.713 124.525 114.713 125.654C114.713 126.774 114.423 127.637 113.845 128.244C113.275 128.851 112.524 129.154 111.591 129.154C110.657 129.154 109.901 128.851 109.323 128.244C108.753 127.637 108.469 126.774 108.469 125.654C108.469 124.525 108.753 123.657 109.323 123.05C109.901 122.443 110.657 122.14 111.591 122.14ZM113.593 125.654C113.593 124.851 113.425 124.226 113.089 123.778C112.753 123.321 112.258 123.092 111.605 123.092C110.961 123.092 110.466 123.321 110.121 123.778C109.775 124.226 109.603 124.851 109.603 125.654C109.603 126.447 109.766 127.073 110.093 127.53C110.419 127.978 110.905 128.202 111.549 128.202C112.202 128.202 112.706 127.978 113.061 127.53C113.415 127.073 113.593 126.447 113.593 125.654Z" fill="#333333"/>
<path d="M182.011 104.194H187.429V105.146H183.117V108.1H187.177V109.038H183.117V112.034H187.429V113H182.011V104.194ZM190.951 107.596C191.389 106.625 192.141 106.14 193.205 106.14C193.998 106.14 194.614 106.401 195.053 106.924C195.501 107.447 195.725 108.161 195.725 109.066V113H194.633V109.066C194.633 108.422 194.479 107.937 194.171 107.61C193.872 107.283 193.443 107.12 192.883 107.12C192.323 107.12 191.87 107.349 191.525 107.806C191.179 108.263 190.997 108.898 190.979 109.71V113H189.873V106.308H190.825L190.951 107.596ZM201.822 112.804C201.02 113.177 200.287 113.257 199.624 113.042C199.148 112.893 198.812 112.58 198.616 112.104C198.514 111.871 198.462 111.591 198.462 111.264V107.148H197.384V106.308H198.462V104.446H199.554V106.308H201.654V107.148H199.554V111.25C199.554 111.931 199.872 112.272 200.506 112.272C200.852 112.272 201.239 112.188 201.668 112.02L201.822 112.804ZM206.316 107.246C205.261 107.246 204.715 108.077 204.678 109.738V113H203.572V106.294H204.678V107.582C205.014 106.649 205.607 106.182 206.456 106.182C206.727 106.182 206.983 106.224 207.226 106.308L207.17 107.386C206.89 107.293 206.605 107.246 206.316 107.246ZM211.228 112.258C212.152 112.258 212.679 111.852 212.81 111.04H213.944C213.841 111.712 213.543 112.235 213.048 112.608C212.563 112.972 211.956 113.154 211.228 113.154C210.332 113.154 209.604 112.837 209.044 112.202C208.484 111.558 208.204 110.704 208.204 109.64C208.204 108.576 208.484 107.727 209.044 107.092C209.613 106.457 210.365 106.14 211.298 106.14C212.241 106.14 212.941 106.504 213.398 107.232C213.865 107.96 214.028 108.847 213.888 109.892H209.31C209.31 110.583 209.478 111.152 209.814 111.6C210.15 112.039 210.621 112.258 211.228 112.258ZM212.04 107.19C211.825 107.078 211.564 107.022 211.256 107.022C210.687 107.022 210.234 107.218 209.898 107.61C209.571 107.993 209.38 108.473 209.324 109.052H212.894C212.894 108.119 212.609 107.498 212.04 107.19ZM216.207 106.308L218.223 111.838L220.253 106.308H221.499L218.839 113H217.621L214.961 106.308H216.207ZM223.234 106.294H224.34V113H223.234V106.294ZM223.78 104.726C223.556 104.726 223.379 104.665 223.248 104.544C223.127 104.413 223.066 104.245 223.066 104.04C223.066 103.825 223.127 103.657 223.248 103.536C223.379 103.405 223.556 103.34 223.78 103.34C224.004 103.34 224.181 103.405 224.312 103.536C224.452 103.657 224.522 103.825 224.522 104.04C224.522 104.245 224.452 104.413 224.312 104.544C224.181 104.665 224.004 104.726 223.78 104.726ZM226.998 107.946C226.998 107.395 227.231 106.957 227.698 106.63C228.174 106.303 228.813 106.14 229.616 106.14C230.418 106.14 231.044 106.308 231.492 106.644C231.949 106.98 232.187 107.405 232.206 107.918H231.128C231.044 107.311 230.53 107.008 229.588 107.008C229.13 107.008 228.776 107.111 228.524 107.316C228.281 107.521 228.16 107.745 228.16 107.988C228.16 108.221 228.253 108.422 228.44 108.59C228.626 108.749 228.925 108.889 229.336 109.01L230.68 109.458C231.249 109.635 231.683 109.864 231.982 110.144C232.29 110.415 232.444 110.793 232.444 111.278C232.444 111.754 232.196 112.188 231.702 112.58C231.207 112.963 230.516 113.154 229.63 113.154C228.743 113.154 228.052 112.958 227.558 112.566C227.063 112.165 226.802 111.651 226.774 111.026H227.838C227.856 111.446 228.024 111.763 228.342 111.978C228.668 112.183 229.074 112.286 229.56 112.286C230.045 112.286 230.446 112.183 230.764 111.978C231.081 111.773 231.24 111.53 231.24 111.25C231.24 110.961 231.146 110.741 230.96 110.592C230.773 110.443 230.47 110.312 230.05 110.2L228.748 109.766C227.581 109.421 226.998 108.814 226.998 107.946ZM238.217 112.804C237.414 113.177 236.681 113.257 236.019 113.042C235.543 112.893 235.207 112.58 235.011 112.104C234.908 111.871 234.857 111.591 234.857 111.264V107.148H233.779V106.308H234.857V104.446H235.949V106.308H238.049V107.148H235.949V111.25C235.949 111.931 236.266 112.272 236.901 112.272C237.246 112.272 237.633 112.188 238.063 112.02L238.217 112.804ZM244.124 108.66C244.124 108.053 243.998 107.619 243.746 107.358C243.494 107.097 243.126 106.966 242.64 106.966C242.164 106.966 241.777 107.064 241.478 107.26C241.189 107.447 241.044 107.745 241.044 108.156H239.826C239.826 107.129 240.377 106.495 241.478 106.252C241.814 106.177 242.178 106.14 242.57 106.14C243.401 106.14 244.05 106.35 244.516 106.77C244.983 107.19 245.216 107.829 245.216 108.688V113H244.264L244.152 111.88C243.742 112.729 243 113.154 241.926 113.154C241.208 113.154 240.629 112.953 240.19 112.552C239.761 112.151 239.546 111.651 239.546 111.054C239.546 110.457 239.784 109.99 240.26 109.654C240.746 109.318 241.348 109.15 242.066 109.15C242.785 109.15 243.471 109.271 244.124 109.514V108.66ZM244.124 110.214C243.462 110.027 242.883 109.934 242.388 109.934C241.894 109.934 241.492 110.023 241.184 110.2C240.876 110.377 240.722 110.657 240.722 111.04C240.722 111.88 241.198 112.3 242.15 112.3C242.692 112.3 243.154 112.109 243.536 111.726C243.928 111.334 244.124 110.83 244.124 110.214ZM247.464 107.946C247.464 107.395 247.698 106.957 248.164 106.63C248.64 106.303 249.28 106.14 250.082 106.14C250.885 106.14 251.51 106.308 251.958 106.644C252.416 106.98 252.654 107.405 252.672 107.918H251.594C251.51 107.311 250.997 107.008 250.054 107.008C249.597 107.008 249.242 107.111 248.99 107.316C248.748 107.521 248.626 107.745 248.626 107.988C248.626 108.221 248.72 108.422 248.906 108.59C249.093 108.749 249.392 108.889 249.802 109.01L251.146 109.458C251.716 109.635 252.15 109.864 252.448 110.144C252.756 110.415 252.91 110.793 252.91 111.278C252.91 111.754 252.663 112.188 252.168 112.58C251.674 112.963 250.983 113.154 250.096 113.154C249.21 113.154 248.519 112.958 248.024 112.566C247.53 112.165 247.268 111.651 247.24 111.026H248.304C248.323 111.446 248.491 111.763 248.808 111.978C249.135 112.183 249.541 112.286 250.026 112.286C250.512 112.286 250.913 112.183 251.23 111.978C251.548 111.773 251.706 111.53 251.706 111.25C251.706 110.961 251.613 110.741 251.426 110.592C251.24 110.443 250.936 110.312 250.516 110.2L249.214 109.766C248.048 109.421 247.464 108.814 247.464 107.946ZM260.745 106.14C261.539 106.14 262.169 106.345 262.635 106.756C263.102 107.157 263.405 107.661 263.545 108.268L262.425 108.366C262.304 107.974 262.108 107.671 261.837 107.456C261.567 107.232 261.268 107.12 260.941 107.12C260.344 107.12 259.859 107.344 259.485 107.792C259.121 108.24 258.939 108.851 258.939 109.626C258.939 110.391 259.117 111.007 259.471 111.474C259.835 111.941 260.283 112.174 260.815 112.174C261.357 112.174 261.758 112.053 262.019 111.81C262.29 111.558 262.425 111.203 262.425 110.746H263.559C263.559 111.465 263.307 112.048 262.803 112.496C262.309 112.935 261.66 113.154 260.857 113.154C260.008 113.154 259.285 112.832 258.687 112.188C258.099 111.544 257.805 110.69 257.805 109.626C257.805 108.553 258.099 107.703 258.687 107.078C259.275 106.453 259.961 106.14 260.745 106.14ZM268.133 106.14C269.066 106.14 269.817 106.443 270.387 107.05C270.965 107.657 271.255 108.525 271.255 109.654C271.255 110.774 270.965 111.637 270.387 112.244C269.817 112.851 269.066 113.154 268.133 113.154C267.199 113.154 266.443 112.851 265.865 112.244C265.295 111.637 265.011 110.774 265.011 109.654C265.011 108.525 265.295 107.657 265.865 107.05C266.443 106.443 267.199 106.14 268.133 106.14ZM270.135 109.654C270.135 108.851 269.967 108.226 269.631 107.778C269.295 107.321 268.8 107.092 268.147 107.092C267.503 107.092 267.008 107.321 266.663 107.778C266.317 108.226 266.145 108.851 266.145 109.654C266.145 110.447 266.308 111.073 266.635 111.53C266.961 111.978 267.447 112.202 268.091 112.202C268.744 112.202 269.248 111.978 269.603 111.53C269.957 111.073 270.135 110.447 270.135 109.654ZM274.431 107.596C274.87 106.625 275.621 106.14 276.685 106.14C277.478 106.14 278.094 106.401 278.533 106.924C278.981 107.447 279.205 108.161 279.205 109.066V113H278.113V109.066C278.113 108.422 277.959 107.937 277.651 107.61C277.352 107.283 276.923 107.12 276.363 107.12C275.803 107.12 275.35 107.349 275.005 107.806C274.66 108.263 274.478 108.898 274.459 109.71V113H273.353V106.308H274.305L274.431 107.596ZM189.66 123.946C189.66 123.395 189.893 122.957 190.36 122.63C190.836 122.303 191.475 122.14 192.278 122.14C193.08 122.14 193.706 122.308 194.154 122.644C194.611 122.98 194.849 123.405 194.868 123.918H193.79C193.706 123.311 193.192 123.008 192.25 123.008C191.792 123.008 191.438 123.111 191.186 123.316C190.943 123.521 190.822 123.745 190.822 123.988C190.822 124.221 190.915 124.422 191.102 124.59C191.288 124.749 191.587 124.889 191.998 125.01L193.342 125.458C193.911 125.635 194.345 125.864 194.644 126.144C194.952 126.415 195.106 126.793 195.106 127.278C195.106 127.754 194.858 128.188 194.364 128.58C193.869 128.963 193.178 129.154 192.292 129.154C191.405 129.154 190.714 128.958 190.22 128.566C189.725 128.165 189.464 127.651 189.436 127.026H190.5C190.518 127.446 190.686 127.763 191.004 127.978C191.33 128.183 191.736 128.286 192.222 128.286C192.707 128.286 193.108 128.183 193.426 127.978C193.743 127.773 193.902 127.53 193.902 127.25C193.902 126.961 193.808 126.741 193.622 126.592C193.435 126.443 193.132 126.312 192.712 126.2L191.41 125.766C190.243 125.421 189.66 124.814 189.66 123.946ZM200.879 128.804C200.076 129.177 199.344 129.257 198.681 129.042C198.205 128.893 197.869 128.58 197.673 128.104C197.57 127.871 197.519 127.591 197.519 127.264V123.148H196.441V122.308H197.519V120.446H198.611V122.308H200.711V123.148H198.611V127.25C198.611 127.931 198.928 128.272 199.563 128.272C199.908 128.272 200.296 128.188 200.725 128.02L200.879 128.804ZM206.787 124.66C206.787 124.053 206.661 123.619 206.409 123.358C206.157 123.097 205.788 122.966 205.303 122.966C204.827 122.966 204.439 123.064 204.141 123.26C203.851 123.447 203.707 123.745 203.707 124.156H202.489C202.489 123.129 203.039 122.495 204.141 122.252C204.477 122.177 204.841 122.14 205.233 122.14C206.063 122.14 206.712 122.35 207.179 122.77C207.645 123.19 207.879 123.829 207.879 124.688V129H206.927L206.815 127.88C206.404 128.729 205.662 129.154 204.589 129.154C203.87 129.154 203.291 128.953 202.853 128.552C202.423 128.151 202.209 127.651 202.209 127.054C202.209 126.457 202.447 125.99 202.923 125.654C203.408 125.318 204.01 125.15 204.729 125.15C205.447 125.15 206.133 125.271 206.787 125.514V124.66ZM206.787 126.214C206.124 126.027 205.545 125.934 205.051 125.934C204.556 125.934 204.155 126.023 203.847 126.2C203.539 126.377 203.385 126.657 203.385 127.04C203.385 127.88 203.861 128.3 204.813 128.3C205.354 128.3 205.816 128.109 206.199 127.726C206.591 127.334 206.787 126.83 206.787 126.214ZM212.479 125.458L211.583 126.186V129H210.477V119.466H211.583V125.01L214.817 122.308H216.357L213.277 124.814L216.511 129H215.153L212.479 125.458ZM220.689 128.258C221.613 128.258 222.14 127.852 222.271 127.04H223.405C223.302 127.712 223.004 128.235 222.509 128.608C222.024 128.972 221.417 129.154 220.689 129.154C219.793 129.154 219.065 128.837 218.505 128.202C217.945 127.558 217.665 126.704 217.665 125.64C217.665 124.576 217.945 123.727 218.505 123.092C219.074 122.457 219.826 122.14 220.759 122.14C221.702 122.14 222.402 122.504 222.859 123.232C223.326 123.96 223.489 124.847 223.349 125.892H218.771C218.771 126.583 218.939 127.152 219.275 127.6C219.611 128.039 220.082 128.258 220.689 128.258ZM221.501 123.19C221.286 123.078 221.025 123.022 220.717 123.022C220.148 123.022 219.695 123.218 219.359 123.61C219.032 123.993 218.841 124.473 218.785 125.052H222.355C222.355 124.119 222.07 123.498 221.501 123.19ZM226.69 123.54C227.138 122.607 227.88 122.14 228.916 122.14C229.709 122.14 230.325 122.401 230.764 122.924C231.212 123.447 231.436 124.161 231.436 125.066V129H230.344V125.066C230.344 124.422 230.19 123.937 229.882 123.61C229.583 123.283 229.149 123.12 228.58 123.12C228.011 123.12 227.553 123.363 227.208 123.848C226.863 124.324 226.69 124.987 226.69 125.836V129H225.584V119.466H226.69V123.54ZM236.441 122.14C237.374 122.14 238.126 122.443 238.695 123.05C239.274 123.657 239.563 124.525 239.563 125.654C239.563 126.774 239.274 127.637 238.695 128.244C238.126 128.851 237.374 129.154 236.441 129.154C235.508 129.154 234.752 128.851 234.173 128.244C233.604 127.637 233.319 126.774 233.319 125.654C233.319 124.525 233.604 123.657 234.173 123.05C234.752 122.443 235.508 122.14 236.441 122.14ZM238.443 125.654C238.443 124.851 238.275 124.226 237.939 123.778C237.603 123.321 237.108 123.092 236.455 123.092C235.811 123.092 235.316 123.321 234.971 123.778C234.626 124.226 234.453 124.851 234.453 125.654C234.453 126.447 234.616 127.073 234.943 127.53C235.27 127.978 235.755 128.202 236.399 128.202C237.052 128.202 237.556 127.978 237.911 127.53C238.266 127.073 238.443 126.447 238.443 125.654ZM241.676 119.466H242.782V129H241.676V119.466ZM249.982 123.302V119.466H251.074V129H250.178L250.038 127.88C249.823 128.3 249.538 128.617 249.184 128.832C248.829 129.047 248.442 129.154 248.022 129.154C247.172 129.154 246.458 128.827 245.88 128.174C245.31 127.521 245.026 126.671 245.026 125.626C245.026 124.571 245.306 123.727 245.866 123.092C246.435 122.457 247.149 122.14 248.008 122.14C248.876 122.14 249.534 122.527 249.982 123.302ZM248.078 123.12C247.536 123.12 247.079 123.349 246.706 123.806C246.342 124.263 246.16 124.875 246.16 125.64C246.16 126.405 246.346 127.021 246.72 127.488C247.093 127.945 247.541 128.174 248.064 128.174C248.586 128.174 249.03 128.001 249.394 127.656C249.767 127.301 249.963 126.83 249.982 126.242V125.15C249.982 124.525 249.8 124.03 249.436 123.666C249.072 123.302 248.619 123.12 248.078 123.12ZM256.222 128.258C257.146 128.258 257.673 127.852 257.804 127.04H258.938C258.835 127.712 258.537 128.235 258.042 128.608C257.557 128.972 256.95 129.154 256.222 129.154C255.326 129.154 254.598 128.837 254.038 128.202C253.478 127.558 253.198 126.704 253.198 125.64C253.198 124.576 253.478 123.727 254.038 123.092C254.607 122.457 255.359 122.14 256.292 122.14C257.235 122.14 257.935 122.504 258.392 123.232C258.859 123.96 259.022 124.847 258.882 125.892H254.304C254.304 126.583 254.472 127.152 254.808 127.6C255.144 128.039 255.615 128.258 256.222 128.258ZM257.034 123.19C256.819 123.078 256.558 123.022 256.25 123.022C255.681 123.022 255.228 123.218 254.892 123.61C254.565 123.993 254.374 124.473 254.318 125.052H257.888C257.888 124.119 257.603 123.498 257.034 123.19ZM263.847 123.246C262.792 123.246 262.246 124.077 262.209 125.738V129H261.103V122.294H262.209V123.582C262.545 122.649 263.138 122.182 263.987 122.182C264.258 122.182 264.514 122.224 264.757 122.308L264.701 123.386C264.421 123.293 264.136 123.246 263.847 123.246ZM266.099 123.946C266.099 123.395 266.332 122.957 266.799 122.63C267.275 122.303 267.914 122.14 268.717 122.14C269.52 122.14 270.145 122.308 270.593 122.644C271.05 122.98 271.288 123.405 271.307 123.918H270.229C270.145 123.311 269.632 123.008 268.689 123.008C268.232 123.008 267.877 123.111 267.625 123.316C267.382 123.521 267.261 123.745 267.261 123.988C267.261 124.221 267.354 124.422 267.541 124.59C267.728 124.749 268.026 124.889 268.437 125.01L269.781 125.458C270.35 125.635 270.784 125.864 271.083 126.144C271.391 126.415 271.545 126.793 271.545 127.278C271.545 127.754 271.298 128.188 270.803 128.58C270.308 128.963 269.618 129.154 268.731 129.154C267.844 129.154 267.154 128.958 266.659 128.566C266.164 128.165 265.903 127.651 265.875 127.026H266.939C266.958 127.446 267.126 127.763 267.443 127.978C267.77 128.183 268.176 128.286 268.661 128.286C269.146 128.286 269.548 128.183 269.865 127.978C270.182 127.773 270.341 127.53 270.341 127.25C270.341 126.961 270.248 126.741 270.061 126.592C269.874 126.443 269.571 126.312 269.151 126.2L267.849 125.766C266.682 125.421 266.099 124.814 266.099 123.946Z" fill="#333333"/>
<path d="M318.627 104.194H321.917C322.841 104.194 323.55 104.413 324.045 104.852C324.549 105.291 324.801 105.841 324.801 106.504C324.801 107.008 324.661 107.447 324.381 107.82C324.11 108.193 323.695 108.445 323.135 108.576C323.686 108.669 324.124 108.907 324.451 109.29C324.787 109.673 324.955 110.107 324.955 110.592C324.955 111.675 324.428 112.407 323.373 112.79C322.981 112.93 322.5 113 321.931 113H318.627V104.194ZM321.903 112.034C322.575 112.034 323.056 111.899 323.345 111.628C323.634 111.357 323.779 110.998 323.779 110.55C323.779 110.102 323.62 109.747 323.303 109.486C322.986 109.215 322.519 109.08 321.903 109.08H319.733V112.034H321.903ZM319.733 108.128H321.889C322.43 108.128 322.86 107.997 323.177 107.736C323.504 107.465 323.667 107.097 323.667 106.63C323.667 106.163 323.508 105.799 323.191 105.538C322.883 105.277 322.449 105.146 321.889 105.146H319.733V108.128ZM330.066 107.246C329.011 107.246 328.465 108.077 328.428 109.738V113H327.322V106.294H328.428V107.582C328.764 106.649 329.357 106.182 330.206 106.182C330.477 106.182 330.733 106.224 330.976 106.308L330.92 107.386C330.64 107.293 330.355 107.246 330.066 107.246ZM336.812 108.66C336.812 108.053 336.686 107.619 336.434 107.358C336.182 107.097 335.813 106.966 335.328 106.966C334.852 106.966 334.465 107.064 334.166 107.26C333.877 107.447 333.732 107.745 333.732 108.156H332.514C332.514 107.129 333.065 106.495 334.166 106.252C334.502 106.177 334.866 106.14 335.258 106.14C336.089 106.14 336.737 106.35 337.204 106.77C337.671 107.19 337.904 107.829 337.904 108.688V113H336.952L336.84 111.88C336.429 112.729 335.687 113.154 334.614 113.154C333.895 113.154 333.317 112.953 332.878 112.552C332.449 112.151 332.234 111.651 332.234 111.054C332.234 110.457 332.472 109.99 332.948 109.654C333.433 109.318 334.035 109.15 334.754 109.15C335.473 109.15 336.159 109.271 336.812 109.514V108.66ZM336.812 110.214C336.149 110.027 335.571 109.934 335.076 109.934C334.581 109.934 334.18 110.023 333.872 110.2C333.564 110.377 333.41 110.657 333.41 111.04C333.41 111.88 333.886 112.3 334.838 112.3C335.379 112.3 335.841 112.109 336.224 111.726C336.616 111.334 336.812 110.83 336.812 110.214ZM340.572 106.294H341.678V113H340.572V106.294ZM341.118 104.726C340.894 104.726 340.717 104.665 340.586 104.544C340.465 104.413 340.404 104.245 340.404 104.04C340.404 103.825 340.465 103.657 340.586 103.536C340.717 103.405 340.894 103.34 341.118 103.34C341.342 103.34 341.519 103.405 341.65 103.536C341.79 103.657 341.86 103.825 341.86 104.04C341.86 104.245 341.79 104.413 341.65 104.544C341.519 104.665 341.342 104.726 341.118 104.726ZM345.749 107.596C346.188 106.625 346.939 106.14 348.003 106.14C348.797 106.14 349.413 106.401 349.851 106.924C350.299 107.447 350.523 108.161 350.523 109.066V113H349.431V109.066C349.431 108.422 349.277 107.937 348.969 107.61C348.671 107.283 348.241 107.12 347.681 107.12C347.121 107.12 346.669 107.349 346.323 107.806C345.978 108.263 345.796 108.898 345.777 109.71V113H344.671V106.308H345.623L345.749 107.596ZM352.771 107.946C352.771 107.395 353.004 106.957 353.471 106.63C353.947 106.303 354.586 106.14 355.389 106.14C356.192 106.14 356.817 106.308 357.265 106.644C357.722 106.98 357.96 107.405 357.979 107.918H356.901C356.817 107.311 356.304 107.008 355.361 107.008C354.904 107.008 354.549 107.111 354.297 107.316C354.054 107.521 353.933 107.745 353.933 107.988C353.933 108.221 354.026 108.422 354.213 108.59C354.4 108.749 354.698 108.889 355.109 109.01L356.453 109.458C357.022 109.635 357.456 109.864 357.755 110.144C358.063 110.415 358.217 110.793 358.217 111.278C358.217 111.754 357.97 112.188 357.475 112.58C356.98 112.963 356.29 113.154 355.403 113.154C354.516 113.154 353.826 112.958 353.331 112.566C352.836 112.165 352.575 111.651 352.547 111.026H353.611C353.63 111.446 353.798 111.763 354.115 111.978C354.442 112.183 354.848 112.286 355.333 112.286C355.818 112.286 356.22 112.183 356.537 111.978C356.854 111.773 357.013 111.53 357.013 111.25C357.013 110.961 356.92 110.741 356.733 110.592C356.546 110.443 356.243 110.312 355.823 110.2L354.521 109.766C353.354 109.421 352.771 108.814 352.771 107.946ZM363.99 112.804C363.188 113.177 362.455 113.257 361.792 113.042C361.316 112.893 360.98 112.58 360.784 112.104C360.682 111.871 360.63 111.591 360.63 111.264V107.148H359.552V106.308H360.63V104.446H361.722V106.308H363.822V107.148H361.722V111.25C361.722 111.931 362.04 112.272 362.674 112.272C363.02 112.272 363.407 112.188 363.836 112.02L363.99 112.804ZM368.162 106.14C369.095 106.14 369.847 106.443 370.416 107.05C370.995 107.657 371.284 108.525 371.284 109.654C371.284 110.774 370.995 111.637 370.416 112.244C369.847 112.851 369.095 113.154 368.162 113.154C367.229 113.154 366.473 112.851 365.894 112.244C365.325 111.637 365.04 110.774 365.04 109.654C365.04 108.525 365.325 107.657 365.894 107.05C366.473 106.443 367.229 106.14 368.162 106.14ZM370.164 109.654C370.164 108.851 369.996 108.226 369.66 107.778C369.324 107.321 368.829 107.092 368.176 107.092C367.532 107.092 367.037 107.321 366.692 107.778C366.347 108.226 366.174 108.851 366.174 109.654C366.174 110.447 366.337 111.073 366.664 111.53C366.991 111.978 367.476 112.202 368.12 112.202C368.773 112.202 369.277 111.978 369.632 111.53C369.987 111.073 370.164 110.447 370.164 109.654ZM376.126 107.246C375.072 107.246 374.526 108.077 374.488 109.738V113H373.382V106.294H374.488V107.582C374.824 106.649 375.417 106.182 376.266 106.182C376.537 106.182 376.794 106.224 377.036 106.308L376.98 107.386C376.7 107.293 376.416 107.246 376.126 107.246ZM379.792 107.596C380.231 106.625 380.982 106.14 382.046 106.14C382.625 106.14 383.11 106.285 383.502 106.574C383.894 106.854 384.179 107.246 384.356 107.75C384.776 106.677 385.556 106.14 386.694 106.14C387.497 106.14 388.118 106.401 388.556 106.924C388.995 107.447 389.214 108.161 389.214 109.066V113H388.122V109.066C388.122 108.422 387.968 107.937 387.66 107.61C387.362 107.283 386.928 107.12 386.358 107.12C385.789 107.12 385.346 107.353 385.028 107.82C384.72 108.287 384.566 108.931 384.566 109.752V113H383.474V109.066C383.474 108.422 383.32 107.937 383.012 107.61C382.714 107.283 382.284 107.12 381.724 107.12C381.164 107.12 380.712 107.349 380.366 107.806C380.021 108.263 379.839 108.898 379.82 109.71V113H378.714V106.308H379.666L379.792 107.596ZM391.882 106.294H392.988V113H391.882V106.294ZM392.428 104.726C392.204 104.726 392.027 104.665 391.896 104.544C391.775 104.413 391.714 104.245 391.714 104.04C391.714 103.825 391.775 103.657 391.896 103.536C392.027 103.405 392.204 103.34 392.428 103.34C392.652 103.34 392.83 103.405 392.96 103.536C393.1 103.657 393.17 103.825 393.17 104.04C393.17 104.245 393.1 104.413 392.96 104.544C392.83 104.665 392.652 104.726 392.428 104.726ZM397.06 107.596C397.499 106.625 398.25 106.14 399.314 106.14C400.107 106.14 400.723 106.401 401.162 106.924C401.61 107.447 401.834 108.161 401.834 109.066V113H400.742V109.066C400.742 108.422 400.588 107.937 400.28 107.61C399.981 107.283 399.552 107.12 398.992 107.12C398.432 107.12 397.979 107.349 397.634 107.806C397.289 108.263 397.107 108.898 397.088 109.71V113H395.982V106.308H396.934L397.06 107.596ZM404.712 112.79C404.152 112.519 403.872 112.104 403.872 111.544C403.872 111.255 403.979 111.003 404.194 110.788C404.418 110.564 404.693 110.415 405.02 110.34C404.516 109.892 404.264 109.304 404.264 108.576C404.264 107.848 404.52 107.26 405.034 106.812C405.556 106.364 406.172 106.14 406.882 106.14C407.591 106.14 408.193 106.308 408.688 106.644C408.753 106.149 408.949 105.753 409.276 105.454C409.612 105.155 410.05 105.006 410.592 105.006L410.494 106.098C409.672 106.098 409.243 106.443 409.206 107.134C409.532 107.535 409.696 108.016 409.696 108.576C409.696 109.295 409.434 109.887 408.912 110.354C408.398 110.811 407.754 111.04 406.98 111.04C406.448 111.04 405.976 110.933 405.566 110.718C405.379 110.755 405.211 110.844 405.062 110.984C404.912 111.115 404.838 111.297 404.838 111.53C404.838 112.025 405.248 112.272 406.07 112.272H408.674C409.299 112.272 409.794 112.407 410.158 112.678C410.522 112.939 410.704 113.308 410.704 113.784C410.704 114.493 410.344 115.114 409.626 115.646C408.916 116.178 408.016 116.444 406.924 116.444C405.832 116.444 404.973 116.239 404.348 115.828C403.722 115.427 403.41 114.918 403.41 114.302C403.41 113.901 403.526 113.574 403.76 113.322C404.002 113.07 404.32 112.893 404.712 112.79ZM404.502 114.26C404.502 114.615 404.693 114.918 405.076 115.17C405.468 115.431 406.056 115.562 406.84 115.562C407.633 115.562 408.291 115.389 408.814 115.044C409.346 114.708 409.612 114.311 409.612 113.854C409.612 113.639 409.532 113.453 409.374 113.294C409.224 113.145 408.991 113.07 408.674 113.07H405.972C405.496 113.089 405.132 113.201 404.88 113.406C404.628 113.621 404.502 113.905 404.502 114.26ZM408.618 108.576C408.618 108.091 408.473 107.699 408.184 107.4C407.894 107.092 407.493 106.938 406.98 106.938C406.476 106.938 406.079 107.092 405.79 107.4C405.5 107.699 405.356 108.091 405.356 108.576C405.356 109.061 405.5 109.463 405.79 109.78C406.088 110.088 406.49 110.242 406.994 110.242C407.498 110.242 407.894 110.083 408.184 109.766C408.473 109.449 408.618 109.052 408.618 108.576ZM420.066 107.302V103.466H421.158V113H420.262L420.122 111.88C419.907 112.3 419.622 112.617 419.268 112.832C418.913 113.047 418.526 113.154 418.106 113.154C417.256 113.154 416.542 112.827 415.964 112.174C415.394 111.521 415.11 110.671 415.11 109.626C415.11 108.571 415.39 107.727 415.95 107.092C416.519 106.457 417.233 106.14 418.092 106.14C418.96 106.14 419.618 106.527 420.066 107.302ZM418.162 107.12C417.62 107.12 417.163 107.349 416.79 107.806C416.426 108.263 416.244 108.875 416.244 109.64C416.244 110.405 416.43 111.021 416.804 111.488C417.177 111.945 417.625 112.174 418.148 112.174C418.67 112.174 419.114 112.001 419.478 111.656C419.851 111.301 420.047 110.83 420.066 110.242V109.15C420.066 108.525 419.884 108.03 419.52 107.666C419.156 107.302 418.703 107.12 418.162 107.12ZM426.306 112.258C427.23 112.258 427.757 111.852 427.888 111.04H429.022C428.919 111.712 428.621 112.235 428.126 112.608C427.641 112.972 427.034 113.154 426.306 113.154C425.41 113.154 424.682 112.837 424.122 112.202C423.562 111.558 423.282 110.704 423.282 109.64C423.282 108.576 423.562 107.727 424.122 107.092C424.691 106.457 425.443 106.14 426.376 106.14C427.319 106.14 428.019 106.504 428.476 107.232C428.943 107.96 429.106 108.847 428.966 109.892H424.388C424.388 110.583 424.556 111.152 424.892 111.6C425.228 112.039 425.699 112.258 426.306 112.258ZM427.118 107.19C426.903 107.078 426.642 107.022 426.334 107.022C425.765 107.022 425.312 107.218 424.976 107.61C424.649 107.993 424.458 108.473 424.402 109.052H427.972C427.972 108.119 427.687 107.498 427.118 107.19ZM357.532 122.294H358.638V129H357.532V122.294ZM358.078 120.726C357.854 120.726 357.677 120.665 357.546 120.544C357.425 120.413 357.364 120.245 357.364 120.04C357.364 119.825 357.425 119.657 357.546 119.536C357.677 119.405 357.854 119.34 358.078 119.34C358.302 119.34 358.479 119.405 358.61 119.536C358.75 119.657 358.82 119.825 358.82 120.04C358.82 120.245 358.75 120.413 358.61 120.544C358.479 120.665 358.302 120.726 358.078 120.726ZM366.027 123.302V119.466H367.119V129H366.223L366.083 127.88C365.869 128.3 365.584 128.617 365.229 128.832C364.875 129.047 364.487 129.154 364.067 129.154C363.218 129.154 362.504 128.827 361.925 128.174C361.356 127.521 361.071 126.671 361.071 125.626C361.071 124.571 361.351 123.727 361.911 123.092C362.481 122.457 363.195 122.14 364.053 122.14C364.921 122.14 365.579 122.527 366.027 123.302ZM364.123 123.12C363.582 123.12 363.125 123.349 362.751 123.806C362.387 124.263 362.205 124.875 362.205 125.64C362.205 126.405 362.392 127.021 362.765 127.488C363.139 127.945 363.587 128.174 364.109 128.174C364.632 128.174 365.075 128.001 365.439 127.656C365.813 127.301 366.009 126.83 366.027 126.242V125.15C366.027 124.525 365.845 124.03 365.481 123.666C365.117 123.302 364.665 123.12 364.123 123.12ZM372.268 128.258C373.192 128.258 373.719 127.852 373.85 127.04H374.984C374.881 127.712 374.583 128.235 374.088 128.608C373.603 128.972 372.996 129.154 372.268 129.154C371.372 129.154 370.644 128.837 370.084 128.202C369.524 127.558 369.244 126.704 369.244 125.64C369.244 124.576 369.524 123.727 370.084 123.092C370.653 122.457 371.405 122.14 372.338 122.14C373.281 122.14 373.981 122.504 374.438 123.232C374.905 123.96 375.068 124.847 374.928 125.892H370.35C370.35 126.583 370.518 127.152 370.854 127.6C371.19 128.039 371.661 128.258 372.268 128.258ZM373.08 123.19C372.865 123.078 372.604 123.022 372.296 123.022C371.727 123.022 371.274 123.218 370.938 123.61C370.611 123.993 370.42 124.473 370.364 125.052H373.934C373.934 124.119 373.649 123.498 373.08 123.19ZM381.307 124.66C381.307 124.053 381.181 123.619 380.929 123.358C380.677 123.097 380.308 122.966 379.823 122.966C379.347 122.966 378.96 123.064 378.661 123.26C378.372 123.447 378.227 123.745 378.227 124.156H377.009C377.009 123.129 377.56 122.495 378.661 122.252C378.997 122.177 379.361 122.14 379.753 122.14C380.584 122.14 381.232 122.35 381.699 122.77C382.166 123.19 382.399 123.829 382.399 124.688V129H381.447L381.335 127.88C380.924 128.729 380.182 129.154 379.109 129.154C378.39 129.154 377.812 128.953 377.373 128.552C376.944 128.151 376.729 127.651 376.729 127.054C376.729 126.457 376.967 125.99 377.443 125.654C377.928 125.318 378.53 125.15 379.249 125.15C379.968 125.15 380.654 125.271 381.307 125.514V124.66ZM381.307 126.214C380.644 126.027 380.066 125.934 379.571 125.934C379.076 125.934 378.675 126.023 378.367 126.2C378.059 126.377 377.905 126.657 377.905 127.04C377.905 127.88 378.381 128.3 379.333 128.3C379.874 128.3 380.336 128.109 380.719 127.726C381.111 127.334 381.307 126.83 381.307 126.214ZM384.647 123.946C384.647 123.395 384.88 122.957 385.347 122.63C385.823 122.303 386.462 122.14 387.265 122.14C388.068 122.14 388.693 122.308 389.141 122.644C389.598 122.98 389.836 123.405 389.855 123.918H388.777C388.693 123.311 388.18 123.008 387.237 123.008C386.78 123.008 386.425 123.111 386.173 123.316C385.93 123.521 385.809 123.745 385.809 123.988C385.809 124.221 385.902 124.422 386.089 124.59C386.276 124.749 386.574 124.889 386.985 125.01L388.329 125.458C388.898 125.635 389.332 125.864 389.631 126.144C389.939 126.415 390.093 126.793 390.093 127.278C390.093 127.754 389.846 128.188 389.351 128.58C388.856 128.963 388.166 129.154 387.279 129.154C386.392 129.154 385.702 128.958 385.207 128.566C384.712 128.165 384.451 127.651 384.423 127.026H385.487C385.506 127.446 385.674 127.763 385.991 127.978C386.318 128.183 386.724 128.286 387.209 128.286C387.694 128.286 388.096 128.183 388.413 127.978C388.73 127.773 388.889 127.53 388.889 127.25C388.889 126.961 388.796 126.741 388.609 126.592C388.422 126.443 388.119 126.312 387.699 126.2L386.397 125.766C385.23 125.421 384.647 124.814 384.647 123.946Z" fill="#333333"/>
<path d="M470.04 103.194H471.384L474.338 112H473.19L472.434 109.76H468.934L468.178 112H467.016L470.04 103.194ZM469.228 108.892H472.154L470.698 104.552L469.228 108.892ZM478.849 106.246C477.794 106.246 477.248 107.077 477.211 108.738V112H476.105V105.294H477.211V106.582C477.547 105.649 478.14 105.182 478.989 105.182C479.26 105.182 479.516 105.224 479.759 105.308L479.703 106.386C479.423 106.293 479.138 106.246 478.849 106.246ZM483.733 105.14C484.685 105.14 485.376 105.56 485.805 106.4L486.043 105.308H486.799V113.134C486.799 113.591 486.85 113.895 486.953 114.044C487.065 114.203 487.186 114.315 487.317 114.38C487.457 114.455 487.625 114.525 487.821 114.59L487.457 115.444C486.822 115.276 486.37 115.01 486.099 114.646C485.838 114.282 485.707 113.755 485.707 113.064V110.936C485.324 111.748 484.694 112.154 483.817 112.154C482.949 112.154 482.221 111.837 481.633 111.202C481.045 110.558 480.751 109.709 480.751 108.654C480.751 107.599 481.04 106.75 481.619 106.106C482.207 105.462 482.912 105.14 483.733 105.14ZM483.831 106.12C483.29 106.12 482.828 106.349 482.445 106.806C482.072 107.263 481.885 107.884 481.885 108.668C481.885 109.443 482.086 110.054 482.487 110.502C482.888 110.95 483.355 111.174 483.887 111.174C484.652 111.174 485.198 110.833 485.525 110.152C485.637 109.937 485.698 109.681 485.707 109.382V108.108C485.707 107.492 485.53 107.007 485.175 106.652C484.82 106.297 484.372 106.12 483.831 106.12ZM494.191 110.67C493.733 111.641 492.991 112.126 491.965 112.126C491.209 112.126 490.597 111.916 490.131 111.496C489.673 111.076 489.445 110.427 489.445 109.55V105.294H490.551V109.466C490.551 110.595 491.073 111.16 492.119 111.16C492.725 111.16 493.215 110.927 493.589 110.46C493.971 109.993 494.172 109.396 494.191 108.668V105.294H495.297V112H494.191V110.67ZM498.201 105.294H499.307V112H498.201V105.294ZM498.747 103.726C498.523 103.726 498.345 103.665 498.215 103.544C498.093 103.413 498.033 103.245 498.033 103.04C498.033 102.825 498.093 102.657 498.215 102.536C498.345 102.405 498.523 102.34 498.747 102.34C498.971 102.34 499.148 102.405 499.279 102.536C499.419 102.657 499.489 102.825 499.489 103.04C499.489 103.245 499.419 103.413 499.279 103.544C499.148 103.665 498.971 103.726 498.747 103.726ZM505.814 111.804C505.012 112.177 504.279 112.257 503.616 112.042C503.14 111.893 502.804 111.58 502.608 111.104C502.506 110.871 502.454 110.591 502.454 110.264V106.148H501.376V105.308H502.454V103.446H503.546V105.308H505.646V106.148H503.546V110.25C503.546 110.931 503.864 111.272 504.498 111.272C504.844 111.272 505.231 111.188 505.66 111.02L505.814 111.804ZM509.888 111.258C510.812 111.258 511.339 110.852 511.47 110.04H512.604C512.501 110.712 512.203 111.235 511.708 111.608C511.223 111.972 510.616 112.154 509.888 112.154C508.992 112.154 508.264 111.837 507.704 111.202C507.144 110.558 506.864 109.704 506.864 108.64C506.864 107.576 507.144 106.727 507.704 106.092C508.273 105.457 509.025 105.14 509.958 105.14C510.901 105.14 511.601 105.504 512.058 106.232C512.525 106.96 512.688 107.847 512.548 108.892H507.97C507.97 109.583 508.138 110.152 508.474 110.6C508.81 111.039 509.281 111.258 509.888 111.258ZM510.7 106.19C510.485 106.078 510.224 106.022 509.916 106.022C509.347 106.022 508.894 106.218 508.558 106.61C508.231 106.993 508.04 107.473 507.984 108.052H511.554C511.554 107.119 511.269 106.498 510.7 106.19ZM517.009 105.14C517.802 105.14 518.432 105.345 518.899 105.756C519.366 106.157 519.669 106.661 519.809 107.268L518.689 107.366C518.568 106.974 518.372 106.671 518.101 106.456C517.83 106.232 517.532 106.12 517.205 106.12C516.608 106.12 516.122 106.344 515.749 106.792C515.385 107.24 515.203 107.851 515.203 108.626C515.203 109.391 515.38 110.007 515.735 110.474C516.099 110.941 516.547 111.174 517.079 111.174C517.62 111.174 518.022 111.053 518.283 110.81C518.554 110.558 518.689 110.203 518.689 109.746H519.823C519.823 110.465 519.571 111.048 519.067 111.496C518.572 111.935 517.924 112.154 517.121 112.154C516.272 112.154 515.548 111.832 514.951 111.188C514.363 110.544 514.069 109.69 514.069 108.626C514.069 107.553 514.363 106.703 514.951 106.078C515.539 105.453 516.225 105.14 517.009 105.14ZM525.488 111.804C524.686 112.177 523.953 112.257 523.29 112.042C522.814 111.893 522.478 111.58 522.282 111.104C522.18 110.871 522.128 110.591 522.128 110.264V106.148H521.05V105.308H522.128V103.446H523.22V105.308H525.32V106.148H523.22V110.25C523.22 110.931 523.538 111.272 524.172 111.272C524.518 111.272 524.905 111.188 525.334 111.02L525.488 111.804ZM531.802 110.67C531.345 111.641 530.603 112.126 529.576 112.126C528.82 112.126 528.209 111.916 527.742 111.496C527.285 111.076 527.056 110.427 527.056 109.55V105.294H528.162V109.466C528.162 110.595 528.685 111.16 529.73 111.16C530.337 111.16 530.827 110.927 531.2 110.46C531.583 109.993 531.783 109.396 531.802 108.668V105.294H532.908V112H531.802V110.67ZM538.472 106.246C537.417 106.246 536.871 107.077 536.834 108.738V112H535.728V105.294H536.834V106.582C537.17 105.649 537.763 105.182 538.612 105.182C538.883 105.182 539.139 105.224 539.382 105.308L539.326 106.386C539.046 106.293 538.761 106.246 538.472 106.246ZM545.218 107.66C545.218 107.053 545.092 106.619 544.84 106.358C544.588 106.097 544.219 105.966 543.734 105.966C543.258 105.966 542.871 106.064 542.572 106.26C542.283 106.447 542.138 106.745 542.138 107.156H540.92C540.92 106.129 541.471 105.495 542.572 105.252C542.908 105.177 543.272 105.14 543.664 105.14C544.495 105.14 545.143 105.35 545.61 105.77C546.077 106.19 546.31 106.829 546.31 107.688V112H545.358L545.246 110.88C544.835 111.729 544.093 112.154 543.02 112.154C542.301 112.154 541.723 111.953 541.284 111.552C540.855 111.151 540.64 110.651 540.64 110.054C540.64 109.457 540.878 108.99 541.354 108.654C541.839 108.318 542.441 108.15 543.16 108.15C543.879 108.15 544.565 108.271 545.218 108.514V107.66ZM545.218 109.214C544.555 109.027 543.977 108.934 543.482 108.934C542.987 108.934 542.586 109.023 542.278 109.2C541.97 109.377 541.816 109.657 541.816 110.04C541.816 110.88 542.292 111.3 543.244 111.3C543.785 111.3 544.247 111.109 544.63 110.726C545.022 110.334 545.218 109.83 545.218 109.214ZM556.626 106.302V102.466H557.718V112H556.822L556.682 110.88C556.467 111.3 556.183 111.617 555.828 111.832C555.473 112.047 555.086 112.154 554.666 112.154C553.817 112.154 553.103 111.827 552.524 111.174C551.955 110.521 551.67 109.671 551.67 108.626C551.67 107.571 551.95 106.727 552.51 106.092C553.079 105.457 553.793 105.14 554.652 105.14C555.52 105.14 556.178 105.527 556.626 106.302ZM554.722 106.12C554.181 106.12 553.723 106.349 553.35 106.806C552.986 107.263 552.804 107.875 552.804 108.64C552.804 109.405 552.991 110.021 553.364 110.488C553.737 110.945 554.185 111.174 554.708 111.174C555.231 111.174 555.674 111.001 556.038 110.656C556.411 110.301 556.607 109.83 556.626 109.242V108.15C556.626 107.525 556.444 107.03 556.08 106.666C555.716 106.302 555.263 106.12 554.722 106.12ZM562.867 111.258C563.791 111.258 564.318 110.852 564.449 110.04H565.583C565.48 110.712 565.181 111.235 564.687 111.608C564.201 111.972 563.595 112.154 562.867 112.154C561.971 112.154 561.243 111.837 560.683 111.202C560.123 110.558 559.843 109.704 559.843 108.64C559.843 107.576 560.123 106.727 560.683 106.092C561.252 105.457 562.003 105.14 562.937 105.14C563.879 105.14 564.579 105.504 565.037 106.232C565.503 106.96 565.667 107.847 565.527 108.892H560.949C560.949 109.583 561.117 110.152 561.453 110.6C561.789 111.039 562.26 111.258 562.867 111.258ZM563.679 106.19C563.464 106.078 563.203 106.022 562.895 106.022C562.325 106.022 561.873 106.218 561.537 106.61C561.21 106.993 561.019 107.473 560.963 108.052H564.533C564.533 107.119 564.248 106.498 563.679 106.19ZM478.588 121.294H479.694V128H478.588V121.294ZM479.134 119.726C478.91 119.726 478.733 119.665 478.602 119.544C478.481 119.413 478.42 119.245 478.42 119.04C478.42 118.825 478.481 118.657 478.602 118.536C478.733 118.405 478.91 118.34 479.134 118.34C479.358 118.34 479.536 118.405 479.666 118.536C479.806 118.657 479.876 118.825 479.876 119.04C479.876 119.245 479.806 119.413 479.666 119.544C479.536 119.665 479.358 119.726 479.134 119.726ZM483.766 122.596C484.205 121.625 484.956 121.14 486.02 121.14C486.813 121.14 487.429 121.401 487.868 121.924C488.316 122.447 488.54 123.161 488.54 124.066V128H487.448V124.066C487.448 123.422 487.294 122.937 486.986 122.61C486.687 122.283 486.258 122.12 485.698 122.12C485.138 122.12 484.685 122.349 484.34 122.806C483.995 123.263 483.813 123.898 483.794 124.71V128H482.688V121.308H483.64L483.766 122.596ZM494.386 119.404C494.078 119.283 493.835 119.222 493.658 119.222C493.331 119.222 493.074 119.301 492.888 119.46C492.701 119.619 492.608 119.899 492.608 120.3V121.308H493.994V122.064H492.608V128H491.516V122.064H490.41V121.308H491.516V120.286C491.516 119.623 491.698 119.138 492.062 118.83C492.426 118.513 492.846 118.354 493.322 118.354C493.798 118.354 494.218 118.415 494.582 118.536L494.386 119.404ZM498.344 121.14C499.278 121.14 500.029 121.443 500.598 122.05C501.177 122.657 501.466 123.525 501.466 124.654C501.466 125.774 501.177 126.637 500.598 127.244C500.029 127.851 499.278 128.154 498.344 128.154C497.411 128.154 496.655 127.851 496.076 127.244C495.507 126.637 495.222 125.774 495.222 124.654C495.222 123.525 495.507 122.657 496.076 122.05C496.655 121.443 497.411 121.14 498.344 121.14ZM500.346 124.654C500.346 123.851 500.178 123.226 499.842 122.778C499.506 122.321 499.012 122.092 498.358 122.092C497.714 122.092 497.22 122.321 496.874 122.778C496.529 123.226 496.356 123.851 496.356 124.654C496.356 125.447 496.52 126.073 496.846 126.53C497.173 126.978 497.658 127.202 498.302 127.202C498.956 127.202 499.46 126.978 499.814 126.53C500.169 126.073 500.346 125.447 500.346 124.654ZM506.309 122.246C505.254 122.246 504.708 123.077 504.671 124.738V128H503.565V121.294H504.671V122.582C505.007 121.649 505.6 121.182 506.449 121.182C506.72 121.182 506.976 121.224 507.219 121.308L507.163 122.386C506.883 122.293 506.598 122.246 506.309 122.246ZM509.975 122.596C510.414 121.625 511.165 121.14 512.229 121.14C512.808 121.14 513.293 121.285 513.685 121.574C514.077 121.854 514.362 122.246 514.539 122.75C514.959 121.677 515.738 121.14 516.877 121.14C517.68 121.14 518.3 121.401 518.739 121.924C519.178 122.447 519.397 123.161 519.397 124.066V128H518.305V124.066C518.305 123.422 518.151 122.937 517.843 122.61C517.544 122.283 517.11 122.12 516.541 122.12C515.972 122.12 515.528 122.353 515.211 122.82C514.903 123.287 514.749 123.931 514.749 124.752V128H513.657V124.066C513.657 123.422 513.503 122.937 513.195 122.61C512.896 122.283 512.467 122.12 511.907 122.12C511.347 122.12 510.894 122.349 510.549 122.806C510.204 123.263 510.022 123.898 510.003 124.71V128H508.897V121.308H509.849L509.975 122.596ZM526.139 123.66C526.139 123.053 526.013 122.619 525.761 122.358C525.509 122.097 525.14 121.966 524.655 121.966C524.179 121.966 523.792 122.064 523.493 122.26C523.204 122.447 523.059 122.745 523.059 123.156H521.841C521.841 122.129 522.392 121.495 523.493 121.252C523.829 121.177 524.193 121.14 524.585 121.14C525.416 121.14 526.064 121.35 526.531 121.77C526.998 122.19 527.231 122.829 527.231 123.688V128H526.279L526.167 126.88C525.756 127.729 525.014 128.154 523.941 128.154C523.222 128.154 522.644 127.953 522.205 127.552C521.776 127.151 521.561 126.651 521.561 126.054C521.561 125.457 521.799 124.99 522.275 124.654C522.76 124.318 523.362 124.15 524.081 124.15C524.8 124.15 525.486 124.271 526.139 124.514V123.66ZM526.139 125.214C525.476 125.027 524.898 124.934 524.403 124.934C523.908 124.934 523.507 125.023 523.199 125.2C522.891 125.377 522.737 125.657 522.737 126.04C522.737 126.88 523.213 127.3 524.165 127.3C524.706 127.3 525.168 127.109 525.551 126.726C525.943 126.334 526.139 125.83 526.139 125.214ZM532.055 121.14C532.848 121.14 533.478 121.345 533.945 121.756C534.412 122.157 534.715 122.661 534.855 123.268L533.735 123.366C533.614 122.974 533.418 122.671 533.147 122.456C532.876 122.232 532.578 122.12 532.251 122.12C531.654 122.12 531.168 122.344 530.795 122.792C530.431 123.24 530.249 123.851 530.249 124.626C530.249 125.391 530.426 126.007 530.781 126.474C531.145 126.941 531.593 127.174 532.125 127.174C532.666 127.174 533.068 127.053 533.329 126.81C533.6 126.558 533.735 126.203 533.735 125.746H534.869C534.869 126.465 534.617 127.048 534.113 127.496C533.618 127.935 532.97 128.154 532.167 128.154C531.318 128.154 530.594 127.832 529.997 127.188C529.409 126.544 529.115 125.69 529.115 124.626C529.115 123.553 529.409 122.703 529.997 122.078C530.585 121.453 531.271 121.14 532.055 121.14ZM537.104 121.294H538.21V128H537.104V121.294ZM537.65 119.726C537.426 119.726 537.249 119.665 537.118 119.544C536.997 119.413 536.936 119.245 536.936 119.04C536.936 118.825 536.997 118.657 537.118 118.536C537.249 118.405 537.426 118.34 537.65 118.34C537.874 118.34 538.051 118.405 538.182 118.536C538.322 118.657 538.392 118.825 538.392 119.04C538.392 119.245 538.322 119.413 538.182 119.544C538.051 119.665 537.874 119.726 537.65 119.726ZM543.64 121.14C542.706 121.14 541.95 121.443 541.372 122.05C540.802 122.657 540.518 123.525 540.518 124.654C540.518 125.774 540.802 126.637 541.372 127.244C541.95 127.851 542.706 128.154 543.64 128.154C544.573 128.154 545.324 127.851 545.894 127.244C546.472 126.637 546.762 125.774 546.762 124.654C546.762 123.525 546.472 122.657 545.894 122.05C545.324 121.443 544.573 121.14 543.64 121.14ZM541.652 124.654C541.652 123.851 541.824 123.226 542.17 122.778C542.515 122.321 543.01 122.092 543.654 122.092C544.307 122.092 544.802 122.321 545.138 122.778C545.474 123.226 545.642 123.851 545.642 124.654C545.642 125.447 545.464 126.073 545.11 126.53C544.755 126.978 544.251 127.202 543.598 127.202C542.954 127.202 542.468 126.978 542.142 126.53C541.815 126.073 541.652 125.447 541.652 124.654ZM545.502 118.746L542.086 120.328L541.764 119.628L545.054 117.766L545.502 118.746ZM549.938 122.596C550.377 121.625 551.128 121.14 552.192 121.14C552.985 121.14 553.601 121.401 554.04 121.924C554.488 122.447 554.712 123.161 554.712 124.066V128H553.62V124.066C553.62 123.422 553.466 122.937 553.158 122.61C552.859 122.283 552.43 122.12 551.87 122.12C551.31 122.12 550.857 122.349 550.512 122.806C550.167 123.263 549.985 123.898 549.966 124.71V128H548.86V121.308H549.812L549.938 122.596Z" fill="#333333"/>
<path d="M621.079 103.194C622.049 103.194 622.787 103.441 623.291 103.936C623.804 104.421 624.061 105.079 624.061 105.91C624.061 106.741 623.804 107.399 623.291 107.884C622.787 108.36 622.049 108.598 621.079 108.598H619.343V112H618.237V103.194H621.079ZM621.079 107.646C621.685 107.646 622.143 107.492 622.451 107.184C622.768 106.876 622.927 106.456 622.927 105.924C622.927 105.383 622.768 104.953 622.451 104.636C622.143 104.309 621.685 104.146 621.079 104.146H619.343V107.646H621.079ZM628.747 106.246C627.692 106.246 627.146 107.077 627.109 108.738V112H626.003V105.294H627.109V106.582C627.445 105.649 628.037 105.182 628.887 105.182C629.157 105.182 629.414 105.224 629.657 105.308L629.601 106.386C629.321 106.293 629.036 106.246 628.747 106.246ZM633.757 105.14C634.69 105.14 635.441 105.443 636.011 106.05C636.589 106.657 636.879 107.525 636.879 108.654C636.879 109.774 636.589 110.637 636.011 111.244C635.441 111.851 634.69 112.154 633.757 112.154C632.823 112.154 632.067 111.851 631.489 111.244C630.919 110.637 630.635 109.774 630.635 108.654C630.635 107.525 630.919 106.657 631.489 106.05C632.067 105.443 632.823 105.14 633.757 105.14ZM635.759 108.654C635.759 107.851 635.591 107.226 635.255 106.778C634.919 106.321 634.424 106.092 633.771 106.092C633.127 106.092 632.632 106.321 632.287 106.778C631.941 107.226 631.769 107.851 631.769 108.654C631.769 109.447 631.932 110.073 632.259 110.53C632.585 110.978 633.071 111.202 633.715 111.202C634.368 111.202 634.872 110.978 635.227 110.53C635.581 110.073 635.759 109.447 635.759 108.654ZM642.491 111.804C641.688 112.177 640.956 112.257 640.293 112.042C639.817 111.893 639.481 111.58 639.285 111.104C639.182 110.871 639.131 110.591 639.131 110.264V106.148H638.053V105.308H639.131V103.446H640.223V105.308H642.323V106.148H640.223V110.25C640.223 110.931 640.54 111.272 641.175 111.272C641.52 111.272 641.908 111.188 642.337 111.02L642.491 111.804ZM646.663 105.14C647.596 105.14 648.347 105.443 648.917 106.05C649.495 106.657 649.785 107.525 649.785 108.654C649.785 109.774 649.495 110.637 648.917 111.244C648.347 111.851 647.596 112.154 646.663 112.154C645.729 112.154 644.973 111.851 644.395 111.244C643.825 110.637 643.541 109.774 643.541 108.654C643.541 107.525 643.825 106.657 644.395 106.05C644.973 105.443 645.729 105.14 646.663 105.14ZM648.665 108.654C648.665 107.851 648.497 107.226 648.161 106.778C647.825 106.321 647.33 106.092 646.677 106.092C646.033 106.092 645.538 106.321 645.193 106.778C644.847 107.226 644.675 107.851 644.675 108.654C644.675 109.447 644.838 110.073 645.165 110.53C645.491 110.978 645.977 111.202 646.621 111.202C647.274 111.202 647.778 110.978 648.133 110.53C648.487 110.073 648.665 109.447 648.665 108.654ZM655.397 111.804C654.595 112.177 653.862 112.257 653.199 112.042C652.723 111.893 652.387 111.58 652.191 111.104C652.089 110.871 652.037 110.591 652.037 110.264V106.148H650.959V105.308H652.037V103.446H653.129V105.308H655.229V106.148H653.129V110.25C653.129 110.931 653.447 111.272 654.081 111.272C654.427 111.272 654.814 111.188 655.243 111.02L655.397 111.804ZM657.231 105.294H658.337V112H657.231V105.294ZM657.777 103.726C657.553 103.726 657.376 103.665 657.245 103.544C657.124 103.413 657.063 103.245 657.063 103.04C657.063 102.825 657.124 102.657 657.245 102.536C657.376 102.405 657.553 102.34 657.777 102.34C658.001 102.34 658.178 102.405 658.309 102.536C658.449 102.657 658.519 102.825 658.519 103.04C658.519 103.245 658.449 103.413 658.309 103.544C658.178 103.665 658.001 103.726 657.777 103.726ZM662.381 106.33C662.819 105.537 663.473 105.14 664.341 105.14C665.218 105.14 665.946 105.462 666.525 106.106C667.113 106.75 667.407 107.599 667.407 108.654C667.407 109.709 667.113 110.558 666.525 111.202C665.937 111.837 665.213 112.154 664.355 112.154C663.496 112.154 662.861 111.832 662.451 111.188V115.29H661.345V105.308H662.255L662.381 106.33ZM664.299 111.174C664.821 111.174 665.279 110.95 665.671 110.502C666.072 110.054 666.273 109.443 666.273 108.668C666.273 107.884 666.081 107.263 665.699 106.806C665.325 106.349 664.868 106.12 664.327 106.12C663.785 106.12 663.342 106.293 662.997 106.638C662.651 106.974 662.469 107.431 662.451 108.01V109.284C662.451 109.872 662.628 110.334 662.983 110.67C663.337 111.006 663.776 111.174 664.299 111.174ZM673.801 107.66C673.801 107.053 673.675 106.619 673.423 106.358C673.171 106.097 672.802 105.966 672.317 105.966C671.841 105.966 671.454 106.064 671.155 106.26C670.866 106.447 670.721 106.745 670.721 107.156H669.503C669.503 106.129 670.054 105.495 671.155 105.252C671.491 105.177 671.855 105.14 672.247 105.14C673.078 105.14 673.726 105.35 674.193 105.77C674.66 106.19 674.893 106.829 674.893 107.688V112H673.941L673.829 110.88C673.418 111.729 672.676 112.154 671.603 112.154C670.884 112.154 670.306 111.953 669.867 111.552C669.438 111.151 669.223 110.651 669.223 110.054C669.223 109.457 669.461 108.99 669.937 108.654C670.422 108.318 671.024 108.15 671.743 108.15C672.462 108.15 673.148 108.271 673.801 108.514V107.66ZM673.801 109.214C673.138 109.027 672.56 108.934 672.065 108.934C671.57 108.934 671.169 109.023 670.861 109.2C670.553 109.377 670.399 109.657 670.399 110.04C670.399 110.88 670.875 111.3 671.827 111.3C672.368 111.3 672.83 111.109 673.213 110.726C673.605 110.334 673.801 109.83 673.801 109.214ZM681.873 106.302V102.466H682.965V112H682.069L681.929 110.88C681.714 111.3 681.43 111.617 681.075 111.832C680.72 112.047 680.333 112.154 679.913 112.154C679.064 112.154 678.35 111.827 677.771 111.174C677.202 110.521 676.917 109.671 676.917 108.626C676.917 107.571 677.197 106.727 677.757 106.092C678.326 105.457 679.04 105.14 679.899 105.14C680.767 105.14 681.425 105.527 681.873 106.302ZM679.969 106.12C679.428 106.12 678.97 106.349 678.597 106.806C678.233 107.263 678.051 107.875 678.051 108.64C678.051 109.405 678.238 110.021 678.611 110.488C678.984 110.945 679.432 111.174 679.955 111.174C680.478 111.174 680.921 111.001 681.285 110.656C681.658 110.301 681.854 109.83 681.873 109.242V108.15C681.873 107.525 681.691 107.03 681.327 106.666C680.963 106.302 680.51 106.12 679.969 106.12ZM688.212 105.14C689.145 105.14 689.896 105.443 690.466 106.05C691.044 106.657 691.334 107.525 691.334 108.654C691.334 109.774 691.044 110.637 690.466 111.244C689.896 111.851 689.145 112.154 688.212 112.154C687.278 112.154 686.522 111.851 685.944 111.244C685.374 110.637 685.09 109.774 685.09 108.654C685.09 107.525 685.374 106.657 685.944 106.05C686.522 105.443 687.278 105.14 688.212 105.14ZM690.214 108.654C690.214 107.851 690.046 107.226 689.71 106.778C689.374 106.321 688.879 106.092 688.226 106.092C687.582 106.092 687.087 106.321 686.742 106.778C686.396 107.226 686.224 107.851 686.224 108.654C686.224 109.447 686.387 110.073 686.714 110.53C687.04 110.978 687.526 111.202 688.17 111.202C688.823 111.202 689.327 110.978 689.682 110.53C690.036 110.073 690.214 109.447 690.214 108.654ZM695.438 113.946C695.895 114.301 696.376 114.478 696.88 114.478C697.253 114.478 697.575 114.291 697.846 113.918C698.042 113.647 698.219 113.237 698.378 112.686L698.574 112L695.83 105.308H697.062L699.092 110.642L700.674 105.308H701.794L699.288 113.33C699.073 114.011 698.789 114.534 698.434 114.898C698.089 115.262 697.645 115.444 697.104 115.444C696.572 115.444 696.017 115.281 695.438 114.954V113.946ZM644.439 127.804C643.637 128.177 642.904 128.257 642.241 128.042C641.765 127.893 641.429 127.58 641.233 127.104C641.131 126.871 641.079 126.591 641.079 126.264V122.148H640.001V121.308H641.079V119.446H642.171V121.308H644.271V122.148H642.171V126.25C642.171 126.931 642.489 127.272 643.123 127.272C643.469 127.272 643.856 127.188 644.285 127.02L644.439 127.804ZM648.513 127.258C649.437 127.258 649.964 126.852 650.095 126.04H651.229C651.126 126.712 650.828 127.235 650.333 127.608C649.848 127.972 649.241 128.154 648.513 128.154C647.617 128.154 646.889 127.837 646.329 127.202C645.769 126.558 645.489 125.704 645.489 124.64C645.489 123.576 645.769 122.727 646.329 122.092C646.898 121.457 647.65 121.14 648.583 121.14C649.526 121.14 650.226 121.504 650.683 122.232C651.15 122.96 651.313 123.847 651.173 124.892H646.595C646.595 125.583 646.763 126.152 647.099 126.6C647.435 127.039 647.906 127.258 648.513 127.258ZM649.325 122.19C649.11 122.078 648.849 122.022 648.541 122.022C647.972 122.022 647.519 122.218 647.183 122.61C646.856 122.993 646.665 123.473 646.609 124.052H650.179C650.179 123.119 649.894 122.498 649.325 122.19ZM653.058 122.946C653.058 122.395 653.291 121.957 653.758 121.63C654.234 121.303 654.873 121.14 655.676 121.14C656.479 121.14 657.104 121.308 657.552 121.644C658.009 121.98 658.247 122.405 658.266 122.918H657.188C657.104 122.311 656.591 122.008 655.648 122.008C655.191 122.008 654.836 122.111 654.584 122.316C654.341 122.521 654.22 122.745 654.22 122.988C654.22 123.221 654.313 123.422 654.5 123.59C654.687 123.749 654.985 123.889 655.396 124.01L656.74 124.458C657.309 124.635 657.743 124.864 658.042 125.144C658.35 125.415 658.504 125.793 658.504 126.278C658.504 126.754 658.257 127.188 657.762 127.58C657.267 127.963 656.577 128.154 655.69 128.154C654.803 128.154 654.113 127.958 653.618 127.566C653.123 127.165 652.862 126.651 652.834 126.026H653.898C653.917 126.446 654.085 126.763 654.402 126.978C654.729 127.183 655.135 127.286 655.62 127.286C656.105 127.286 656.507 127.183 656.824 126.978C657.141 126.773 657.3 126.53 657.3 126.25C657.3 125.961 657.207 125.741 657.02 125.592C656.833 125.443 656.53 125.312 656.11 125.2L654.808 124.766C653.641 124.421 653.058 123.814 653.058 122.946ZM664.277 127.804C663.475 128.177 662.742 128.257 662.079 128.042C661.603 127.893 661.267 127.58 661.071 127.104C660.969 126.871 660.917 126.591 660.917 126.264V122.148H659.839V121.308H660.917V119.446H662.009V121.308H664.109V122.148H662.009V126.25C662.009 126.931 662.327 127.272 662.961 127.272C663.307 127.272 663.694 127.188 664.123 127.02L664.277 127.804ZM668.351 127.258C669.275 127.258 669.802 126.852 669.933 126.04H671.067C670.964 126.712 670.666 127.235 670.171 127.608C669.686 127.972 669.079 128.154 668.351 128.154C667.455 128.154 666.727 127.837 666.167 127.202C665.607 126.558 665.327 125.704 665.327 124.64C665.327 123.576 665.607 122.727 666.167 122.092C666.736 121.457 667.488 121.14 668.421 121.14C669.364 121.14 670.064 121.504 670.521 122.232C670.988 122.96 671.151 123.847 671.011 124.892H666.433C666.433 125.583 666.601 126.152 666.937 126.6C667.273 127.039 667.744 127.258 668.351 127.258ZM669.163 122.19C668.948 122.078 668.687 122.022 668.379 122.022C667.81 122.022 667.357 122.218 667.021 122.61C666.694 122.993 666.503 123.473 666.447 124.052H670.017C670.017 123.119 669.732 122.498 669.163 122.19ZM675.654 121.14C676.587 121.14 677.339 121.443 677.908 122.05C678.487 122.657 678.776 123.525 678.776 124.654C678.776 125.774 678.487 126.637 677.908 127.244C677.339 127.851 676.587 128.154 675.654 128.154C674.721 128.154 673.965 127.851 673.386 127.244C672.817 126.637 672.532 125.774 672.532 124.654C672.532 123.525 672.817 122.657 673.386 122.05C673.965 121.443 674.721 121.14 675.654 121.14ZM677.656 124.654C677.656 123.851 677.488 123.226 677.152 122.778C676.816 122.321 676.321 122.092 675.668 122.092C675.024 122.092 674.529 122.321 674.184 122.778C673.839 123.226 673.666 123.851 673.666 124.654C673.666 125.447 673.829 126.073 674.156 126.53C674.483 126.978 674.968 127.202 675.612 127.202C676.265 127.202 676.769 126.978 677.124 126.53C677.479 126.073 677.656 125.447 677.656 124.654Z" fill="#333333"/>
</svg>
