<svg width="845" height="338" viewBox="0 0 845 338" fill="none" xmlns="http://www.w3.org/2000/svg">
<rect x="335.5" y="16.5" width="147" height="37" fill="white"/>
<path d="M364.539 33.288C364.403 32.552 363.863 32.184 362.919 32.184C362.415 32.184 362.027 32.296 361.755 32.52C361.483 32.736 361.347 33 361.347 33.312C361.347 33.616 361.431 33.848 361.599 34.008C361.767 34.168 362.039 34.308 362.415 34.428L363.987 34.968C364.523 35.152 364.947 35.404 365.259 35.724C365.579 36.044 365.739 36.496 365.739 37.08C365.739 37.656 365.491 38.144 364.995 38.544C364.499 38.936 363.835 39.132 363.003 39.132C362.171 39.132 361.487 38.924 360.951 38.508C360.423 38.084 360.151 37.492 360.135 36.732H361.059C361.059 37.228 361.231 37.608 361.575 37.872C361.927 38.136 362.375 38.268 362.919 38.268C363.471 38.268 363.907 38.148 364.227 37.908C364.547 37.66 364.707 37.372 364.707 37.044C364.707 36.708 364.607 36.444 364.407 36.252C364.215 36.06 363.927 35.9 363.543 35.772L362.211 35.28C361.587 35.072 361.115 34.824 360.795 34.536C360.475 34.248 360.315 33.828 360.315 33.276C360.315 32.716 360.539 32.252 360.987 31.884C361.435 31.508 362.063 31.32 362.871 31.32C363.679 31.32 364.295 31.5 364.719 31.86C365.151 32.212 365.399 32.688 365.463 33.288H364.539ZM370.784 38.832C370.096 39.152 369.468 39.22 368.9 39.036C368.492 38.908 368.204 38.64 368.036 38.232C367.948 38.032 367.904 37.792 367.904 37.512V33.984H366.98V33.264H367.904V31.668H368.84V33.264H370.64V33.984H368.84V37.5C368.84 38.084 369.112 38.376 369.656 38.376C369.952 38.376 370.284 38.304 370.652 38.16L370.784 38.832ZM374.636 34.068C373.732 34.068 373.264 34.78 373.232 36.204V39H372.284V33.252H373.232V34.356C373.52 33.556 374.028 33.156 374.756 33.156C374.988 33.156 375.208 33.192 375.416 33.264L375.368 34.188C375.128 34.108 374.884 34.068 374.636 34.068ZM378.846 38.364C379.638 38.364 380.09 38.016 380.202 37.32H381.174C381.086 37.896 380.83 38.344 380.406 38.664C379.99 38.976 379.47 39.132 378.846 39.132C378.078 39.132 377.454 38.86 376.974 38.316C376.494 37.764 376.254 37.032 376.254 36.12C376.254 35.208 376.494 34.48 376.974 33.936C377.462 33.392 378.106 33.12 378.906 33.12C379.714 33.12 380.314 33.432 380.706 34.056C381.106 34.68 381.246 35.44 381.126 36.336H377.202C377.202 36.928 377.346 37.416 377.634 37.8C377.922 38.176 378.326 38.364 378.846 38.364ZM379.542 34.02C379.358 33.924 379.134 33.876 378.87 33.876C378.382 33.876 377.994 34.044 377.706 34.38C377.426 34.708 377.262 35.12 377.214 35.616H380.274C380.274 34.816 380.03 34.284 379.542 34.02ZM386.594 35.28C386.594 34.76 386.486 34.388 386.27 34.164C386.054 33.94 385.738 33.828 385.322 33.828C384.914 33.828 384.582 33.912 384.326 34.08C384.078 34.24 383.954 34.496 383.954 34.848H382.91C382.91 33.968 383.382 33.424 384.326 33.216C384.614 33.152 384.926 33.12 385.262 33.12C385.974 33.12 386.53 33.3 386.93 33.66C387.33 34.02 387.53 34.568 387.53 35.304V39H386.714L386.618 38.04C386.266 38.768 385.63 39.132 384.71 39.132C384.094 39.132 383.598 38.96 383.222 38.616C382.854 38.272 382.67 37.844 382.67 37.332C382.67 36.82 382.874 36.42 383.282 36.132C383.698 35.844 384.214 35.7 384.83 35.7C385.446 35.7 386.034 35.804 386.594 36.012V35.28ZM386.594 36.612C386.026 36.452 385.53 36.372 385.106 36.372C384.682 36.372 384.338 36.448 384.074 36.6C383.81 36.752 383.678 36.992 383.678 37.32C383.678 38.04 384.086 38.4 384.902 38.4C385.366 38.4 385.762 38.236 386.09 37.908C386.426 37.572 386.594 37.14 386.594 36.612ZM390.669 34.368C391.045 33.536 391.689 33.12 392.601 33.12C393.097 33.12 393.513 33.244 393.849 33.492C394.185 33.732 394.429 34.068 394.581 34.5C394.941 33.58 395.609 33.12 396.585 33.12C397.273 33.12 397.805 33.344 398.181 33.792C398.557 34.24 398.745 34.852 398.745 35.628V39H397.809V35.628C397.809 35.076 397.677 34.66 397.413 34.38C397.157 34.1 396.785 33.96 396.297 33.96C395.809 33.96 395.429 34.16 395.157 34.56C394.893 34.96 394.761 35.512 394.761 36.216V39H393.825V35.628C393.825 35.076 393.693 34.66 393.429 34.38C393.173 34.1 392.805 33.96 392.325 33.96C391.845 33.96 391.457 34.156 391.161 34.548C390.865 34.94 390.709 35.484 390.693 36.18V39H389.745V33.264H390.561L390.669 34.368ZM401.032 33.252H401.98V39H401.032V33.252ZM401.5 31.908C401.308 31.908 401.156 31.856 401.044 31.752C400.94 31.64 400.888 31.496 400.888 31.32C400.888 31.136 400.94 30.992 401.044 30.888C401.156 30.776 401.308 30.72 401.5 30.72C401.692 30.72 401.844 30.776 401.956 30.888C402.076 30.992 402.136 31.136 402.136 31.32C402.136 31.496 402.076 31.64 401.956 31.752C401.844 31.856 401.692 31.908 401.5 31.908ZM405.47 34.368C405.846 33.536 406.49 33.12 407.402 33.12C408.082 33.12 408.61 33.344 408.986 33.792C409.37 34.24 409.562 34.852 409.562 35.628V39H408.626V35.628C408.626 35.076 408.494 34.66 408.23 34.38C407.974 34.1 407.606 33.96 407.126 33.96C406.646 33.96 406.258 34.156 405.962 34.548C405.666 34.94 405.51 35.484 405.494 36.18V39H404.546V33.264H405.362L405.47 34.368ZM412.028 38.82C411.548 38.588 411.308 38.232 411.308 37.752C411.308 37.504 411.4 37.288 411.584 37.104C411.776 36.912 412.012 36.784 412.292 36.72C411.86 36.336 411.644 35.832 411.644 35.208C411.644 34.584 411.864 34.08 412.304 33.696C412.752 33.312 413.28 33.12 413.888 33.12C414.496 33.12 415.012 33.264 415.436 33.552C415.492 33.128 415.66 32.788 415.94 32.532C416.228 32.276 416.604 32.148 417.068 32.148L416.984 33.084C416.28 33.084 415.912 33.38 415.88 33.972C416.16 34.316 416.3 34.728 416.3 35.208C416.3 35.824 416.076 36.332 415.628 36.732C415.188 37.124 414.636 37.32 413.972 37.32C413.516 37.32 413.112 37.228 412.76 37.044C412.6 37.076 412.456 37.152 412.328 37.272C412.2 37.384 412.136 37.54 412.136 37.74C412.136 38.164 412.488 38.376 413.192 38.376H415.424C415.96 38.376 416.384 38.492 416.696 38.724C417.008 38.948 417.164 39.264 417.164 39.672C417.164 40.28 416.856 40.812 416.24 41.268C415.632 41.724 414.86 41.952 413.924 41.952C412.988 41.952 412.252 41.776 411.716 41.424C411.18 41.08 410.912 40.644 410.912 40.116C410.912 39.772 411.012 39.492 411.212 39.276C411.42 39.06 411.692 38.908 412.028 38.82ZM411.848 40.08C411.848 40.384 412.012 40.644 412.34 40.86C412.676 41.084 413.18 41.196 413.852 41.196C414.532 41.196 415.096 41.048 415.544 40.752C416 40.464 416.228 40.124 416.228 39.732C416.228 39.548 416.16 39.388 416.024 39.252C415.896 39.124 415.696 39.06 415.424 39.06H413.108C412.7 39.076 412.388 39.172 412.172 39.348C411.956 39.532 411.848 39.776 411.848 40.08ZM415.376 35.208C415.376 34.792 415.252 34.456 415.004 34.2C414.756 33.936 414.412 33.804 413.972 33.804C413.54 33.804 413.2 33.936 412.952 34.2C412.704 34.456 412.58 34.792 412.58 35.208C412.58 35.624 412.704 35.968 412.952 36.24C413.208 36.504 413.552 36.636 413.984 36.636C414.416 36.636 414.756 36.5 415.004 36.228C415.252 35.956 415.376 35.616 415.376 35.208ZM423.413 38.364C424.205 38.364 424.657 38.016 424.769 37.32H425.741C425.653 37.896 425.397 38.344 424.973 38.664C424.557 38.976 424.037 39.132 423.413 39.132C422.645 39.132 422.021 38.86 421.541 38.316C421.061 37.764 420.821 37.032 420.821 36.12C420.821 35.208 421.061 34.48 421.541 33.936C422.029 33.392 422.673 33.12 423.473 33.12C424.281 33.12 424.881 33.432 425.273 34.056C425.673 34.68 425.813 35.44 425.693 36.336H421.769C421.769 36.928 421.913 37.416 422.201 37.8C422.489 38.176 422.893 38.364 423.413 38.364ZM424.109 34.02C423.925 33.924 423.701 33.876 423.437 33.876C422.949 33.876 422.561 34.044 422.273 34.38C421.993 34.708 421.829 35.12 421.781 35.616H424.841C424.841 34.816 424.597 34.284 424.109 34.02ZM428.52 34.368C428.896 33.536 429.54 33.12 430.452 33.12C431.132 33.12 431.66 33.344 432.036 33.792C432.42 34.24 432.612 34.852 432.612 35.628V39H431.676V35.628C431.676 35.076 431.544 34.66 431.28 34.38C431.024 34.1 430.656 33.96 430.176 33.96C429.696 33.96 429.308 34.156 429.012 34.548C428.716 34.94 428.56 35.484 428.544 36.18V39H427.596V33.264H428.412L428.52 34.368ZM437.77 33.264L439.498 38.004L441.238 33.264H442.306L440.026 39H438.982L436.702 33.264H437.77ZM443.793 33.252H444.741V39H443.793V33.252ZM444.261 31.908C444.069 31.908 443.917 31.856 443.805 31.752C443.701 31.64 443.649 31.496 443.649 31.32C443.649 31.136 443.701 30.992 443.805 30.888C443.917 30.776 444.069 30.72 444.261 30.72C444.453 30.72 444.605 30.776 444.717 30.888C444.837 30.992 444.897 31.136 444.897 31.32C444.897 31.496 444.837 31.64 444.717 31.752C444.605 31.856 444.453 31.908 444.261 31.908ZM447.391 33.264L449.119 38.004L450.859 33.264H451.927L449.647 39H448.603L446.323 33.264H447.391ZM455.419 33.12C456.219 33.12 456.863 33.38 457.351 33.9C457.847 34.42 458.095 35.164 458.095 36.132C458.095 37.092 457.847 37.832 457.351 38.352C456.863 38.872 456.219 39.132 455.419 39.132C454.619 39.132 453.971 38.872 453.475 38.352C452.987 37.832 452.743 37.092 452.743 36.132C452.743 35.164 452.987 34.42 453.475 33.9C453.971 33.38 454.619 33.12 455.419 33.12ZM457.135 36.132C457.135 35.444 456.991 34.908 456.703 34.524C456.415 34.132 455.991 33.936 455.431 33.936C454.879 33.936 454.455 34.132 454.159 34.524C453.863 34.908 453.715 35.444 453.715 36.132C453.715 36.812 453.855 37.348 454.135 37.74C454.415 38.124 454.831 38.316 455.383 38.316C455.943 38.316 456.375 38.124 456.679 37.74C456.983 37.348 457.135 36.812 457.135 36.132Z" fill="#333333"/>
<rect x="335.5" y="16.5" width="147" height="37" stroke="#333333"/>
<rect x="393.5" y="115.5" width="98" height="37" fill="white"/>
<path d="M420.946 130.452C421.778 130.452 422.41 130.664 422.842 131.088C423.282 131.504 423.502 132.068 423.502 132.78C423.502 133.492 423.282 134.056 422.842 134.472C422.41 134.88 421.778 135.084 420.946 135.084H419.458V138H418.51V130.452H420.946ZM420.946 134.268C421.466 134.268 421.858 134.136 422.122 133.872C422.394 133.608 422.53 133.248 422.53 132.792C422.53 132.328 422.394 131.96 422.122 131.688C421.858 131.408 421.466 131.268 420.946 131.268H419.458V134.268H420.946ZM427.243 132.12C428.043 132.12 428.687 132.38 429.175 132.9C429.671 133.42 429.919 134.164 429.919 135.132C429.919 136.092 429.671 136.832 429.175 137.352C428.687 137.872 428.043 138.132 427.243 138.132C426.443 138.132 425.795 137.872 425.299 137.352C424.811 136.832 424.567 136.092 424.567 135.132C424.567 134.164 424.811 133.42 425.299 132.9C425.795 132.38 426.443 132.12 427.243 132.12ZM428.959 135.132C428.959 134.444 428.815 133.908 428.527 133.524C428.239 133.132 427.815 132.936 427.255 132.936C426.703 132.936 426.279 133.132 425.983 133.524C425.687 133.908 425.539 134.444 425.539 135.132C425.539 135.812 425.679 136.348 425.959 136.74C426.239 137.124 426.655 137.316 427.207 137.316C427.767 137.316 428.199 137.124 428.503 136.74C428.807 136.348 428.959 135.812 428.959 135.132ZM435.486 133.116V129.828H436.422V138H435.654L435.534 137.04C435.35 137.4 435.106 137.672 434.802 137.856C434.498 138.04 434.166 138.132 433.806 138.132C433.078 138.132 432.466 137.852 431.97 137.292C431.482 136.732 431.238 136.004 431.238 135.108C431.238 134.204 431.478 133.48 431.958 132.936C432.446 132.392 433.058 132.12 433.794 132.12C434.538 132.12 435.102 132.452 435.486 133.116ZM433.854 132.96C433.39 132.96 432.998 133.156 432.678 133.548C432.366 133.94 432.21 134.464 432.21 135.12C432.21 135.776 432.37 136.304 432.69 136.704C433.01 137.096 433.394 137.292 433.842 137.292C434.29 137.292 434.67 137.144 434.982 136.848C435.302 136.544 435.47 136.14 435.486 135.636V134.7C435.486 134.164 435.33 133.74 435.018 133.428C434.706 133.116 434.318 132.96 433.854 132.96ZM440.763 132.12C441.443 132.12 441.983 132.296 442.383 132.648C442.783 132.992 443.043 133.424 443.163 133.944L442.203 134.028C442.099 133.692 441.931 133.432 441.699 133.248C441.467 133.056 441.211 132.96 440.931 132.96C440.419 132.96 440.003 133.152 439.683 133.536C439.371 133.92 439.215 134.444 439.215 135.108C439.215 135.764 439.367 136.292 439.671 136.692C439.983 137.092 440.367 137.292 440.823 137.292C441.287 137.292 441.631 137.188 441.855 136.98C442.087 136.764 442.203 136.46 442.203 136.068H443.175C443.175 136.684 442.959 137.184 442.527 137.568C442.103 137.944 441.547 138.132 440.859 138.132C440.131 138.132 439.511 137.856 438.999 137.304C438.495 136.752 438.243 136.02 438.243 135.108C438.243 134.188 438.495 133.46 438.999 132.924C439.503 132.388 440.091 132.12 440.763 132.12ZM448.582 134.28C448.582 133.76 448.474 133.388 448.258 133.164C448.042 132.94 447.726 132.828 447.31 132.828C446.902 132.828 446.57 132.912 446.314 133.08C446.066 133.24 445.942 133.496 445.942 133.848H444.898C444.898 132.968 445.37 132.424 446.314 132.216C446.602 132.152 446.914 132.12 447.25 132.12C447.962 132.12 448.518 132.3 448.918 132.66C449.318 133.02 449.518 133.568 449.518 134.304V138H448.702L448.606 137.04C448.254 137.768 447.618 138.132 446.698 138.132C446.082 138.132 445.586 137.96 445.21 137.616C444.842 137.272 444.658 136.844 444.658 136.332C444.658 135.82 444.862 135.42 445.27 135.132C445.686 134.844 446.202 134.7 446.818 134.7C447.434 134.7 448.022 134.804 448.582 135.012V134.28ZM448.582 135.612C448.014 135.452 447.518 135.372 447.094 135.372C446.67 135.372 446.326 135.448 446.062 135.6C445.798 135.752 445.666 135.992 445.666 136.32C445.666 137.04 446.074 137.4 446.89 137.4C447.354 137.4 447.75 137.236 448.078 136.908C448.414 136.572 448.582 136.14 448.582 135.612ZM451.445 133.668C451.445 133.196 451.645 132.82 452.045 132.54C452.453 132.26 453.001 132.12 453.689 132.12C454.377 132.12 454.913 132.264 455.297 132.552C455.689 132.84 455.893 133.204 455.909 133.644H454.985C454.913 133.124 454.473 132.864 453.665 132.864C453.273 132.864 452.969 132.952 452.753 133.128C452.545 133.304 452.441 133.496 452.441 133.704C452.441 133.904 452.521 134.076 452.681 134.22C452.841 134.356 453.097 134.476 453.449 134.58L454.601 134.964C455.089 135.116 455.461 135.312 455.717 135.552C455.981 135.784 456.113 136.108 456.113 136.524C456.113 136.932 455.901 137.304 455.477 137.64C455.053 137.968 454.461 138.132 453.701 138.132C452.941 138.132 452.349 137.964 451.925 137.628C451.501 137.284 451.277 136.844 451.253 136.308H452.165C452.181 136.668 452.325 136.94 452.597 137.124C452.877 137.3 453.225 137.388 453.641 137.388C454.057 137.388 454.401 137.3 454.673 137.124C454.945 136.948 455.081 136.74 455.081 136.5C455.081 136.252 455.001 136.064 454.841 135.936C454.681 135.808 454.421 135.696 454.061 135.6L452.945 135.228C451.945 134.932 451.445 134.412 451.445 133.668ZM461.062 137.832C460.374 138.152 459.746 138.22 459.178 138.036C458.77 137.908 458.482 137.64 458.314 137.232C458.226 137.032 458.182 136.792 458.182 136.512V132.984H457.258V132.264H458.182V130.668H459.118V132.264H460.918V132.984H459.118V136.5C459.118 137.084 459.39 137.376 459.934 137.376C460.23 137.376 460.562 137.304 460.93 137.16L461.062 137.832ZM462.273 133.668C462.273 133.196 462.473 132.82 462.873 132.54C463.281 132.26 463.829 132.12 464.517 132.12C465.205 132.12 465.741 132.264 466.125 132.552C466.517 132.84 466.721 133.204 466.737 133.644H465.813C465.741 133.124 465.301 132.864 464.493 132.864C464.101 132.864 463.797 132.952 463.581 133.128C463.373 133.304 463.269 133.496 463.269 133.704C463.269 133.904 463.349 134.076 463.509 134.22C463.669 134.356 463.925 134.476 464.277 134.58L465.429 134.964C465.917 135.116 466.289 135.312 466.545 135.552C466.809 135.784 466.941 136.108 466.941 136.524C466.941 136.932 466.729 137.304 466.305 137.64C465.881 137.968 465.289 138.132 464.529 138.132C463.769 138.132 463.177 137.964 462.753 137.628C462.329 137.284 462.105 136.844 462.081 136.308H462.993C463.009 136.668 463.153 136.94 463.425 137.124C463.705 137.3 464.053 137.388 464.469 137.388C464.885 137.388 465.229 137.3 465.501 137.124C465.773 136.948 465.909 136.74 465.909 136.5C465.909 136.252 465.829 136.064 465.669 135.936C465.509 135.808 465.249 135.696 464.889 135.6L463.773 135.228C462.773 134.932 462.273 134.412 462.273 133.668Z" fill="#333333"/>
<rect x="393.5" y="115.5" width="98" height="37" stroke="#333333"/>
<rect x="669.5" y="114.5" width="93" height="37" fill="white"/>
<path d="M695.488 129.452L699.232 135.512V129.452H700.18V137H699.124L695.32 130.856V137H694.36V129.452H695.488ZM704.663 131.12C705.463 131.12 706.107 131.38 706.595 131.9C707.091 132.42 707.339 133.164 707.339 134.132C707.339 135.092 707.091 135.832 706.595 136.352C706.107 136.872 705.463 137.132 704.663 137.132C703.863 137.132 703.215 136.872 702.719 136.352C702.231 135.832 701.987 135.092 701.987 134.132C701.987 133.164 702.231 132.42 702.719 131.9C703.215 131.38 703.863 131.12 704.663 131.12ZM706.379 134.132C706.379 133.444 706.235 132.908 705.947 132.524C705.659 132.132 705.235 131.936 704.675 131.936C704.123 131.936 703.699 132.132 703.403 132.524C703.107 132.908 702.959 133.444 702.959 134.132C702.959 134.812 703.099 135.348 703.379 135.74C703.659 136.124 704.075 136.316 704.627 136.316C705.187 136.316 705.619 136.124 705.923 135.74C706.227 135.348 706.379 134.812 706.379 134.132ZM712.15 136.832C711.462 137.152 710.834 137.22 710.266 137.036C709.858 136.908 709.57 136.64 709.402 136.232C709.314 136.032 709.27 135.792 709.27 135.512V131.984H708.346V131.264H709.27V129.668H710.206V131.264H712.006V131.984H710.206V135.5C710.206 136.084 710.478 136.376 711.021 136.376C711.317 136.376 711.65 136.304 712.018 136.16L712.15 136.832ZM713.721 131.252H714.669V137H713.721V131.252ZM714.189 129.908C713.997 129.908 713.845 129.856 713.733 129.752C713.629 129.64 713.577 129.496 713.577 129.32C713.577 129.136 713.629 128.992 713.733 128.888C713.845 128.776 713.997 128.72 714.189 128.72C714.381 128.72 714.533 128.776 714.645 128.888C714.765 128.992 714.825 129.136 714.825 129.32C714.825 129.496 714.765 129.64 714.645 129.752C714.533 129.856 714.381 129.908 714.189 129.908ZM719.155 131.12C719.835 131.12 720.375 131.296 720.775 131.648C721.175 131.992 721.435 132.424 721.555 132.944L720.595 133.028C720.491 132.692 720.323 132.432 720.091 132.248C719.859 132.056 719.603 131.96 719.323 131.96C718.811 131.96 718.395 132.152 718.075 132.536C717.763 132.92 717.607 133.444 717.607 134.108C717.607 134.764 717.759 135.292 718.063 135.692C718.375 136.092 718.759 136.292 719.215 136.292C719.679 136.292 720.023 136.188 720.247 135.98C720.479 135.764 720.595 135.46 720.595 135.068H721.567C721.567 135.684 721.351 136.184 720.919 136.568C720.495 136.944 719.939 137.132 719.251 137.132C718.523 137.132 717.903 136.856 717.391 136.304C716.887 135.752 716.635 135.02 716.635 134.108C716.635 133.188 716.887 132.46 717.391 131.924C717.895 131.388 718.483 131.12 719.155 131.12ZM723.483 131.252H724.431V137H723.483V131.252ZM723.951 129.908C723.759 129.908 723.607 129.856 723.495 129.752C723.391 129.64 723.339 129.496 723.339 129.32C723.339 129.136 723.391 128.992 723.495 128.888C723.607 128.776 723.759 128.72 723.951 128.72C724.143 128.72 724.295 128.776 724.407 128.888C724.527 128.992 724.587 129.136 724.587 129.32C724.587 129.496 724.527 129.64 724.407 129.752C724.295 129.856 724.143 129.908 723.951 129.908ZM730.561 133.28C730.561 132.76 730.453 132.388 730.237 132.164C730.021 131.94 729.705 131.828 729.289 131.828C728.881 131.828 728.549 131.912 728.293 132.08C728.045 132.24 727.921 132.496 727.921 132.848H726.877C726.877 131.968 727.349 131.424 728.293 131.216C728.581 131.152 728.893 131.12 729.229 131.12C729.941 131.12 730.497 131.3 730.897 131.66C731.297 132.02 731.497 132.568 731.497 133.304V137H730.681L730.585 136.04C730.233 136.768 729.597 137.132 728.677 137.132C728.061 137.132 727.565 136.96 727.189 136.616C726.821 136.272 726.637 135.844 726.637 135.332C726.637 134.82 726.841 134.42 727.249 134.132C727.665 133.844 728.181 133.7 728.797 133.7C729.413 133.7 730.001 133.804 730.561 134.012V133.28ZM730.561 134.612C729.993 134.452 729.497 134.372 729.073 134.372C728.649 134.372 728.305 134.448 728.041 134.6C727.777 134.752 727.645 134.992 727.645 135.32C727.645 136.04 728.053 136.4 728.869 136.4C729.333 136.4 729.729 136.236 730.057 135.908C730.393 135.572 730.561 135.14 730.561 134.612ZM733.424 132.668C733.424 132.196 733.624 131.82 734.024 131.54C734.432 131.26 734.98 131.12 735.668 131.12C736.356 131.12 736.892 131.264 737.276 131.552C737.668 131.84 737.872 132.204 737.888 132.644H736.964C736.892 132.124 736.452 131.864 735.644 131.864C735.252 131.864 734.948 131.952 734.732 132.128C734.524 132.304 734.42 132.496 734.42 132.704C734.42 132.904 734.5 133.076 734.66 133.22C734.82 133.356 735.076 133.476 735.428 133.58L736.58 133.964C737.068 134.116 737.44 134.312 737.696 134.552C737.96 134.784 738.092 135.108 738.092 135.524C738.092 135.932 737.88 136.304 737.456 136.64C737.032 136.968 736.44 137.132 735.68 137.132C734.92 137.132 734.328 136.964 733.904 136.628C733.48 136.284 733.256 135.844 733.232 135.308H734.144C734.16 135.668 734.304 135.94 734.576 136.124C734.856 136.3 735.204 136.388 735.62 136.388C736.036 136.388 736.38 136.3 736.652 136.124C736.924 135.948 737.06 135.74 737.06 135.5C737.06 135.252 736.98 135.064 736.82 134.936C736.66 134.808 736.4 134.696 736.04 134.6L734.924 134.228C733.924 133.932 733.424 133.412 733.424 132.668Z" fill="#333333"/>
<rect x="669.5" y="114.5" width="93" height="37" stroke="#333333"/>
<rect x="669.5" y="155.5" width="84" height="37" fill="white"/>
<path d="M694.454 170.452L696.614 176.8L698.786 170.452H699.782L697.106 178H696.122L693.458 170.452H694.454ZM701.276 172.252H702.224V178H701.276V172.252ZM701.744 170.908C701.552 170.908 701.4 170.856 701.288 170.752C701.184 170.64 701.132 170.496 701.132 170.32C701.132 170.136 701.184 169.992 701.288 169.888C701.4 169.776 701.552 169.72 701.744 169.72C701.936 169.72 702.088 169.776 702.2 169.888C702.32 169.992 702.38 170.136 702.38 170.32C702.38 170.496 702.32 170.64 702.2 170.752C702.088 170.856 701.936 170.908 701.744 170.908ZM708.558 173.116V169.828H709.494V178H708.726L708.606 177.04C708.422 177.4 708.178 177.672 707.874 177.856C707.57 178.04 707.238 178.132 706.878 178.132C706.15 178.132 705.538 177.852 705.042 177.292C704.554 176.732 704.31 176.004 704.31 175.108C704.31 174.204 704.55 173.48 705.03 172.936C705.518 172.392 706.13 172.12 706.866 172.12C707.61 172.12 708.174 172.452 708.558 173.116ZM706.926 172.96C706.462 172.96 706.07 173.156 705.75 173.548C705.438 173.94 705.282 174.464 705.282 175.12C705.282 175.776 705.442 176.304 705.762 176.704C706.082 177.096 706.466 177.292 706.914 177.292C707.362 177.292 707.742 177.144 708.054 176.848C708.374 176.544 708.542 176.14 708.558 175.636V174.7C708.558 174.164 708.402 173.74 708.09 173.428C707.778 173.116 707.39 172.96 706.926 172.96ZM713.907 177.364C714.699 177.364 715.151 177.016 715.263 176.32H716.235C716.147 176.896 715.891 177.344 715.467 177.664C715.051 177.976 714.531 178.132 713.907 178.132C713.139 178.132 712.515 177.86 712.035 177.316C711.555 176.764 711.315 176.032 711.315 175.12C711.315 174.208 711.555 173.48 712.035 172.936C712.523 172.392 713.167 172.12 713.967 172.12C714.775 172.12 715.375 172.432 715.767 173.056C716.167 173.68 716.307 174.44 716.187 175.336H712.263C712.263 175.928 712.407 176.416 712.695 176.8C712.983 177.176 713.387 177.364 713.907 177.364ZM714.603 173.02C714.419 172.924 714.195 172.876 713.931 172.876C713.443 172.876 713.055 173.044 712.767 173.38C712.487 173.708 712.323 174.12 712.275 174.616H715.335C715.335 173.816 715.091 173.284 714.603 173.02ZM720.167 172.12C720.967 172.12 721.611 172.38 722.099 172.9C722.595 173.42 722.843 174.164 722.843 175.132C722.843 176.092 722.595 176.832 722.099 177.352C721.611 177.872 720.967 178.132 720.167 178.132C719.367 178.132 718.719 177.872 718.223 177.352C717.735 176.832 717.491 176.092 717.491 175.132C717.491 174.164 717.735 173.42 718.223 172.9C718.719 172.38 719.367 172.12 720.167 172.12ZM721.883 175.132C721.883 174.444 721.739 173.908 721.451 173.524C721.163 173.132 720.739 172.936 720.179 172.936C719.627 172.936 719.203 173.132 718.907 173.524C718.611 173.908 718.463 174.444 718.463 175.132C718.463 175.812 718.603 176.348 718.883 176.74C719.163 177.124 719.579 177.316 720.131 177.316C720.691 177.316 721.123 177.124 721.427 176.74C721.731 176.348 721.883 175.812 721.883 175.132ZM724.353 173.668C724.353 173.196 724.553 172.82 724.953 172.54C725.361 172.26 725.909 172.12 726.597 172.12C727.285 172.12 727.821 172.264 728.205 172.552C728.597 172.84 728.801 173.204 728.817 173.644H727.893C727.821 173.124 727.381 172.864 726.573 172.864C726.181 172.864 725.877 172.952 725.661 173.128C725.453 173.304 725.349 173.496 725.349 173.704C725.349 173.904 725.429 174.076 725.589 174.22C725.749 174.356 726.005 174.476 726.357 174.58L727.509 174.964C727.997 175.116 728.369 175.312 728.625 175.552C728.889 175.784 729.021 176.108 729.021 176.524C729.021 176.932 728.809 177.304 728.385 177.64C727.961 177.968 727.369 178.132 726.609 178.132C725.849 178.132 725.257 177.964 724.833 177.628C724.409 177.284 724.185 176.844 724.161 176.308H725.073C725.089 176.668 725.233 176.94 725.505 177.124C725.785 177.3 726.133 177.388 726.549 177.388C726.965 177.388 727.309 177.3 727.581 177.124C727.853 176.948 727.989 176.74 727.989 176.5C727.989 176.252 727.909 176.064 727.749 175.936C727.589 175.808 727.329 175.696 726.969 175.6L725.853 175.228C724.853 174.932 724.353 174.412 724.353 173.668Z" fill="#333333"/>
<rect x="669.5" y="155.5" width="84" height="37" stroke="#333333"/>
<rect x="669.5" y="237.5" width="84" height="37" fill="white"/>
<path d="M693.15 252.452H699.018V253.268H696.558V260H695.61V253.268H693.15V252.452ZM700.362 254.252H701.31V260H700.362V254.252ZM700.83 252.908C700.638 252.908 700.486 252.856 700.374 252.752C700.27 252.64 700.218 252.496 700.218 252.32C700.218 252.136 700.27 251.992 700.374 251.888C700.486 251.776 700.638 251.72 700.83 251.72C701.022 251.72 701.174 251.776 701.286 251.888C701.406 251.992 701.466 252.136 701.466 252.32C701.466 252.496 701.406 252.64 701.286 252.752C701.174 252.856 701.022 252.908 700.83 252.908ZM705.868 259.364C706.66 259.364 707.112 259.016 707.224 258.32H708.196C708.108 258.896 707.852 259.344 707.428 259.664C707.012 259.976 706.492 260.132 705.868 260.132C705.1 260.132 704.476 259.86 703.996 259.316C703.516 258.764 703.276 258.032 703.276 257.12C703.276 256.208 703.516 255.48 703.996 254.936C704.484 254.392 705.128 254.12 705.928 254.12C706.736 254.12 707.336 254.432 707.728 255.056C708.128 255.68 708.268 256.44 708.148 257.336H704.224C704.224 257.928 704.368 258.416 704.656 258.8C704.944 259.176 705.348 259.364 705.868 259.364ZM706.564 255.02C706.38 254.924 706.156 254.876 705.892 254.876C705.404 254.876 705.016 255.044 704.728 255.38C704.448 255.708 704.284 256.12 704.236 256.616H707.296C707.296 255.816 707.052 255.284 706.564 255.02ZM710.976 255.368C711.352 254.536 711.996 254.12 712.908 254.12C713.588 254.12 714.116 254.344 714.492 254.792C714.876 255.24 715.068 255.852 715.068 256.628V260H714.132V256.628C714.132 256.076 714 255.66 713.736 255.38C713.48 255.1 713.112 254.96 712.632 254.96C712.152 254.96 711.764 255.156 711.468 255.548C711.172 255.94 711.016 256.484 711 257.18V260H710.052V254.264H710.868L710.976 255.368ZM721.05 255.116V251.828H721.986V260H721.218L721.098 259.04C720.914 259.4 720.67 259.672 720.366 259.856C720.062 260.04 719.73 260.132 719.37 260.132C718.642 260.132 718.03 259.852 717.534 259.292C717.046 258.732 716.802 258.004 716.802 257.108C716.802 256.204 717.042 255.48 717.522 254.936C718.01 254.392 718.622 254.12 719.358 254.12C720.102 254.12 720.666 254.452 721.05 255.116ZM719.418 254.96C718.954 254.96 718.562 255.156 718.242 255.548C717.93 255.94 717.774 256.464 717.774 257.12C717.774 257.776 717.934 258.304 718.254 258.704C718.574 259.096 718.958 259.292 719.406 259.292C719.854 259.292 720.234 259.144 720.546 258.848C720.866 258.544 721.034 258.14 721.05 257.636V256.7C721.05 256.164 720.894 255.74 720.582 255.428C720.27 255.116 719.882 254.96 719.418 254.96ZM727.971 256.28C727.971 255.76 727.863 255.388 727.647 255.164C727.431 254.94 727.115 254.828 726.699 254.828C726.291 254.828 725.959 254.912 725.703 255.08C725.455 255.24 725.331 255.496 725.331 255.848H724.287C724.287 254.968 724.759 254.424 725.703 254.216C725.991 254.152 726.303 254.12 726.639 254.12C727.351 254.12 727.907 254.3 728.307 254.66C728.707 255.02 728.907 255.568 728.907 256.304V260H728.091L727.995 259.04C727.643 259.768 727.007 260.132 726.087 260.132C725.471 260.132 724.975 259.96 724.599 259.616C724.231 259.272 724.047 258.844 724.047 258.332C724.047 257.82 724.251 257.42 724.659 257.132C725.075 256.844 725.591 256.7 726.207 256.7C726.823 256.7 727.411 256.804 727.971 257.012V256.28ZM727.971 257.612C727.403 257.452 726.907 257.372 726.483 257.372C726.059 257.372 725.715 257.448 725.451 257.6C725.187 257.752 725.055 257.992 725.055 258.32C725.055 259.04 725.463 259.4 726.279 259.4C726.743 259.4 727.139 259.236 727.467 258.908C727.803 258.572 727.971 258.14 727.971 257.612Z" fill="#333333"/>
<rect x="669.5" y="237.5" width="84" height="37" stroke="#333333"/>
<rect x="669.5" y="196.5" width="104" height="37" fill="white"/>
<path d="M697.314 211.32C698.122 211.32 698.77 211.524 699.258 211.932C699.754 212.332 700.094 212.856 700.278 213.504L699.258 213.708C699.098 213.236 698.846 212.864 698.502 212.592C698.166 212.312 697.77 212.172 697.314 212.172C696.682 212.172 696.158 212.436 695.742 212.964C695.326 213.492 695.118 214.228 695.118 215.172C695.118 216.108 695.302 216.86 695.67 217.428C696.046 217.996 696.594 218.28 697.314 218.28C697.914 218.28 698.386 218.124 698.73 217.812C699.082 217.492 699.258 217.072 699.258 216.552H700.278C700.278 217.344 700.006 217.972 699.462 218.436C698.926 218.9 698.186 219.132 697.242 219.132C696.306 219.132 695.546 218.772 694.962 218.052C694.386 217.332 694.098 216.368 694.098 215.16C694.098 213.952 694.398 213.012 694.998 212.34C695.598 211.66 696.37 211.32 697.314 211.32ZM704.122 213.12C704.922 213.12 705.566 213.38 706.054 213.9C706.55 214.42 706.798 215.164 706.798 216.132C706.798 217.092 706.55 217.832 706.054 218.352C705.566 218.872 704.922 219.132 704.122 219.132C703.322 219.132 702.674 218.872 702.178 218.352C701.69 217.832 701.446 217.092 701.446 216.132C701.446 215.164 701.69 214.42 702.178 213.9C702.674 213.38 703.322 213.12 704.122 213.12ZM705.838 216.132C705.838 215.444 705.694 214.908 705.406 214.524C705.118 214.132 704.694 213.936 704.134 213.936C703.582 213.936 703.158 214.132 702.862 214.524C702.566 214.908 702.418 215.444 702.418 216.132C702.418 216.812 702.558 217.348 702.838 217.74C703.118 218.124 703.534 218.316 704.086 218.316C704.646 218.316 705.078 218.124 705.382 217.74C705.686 217.348 705.838 216.812 705.838 216.132ZM708.608 210.828H709.556V219H708.608V210.828ZM715.872 217.86C715.48 218.692 714.844 219.108 713.964 219.108C713.316 219.108 712.792 218.928 712.392 218.568C712 218.208 711.804 217.652 711.804 216.9V213.252H712.752V216.828C712.752 217.796 713.2 218.28 714.096 218.28C714.616 218.28 715.036 218.08 715.356 217.68C715.684 217.28 715.856 216.768 715.872 216.144V213.252H716.82V219H715.872V217.86ZM720.161 214.368C720.537 213.536 721.181 213.12 722.093 213.12C722.589 213.12 723.005 213.244 723.341 213.492C723.677 213.732 723.921 214.068 724.073 214.5C724.433 213.58 725.101 213.12 726.077 213.12C726.765 213.12 727.297 213.344 727.673 213.792C728.049 214.24 728.237 214.852 728.237 215.628V219H727.301V215.628C727.301 215.076 727.169 214.66 726.905 214.38C726.649 214.1 726.277 213.96 725.789 213.96C725.301 213.96 724.921 214.16 724.649 214.56C724.385 214.96 724.253 215.512 724.253 216.216V219H723.317V215.628C723.317 215.076 723.185 214.66 722.921 214.38C722.665 214.1 722.297 213.96 721.817 213.96C721.337 213.96 720.949 214.156 720.653 214.548C720.357 214.94 720.201 215.484 720.185 216.18V219H719.237V213.264H720.053L720.161 214.368ZM731.376 214.368C731.752 213.536 732.396 213.12 733.308 213.12C733.988 213.12 734.516 213.344 734.892 213.792C735.276 214.24 735.468 214.852 735.468 215.628V219H734.532V215.628C734.532 215.076 734.4 214.66 734.136 214.38C733.88 214.1 733.512 213.96 733.032 213.96C732.552 213.96 732.164 214.156 731.868 214.548C731.572 214.94 731.416 215.484 731.4 216.18V219H730.452V213.264H731.268L731.376 214.368ZM741.246 215.28C741.246 214.76 741.138 214.388 740.922 214.164C740.706 213.94 740.39 213.828 739.974 213.828C739.566 213.828 739.234 213.912 738.978 214.08C738.73 214.24 738.606 214.496 738.606 214.848H737.562C737.562 213.968 738.034 213.424 738.978 213.216C739.266 213.152 739.578 213.12 739.914 213.12C740.626 213.12 741.182 213.3 741.582 213.66C741.982 214.02 742.182 214.568 742.182 215.304V219H741.366L741.27 218.04C740.918 218.768 740.282 219.132 739.362 219.132C738.746 219.132 738.25 218.96 737.874 218.616C737.506 218.272 737.322 217.844 737.322 217.332C737.322 216.82 737.526 216.42 737.934 216.132C738.35 215.844 738.866 215.7 739.482 215.7C740.098 215.7 740.686 215.804 741.246 216.012V215.28ZM741.246 216.612C740.678 216.452 740.182 216.372 739.758 216.372C739.334 216.372 738.99 216.448 738.726 216.6C738.462 216.752 738.33 216.992 738.33 217.32C738.33 218.04 738.738 218.4 739.554 218.4C740.018 218.4 740.414 218.236 740.742 217.908C741.078 217.572 741.246 217.14 741.246 216.612ZM744.109 214.668C744.109 214.196 744.309 213.82 744.709 213.54C745.117 213.26 745.665 213.12 746.353 213.12C747.041 213.12 747.577 213.264 747.961 213.552C748.353 213.84 748.557 214.204 748.573 214.644H747.649C747.577 214.124 747.137 213.864 746.329 213.864C745.937 213.864 745.633 213.952 745.417 214.128C745.209 214.304 745.105 214.496 745.105 214.704C745.105 214.904 745.185 215.076 745.345 215.22C745.505 215.356 745.761 215.476 746.113 215.58L747.265 215.964C747.753 216.116 748.125 216.312 748.381 216.552C748.645 216.784 748.777 217.108 748.777 217.524C748.777 217.932 748.565 218.304 748.141 218.64C747.717 218.968 747.125 219.132 746.365 219.132C745.605 219.132 745.013 218.964 744.589 218.628C744.165 218.284 743.941 217.844 743.917 217.308H744.829C744.845 217.668 744.989 217.94 745.261 218.124C745.541 218.3 745.889 218.388 746.305 218.388C746.721 218.388 747.065 218.3 747.337 218.124C747.609 217.948 747.745 217.74 747.745 217.5C747.745 217.252 747.665 217.064 747.505 216.936C747.345 216.808 747.085 216.696 746.725 216.6L745.609 216.228C744.609 215.932 744.109 215.412 744.109 214.668Z" fill="#333333"/>
<rect x="669.5" y="196.5" width="104" height="37" stroke="#333333"/>
<rect x="669.5" y="278.5" width="73" height="37" fill="white"/>
<path d="M697.324 293.32C698.132 293.32 698.78 293.524 699.268 293.932C699.764 294.332 700.104 294.856 700.288 295.504L699.268 295.708C699.108 295.236 698.856 294.864 698.512 294.592C698.176 294.312 697.78 294.172 697.324 294.172C696.692 294.172 696.168 294.436 695.752 294.964C695.336 295.492 695.128 296.228 695.128 297.172C695.128 298.108 695.312 298.86 695.68 299.428C696.056 299.996 696.604 300.28 697.324 300.28C697.924 300.28 698.396 300.124 698.74 299.812C699.092 299.492 699.268 299.072 699.268 298.552H700.288C700.288 299.344 700.016 299.972 699.472 300.436C698.936 300.9 698.196 301.132 697.252 301.132C696.316 301.132 695.556 300.772 694.972 300.052C694.396 299.332 694.108 298.368 694.108 297.16C694.108 295.952 694.408 295.012 695.008 294.34C695.608 293.66 696.38 293.32 697.324 293.32ZM702.067 292.828H703.015V301H702.067V292.828ZM709.331 299.86C708.939 300.692 708.303 301.108 707.423 301.108C706.775 301.108 706.251 300.928 705.851 300.568C705.459 300.208 705.263 299.652 705.263 298.9V295.252H706.211V298.828C706.211 299.796 706.659 300.28 707.555 300.28C708.075 300.28 708.495 300.08 708.815 299.68C709.143 299.28 709.315 298.768 709.331 298.144V295.252H710.279V301H709.331V299.86ZM713.656 296.116C714.04 295.452 714.6 295.12 715.336 295.12C716.072 295.12 716.684 295.396 717.172 295.948C717.66 296.492 717.904 297.216 717.904 298.12C717.904 299.016 717.656 299.744 717.16 300.304C716.664 300.856 716.06 301.132 715.348 301.132C714.964 301.132 714.616 301.036 714.304 300.844C714 300.652 713.76 300.368 713.584 299.992L713.368 301H712.708V292.828H713.656V296.116ZM715.276 295.96C714.82 295.96 714.44 296.108 714.136 296.404C713.832 296.692 713.672 297.096 713.656 297.616V298.552C713.656 299.08 713.812 299.504 714.124 299.824C714.444 300.136 714.828 300.292 715.276 300.292C715.724 300.292 716.112 300.096 716.44 299.704C716.768 299.304 716.932 298.776 716.932 298.12C716.932 297.464 716.768 296.94 716.44 296.548C716.12 296.156 715.732 295.96 715.276 295.96Z" fill="#333333"/>
<rect x="669.5" y="278.5" width="73" height="37" stroke="#333333"/>
<rect x="148.5" y="115.5" width="108" height="37" fill="white"/>
<path d="M176.083 130.452C176.915 130.452 177.547 130.664 177.979 131.088C178.419 131.504 178.639 132.068 178.639 132.78C178.639 133.492 178.419 134.056 177.979 134.472C177.547 134.88 176.915 135.084 176.083 135.084H174.595V138H173.647V130.452H176.083ZM176.083 134.268C176.603 134.268 176.995 134.136 177.259 133.872C177.531 133.608 177.667 133.248 177.667 132.792C177.667 132.328 177.531 131.96 177.259 131.688C176.995 131.408 176.603 131.268 176.083 131.268H174.595V134.268H176.083ZM182.656 133.068C181.752 133.068 181.284 133.78 181.252 135.204V138H180.304V132.252H181.252V133.356C181.54 132.556 182.048 132.156 182.776 132.156C183.008 132.156 183.228 132.192 183.436 132.264L183.388 133.188C183.148 133.108 182.904 133.068 182.656 133.068ZM186.95 132.12C187.75 132.12 188.394 132.38 188.882 132.9C189.378 133.42 189.626 134.164 189.626 135.132C189.626 136.092 189.378 136.832 188.882 137.352C188.394 137.872 187.75 138.132 186.95 138.132C186.15 138.132 185.502 137.872 185.006 137.352C184.518 136.832 184.274 136.092 184.274 135.132C184.274 134.164 184.518 133.42 185.006 132.9C185.502 132.38 186.15 132.12 186.95 132.12ZM188.666 135.132C188.666 134.444 188.522 133.908 188.234 133.524C187.946 133.132 187.522 132.936 186.962 132.936C186.41 132.936 185.986 133.132 185.69 133.524C185.394 133.908 185.246 134.444 185.246 135.132C185.246 135.812 185.386 136.348 185.666 136.74C185.946 137.124 186.362 137.316 186.914 137.316C187.474 137.316 187.906 137.124 188.21 136.74C188.514 136.348 188.666 135.812 188.666 135.132ZM191.677 137.82C191.197 137.588 190.957 137.232 190.957 136.752C190.957 136.504 191.049 136.288 191.233 136.104C191.425 135.912 191.661 135.784 191.941 135.72C191.509 135.336 191.293 134.832 191.293 134.208C191.293 133.584 191.513 133.08 191.953 132.696C192.401 132.312 192.929 132.12 193.537 132.12C194.145 132.12 194.661 132.264 195.085 132.552C195.141 132.128 195.309 131.788 195.589 131.532C195.877 131.276 196.253 131.148 196.717 131.148L196.633 132.084C195.929 132.084 195.561 132.38 195.529 132.972C195.809 133.316 195.949 133.728 195.949 134.208C195.949 134.824 195.725 135.332 195.277 135.732C194.837 136.124 194.285 136.32 193.621 136.32C193.165 136.32 192.761 136.228 192.409 136.044C192.249 136.076 192.105 136.152 191.977 136.272C191.849 136.384 191.785 136.54 191.785 136.74C191.785 137.164 192.137 137.376 192.841 137.376H195.073C195.609 137.376 196.033 137.492 196.345 137.724C196.657 137.948 196.813 138.264 196.813 138.672C196.813 139.28 196.505 139.812 195.889 140.268C195.281 140.724 194.509 140.952 193.573 140.952C192.637 140.952 191.901 140.776 191.365 140.424C190.829 140.08 190.561 139.644 190.561 139.116C190.561 138.772 190.661 138.492 190.861 138.276C191.069 138.06 191.341 137.908 191.677 137.82ZM191.497 139.08C191.497 139.384 191.661 139.644 191.989 139.86C192.325 140.084 192.829 140.196 193.501 140.196C194.181 140.196 194.745 140.048 195.193 139.752C195.649 139.464 195.877 139.124 195.877 138.732C195.877 138.548 195.809 138.388 195.673 138.252C195.545 138.124 195.345 138.06 195.073 138.06H192.757C192.349 138.076 192.037 138.172 191.821 138.348C191.605 138.532 191.497 138.776 191.497 139.08ZM195.025 134.208C195.025 133.792 194.901 133.456 194.653 133.2C194.405 132.936 194.061 132.804 193.621 132.804C193.189 132.804 192.849 132.936 192.601 133.2C192.353 133.456 192.229 133.792 192.229 134.208C192.229 134.624 192.353 134.968 192.601 135.24C192.857 135.504 193.201 135.636 193.633 135.636C194.065 135.636 194.405 135.5 194.653 135.228C194.901 134.956 195.025 134.616 195.025 134.208ZM200.562 133.068C199.658 133.068 199.19 133.78 199.158 135.204V138H198.21V132.252H199.158V133.356C199.446 132.556 199.954 132.156 200.682 132.156C200.914 132.156 201.134 132.192 201.342 132.264L201.294 133.188C201.054 133.108 200.81 133.068 200.562 133.068ZM206.344 134.28C206.344 133.76 206.236 133.388 206.02 133.164C205.804 132.94 205.488 132.828 205.072 132.828C204.664 132.828 204.332 132.912 204.076 133.08C203.828 133.24 203.704 133.496 203.704 133.848H202.66C202.66 132.968 203.132 132.424 204.076 132.216C204.364 132.152 204.676 132.12 205.012 132.12C205.724 132.12 206.28 132.3 206.68 132.66C207.08 133.02 207.28 133.568 207.28 134.304V138H206.464L206.368 137.04C206.016 137.768 205.38 138.132 204.46 138.132C203.844 138.132 203.348 137.96 202.972 137.616C202.604 137.272 202.42 136.844 202.42 136.332C202.42 135.82 202.624 135.42 203.032 135.132C203.448 134.844 203.964 134.7 204.58 134.7C205.196 134.7 205.784 134.804 206.344 135.012V134.28ZM206.344 135.612C205.776 135.452 205.28 135.372 204.856 135.372C204.432 135.372 204.088 135.448 203.824 135.6C203.56 135.752 203.428 135.992 203.428 136.32C203.428 137.04 203.836 137.4 204.652 137.4C205.116 137.4 205.512 137.236 205.84 136.908C206.176 136.572 206.344 136.14 206.344 135.612ZM210.419 133.368C210.795 132.536 211.439 132.12 212.351 132.12C212.847 132.12 213.263 132.244 213.599 132.492C213.935 132.732 214.179 133.068 214.331 133.5C214.691 132.58 215.359 132.12 216.335 132.12C217.023 132.12 217.555 132.344 217.931 132.792C218.307 133.24 218.495 133.852 218.495 134.628V138H217.559V134.628C217.559 134.076 217.427 133.66 217.163 133.38C216.907 133.1 216.535 132.96 216.047 132.96C215.559 132.96 215.179 133.16 214.907 133.56C214.643 133.96 214.511 134.512 214.511 135.216V138H213.575V134.628C213.575 134.076 213.443 133.66 213.179 133.38C212.923 133.1 212.555 132.96 212.075 132.96C211.595 132.96 211.207 133.156 210.911 133.548C210.615 133.94 210.459 134.484 210.443 135.18V138H209.495V132.264H210.311L210.419 133.368ZM224.274 134.28C224.274 133.76 224.166 133.388 223.95 133.164C223.734 132.94 223.418 132.828 223.002 132.828C222.594 132.828 222.262 132.912 222.006 133.08C221.758 133.24 221.634 133.496 221.634 133.848H220.59C220.59 132.968 221.062 132.424 222.006 132.216C222.294 132.152 222.606 132.12 222.942 132.12C223.654 132.12 224.21 132.3 224.61 132.66C225.01 133.02 225.21 133.568 225.21 134.304V138H224.394L224.298 137.04C223.946 137.768 223.31 138.132 222.39 138.132C221.774 138.132 221.278 137.96 220.902 137.616C220.534 137.272 220.35 136.844 220.35 136.332C220.35 135.82 220.554 135.42 220.962 135.132C221.378 134.844 221.894 134.7 222.51 134.7C223.126 134.7 223.714 134.804 224.274 135.012V134.28ZM224.274 135.612C223.706 135.452 223.21 135.372 222.786 135.372C222.362 135.372 222.018 135.448 221.754 135.6C221.49 135.752 221.358 135.992 221.358 136.32C221.358 137.04 221.766 137.4 222.582 137.4C223.046 137.4 223.442 137.236 223.77 136.908C224.106 136.572 224.274 136.14 224.274 135.612ZM227.137 133.668C227.137 133.196 227.337 132.82 227.737 132.54C228.145 132.26 228.693 132.12 229.381 132.12C230.069 132.12 230.605 132.264 230.989 132.552C231.381 132.84 231.585 133.204 231.601 133.644H230.677C230.605 133.124 230.165 132.864 229.357 132.864C228.965 132.864 228.661 132.952 228.445 133.128C228.237 133.304 228.133 133.496 228.133 133.704C228.133 133.904 228.213 134.076 228.373 134.22C228.533 134.356 228.789 134.476 229.141 134.58L230.293 134.964C230.781 135.116 231.153 135.312 231.409 135.552C231.673 135.784 231.805 136.108 231.805 136.524C231.805 136.932 231.593 137.304 231.169 137.64C230.745 137.968 230.153 138.132 229.393 138.132C228.633 138.132 228.041 137.964 227.617 137.628C227.193 137.284 226.969 136.844 226.945 136.308H227.857C227.873 136.668 228.017 136.94 228.289 137.124C228.569 137.3 228.917 137.388 229.333 137.388C229.749 137.388 230.093 137.3 230.365 137.124C230.637 136.948 230.773 136.74 230.773 136.5C230.773 136.252 230.693 136.064 230.533 135.936C230.373 135.808 230.113 135.696 229.753 135.6L228.637 135.228C227.637 134.932 227.137 134.412 227.137 133.668Z" fill="#333333"/>
<rect x="148.5" y="115.5" width="108" height="37" stroke="#333333"/>
<rect x="423.5" y="168.5" width="54" height="37" fill="white"/>
<path d="M448.339 191.108C448.139 191.108 447.971 191.044 447.835 190.916C447.707 190.78 447.643 190.62 447.643 190.436C447.643 190.244 447.707 190.084 447.835 189.956C447.971 189.82 448.139 189.752 448.339 189.752C448.547 189.752 448.719 189.82 448.855 189.956C448.991 190.084 449.059 190.244 449.059 190.436C449.059 190.62 448.991 190.78 448.855 190.916C448.719 191.044 448.547 191.108 448.339 191.108ZM450.484 191.108C450.284 191.108 450.116 191.044 449.98 190.916C449.852 190.78 449.788 190.62 449.788 190.436C449.788 190.244 449.852 190.084 449.98 189.956C450.116 189.82 450.284 189.752 450.484 189.752C450.692 189.752 450.864 189.82 451 189.956C451.136 190.084 451.204 190.244 451.204 190.436C451.204 190.62 451.136 190.78 451 190.916C450.864 191.044 450.692 191.108 450.484 191.108ZM452.628 191.108C452.428 191.108 452.26 191.044 452.124 190.916C451.996 190.78 451.932 190.62 451.932 190.436C451.932 190.244 451.996 190.084 452.124 189.956C452.26 189.82 452.428 189.752 452.628 189.752C452.836 189.752 453.008 189.82 453.144 189.956C453.28 190.084 453.348 190.244 453.348 190.436C453.348 190.62 453.28 190.78 453.144 190.916C453.008 191.044 452.836 191.108 452.628 191.108Z" fill="#333333"/>
<rect x="423.5" y="168.5" width="54" height="37" stroke="#333333"/>
<rect x="777.5" y="114.5" width="54" height="37" fill="white"/>
<path d="M802.339 137.108C802.139 137.108 801.971 137.044 801.835 136.916C801.707 136.78 801.643 136.62 801.643 136.436C801.643 136.244 801.707 136.084 801.835 135.956C801.971 135.82 802.139 135.752 802.339 135.752C802.547 135.752 802.719 135.82 802.855 135.956C802.991 136.084 803.059 136.244 803.059 136.436C803.059 136.62 802.991 136.78 802.855 136.916C802.719 137.044 802.547 137.108 802.339 137.108ZM804.484 137.108C804.284 137.108 804.116 137.044 803.98 136.916C803.852 136.78 803.788 136.62 803.788 136.436C803.788 136.244 803.852 136.084 803.98 135.956C804.116 135.82 804.284 135.752 804.484 135.752C804.692 135.752 804.864 135.82 805 135.956C805.136 136.084 805.204 136.244 805.204 136.436C805.204 136.62 805.136 136.78 805 136.916C804.864 137.044 804.692 137.108 804.484 137.108ZM806.628 137.108C806.428 137.108 806.26 137.044 806.124 136.916C805.996 136.78 805.932 136.62 805.932 136.436C805.932 136.244 805.996 136.084 806.124 135.956C806.26 135.82 806.428 135.752 806.628 135.752C806.836 135.752 807.008 135.82 807.144 135.956C807.28 136.084 807.348 136.244 807.348 136.436C807.348 136.62 807.28 136.78 807.144 136.916C807.008 137.044 806.836 137.108 806.628 137.108Z" fill="#333333"/>
<rect x="777.5" y="114.5" width="54" height="37" stroke="#333333"/>
<rect x="767.5" y="155.5" width="54" height="37" fill="white"/>
<path d="M792.339 178.108C792.139 178.108 791.971 178.044 791.835 177.916C791.707 177.78 791.643 177.62 791.643 177.436C791.643 177.244 791.707 177.084 791.835 176.956C791.971 176.82 792.139 176.752 792.339 176.752C792.547 176.752 792.719 176.82 792.855 176.956C792.991 177.084 793.059 177.244 793.059 177.436C793.059 177.62 792.991 177.78 792.855 177.916C792.719 178.044 792.547 178.108 792.339 178.108ZM794.484 178.108C794.284 178.108 794.116 178.044 793.98 177.916C793.852 177.78 793.788 177.62 793.788 177.436C793.788 177.244 793.852 177.084 793.98 176.956C794.116 176.82 794.284 176.752 794.484 176.752C794.692 176.752 794.864 176.82 795 176.956C795.136 177.084 795.204 177.244 795.204 177.436C795.204 177.62 795.136 177.78 795 177.916C794.864 178.044 794.692 178.108 794.484 178.108ZM796.628 178.108C796.428 178.108 796.26 178.044 796.124 177.916C795.996 177.78 795.932 177.62 795.932 177.436C795.932 177.244 795.996 177.084 796.124 176.956C796.26 176.82 796.428 176.752 796.628 176.752C796.836 176.752 797.008 176.82 797.144 176.956C797.28 177.084 797.348 177.244 797.348 177.436C797.348 177.62 797.28 177.78 797.144 177.916C797.008 178.044 796.836 178.108 796.628 178.108Z" fill="#333333"/>
<rect x="767.5" y="155.5" width="54" height="37" stroke="#333333"/>
<rect x="787.5" y="196.5" width="54" height="37" fill="white"/>
<path d="M812.339 219.108C812.139 219.108 811.971 219.044 811.835 218.916C811.707 218.78 811.643 218.62 811.643 218.436C811.643 218.244 811.707 218.084 811.835 217.956C811.971 217.82 812.139 217.752 812.339 217.752C812.547 217.752 812.719 217.82 812.855 217.956C812.991 218.084 813.059 218.244 813.059 218.436C813.059 218.62 812.991 218.78 812.855 218.916C812.719 219.044 812.547 219.108 812.339 219.108ZM814.484 219.108C814.284 219.108 814.116 219.044 813.98 218.916C813.852 218.78 813.788 218.62 813.788 218.436C813.788 218.244 813.852 218.084 813.98 217.956C814.116 217.82 814.284 217.752 814.484 217.752C814.692 217.752 814.864 217.82 815 217.956C815.136 218.084 815.204 218.244 815.204 218.436C815.204 218.62 815.136 218.78 815 218.916C814.864 219.044 814.692 219.108 814.484 219.108ZM816.628 219.108C816.428 219.108 816.26 219.044 816.124 218.916C815.996 218.78 815.932 218.62 815.932 218.436C815.932 218.244 815.996 218.084 816.124 217.956C816.26 217.82 816.428 217.752 816.628 217.752C816.836 217.752 817.008 217.82 817.144 217.956C817.28 218.084 817.348 218.244 817.348 218.436C817.348 218.62 817.28 218.78 817.144 218.916C817.008 219.044 816.836 219.108 816.628 219.108Z" fill="#333333"/>
<rect x="787.5" y="196.5" width="54" height="37" stroke="#333333"/>
<rect x="178.5" y="168.5" width="54" height="37" fill="white"/>
<path d="M203.339 191.108C203.139 191.108 202.971 191.044 202.835 190.916C202.707 190.78 202.643 190.62 202.643 190.436C202.643 190.244 202.707 190.084 202.835 189.956C202.971 189.82 203.139 189.752 203.339 189.752C203.547 189.752 203.719 189.82 203.855 189.956C203.991 190.084 204.059 190.244 204.059 190.436C204.059 190.62 203.991 190.78 203.855 190.916C203.719 191.044 203.547 191.108 203.339 191.108ZM205.484 191.108C205.284 191.108 205.116 191.044 204.98 190.916C204.852 190.78 204.788 190.62 204.788 190.436C204.788 190.244 204.852 190.084 204.98 189.956C205.116 189.82 205.284 189.752 205.484 189.752C205.692 189.752 205.864 189.82 206 189.956C206.136 190.084 206.204 190.244 206.204 190.436C206.204 190.62 206.136 190.78 206 190.916C205.864 191.044 205.692 191.108 205.484 191.108ZM207.628 191.108C207.428 191.108 207.26 191.044 207.124 190.916C206.996 190.78 206.932 190.62 206.932 190.436C206.932 190.244 206.996 190.084 207.124 189.956C207.26 189.82 207.428 189.752 207.628 189.752C207.836 189.752 208.008 189.82 208.144 189.956C208.28 190.084 208.348 190.244 208.348 190.436C208.348 190.62 208.28 190.78 208.144 190.916C208.008 191.044 207.836 191.108 207.628 191.108Z" fill="#333333"/>
<rect x="178.5" y="168.5" width="54" height="37" stroke="#333333"/>
<rect x="423.5" y="209.5" width="54" height="37" fill="white"/>
<path d="M448.339 232.108C448.139 232.108 447.971 232.044 447.835 231.916C447.707 231.78 447.643 231.62 447.643 231.436C447.643 231.244 447.707 231.084 447.835 230.956C447.971 230.82 448.139 230.752 448.339 230.752C448.547 230.752 448.719 230.82 448.855 230.956C448.991 231.084 449.059 231.244 449.059 231.436C449.059 231.62 448.991 231.78 448.855 231.916C448.719 232.044 448.547 232.108 448.339 232.108ZM450.484 232.108C450.284 232.108 450.116 232.044 449.98 231.916C449.852 231.78 449.788 231.62 449.788 231.436C449.788 231.244 449.852 231.084 449.98 230.956C450.116 230.82 450.284 230.752 450.484 230.752C450.692 230.752 450.864 230.82 451 230.956C451.136 231.084 451.204 231.244 451.204 231.436C451.204 231.62 451.136 231.78 451 231.916C450.864 232.044 450.692 232.108 450.484 232.108ZM452.628 232.108C452.428 232.108 452.26 232.044 452.124 231.916C451.996 231.78 451.932 231.62 451.932 231.436C451.932 231.244 451.996 231.084 452.124 230.956C452.26 230.82 452.428 230.752 452.628 230.752C452.836 230.752 453.008 230.82 453.144 230.956C453.28 231.084 453.348 231.244 453.348 231.436C453.348 231.62 453.28 231.78 453.144 231.916C453.008 232.044 452.836 232.108 452.628 232.108Z" fill="#333333"/>
<rect x="423.5" y="209.5" width="54" height="37" stroke="#333333"/>
<rect x="178.5" y="209.5" width="54" height="37" fill="white"/>
<path d="M203.339 232.108C203.139 232.108 202.971 232.044 202.835 231.916C202.707 231.78 202.643 231.62 202.643 231.436C202.643 231.244 202.707 231.084 202.835 230.956C202.971 230.82 203.139 230.752 203.339 230.752C203.547 230.752 203.719 230.82 203.855 230.956C203.991 231.084 204.059 231.244 204.059 231.436C204.059 231.62 203.991 231.78 203.855 231.916C203.719 232.044 203.547 232.108 203.339 232.108ZM205.484 232.108C205.284 232.108 205.116 232.044 204.98 231.916C204.852 231.78 204.788 231.62 204.788 231.436C204.788 231.244 204.852 231.084 204.98 230.956C205.116 230.82 205.284 230.752 205.484 230.752C205.692 230.752 205.864 230.82 206 230.956C206.136 231.084 206.204 231.244 206.204 231.436C206.204 231.62 206.136 231.78 206 231.916C205.864 232.044 205.692 232.108 205.484 232.108ZM207.628 232.108C207.428 232.108 207.26 232.044 207.124 231.916C206.996 231.78 206.932 231.62 206.932 231.436C206.932 231.244 206.996 231.084 207.124 230.956C207.26 230.82 207.428 230.752 207.628 230.752C207.836 230.752 208.008 230.82 208.144 230.956C208.28 231.084 208.348 231.244 208.348 231.436C208.348 231.62 208.28 231.78 208.144 231.916C208.008 232.044 207.836 232.108 207.628 232.108Z" fill="#333333"/>
<rect x="178.5" y="209.5" width="54" height="37" stroke="#333333"/>
<rect x="423.5" y="250.5" width="54" height="37" fill="white"/>
<path d="M448.339 273.108C448.139 273.108 447.971 273.044 447.835 272.916C447.707 272.78 447.643 272.62 447.643 272.436C447.643 272.244 447.707 272.084 447.835 271.956C447.971 271.82 448.139 271.752 448.339 271.752C448.547 271.752 448.719 271.82 448.855 271.956C448.991 272.084 449.059 272.244 449.059 272.436C449.059 272.62 448.991 272.78 448.855 272.916C448.719 273.044 448.547 273.108 448.339 273.108ZM450.484 273.108C450.284 273.108 450.116 273.044 449.98 272.916C449.852 272.78 449.788 272.62 449.788 272.436C449.788 272.244 449.852 272.084 449.98 271.956C450.116 271.82 450.284 271.752 450.484 271.752C450.692 271.752 450.864 271.82 451 271.956C451.136 272.084 451.204 272.244 451.204 272.436C451.204 272.62 451.136 272.78 451 272.916C450.864 273.044 450.692 273.108 450.484 273.108ZM452.628 273.108C452.428 273.108 452.26 273.044 452.124 272.916C451.996 272.78 451.932 272.62 451.932 272.436C451.932 272.244 451.996 272.084 452.124 271.956C452.26 271.82 452.428 271.752 452.628 271.752C452.836 271.752 453.008 271.82 453.144 271.956C453.28 272.084 453.348 272.244 453.348 272.436C453.348 272.62 453.28 272.78 453.144 272.916C453.008 273.044 452.836 273.108 452.628 273.108Z" fill="#333333"/>
<rect x="423.5" y="250.5" width="54" height="37" stroke="#333333"/>
<rect x="178.5" y="250.5" width="54" height="37" fill="white"/>
<path d="M203.339 273.108C203.139 273.108 202.971 273.044 202.835 272.916C202.707 272.78 202.643 272.62 202.643 272.436C202.643 272.244 202.707 272.084 202.835 271.956C202.971 271.82 203.139 271.752 203.339 271.752C203.547 271.752 203.719 271.82 203.855 271.956C203.991 272.084 204.059 272.244 204.059 272.436C204.059 272.62 203.991 272.78 203.855 272.916C203.719 273.044 203.547 273.108 203.339 273.108ZM205.484 273.108C205.284 273.108 205.116 273.044 204.98 272.916C204.852 272.78 204.788 272.62 204.788 272.436C204.788 272.244 204.852 272.084 204.98 271.956C205.116 271.82 205.284 271.752 205.484 271.752C205.692 271.752 205.864 271.82 206 271.956C206.136 272.084 206.204 272.244 206.204 272.436C206.204 272.62 206.136 272.78 206 272.916C205.864 273.044 205.692 273.108 205.484 273.108ZM207.628 273.108C207.428 273.108 207.26 273.044 207.124 272.916C206.996 272.78 206.932 272.62 206.932 272.436C206.932 272.244 206.996 272.084 207.124 271.956C207.26 271.82 207.428 271.752 207.628 271.752C207.836 271.752 208.008 271.82 208.144 271.956C208.28 272.084 208.348 272.244 208.348 272.436C208.348 272.62 208.28 272.78 208.144 272.916C208.008 273.044 207.836 273.108 207.628 273.108Z" fill="#333333"/>
<rect x="178.5" y="250.5" width="54" height="37" stroke="#333333"/>
<rect x="522.5" y="221.5" width="54" height="37" fill="white"/>
<path d="M547.339 244.108C547.139 244.108 546.971 244.044 546.835 243.916C546.707 243.78 546.643 243.62 546.643 243.436C546.643 243.244 546.707 243.084 546.835 242.956C546.971 242.82 547.139 242.752 547.339 242.752C547.547 242.752 547.719 242.82 547.855 242.956C547.991 243.084 548.059 243.244 548.059 243.436C548.059 243.62 547.991 243.78 547.855 243.916C547.719 244.044 547.547 244.108 547.339 244.108ZM549.484 244.108C549.284 244.108 549.116 244.044 548.98 243.916C548.852 243.78 548.788 243.62 548.788 243.436C548.788 243.244 548.852 243.084 548.98 242.956C549.116 242.82 549.284 242.752 549.484 242.752C549.692 242.752 549.864 242.82 550 242.956C550.136 243.084 550.204 243.244 550.204 243.436C550.204 243.62 550.136 243.78 550 243.916C549.864 244.044 549.692 244.108 549.484 244.108ZM551.628 244.108C551.428 244.108 551.26 244.044 551.124 243.916C550.996 243.78 550.932 243.62 550.932 243.436C550.932 243.244 550.996 243.084 551.124 242.956C551.26 242.82 551.428 242.752 551.628 242.752C551.836 242.752 552.008 242.82 552.144 242.956C552.28 243.084 552.348 243.244 552.348 243.436C552.348 243.62 552.28 243.78 552.144 243.916C552.008 244.044 551.836 244.108 551.628 244.108Z" fill="#333333"/>
<rect x="522.5" y="221.5" width="54" height="37" stroke="#333333"/>
<rect x="277.5" y="221.5" width="54" height="37" fill="white"/>
<path d="M302.339 244.108C302.139 244.108 301.971 244.044 301.835 243.916C301.707 243.78 301.643 243.62 301.643 243.436C301.643 243.244 301.707 243.084 301.835 242.956C301.971 242.82 302.139 242.752 302.339 242.752C302.547 242.752 302.719 242.82 302.855 242.956C302.991 243.084 303.059 243.244 303.059 243.436C303.059 243.62 302.991 243.78 302.855 243.916C302.719 244.044 302.547 244.108 302.339 244.108ZM304.484 244.108C304.284 244.108 304.116 244.044 303.98 243.916C303.852 243.78 303.788 243.62 303.788 243.436C303.788 243.244 303.852 243.084 303.98 242.956C304.116 242.82 304.284 242.752 304.484 242.752C304.692 242.752 304.864 242.82 305 242.956C305.136 243.084 305.204 243.244 305.204 243.436C305.204 243.62 305.136 243.78 305 243.916C304.864 244.044 304.692 244.108 304.484 244.108ZM306.628 244.108C306.428 244.108 306.26 244.044 306.124 243.916C305.996 243.78 305.932 243.62 305.932 243.436C305.932 243.244 305.996 243.084 306.124 242.956C306.26 242.82 306.428 242.752 306.628 242.752C306.836 242.752 307.008 242.82 307.144 242.956C307.28 243.084 307.348 243.244 307.348 243.436C307.348 243.62 307.28 243.78 307.144 243.916C307.008 244.044 306.836 244.108 306.628 244.108Z" fill="#333333"/>
<rect x="277.5" y="221.5" width="54" height="37" stroke="#333333"/>
<rect x="522.5" y="262.5" width="54" height="37" fill="white"/>
<path d="M547.339 285.108C547.139 285.108 546.971 285.044 546.835 284.916C546.707 284.78 546.643 284.62 546.643 284.436C546.643 284.244 546.707 284.084 546.835 283.956C546.971 283.82 547.139 283.752 547.339 283.752C547.547 283.752 547.719 283.82 547.855 283.956C547.991 284.084 548.059 284.244 548.059 284.436C548.059 284.62 547.991 284.78 547.855 284.916C547.719 285.044 547.547 285.108 547.339 285.108ZM549.484 285.108C549.284 285.108 549.116 285.044 548.98 284.916C548.852 284.78 548.788 284.62 548.788 284.436C548.788 284.244 548.852 284.084 548.98 283.956C549.116 283.82 549.284 283.752 549.484 283.752C549.692 283.752 549.864 283.82 550 283.956C550.136 284.084 550.204 284.244 550.204 284.436C550.204 284.62 550.136 284.78 550 284.916C549.864 285.044 549.692 285.108 549.484 285.108ZM551.628 285.108C551.428 285.108 551.26 285.044 551.124 284.916C550.996 284.78 550.932 284.62 550.932 284.436C550.932 284.244 550.996 284.084 551.124 283.956C551.26 283.82 551.428 283.752 551.628 283.752C551.836 283.752 552.008 283.82 552.144 283.956C552.28 284.084 552.348 284.244 552.348 284.436C552.348 284.62 552.28 284.78 552.144 284.916C552.008 285.044 551.836 285.108 551.628 285.108Z" fill="#333333"/>
<rect x="522.5" y="262.5" width="54" height="37" stroke="#333333"/>
<rect x="277.5" y="262.5" width="54" height="37" fill="white"/>
<path d="M302.339 285.108C302.139 285.108 301.971 285.044 301.835 284.916C301.707 284.78 301.643 284.62 301.643 284.436C301.643 284.244 301.707 284.084 301.835 283.956C301.971 283.82 302.139 283.752 302.339 283.752C302.547 283.752 302.719 283.82 302.855 283.956C302.991 284.084 303.059 284.244 303.059 284.436C303.059 284.62 302.991 284.78 302.855 284.916C302.719 285.044 302.547 285.108 302.339 285.108ZM304.484 285.108C304.284 285.108 304.116 285.044 303.98 284.916C303.852 284.78 303.788 284.62 303.788 284.436C303.788 284.244 303.852 284.084 303.98 283.956C304.116 283.82 304.284 283.752 304.484 283.752C304.692 283.752 304.864 283.82 305 283.956C305.136 284.084 305.204 284.244 305.204 284.436C305.204 284.62 305.136 284.78 305 284.916C304.864 285.044 304.692 285.108 304.484 285.108ZM306.628 285.108C306.428 285.108 306.26 285.044 306.124 284.916C305.996 284.78 305.932 284.62 305.932 284.436C305.932 284.244 305.996 284.084 306.124 283.956C306.26 283.82 306.428 283.752 306.628 283.752C306.836 283.752 307.008 283.82 307.144 283.956C307.28 284.084 307.348 284.244 307.348 284.436C307.348 284.62 307.28 284.78 307.144 284.916C307.008 285.044 306.836 285.108 306.628 285.108Z" fill="#333333"/>
<rect x="277.5" y="262.5" width="54" height="37" stroke="#333333"/>
<rect x="492.5" y="168.5" width="101" height="37" fill="white"/>
<path d="M517.253 183.452H521.897V184.268H518.201V186.8H521.681V187.604H518.201V190.172H521.897V191H517.253V183.452ZM524.891 186.14C525.267 185.46 525.827 185.12 526.571 185.12C527.323 185.12 527.947 185.396 528.443 185.948C528.947 186.5 529.199 187.228 529.199 188.132C529.199 189.036 528.947 189.764 528.443 190.316C527.939 190.86 527.319 191.132 526.583 191.132C525.847 191.132 525.303 190.856 524.951 190.304V193.82H524.003V185.264H524.783L524.891 186.14ZM526.535 190.292C526.983 190.292 527.375 190.1 527.711 189.716C528.055 189.332 528.227 188.808 528.227 188.144C528.227 187.472 528.063 186.94 527.735 186.548C527.415 186.156 527.023 185.96 526.559 185.96C526.095 185.96 525.715 186.108 525.419 186.404C525.123 186.692 524.967 187.084 524.951 187.58V188.672C524.951 189.176 525.103 189.572 525.407 189.86C525.711 190.148 526.087 190.292 526.535 190.292ZM531.188 185.252H532.136V191H531.188V185.252ZM531.656 183.908C531.464 183.908 531.312 183.856 531.2 183.752C531.096 183.64 531.044 183.496 531.044 183.32C531.044 183.136 531.096 182.992 531.2 182.888C531.312 182.776 531.464 182.72 531.656 182.72C531.848 182.72 532 182.776 532.112 182.888C532.232 182.992 532.292 183.136 532.292 183.32C532.292 183.496 532.232 183.64 532.112 183.752C532 183.856 531.848 183.908 531.656 183.908ZM534.414 186.668C534.414 186.196 534.614 185.82 535.014 185.54C535.422 185.26 535.97 185.12 536.658 185.12C537.346 185.12 537.882 185.264 538.266 185.552C538.658 185.84 538.862 186.204 538.878 186.644H537.954C537.882 186.124 537.442 185.864 536.634 185.864C536.242 185.864 535.938 185.952 535.722 186.128C535.514 186.304 535.41 186.496 535.41 186.704C535.41 186.904 535.49 187.076 535.65 187.22C535.81 187.356 536.066 187.476 536.418 187.58L537.57 187.964C538.058 188.116 538.43 188.312 538.686 188.552C538.95 188.784 539.082 189.108 539.082 189.524C539.082 189.932 538.87 190.304 538.446 190.64C538.022 190.968 537.43 191.132 536.67 191.132C535.91 191.132 535.318 190.964 534.894 190.628C534.47 190.284 534.246 189.844 534.222 189.308H535.134C535.15 189.668 535.294 189.94 535.566 190.124C535.846 190.3 536.194 190.388 536.61 190.388C537.026 190.388 537.37 190.3 537.642 190.124C537.914 189.948 538.05 189.74 538.05 189.5C538.05 189.252 537.97 189.064 537.81 188.936C537.65 188.808 537.39 188.696 537.03 188.6L535.914 188.228C534.914 187.932 534.414 187.412 534.414 186.668ZM543.094 185.12C543.894 185.12 544.538 185.38 545.026 185.9C545.522 186.42 545.77 187.164 545.77 188.132C545.77 189.092 545.522 189.832 545.026 190.352C544.538 190.872 543.894 191.132 543.094 191.132C542.294 191.132 541.646 190.872 541.15 190.352C540.662 189.832 540.418 189.092 540.418 188.132C540.418 187.164 540.662 186.42 541.15 185.9C541.646 185.38 542.294 185.12 543.094 185.12ZM544.81 188.132C544.81 187.444 544.666 186.908 544.378 186.524C544.09 186.132 543.666 185.936 543.106 185.936C542.554 185.936 542.13 186.132 541.834 186.524C541.538 186.908 541.39 187.444 541.39 188.132C541.39 188.812 541.53 189.348 541.81 189.74C542.09 190.124 542.506 190.316 543.058 190.316C543.618 190.316 544.05 190.124 544.354 189.74C544.658 189.348 544.81 188.812 544.81 188.132ZM551.337 186.116V182.828H552.273V191H551.505L551.385 190.04C551.201 190.4 550.957 190.672 550.653 190.856C550.349 191.04 550.017 191.132 549.657 191.132C548.929 191.132 548.317 190.852 547.821 190.292C547.333 189.732 547.089 189.004 547.089 188.108C547.089 187.204 547.329 186.48 547.809 185.936C548.297 185.392 548.909 185.12 549.645 185.12C550.389 185.12 550.953 185.452 551.337 186.116ZM549.705 185.96C549.241 185.96 548.849 186.156 548.529 186.548C548.217 186.94 548.061 187.464 548.061 188.12C548.061 188.776 548.221 189.304 548.541 189.704C548.861 190.096 549.245 190.292 549.693 190.292C550.141 190.292 550.521 190.144 550.833 189.848C551.153 189.544 551.321 189.14 551.337 188.636V187.7C551.337 187.164 551.181 186.74 550.869 186.428C550.557 186.116 550.169 185.96 549.705 185.96ZM554.766 185.252H555.714V191H554.766V185.252ZM555.234 183.908C555.042 183.908 554.89 183.856 554.778 183.752C554.674 183.64 554.622 183.496 554.622 183.32C554.622 183.136 554.674 182.992 554.778 182.888C554.89 182.776 555.042 182.72 555.234 182.72C555.426 182.72 555.578 182.776 555.69 182.888C555.81 182.992 555.87 183.136 555.87 183.32C555.87 183.496 555.81 183.64 555.69 183.752C555.578 183.856 555.426 183.908 555.234 183.908ZM560.356 185.12C561.156 185.12 561.8 185.38 562.288 185.9C562.784 186.42 563.032 187.164 563.032 188.132C563.032 189.092 562.784 189.832 562.288 190.352C561.8 190.872 561.156 191.132 560.356 191.132C559.556 191.132 558.908 190.872 558.412 190.352C557.924 189.832 557.68 189.092 557.68 188.132C557.68 187.164 557.924 186.42 558.412 185.9C558.908 185.38 559.556 185.12 560.356 185.12ZM562.072 188.132C562.072 187.444 561.928 186.908 561.64 186.524C561.352 186.132 560.928 185.936 560.368 185.936C559.816 185.936 559.392 186.132 559.096 186.524C558.8 186.908 558.652 187.444 558.652 188.132C558.652 188.812 558.792 189.348 559.072 189.74C559.352 190.124 559.768 190.316 560.32 190.316C560.88 190.316 561.312 190.124 561.616 189.74C561.92 189.348 562.072 188.812 562.072 188.132ZM564.543 186.668C564.543 186.196 564.743 185.82 565.143 185.54C565.551 185.26 566.099 185.12 566.787 185.12C567.475 185.12 568.011 185.264 568.395 185.552C568.787 185.84 568.991 186.204 569.007 186.644H568.083C568.011 186.124 567.571 185.864 566.763 185.864C566.371 185.864 566.067 185.952 565.851 186.128C565.643 186.304 565.539 186.496 565.539 186.704C565.539 186.904 565.619 187.076 565.779 187.22C565.939 187.356 566.195 187.476 566.547 187.58L567.699 187.964C568.187 188.116 568.559 188.312 568.815 188.552C569.079 188.784 569.211 189.108 569.211 189.524C569.211 189.932 568.999 190.304 568.575 190.64C568.151 190.968 567.559 191.132 566.799 191.132C566.039 191.132 565.447 190.964 565.023 190.628C564.599 190.284 564.375 189.844 564.351 189.308H565.263C565.279 189.668 565.423 189.94 565.695 190.124C565.975 190.3 566.323 190.388 566.739 190.388C567.155 190.388 567.499 190.3 567.771 190.124C568.043 189.948 568.179 189.74 568.179 189.5C568.179 189.252 568.099 189.064 567.939 188.936C567.779 188.808 567.519 188.696 567.159 188.6L566.043 188.228C565.043 187.932 564.543 187.412 564.543 186.668Z" fill="#333333"/>
<rect x="492.5" y="168.5" width="101" height="37" stroke="#333333"/>
<rect x="247.5" y="168.5" width="101" height="37" fill="white"/>
<path d="M272.253 183.452H276.897V184.268H273.201V186.8H276.681V187.604H273.201V190.172H276.897V191H272.253V183.452ZM279.891 186.14C280.267 185.46 280.827 185.12 281.571 185.12C282.323 185.12 282.947 185.396 283.443 185.948C283.947 186.5 284.199 187.228 284.199 188.132C284.199 189.036 283.947 189.764 283.443 190.316C282.939 190.86 282.319 191.132 281.583 191.132C280.847 191.132 280.303 190.856 279.951 190.304V193.82H279.003V185.264H279.783L279.891 186.14ZM281.535 190.292C281.983 190.292 282.375 190.1 282.711 189.716C283.055 189.332 283.227 188.808 283.227 188.144C283.227 187.472 283.063 186.94 282.735 186.548C282.415 186.156 282.023 185.96 281.559 185.96C281.095 185.96 280.715 186.108 280.419 186.404C280.123 186.692 279.967 187.084 279.951 187.58V188.672C279.951 189.176 280.103 189.572 280.407 189.86C280.711 190.148 281.087 190.292 281.535 190.292ZM286.188 185.252H287.136V191H286.188V185.252ZM286.656 183.908C286.464 183.908 286.312 183.856 286.2 183.752C286.096 183.64 286.044 183.496 286.044 183.32C286.044 183.136 286.096 182.992 286.2 182.888C286.312 182.776 286.464 182.72 286.656 182.72C286.848 182.72 287 182.776 287.112 182.888C287.232 182.992 287.292 183.136 287.292 183.32C287.292 183.496 287.232 183.64 287.112 183.752C287 183.856 286.848 183.908 286.656 183.908ZM289.414 186.668C289.414 186.196 289.614 185.82 290.014 185.54C290.422 185.26 290.97 185.12 291.658 185.12C292.346 185.12 292.882 185.264 293.266 185.552C293.658 185.84 293.862 186.204 293.878 186.644H292.954C292.882 186.124 292.442 185.864 291.634 185.864C291.242 185.864 290.938 185.952 290.722 186.128C290.514 186.304 290.41 186.496 290.41 186.704C290.41 186.904 290.49 187.076 290.65 187.22C290.81 187.356 291.066 187.476 291.418 187.58L292.57 187.964C293.058 188.116 293.43 188.312 293.686 188.552C293.95 188.784 294.082 189.108 294.082 189.524C294.082 189.932 293.87 190.304 293.446 190.64C293.022 190.968 292.43 191.132 291.67 191.132C290.91 191.132 290.318 190.964 289.894 190.628C289.47 190.284 289.246 189.844 289.222 189.308H290.134C290.15 189.668 290.294 189.94 290.566 190.124C290.846 190.3 291.194 190.388 291.61 190.388C292.026 190.388 292.37 190.3 292.642 190.124C292.914 189.948 293.05 189.74 293.05 189.5C293.05 189.252 292.97 189.064 292.81 188.936C292.65 188.808 292.39 188.696 292.03 188.6L290.914 188.228C289.914 187.932 289.414 187.412 289.414 186.668ZM298.094 185.12C298.894 185.12 299.538 185.38 300.026 185.9C300.522 186.42 300.77 187.164 300.77 188.132C300.77 189.092 300.522 189.832 300.026 190.352C299.538 190.872 298.894 191.132 298.094 191.132C297.294 191.132 296.646 190.872 296.15 190.352C295.662 189.832 295.418 189.092 295.418 188.132C295.418 187.164 295.662 186.42 296.15 185.9C296.646 185.38 297.294 185.12 298.094 185.12ZM299.81 188.132C299.81 187.444 299.666 186.908 299.378 186.524C299.09 186.132 298.666 185.936 298.106 185.936C297.554 185.936 297.13 186.132 296.834 186.524C296.538 186.908 296.39 187.444 296.39 188.132C296.39 188.812 296.53 189.348 296.81 189.74C297.09 190.124 297.506 190.316 298.058 190.316C298.618 190.316 299.05 190.124 299.354 189.74C299.658 189.348 299.81 188.812 299.81 188.132ZM306.337 186.116V182.828H307.273V191H306.505L306.385 190.04C306.201 190.4 305.957 190.672 305.653 190.856C305.349 191.04 305.017 191.132 304.657 191.132C303.929 191.132 303.317 190.852 302.821 190.292C302.333 189.732 302.089 189.004 302.089 188.108C302.089 187.204 302.329 186.48 302.809 185.936C303.297 185.392 303.909 185.12 304.645 185.12C305.389 185.12 305.953 185.452 306.337 186.116ZM304.705 185.96C304.241 185.96 303.849 186.156 303.529 186.548C303.217 186.94 303.061 187.464 303.061 188.12C303.061 188.776 303.221 189.304 303.541 189.704C303.861 190.096 304.245 190.292 304.693 190.292C305.141 190.292 305.521 190.144 305.833 189.848C306.153 189.544 306.321 189.14 306.337 188.636V187.7C306.337 187.164 306.181 186.74 305.869 186.428C305.557 186.116 305.169 185.96 304.705 185.96ZM309.766 185.252H310.714V191H309.766V185.252ZM310.234 183.908C310.042 183.908 309.89 183.856 309.778 183.752C309.674 183.64 309.622 183.496 309.622 183.32C309.622 183.136 309.674 182.992 309.778 182.888C309.89 182.776 310.042 182.72 310.234 182.72C310.426 182.72 310.578 182.776 310.69 182.888C310.81 182.992 310.87 183.136 310.87 183.32C310.87 183.496 310.81 183.64 310.69 183.752C310.578 183.856 310.426 183.908 310.234 183.908ZM315.356 185.12C316.156 185.12 316.8 185.38 317.288 185.9C317.784 186.42 318.032 187.164 318.032 188.132C318.032 189.092 317.784 189.832 317.288 190.352C316.8 190.872 316.156 191.132 315.356 191.132C314.556 191.132 313.908 190.872 313.412 190.352C312.924 189.832 312.68 189.092 312.68 188.132C312.68 187.164 312.924 186.42 313.412 185.9C313.908 185.38 314.556 185.12 315.356 185.12ZM317.072 188.132C317.072 187.444 316.928 186.908 316.64 186.524C316.352 186.132 315.928 185.936 315.368 185.936C314.816 185.936 314.392 186.132 314.096 186.524C313.8 186.908 313.652 187.444 313.652 188.132C313.652 188.812 313.792 189.348 314.072 189.74C314.352 190.124 314.768 190.316 315.32 190.316C315.88 190.316 316.312 190.124 316.616 189.74C316.92 189.348 317.072 188.812 317.072 188.132ZM319.543 186.668C319.543 186.196 319.743 185.82 320.143 185.54C320.551 185.26 321.099 185.12 321.787 185.12C322.475 185.12 323.011 185.264 323.395 185.552C323.787 185.84 323.991 186.204 324.007 186.644H323.083C323.011 186.124 322.571 185.864 321.763 185.864C321.371 185.864 321.067 185.952 320.851 186.128C320.643 186.304 320.539 186.496 320.539 186.704C320.539 186.904 320.619 187.076 320.779 187.22C320.939 187.356 321.195 187.476 321.547 187.58L322.699 187.964C323.187 188.116 323.559 188.312 323.815 188.552C324.079 188.784 324.211 189.108 324.211 189.524C324.211 189.932 323.999 190.304 323.575 190.64C323.151 190.968 322.559 191.132 321.799 191.132C321.039 191.132 320.447 190.964 320.023 190.628C319.599 190.284 319.375 189.844 319.351 189.308H320.263C320.279 189.668 320.423 189.94 320.695 190.124C320.975 190.3 321.323 190.388 321.739 190.388C322.155 190.388 322.499 190.3 322.771 190.124C323.043 189.948 323.179 189.74 323.179 189.5C323.179 189.252 323.099 189.064 322.939 188.936C322.779 188.808 322.519 188.696 322.159 188.6L321.043 188.228C320.043 187.932 319.543 187.412 319.543 186.668Z" fill="#333333"/>
<rect x="247.5" y="168.5" width="101" height="37" stroke="#333333"/>
<rect x="3.5" y="115.5" width="98" height="37" rx="18.5" fill="white"/>
<path d="M28.294 130.452H32.878V131.268H29.242V133.776H32.626V134.592H29.242V138H28.294V130.452ZM37.846 134.28C37.846 133.76 37.738 133.388 37.522 133.164C37.306 132.94 36.99 132.828 36.574 132.828C36.166 132.828 35.834 132.912 35.578 133.08C35.33 133.24 35.206 133.496 35.206 133.848H34.162C34.162 132.968 34.634 132.424 35.578 132.216C35.866 132.152 36.178 132.12 36.514 132.12C37.226 132.12 37.782 132.3 38.182 132.66C38.582 133.02 38.782 133.568 38.782 134.304V138H37.966L37.87 137.04C37.518 137.768 36.882 138.132 35.962 138.132C35.346 138.132 34.85 137.96 34.474 137.616C34.106 137.272 33.922 136.844 33.922 136.332C33.922 135.82 34.126 135.42 34.534 135.132C34.95 134.844 35.466 134.7 36.082 134.7C36.698 134.7 37.286 134.804 37.846 135.012V134.28ZM37.846 135.612C37.278 135.452 36.782 135.372 36.358 135.372C35.934 135.372 35.59 135.448 35.326 135.6C35.062 135.752 34.93 135.992 34.93 136.32C34.93 137.04 35.338 137.4 36.154 137.4C36.618 137.4 37.014 137.236 37.342 136.908C37.678 136.572 37.846 136.14 37.846 135.612ZM41.0809 132.264L42.8089 137.004L44.5489 132.264H45.6169L43.3369 138H42.2929L40.0129 132.264H41.0809ZM49.108 132.12C49.908 132.12 50.552 132.38 51.04 132.9C51.536 133.42 51.784 134.164 51.784 135.132C51.784 136.092 51.536 136.832 51.04 137.352C50.552 137.872 49.908 138.132 49.108 138.132C48.308 138.132 47.66 137.872 47.164 137.352C46.676 136.832 46.432 136.092 46.432 135.132C46.432 134.164 46.676 133.42 47.164 132.9C47.66 132.38 48.308 132.12 49.108 132.12ZM50.824 135.132C50.824 134.444 50.68 133.908 50.392 133.524C50.104 133.132 49.68 132.936 49.12 132.936C48.568 132.936 48.144 133.132 47.848 133.524C47.552 133.908 47.404 134.444 47.404 135.132C47.404 135.812 47.544 136.348 47.824 136.74C48.104 137.124 48.52 137.316 49.072 137.316C49.632 137.316 50.064 137.124 50.368 136.74C50.672 136.348 50.824 135.812 50.824 135.132ZM55.9348 133.068C55.0308 133.068 54.5628 133.78 54.5308 135.204V138H53.5828V132.252H54.5308V133.356C54.8188 132.556 55.3268 132.156 56.0548 132.156C56.2868 132.156 56.5068 132.192 56.7148 132.264L56.6668 133.188C56.4268 133.108 56.1828 133.068 55.9348 133.068ZM58.2251 132.252H59.1731V138H58.2251V132.252ZM58.6931 130.908C58.5011 130.908 58.3491 130.856 58.2371 130.752C58.1331 130.64 58.0811 130.496 58.0811 130.32C58.0811 130.136 58.1331 129.992 58.2371 129.888C58.3491 129.776 58.5011 129.72 58.6931 129.72C58.8851 129.72 59.0371 129.776 59.1491 129.888C59.2691 129.992 59.3291 130.136 59.3291 130.32C59.3291 130.496 59.2691 130.64 59.1491 130.752C59.0371 130.856 58.8851 130.908 58.6931 130.908ZM64.7511 137.832C64.0631 138.152 63.4351 138.22 62.8671 138.036C62.4591 137.908 62.1711 137.64 62.0031 137.232C61.9151 137.032 61.8711 136.792 61.8711 136.512V132.984H60.9471V132.264H61.8711V130.668H62.8071V132.264H64.6071V132.984H62.8071V136.5C62.8071 137.084 63.0791 137.376 63.6231 137.376C63.9191 137.376 64.2511 137.304 64.6191 137.16L64.7511 137.832ZM68.3268 132.12C69.1268 132.12 69.7708 132.38 70.2588 132.9C70.7548 133.42 71.0028 134.164 71.0028 135.132C71.0028 136.092 70.7548 136.832 70.2588 137.352C69.7708 137.872 69.1268 138.132 68.3268 138.132C67.5268 138.132 66.8788 137.872 66.3828 137.352C65.8948 136.832 65.6508 136.092 65.6508 135.132C65.6508 134.164 65.8948 133.42 66.3828 132.9C66.8788 132.38 67.5268 132.12 68.3268 132.12ZM70.0428 135.132C70.0428 134.444 69.8988 133.908 69.6108 133.524C69.3228 133.132 68.8988 132.936 68.3388 132.936C67.7868 132.936 67.3628 133.132 67.0668 133.524C66.7708 133.908 66.6228 134.444 66.6228 135.132C66.6228 135.812 66.7628 136.348 67.0428 136.74C67.3228 137.124 67.7388 137.316 68.2908 137.316C68.8508 137.316 69.2828 137.124 69.5868 136.74C69.8908 136.348 70.0428 135.812 70.0428 135.132ZM72.5136 133.668C72.5136 133.196 72.7136 132.82 73.1136 132.54C73.5216 132.26 74.0696 132.12 74.7576 132.12C75.4456 132.12 75.9816 132.264 76.3656 132.552C76.7576 132.84 76.9616 133.204 76.9776 133.644H76.0536C75.9816 133.124 75.5416 132.864 74.7336 132.864C74.3416 132.864 74.0376 132.952 73.8216 133.128C73.6136 133.304 73.5096 133.496 73.5096 133.704C73.5096 133.904 73.5896 134.076 73.7496 134.22C73.9096 134.356 74.1656 134.476 74.5176 134.58L75.6696 134.964C76.1576 135.116 76.5296 135.312 76.7856 135.552C77.0496 135.784 77.1816 136.108 77.1816 136.524C77.1816 136.932 76.9696 137.304 76.5456 137.64C76.1216 137.968 75.5296 138.132 74.7696 138.132C74.0096 138.132 73.4176 137.964 72.9936 137.628C72.5696 137.284 72.3456 136.844 72.3216 136.308H73.2336C73.2496 136.668 73.3936 136.94 73.6656 137.124C73.9456 137.3 74.2936 137.388 74.7096 137.388C75.1256 137.388 75.4696 137.3 75.7416 137.124C76.0136 136.948 76.1496 136.74 76.1496 136.5C76.1496 136.252 76.0696 136.064 75.9096 135.936C75.7496 135.808 75.4896 135.696 75.1296 135.6L74.0136 135.228C73.0136 134.932 72.5136 134.412 72.5136 133.668Z" fill="#333333"/>
<rect x="3.5" y="115.5" width="98" height="37" rx="18.5" stroke="#333333"/>
<line x1="407.5" y1="153" x2="407.5" y2="188" stroke="#333333"/>
<line x1="407" y1="187.5" x2="423" y2="187.5" stroke="#333333"/>
<line x1="162.5" y1="153" x2="162.5" y2="188" stroke="#333333"/>
<line x1="162" y1="187.5" x2="178" y2="187.5" stroke="#333333"/>
<line x1="407.5" y1="187" x2="407.5" y2="229" stroke="#333333"/>
<line x1="407" y1="228.5" x2="423" y2="228.5" stroke="#333333"/>
<line x1="406.5" y1="115" x2="406.5" y2="92" stroke="#333333"/>
<line x1="407" y1="92.5" x2="163" y2="92.5" stroke="#333333"/>
<line x1="162.5" y1="187" x2="162.5" y2="229" stroke="#333333"/>
<line x1="162" y1="228.5" x2="178" y2="228.5" stroke="#333333"/>
<line x1="407.5" y1="229" x2="407.5" y2="270" stroke="#333333"/>
<line x1="407" y1="269.5" x2="423" y2="269.5" stroke="#333333"/>
<line x1="653.5" y1="92" x2="653.5" y2="136" stroke="#333333"/>
<line x1="653" y1="135.5" x2="669" y2="135.5" stroke="#333333"/>
<line x1="653.5" y1="133" x2="653.5" y2="177" stroke="#333333"/>
<line x1="653" y1="176.5" x2="669" y2="176.5" stroke="#333333"/>
<line x1="653.5" y1="176" x2="653.5" y2="218" stroke="#333333"/>
<line x1="653" y1="217.5" x2="669" y2="217.5" stroke="#333333"/>
<line x1="653.5" y1="218" x2="653.5" y2="259" stroke="#333333"/>
<line x1="653" y1="258.5" x2="669" y2="258.5" stroke="#333333"/>
<line x1="653.5" y1="256" x2="653.5" y2="297" stroke="#333333"/>
<line x1="653" y1="296.5" x2="669" y2="296.5" stroke="#333333"/>
<line x1="162.5" y1="229" x2="162.5" y2="270" stroke="#333333"/>
<line x1="162" y1="269.5" x2="178" y2="269.5" stroke="#333333"/>
<line x1="506.5" y1="206" x2="506.5" y2="241" stroke="#333333"/>
<line x1="506" y1="240.5" x2="522" y2="240.5" stroke="#333333"/>
<line x1="261.5" y1="206" x2="261.5" y2="241" stroke="#333333"/>
<line x1="261" y1="240.5" x2="277" y2="240.5" stroke="#333333"/>
<line x1="506.5" y1="241" x2="506.5" y2="282" stroke="#333333"/>
<line x1="506" y1="281.5" x2="522" y2="281.5" stroke="#333333"/>
<line x1="261.5" y1="241" x2="261.5" y2="282" stroke="#333333"/>
<line x1="261" y1="281.5" x2="277" y2="281.5" stroke="#333333"/>
<line x1="478" y1="186.5" x2="492" y2="186.5" stroke="#333333"/>
<line x1="102" y1="133.5" x2="141" y2="133.5" stroke="#333333"/>
<line x1="763" y1="132.5" x2="777" y2="132.5" stroke="#333333"/>
<line x1="753" y1="173.5" x2="767" y2="173.5" stroke="#333333"/>
<line x1="773" y1="214.5" x2="787" y2="214.5" stroke="#333333"/>
<line x1="233" y1="186.5" x2="247" y2="186.5" stroke="#333333"/>
<line x1="162.5" y1="115" x2="162.5" y2="92" stroke="#333333"/>
<rect x="141.5" y="108.5" width="357" height="51" stroke="#333333"/>
<line x1="407" y1="92.5" x2="653" y2="92.5" stroke="#333333"/>
<line x1="406.5" y1="54" x2="406.5" y2="93" stroke="#333333"/>
</svg>
