<svg width="618" height="164" viewBox="0 0 618 164" fill="none" xmlns="http://www.w3.org/2000/svg">
<path d="M80.625 44.5H94.375C95.0625 44.5 95.75 43.8984 95.75 43.125C95.75 42.4375 95.0625 41.75 94.375 41.75H92.2266C92.6562 40.9766 93 40.0312 93 39C93 35.9922 90.5078 33.5 87.5 33.5C84.4062 33.5 82 35.9922 82 39C82 40.0312 82.2578 40.9766 82.6875 41.75H80.625C79.8516 41.75 79.25 42.4375 79.25 43.125C79.25 43.8984 79.8516 44.5 80.625 44.5ZM87.5 36.25C88.9609 36.25 90.25 37.5391 90.25 39C90.25 40.5469 88.9609 41.75 87.5 41.75C85.9531 41.75 84.75 40.5469 84.75 39C84.75 37.5391 85.9531 36.25 87.5 36.25ZM98.5 39C97.7266 39 97.125 39.6875 97.125 40.375C97.125 41.1484 97.7266 41.75 98.5 41.75C99.9609 41.75 101.25 43.0391 101.25 44.5V72C101.25 73.5469 99.9609 74.75 98.5 74.75H76.5C74.9531 74.75 73.75 73.5469 73.75 72V44.5C73.75 43.0391 74.9531 41.75 76.5 41.75C77.1875 41.75 77.875 41.1484 77.875 40.375C77.875 39.6875 77.1875 39 76.5 39C73.4062 39 71 41.4922 71 44.5V72C71 75.0938 73.4062 77.5 76.5 77.5H98.5C101.508 77.5 104 75.0938 104 72V44.5C104 41.4922 101.508 39 98.5 39ZM77.1875 55.5C77.1875 56.7031 78.0469 57.5625 79.25 57.5625C80.3672 57.5625 81.3125 56.7031 81.3125 55.5C81.3125 54.3828 80.3672 53.4375 79.25 53.4375C78.0469 53.4375 77.1875 54.3828 77.1875 55.5ZM79.25 61.6875C78.0469 61.6875 77.1875 62.6328 77.1875 63.75C77.1875 64.9531 78.0469 65.8125 79.25 65.8125C80.3672 65.8125 81.3125 64.9531 81.3125 63.75C81.3125 62.6328 80.3672 61.6875 79.25 61.6875ZM97.125 54.125H86.125C85.3516 54.125 84.75 54.8125 84.75 55.5C84.75 56.2734 85.3516 56.875 86.125 56.875H97.125C97.8125 56.875 98.5 56.2734 98.5 55.5C98.5 54.8125 97.8125 54.125 97.125 54.125ZM97.125 62.375H86.125C85.3516 62.375 84.75 63.0625 84.75 63.75C84.75 64.5234 85.3516 65.125 86.125 65.125H97.125C97.8125 65.125 98.5 64.5234 98.5 63.75C98.5 63.0625 97.8125 62.375 97.125 62.375Z" fill="#333333"/>
<path d="M222.969 69.25H219.531C215.922 69.25 213 72.3438 213 76.125C213 76.8984 213.602 77.5 214.375 77.5C215.062 77.5 215.75 76.8984 215.75 76.125C215.75 73.8906 217.383 72 219.531 72H222.969C225.031 72 226.75 73.8906 226.75 76.125C226.75 76.8984 227.352 77.5 228.125 77.5C228.812 77.5 229.5 76.8984 229.5 76.125C229.5 72.3438 226.492 69.25 222.969 69.25ZM261.469 69.25H258.031C254.422 69.25 251.5 72.3438 251.5 76.125C251.5 76.8984 252.102 77.5 252.875 77.5C253.562 77.5 254.25 76.8984 254.25 76.125C254.25 73.8906 255.883 72 258.031 72H261.469C263.531 72 265.25 73.8906 265.25 76.125C265.25 76.8984 265.852 77.5 266.625 77.5C267.312 77.5 268 76.8984 268 76.125C268 72.3438 264.992 69.25 261.469 69.25ZM242.219 69.25H238.781C235.172 69.25 232.25 72.3438 232.25 76.125C232.25 76.8984 232.852 77.5 233.625 77.5C234.312 77.5 235 76.8984 235 76.125C235 73.8906 236.633 72 238.781 72H242.219C244.281 72 246 73.8906 246 76.125C246 76.8984 246.602 77.5 247.375 77.5C248.062 77.5 248.75 76.8984 248.75 76.125C248.75 72.3438 245.742 69.25 242.219 69.25ZM235 61C235 64.0938 237.406 66.5 240.414 66.5C243.508 66.5 245.914 64.0938 245.914 61C245.914 57.9922 243.508 55.5 240.5 55.5C237.406 55.5 235 57.9922 235 61ZM243.25 61C243.25 62.5469 241.961 63.75 240.5 63.75C238.953 63.75 237.75 62.5469 237.75 61C237.75 59.5391 238.953 58.25 240.5 58.25C241.961 58.25 243.25 59.5391 243.25 61ZM259.75 55.5C256.656 55.5 254.25 57.9922 254.25 61C254.25 64.0938 256.656 66.5 259.75 66.5C262.758 66.5 265.164 64.0938 265.164 61C265.164 57.9922 262.758 55.5 259.75 55.5ZM259.75 63.75C258.203 63.75 257 62.5469 257 61C257 59.5391 258.203 58.25 259.75 58.25C261.211 58.25 262.5 59.5391 262.5 61C262.5 62.5469 261.211 63.75 259.75 63.75ZM221.25 66.5C224.258 66.5 226.664 64.0078 226.664 61C226.664 57.9062 224.258 55.5 221.25 55.5C218.156 55.5 215.75 57.9922 215.75 61C215.75 64.0938 218.156 66.5 221.25 66.5ZM221.25 58.25C222.711 58.25 224 59.5391 224 61C224 62.5469 222.711 63.75 221.25 63.75C219.703 63.75 218.5 62.5469 218.5 61C218.5 59.5391 219.703 58.25 221.25 58.25ZM217.125 54.125C217.812 54.125 218.5 53.5234 218.5 52.75V37.625C218.5 36.9375 219.102 36.25 219.875 36.25H261.125C261.812 36.25 262.5 36.9375 262.5 37.625V52.75C262.5 53.5234 263.102 54.125 263.875 54.125C264.562 54.125 265.25 53.5234 265.25 52.75V37.625C265.25 35.3906 263.359 33.5859 261.125 33.5859H219.875C217.555 33.5 215.75 35.3906 215.75 37.625V52.75C215.75 53.5234 216.352 54.125 217.125 54.125Z" fill="#333333"/>
<path d="M398.914 69.25H388C387.227 69.25 386.625 69.8516 386.625 70.625V72.6016C386.625 73.1172 386.711 73.6328 387.055 74.0625L388.516 76.2969C388.945 76.9844 389.977 77.5 390.836 77.5H396.078C396.938 77.5 397.969 76.9844 398.398 76.2969L399.859 74.0625C400.117 73.7188 400.289 73.0312 400.289 72.6016V70.625C400.289 69.9375 399.688 69.25 398.914 69.25ZM397.539 72.6016L396.164 74.6641C396.164 74.75 396.078 74.75 396.078 74.75L390.922 74.8359C390.922 74.75 390.836 74.75 390.836 74.75L389.375 72.6016V72H397.625V72.5156C397.539 72.5156 397.539 72.6016 397.539 72.6016ZM404.07 37.9688C401.234 35.1328 397.367 33.4141 393.414 33.5859C385.078 33.5859 378.375 40.375 378.375 48.7969C378.375 52.4922 379.664 56.0156 382.07 58.7656C383.188 60.1406 385.164 63.0625 385.852 65.3828C385.938 66.0703 386.625 66.5859 387.312 66.5C388.086 66.4141 388.602 65.7266 388.602 65.0391L388.516 64.6953C387.656 61.6875 385.422 58.4219 384.133 57.0469C382.156 54.7266 381.125 51.8047 381.125 48.7969C381.125 41.8359 386.539 36.3359 393.414 36.3359H393.5C396.766 36.3359 399.859 37.5391 402.18 39.9453C404.5 42.2656 405.875 45.4453 405.875 48.7969C405.875 51.8047 404.758 54.7266 402.781 57.0469C401.492 58.4219 399.258 61.6875 398.398 64.6953L398.312 65.0391C398.227 65.7266 398.742 66.5 399.516 66.5859C399.602 66.5859 399.688 66.5859 399.688 66.5859C400.375 66.5859 400.977 66.1562 401.062 65.4688C401.75 63.0625 403.727 60.1406 404.844 58.8516C407.25 56.0156 408.625 52.4922 408.625 48.7969C408.625 44.6719 406.992 40.8047 404.07 37.9688ZM394.875 40.4609C394.875 39.6875 394.188 39.0859 393.5 39.0859C388.172 39.0859 383.875 43.3828 383.875 48.625C383.875 49.3984 384.477 50 385.25 50C385.938 50 386.625 49.3984 386.625 48.625C386.625 44.8438 389.633 41.8359 393.5 41.8359C394.188 41.8359 394.875 41.1484 394.875 40.4609Z" fill="#333333"/>
<path d="M568.5 41.75V39C568.5 37.5391 567.211 36.25 565.75 36.25H563C561.453 36.25 560.25 37.5391 560.25 39H532.75C532.75 37.5391 531.461 36.25 530 36.25H527.25C525.703 36.25 524.5 37.5391 524.5 39V41.75C524.5 43.2969 525.703 44.5 527.25 44.5V66.5C525.703 66.5 524.5 67.7891 524.5 69.25V72C524.5 73.5469 525.703 74.75 527.25 74.75H530C531.461 74.75 532.75 73.5469 532.75 72H560.25C560.25 73.5469 561.453 74.75 563 74.75H565.75C567.211 74.75 568.5 73.5469 568.5 72V69.25C568.5 67.7891 567.211 66.5 565.75 66.5V44.5C567.211 44.5 568.5 43.2969 568.5 41.75ZM527.25 39H530V41.75H527.25V39ZM530 72H527.25V69.25H530V72ZM560.25 69.25H532.75C532.75 67.7891 531.461 66.5 530 66.5V44.5C531.461 44.5 532.75 43.2969 532.75 41.75H560.25C560.25 43.2969 561.453 44.5 563 44.5V66.5C561.453 66.5 560.25 67.7891 560.25 69.25ZM565.75 72H563V69.25H565.75V72ZM563 41.75V39H565.75V41.75H563ZM549.25 55.5V47.25C549.25 45.7891 547.961 44.5 546.5 44.5H535.5C533.953 44.5 532.75 45.7891 532.75 47.25V55.5C532.75 57.0469 533.953 58.25 535.5 58.25H546.5C547.961 58.25 549.25 57.0469 549.25 55.5ZM535.5 47.25H546.5V55.5H535.5V47.25ZM557.5 52.75H553.375C552.602 52.75 552 53.4375 552 54.125C552 54.8984 552.602 55.5 553.289 55.5H557.5V63.75H546.5V62.375C546.5 61.6875 545.812 61 545.125 61C544.352 61 543.75 61.6875 543.75 62.375V63.75C543.75 65.2969 544.953 66.5 546.5 66.5H557.5C558.961 66.5 560.25 65.2969 560.25 63.75V55.5C560.25 54.0391 558.961 52.75 557.5 52.75Z" fill="#333333"/>
<path d="M25.545 105.714C25.545 106.442 25.349 107.03 24.957 107.478C24.5744 107.926 24.005 108.215 23.249 108.346L25.769 112H24.341L22.059 108.402H20.519V112H19.413V103.194H22.479C23.4684 103.194 24.2244 103.432 24.747 103.908C25.279 104.384 25.545 104.986 25.545 105.714ZM22.395 107.632C23.0577 107.632 23.557 107.473 23.893 107.156C24.2384 106.829 24.411 106.405 24.411 105.882C24.411 105.35 24.243 104.93 23.907 104.622C23.5804 104.305 23.1044 104.146 22.479 104.146H20.519V107.632H22.395ZM30.309 111.258C31.233 111.258 31.7603 110.852 31.891 110.04H33.025C32.9223 110.712 32.6236 111.235 32.129 111.608C31.6436 111.972 31.037 112.154 30.309 112.154C29.413 112.154 28.685 111.837 28.125 111.202C27.565 110.558 27.285 109.704 27.285 108.64C27.285 107.576 27.565 106.727 28.125 106.092C28.6943 105.457 29.4456 105.14 30.379 105.14C31.3216 105.14 32.0216 105.504 32.479 106.232C32.9456 106.96 33.109 107.847 32.969 108.892H28.391C28.391 109.583 28.559 110.152 28.895 110.6C29.231 111.039 29.7023 111.258 30.309 111.258ZM31.121 106.19C30.9063 106.078 30.645 106.022 30.337 106.022C29.7676 106.022 29.315 106.218 28.979 106.61C28.6523 106.993 28.461 107.473 28.405 108.052H31.975C31.975 107.119 31.6903 106.498 31.121 106.19ZM38.704 111.804C37.9014 112.177 37.1687 112.257 36.506 112.042C36.03 111.893 35.694 111.58 35.498 111.104C35.3954 110.871 35.344 110.591 35.344 110.264V106.148H34.266V105.308H35.344V103.446H36.436V105.308H38.536V106.148H36.436V110.25C36.436 110.931 36.7534 111.272 37.388 111.272C37.7334 111.272 38.1207 111.188 38.55 111.02L38.704 111.804ZM43.1977 106.246C42.143 106.246 41.597 107.077 41.5597 108.738V112H40.4537V105.294H41.5597V106.582C41.8957 105.649 42.4884 105.182 43.3377 105.182C43.6084 105.182 43.865 105.224 44.1077 105.308L44.0517 106.386C43.7717 106.293 43.487 106.246 43.1977 106.246ZM48.2077 105.14C49.1411 105.14 49.8924 105.443 50.4617 106.05C51.0404 106.657 51.3297 107.525 51.3297 108.654C51.3297 109.774 51.0404 110.637 50.4617 111.244C49.8924 111.851 49.1411 112.154 48.2077 112.154C47.2744 112.154 46.5184 111.851 45.9397 111.244C45.3704 110.637 45.0857 109.774 45.0857 108.654C45.0857 107.525 45.3704 106.657 45.9397 106.05C46.5184 105.443 47.2744 105.14 48.2077 105.14ZM50.2097 108.654C50.2097 107.851 50.0417 107.226 49.7057 106.778C49.3697 106.321 48.8751 106.092 48.2217 106.092C47.5777 106.092 47.0831 106.321 46.7377 106.778C46.3924 107.226 46.2197 107.851 46.2197 108.654C46.2197 109.447 46.3831 110.073 46.7097 110.53C47.0364 110.978 47.5217 111.202 48.1657 111.202C48.8191 111.202 49.3231 110.978 49.6777 110.53C50.0324 110.073 50.2097 109.447 50.2097 108.654ZM53.0923 106.946C53.0923 106.395 53.3257 105.957 53.7923 105.63C54.2683 105.303 54.9077 105.14 55.7103 105.14C56.513 105.14 57.1383 105.308 57.5863 105.644C58.0437 105.98 58.2817 106.405 58.3003 106.918H57.2223C57.1383 106.311 56.625 106.008 55.6823 106.008C55.225 106.008 54.8703 106.111 54.6183 106.316C54.3757 106.521 54.2543 106.745 54.2543 106.988C54.2543 107.221 54.3477 107.422 54.5343 107.59C54.721 107.749 55.0197 107.889 55.4303 108.01L56.7743 108.458C57.3437 108.635 57.7777 108.864 58.0763 109.144C58.3843 109.415 58.5383 109.793 58.5383 110.278C58.5383 110.754 58.291 111.188 57.7963 111.58C57.3017 111.963 56.611 112.154 55.7243 112.154C54.8377 112.154 54.147 111.958 53.6523 111.566C53.1577 111.165 52.8963 110.651 52.8683 110.026H53.9323C53.951 110.446 54.119 110.763 54.4363 110.978C54.763 111.183 55.169 111.286 55.6543 111.286C56.1397 111.286 56.541 111.183 56.8583 110.978C57.1757 110.773 57.3343 110.53 57.3343 110.25C57.3343 109.961 57.241 109.741 57.0543 109.592C56.8677 109.443 56.5643 109.312 56.1443 109.2L54.8423 108.766C53.6757 108.421 53.0923 107.814 53.0923 106.946ZM61.8475 106.33C62.2861 105.537 62.9395 105.14 63.8075 105.14C64.6848 105.14 65.4128 105.462 65.9915 106.106C66.5795 106.75 66.8735 107.599 66.8735 108.654C66.8735 109.709 66.5795 110.558 65.9915 111.202C65.4035 111.837 64.6801 112.154 63.8215 112.154C62.9628 112.154 62.3281 111.832 61.9175 111.188V115.29H60.8115V105.308H61.7215L61.8475 106.33ZM63.7655 111.174C64.2881 111.174 64.7455 110.95 65.1375 110.502C65.5388 110.054 65.7395 109.443 65.7395 108.668C65.7395 107.884 65.5481 107.263 65.1655 106.806C64.7921 106.349 64.3348 106.12 63.7935 106.12C63.2521 106.12 62.8088 106.293 62.4635 106.638C62.1181 106.974 61.9361 107.431 61.9175 108.01V109.284C61.9175 109.872 62.0948 110.334 62.4495 110.67C62.8041 111.006 63.2428 111.174 63.7655 111.174ZM71.434 111.258C72.358 111.258 72.8853 110.852 73.016 110.04H74.15C74.0473 110.712 73.7486 111.235 73.254 111.608C72.7686 111.972 72.162 112.154 71.434 112.154C70.538 112.154 69.81 111.837 69.25 111.202C68.69 110.558 68.41 109.704 68.41 108.64C68.41 107.576 68.69 106.727 69.25 106.092C69.8193 105.457 70.5706 105.14 71.504 105.14C72.4466 105.14 73.1466 105.504 73.604 106.232C74.0706 106.96 74.234 107.847 74.094 108.892H69.516C69.516 109.583 69.684 110.152 70.02 110.6C70.356 111.039 70.8273 111.258 71.434 111.258ZM72.246 106.19C72.0313 106.078 71.77 106.022 71.462 106.022C70.8926 106.022 70.44 106.218 70.104 106.61C69.7773 106.993 69.586 107.473 69.53 108.052H73.1C73.1 107.119 72.8153 106.498 72.246 106.19ZM78.555 105.14C79.3484 105.14 79.9784 105.345 80.445 105.756C80.9117 106.157 81.215 106.661 81.355 107.268L80.235 107.366C80.1137 106.974 79.9177 106.671 79.647 106.456C79.3764 106.232 79.0777 106.12 78.751 106.12C78.1537 106.12 77.6684 106.344 77.295 106.792C76.931 107.24 76.749 107.851 76.749 108.626C76.749 109.391 76.9264 110.007 77.281 110.474C77.645 110.941 78.093 111.174 78.625 111.174C79.1664 111.174 79.5677 111.053 79.829 110.81C80.0997 110.558 80.235 110.203 80.235 109.746H81.369C81.369 110.465 81.117 111.048 80.613 111.496C80.1184 111.935 79.4697 112.154 78.667 112.154C77.8177 112.154 77.0944 111.832 76.497 111.188C75.909 110.544 75.615 109.69 75.615 108.626C75.615 107.553 75.909 106.703 76.497 106.078C77.085 105.453 77.771 105.14 78.555 105.14ZM87.0341 111.804C86.2315 112.177 85.4988 112.257 84.8361 112.042C84.3601 111.893 84.0241 111.58 83.8281 111.104C83.7255 110.871 83.6741 110.591 83.6741 110.264V106.148H82.5961V105.308H83.6741V103.446H84.7661V105.308H86.8661V106.148H84.7661V110.25C84.7661 110.931 85.0835 111.272 85.7181 111.272C86.0635 111.272 86.4508 111.188 86.8801 111.02L87.0341 111.804ZM88.8678 105.294H89.9738V112H88.8678V105.294ZM89.4138 103.726C89.1898 103.726 89.0125 103.665 88.8818 103.544C88.7605 103.413 88.6998 103.245 88.6998 103.04C88.6998 102.825 88.7605 102.657 88.8818 102.536C89.0125 102.405 89.1898 102.34 89.4138 102.34C89.6378 102.34 89.8151 102.405 89.9458 102.536C90.0858 102.657 90.1558 102.825 90.1558 103.04C90.1558 103.245 90.0858 103.413 89.9458 103.544C89.8151 103.665 89.6378 103.726 89.4138 103.726ZM93.0654 105.308L95.0814 110.838L97.1114 105.308H98.3574L95.6974 112H94.4794L91.8194 105.308H93.0654ZM104.166 107.66C104.166 107.053 104.04 106.619 103.788 106.358C103.536 106.097 103.168 105.966 102.682 105.966C102.206 105.966 101.819 106.064 101.52 106.26C101.231 106.447 101.086 106.745 101.086 107.156H99.8684C99.8684 106.129 100.419 105.495 101.52 105.252C101.856 105.177 102.22 105.14 102.612 105.14C103.443 105.14 104.092 105.35 104.558 105.77C105.025 106.19 105.258 106.829 105.258 107.688V112H104.306L104.194 110.88C103.784 111.729 103.042 112.154 101.968 112.154C101.25 112.154 100.671 111.953 100.232 111.552C99.8031 111.151 99.5884 110.651 99.5884 110.054C99.5884 109.457 99.8264 108.99 100.302 108.654C100.788 108.318 101.39 108.15 102.108 108.15C102.827 108.15 103.513 108.271 104.166 108.514V107.66ZM104.166 109.214C103.504 109.027 102.925 108.934 102.43 108.934C101.936 108.934 101.534 109.023 101.226 109.2C100.918 109.377 100.764 109.657 100.764 110.04C100.764 110.88 101.24 111.3 102.192 111.3C102.734 111.3 103.196 111.109 103.578 110.726C103.97 110.334 104.166 109.83 104.166 109.214ZM111.276 105.308L113.292 110.838L115.322 105.308H116.568L113.908 112H112.69L110.03 105.308H111.276ZM120.543 111.258C121.467 111.258 121.995 110.852 122.125 110.04H123.259C123.157 110.712 122.858 111.235 122.363 111.608C121.878 111.972 121.271 112.154 120.543 112.154C119.647 112.154 118.919 111.837 118.359 111.202C117.799 110.558 117.519 109.704 117.519 108.64C117.519 107.576 117.799 106.727 118.359 106.092C118.929 105.457 119.68 105.14 120.613 105.14C121.556 105.14 122.256 105.504 122.713 106.232C123.18 106.96 123.343 107.847 123.203 108.892H118.625C118.625 109.583 118.793 110.152 119.129 110.6C119.465 111.039 119.937 111.258 120.543 111.258ZM121.355 106.19C121.141 106.078 120.879 106.022 120.571 106.022C120.002 106.022 119.549 106.218 119.213 106.61C118.887 106.993 118.695 107.473 118.639 108.052H122.209C122.209 107.119 121.925 106.498 121.355 106.19ZM128.168 106.246C127.114 106.246 126.568 107.077 126.53 108.738V112H125.424V105.294H126.53V106.582C126.866 105.649 127.459 105.182 128.308 105.182C128.579 105.182 128.836 105.224 129.078 105.308L129.022 106.386C128.742 106.293 128.458 106.246 128.168 106.246ZM130.42 106.946C130.42 106.395 130.654 105.957 131.12 105.63C131.596 105.303 132.236 105.14 133.038 105.14C133.841 105.14 134.466 105.308 134.914 105.644C135.372 105.98 135.61 106.405 135.628 106.918H134.55C134.466 106.311 133.953 106.008 133.01 106.008C132.553 106.008 132.198 106.111 131.946 106.316C131.704 106.521 131.582 106.745 131.582 106.988C131.582 107.221 131.676 107.422 131.862 107.59C132.049 107.749 132.348 107.889 132.758 108.01L134.102 108.458C134.672 108.635 135.106 108.864 135.404 109.144C135.712 109.415 135.866 109.793 135.866 110.278C135.866 110.754 135.619 111.188 135.124 111.58C134.63 111.963 133.939 112.154 133.052 112.154C132.166 112.154 131.475 111.958 130.98 111.566C130.486 111.165 130.224 110.651 130.196 110.026H131.26C131.279 110.446 131.447 110.763 131.764 110.978C132.091 111.183 132.497 111.286 132.982 111.286C133.468 111.286 133.869 111.183 134.186 110.978C134.504 110.773 134.662 110.53 134.662 110.25C134.662 109.961 134.569 109.741 134.382 109.592C134.196 109.443 133.892 109.312 133.472 109.2L132.17 108.766C131.004 108.421 130.42 107.814 130.42 106.946ZM138.21 105.294H139.316V112H138.21V105.294ZM138.756 103.726C138.532 103.726 138.354 103.665 138.224 103.544C138.102 103.413 138.042 103.245 138.042 103.04C138.042 102.825 138.102 102.657 138.224 102.536C138.354 102.405 138.532 102.34 138.756 102.34C138.98 102.34 139.157 102.405 139.288 102.536C139.428 102.657 139.498 102.825 139.498 103.04C139.498 103.245 139.428 103.413 139.288 103.544C139.157 103.665 138.98 103.726 138.756 103.726ZM144.745 105.14C143.812 105.14 143.056 105.443 142.477 106.05C141.908 106.657 141.623 107.525 141.623 108.654C141.623 109.774 141.908 110.637 142.477 111.244C143.056 111.851 143.812 112.154 144.745 112.154C145.679 112.154 146.43 111.851 146.999 111.244C147.578 110.637 147.867 109.774 147.867 108.654C147.867 107.525 147.578 106.657 146.999 106.05C146.43 105.443 145.679 105.14 144.745 105.14ZM142.757 108.654C142.757 107.851 142.93 107.226 143.275 106.778C143.621 106.321 144.115 106.092 144.759 106.092C145.413 106.092 145.907 106.321 146.243 106.778C146.579 107.226 146.747 107.851 146.747 108.654C146.747 109.447 146.57 110.073 146.215 110.53C145.861 110.978 145.357 111.202 144.703 111.202C144.059 111.202 143.574 110.978 143.247 110.53C142.921 110.073 142.757 109.447 142.757 108.654ZM146.607 102.746L143.191 104.328L142.869 103.628L146.159 101.766L146.607 102.746ZM151.043 106.596C151.482 105.625 152.233 105.14 153.297 105.14C154.091 105.14 154.707 105.401 155.145 105.924C155.593 106.447 155.817 107.161 155.817 108.066V112H154.725V108.066C154.725 107.422 154.571 106.937 154.263 106.61C153.965 106.283 153.535 106.12 152.975 106.12C152.415 106.12 151.963 106.349 151.617 106.806C151.272 107.263 151.09 107.898 151.071 108.71V112H149.965V105.308H150.917L151.043 106.596ZM67.4437 123.66C67.4437 123.053 67.3177 122.619 67.0657 122.358C66.8137 122.097 66.4451 121.966 65.9597 121.966C65.4837 121.966 65.0964 122.064 64.7977 122.26C64.5084 122.447 64.3637 122.745 64.3637 123.156H63.1457C63.1457 122.129 63.6964 121.495 64.7977 121.252C65.1337 121.177 65.4977 121.14 65.8897 121.14C66.7204 121.14 67.3691 121.35 67.8357 121.77C68.3024 122.19 68.5357 122.829 68.5357 123.688V128H67.5837L67.4717 126.88C67.0611 127.729 66.3191 128.154 65.2457 128.154C64.5271 128.154 63.9484 127.953 63.5097 127.552C63.0804 127.151 62.8657 126.651 62.8657 126.054C62.8657 125.457 63.1037 124.99 63.5797 124.654C64.0651 124.318 64.6671 124.15 65.3857 124.15C66.1044 124.15 66.7904 124.271 67.4437 124.514V123.66ZM67.4437 125.214C66.7811 125.027 66.2024 124.934 65.7077 124.934C65.2131 124.934 64.8117 125.023 64.5037 125.2C64.1957 125.377 64.0417 125.657 64.0417 126.04C64.0417 126.88 64.5177 127.3 65.4697 127.3C66.0111 127.3 66.4731 127.109 66.8557 126.726C67.2477 126.334 67.4437 125.83 67.4437 125.214ZM72.1977 122.596C72.6364 121.625 73.3877 121.14 74.4517 121.14C75.2451 121.14 75.8611 121.401 76.2997 121.924C76.7477 122.447 76.9717 123.161 76.9717 124.066V128H75.8797V124.066C75.8797 123.422 75.7257 122.937 75.4177 122.61C75.1191 122.283 74.6897 122.12 74.1297 122.12C73.5697 122.12 73.1171 122.349 72.7717 122.806C72.4264 123.263 72.2444 123.898 72.2257 124.71V128H71.1197V121.308H72.0717L72.1977 122.596ZM83.0693 127.804C82.2666 128.177 81.5339 128.257 80.8713 128.042C80.3953 127.893 80.0593 127.58 79.8633 127.104C79.7606 126.871 79.7093 126.591 79.7093 126.264V122.148H78.6313V121.308H79.7093V119.446H80.8013V121.308H82.9013V122.148H80.8013V126.25C80.8013 126.931 81.1186 127.272 81.7533 127.272C82.0986 127.272 82.4859 127.188 82.9153 127.02L83.0693 127.804ZM87.1429 127.258C88.0669 127.258 88.5943 126.852 88.7249 126.04H89.8589C89.7563 126.712 89.4576 127.235 88.9629 127.608C88.4776 127.972 87.8709 128.154 87.1429 128.154C86.2469 128.154 85.5189 127.837 84.9589 127.202C84.3989 126.558 84.1189 125.704 84.1189 124.64C84.1189 123.576 84.3989 122.727 84.9589 122.092C85.5283 121.457 86.2796 121.14 87.2129 121.14C88.1556 121.14 88.8556 121.504 89.3129 122.232C89.7796 122.96 89.9429 123.847 89.8029 124.892H85.2249C85.2249 125.583 85.3929 126.152 85.7289 126.6C86.0649 127.039 86.5363 127.258 87.1429 127.258ZM87.9549 122.19C87.7403 122.078 87.4789 122.022 87.1709 122.022C86.6016 122.022 86.1489 122.218 85.8129 122.61C85.4863 122.993 85.2949 123.473 85.2389 124.052H88.8089C88.8089 123.119 88.5243 122.498 87.9549 122.19ZM94.768 122.246C93.7134 122.246 93.1674 123.077 93.13 124.738V128H92.024V121.294H93.13V122.582C93.466 121.649 94.0587 121.182 94.908 121.182C95.1787 121.182 95.4354 121.224 95.678 121.308L95.622 122.386C95.342 122.293 95.0574 122.246 94.768 122.246ZM97.4401 121.294H98.5461V128H97.4401V121.294ZM97.9861 119.726C97.7621 119.726 97.5847 119.665 97.4541 119.544C97.3327 119.413 97.2721 119.245 97.2721 119.04C97.2721 118.825 97.3327 118.657 97.4541 118.536C97.5847 118.405 97.7621 118.34 97.9861 118.34C98.2101 118.34 98.3874 118.405 98.5181 118.536C98.6581 118.657 98.7281 118.825 98.7281 119.04C98.7281 119.245 98.6581 119.413 98.5181 119.544C98.3874 119.665 98.2101 119.726 97.9861 119.726ZM103.962 121.14C104.895 121.14 105.646 121.443 106.216 122.05C106.794 122.657 107.084 123.525 107.084 124.654C107.084 125.774 106.794 126.637 106.216 127.244C105.646 127.851 104.895 128.154 103.962 128.154C103.028 128.154 102.272 127.851 101.694 127.244C101.124 126.637 100.84 125.774 100.84 124.654C100.84 123.525 101.124 122.657 101.694 122.05C102.272 121.443 103.028 121.14 103.962 121.14ZM105.964 124.654C105.964 123.851 105.796 123.226 105.46 122.778C105.124 122.321 104.629 122.092 103.976 122.092C103.332 122.092 102.837 122.321 102.492 122.778C102.146 123.226 101.974 123.851 101.974 124.654C101.974 125.447 102.137 126.073 102.464 126.53C102.79 126.978 103.276 127.202 103.92 127.202C104.573 127.202 105.077 126.978 105.432 126.53C105.786 126.073 105.964 125.447 105.964 124.654ZM111.926 122.246C110.872 122.246 110.326 123.077 110.288 124.738V128H109.182V121.294H110.288V122.582C110.624 121.649 111.217 121.182 112.066 121.182C112.337 121.182 112.594 121.224 112.836 121.308L112.78 122.386C112.5 122.293 112.216 122.246 111.926 122.246Z" fill="#333333"/>
<path d="M195.655 103.194H201.073V104.146H196.761V107.1H200.821V108.038H196.761V111.034H201.073V112H195.655V103.194ZM204.594 106.596C205.033 105.625 205.784 105.14 206.848 105.14C207.642 105.14 208.258 105.401 208.696 105.924C209.144 106.447 209.368 107.161 209.368 108.066V112H208.276V108.066C208.276 107.422 208.122 106.937 207.814 106.61C207.516 106.283 207.086 106.12 206.526 106.12C205.966 106.12 205.514 106.349 205.168 106.806C204.823 107.263 204.641 107.898 204.622 108.71V112H203.516V105.308H204.468L204.594 106.596ZM214.192 105.14C214.985 105.14 215.615 105.345 216.082 105.756C216.548 106.157 216.852 106.661 216.992 107.268L215.872 107.366C215.75 106.974 215.554 106.671 215.284 106.456C215.013 106.232 214.714 106.12 214.388 106.12C213.79 106.12 213.305 106.344 212.932 106.792C212.568 107.24 212.386 107.851 212.386 108.626C212.386 109.391 212.563 110.007 212.918 110.474C213.282 110.941 213.73 111.174 214.262 111.174C214.803 111.174 215.204 111.053 215.466 110.81C215.736 110.558 215.872 110.203 215.872 109.746H217.006C217.006 110.465 216.754 111.048 216.25 111.496C215.755 111.935 215.106 112.154 214.304 112.154C213.454 112.154 212.731 111.832 212.134 111.188C211.546 110.544 211.252 109.69 211.252 108.626C211.252 107.553 211.546 106.703 212.134 106.078C212.722 105.453 213.408 105.14 214.192 105.14ZM223.721 110.67C223.264 111.641 222.522 112.126 221.495 112.126C220.739 112.126 220.128 111.916 219.661 111.496C219.204 111.076 218.975 110.427 218.975 109.55V105.294H220.081V109.466C220.081 110.595 220.604 111.16 221.649 111.16C222.256 111.16 222.746 110.927 223.119 110.46C223.502 109.993 223.702 109.396 223.721 108.668V105.294H224.827V112H223.721V110.67ZM229.971 111.258C230.895 111.258 231.422 110.852 231.553 110.04H232.687C232.584 110.712 232.286 111.235 231.791 111.608C231.306 111.972 230.699 112.154 229.971 112.154C229.075 112.154 228.347 111.837 227.787 111.202C227.227 110.558 226.947 109.704 226.947 108.64C226.947 107.576 227.227 106.727 227.787 106.092C228.356 105.457 229.108 105.14 230.041 105.14C230.984 105.14 231.684 105.504 232.141 106.232C232.608 106.96 232.771 107.847 232.631 108.892H228.053C228.053 109.583 228.221 110.152 228.557 110.6C228.893 111.039 229.364 111.258 229.971 111.258ZM230.783 106.19C230.568 106.078 230.307 106.022 229.999 106.022C229.43 106.022 228.977 106.218 228.641 106.61C228.314 106.993 228.123 107.473 228.067 108.052H231.637C231.637 107.119 231.352 106.498 230.783 106.19ZM235.93 106.596C236.369 105.625 237.12 105.14 238.184 105.14C238.977 105.14 239.593 105.401 240.032 105.924C240.48 106.447 240.704 107.161 240.704 108.066V112H239.612V108.066C239.612 107.422 239.458 106.937 239.15 106.61C238.851 106.283 238.422 106.12 237.862 106.12C237.302 106.12 236.849 106.349 236.504 106.806C236.159 107.263 235.977 107.898 235.958 108.71V112H234.852V105.308H235.804L235.93 106.596ZM246.802 111.804C245.999 112.177 245.266 112.257 244.604 112.042C244.128 111.893 243.792 111.58 243.596 111.104C243.493 110.871 243.442 110.591 243.442 110.264V106.148H242.364V105.308H243.442V103.446H244.534V105.308H246.634V106.148H244.534V110.25C244.534 110.931 244.851 111.272 245.486 111.272C245.831 111.272 246.218 111.188 246.648 111.02L246.802 111.804ZM251.295 106.246C250.241 106.246 249.695 107.077 249.657 108.738V112H248.551V105.294H249.657V106.582C249.993 105.649 250.586 105.182 251.435 105.182C251.706 105.182 251.963 105.224 252.205 105.308L252.149 106.386C251.869 106.293 251.585 106.246 251.295 106.246ZM256.305 105.14C257.239 105.14 257.99 105.443 258.559 106.05C259.138 106.657 259.427 107.525 259.427 108.654C259.427 109.774 259.138 110.637 258.559 111.244C257.99 111.851 257.239 112.154 256.305 112.154C255.372 112.154 254.616 111.851 254.037 111.244C253.468 110.637 253.183 109.774 253.183 108.654C253.183 107.525 253.468 106.657 254.037 106.05C254.616 105.443 255.372 105.14 256.305 105.14ZM258.307 108.654C258.307 107.851 258.139 107.226 257.803 106.778C257.467 106.321 256.973 106.092 256.319 106.092C255.675 106.092 255.181 106.321 254.835 106.778C254.49 107.226 254.317 107.851 254.317 108.654C254.317 109.447 254.481 110.073 254.807 110.53C255.134 110.978 255.619 111.202 256.263 111.202C256.917 111.202 257.421 110.978 257.775 110.53C258.13 110.073 258.307 109.447 258.307 108.654ZM267.102 105.14C267.895 105.14 268.525 105.345 268.992 105.756C269.459 106.157 269.762 106.661 269.902 107.268L268.782 107.366C268.661 106.974 268.465 106.671 268.194 106.456C267.923 106.232 267.625 106.12 267.298 106.12C266.701 106.12 266.215 106.344 265.842 106.792C265.478 107.24 265.296 107.851 265.296 108.626C265.296 109.391 265.473 110.007 265.828 110.474C266.192 110.941 266.64 111.174 267.172 111.174C267.713 111.174 268.115 111.053 268.376 110.81C268.647 110.558 268.782 110.203 268.782 109.746H269.916C269.916 110.465 269.664 111.048 269.16 111.496C268.665 111.935 268.017 112.154 267.214 112.154C266.365 112.154 265.641 111.832 265.044 111.188C264.456 110.544 264.162 109.69 264.162 108.626C264.162 107.553 264.456 106.703 265.044 106.078C265.632 105.453 266.318 105.14 267.102 105.14ZM274.489 105.14C275.422 105.14 276.174 105.443 276.743 106.05C277.322 106.657 277.611 107.525 277.611 108.654C277.611 109.774 277.322 110.637 276.743 111.244C276.174 111.851 275.422 112.154 274.489 112.154C273.556 112.154 272.8 111.851 272.221 111.244C271.652 110.637 271.367 109.774 271.367 108.654C271.367 107.525 271.652 106.657 272.221 106.05C272.8 105.443 273.556 105.14 274.489 105.14ZM276.491 108.654C276.491 107.851 276.323 107.226 275.987 106.778C275.651 106.321 275.156 106.092 274.503 106.092C273.859 106.092 273.364 106.321 273.019 106.778C272.674 107.226 272.501 107.851 272.501 108.654C272.501 109.447 272.664 110.073 272.991 110.53C273.318 110.978 273.803 111.202 274.447 111.202C275.1 111.202 275.604 110.978 275.959 110.53C276.314 110.073 276.491 109.447 276.491 108.654ZM280.788 106.596C281.226 105.625 281.978 105.14 283.042 105.14C283.835 105.14 284.451 105.401 284.89 105.924C285.338 106.447 285.562 107.161 285.562 108.066V112H284.47V108.066C284.47 107.422 284.316 106.937 284.008 106.61C283.709 106.283 283.28 106.12 282.72 106.12C282.16 106.12 281.707 106.349 281.362 106.806C281.016 107.263 280.834 107.898 280.816 108.71V112H279.71V105.308H280.662L280.788 106.596ZM207.485 126.67C207.028 127.641 206.286 128.126 205.259 128.126C204.503 128.126 203.892 127.916 203.425 127.496C202.968 127.076 202.739 126.427 202.739 125.55V121.294H203.845V125.466C203.845 126.595 204.368 127.16 205.413 127.16C206.02 127.16 206.51 126.927 206.883 126.46C207.266 125.993 207.467 125.396 207.485 124.668V121.294H208.591V128H207.485V126.67ZM211.076 122.946C211.076 122.395 211.309 121.957 211.776 121.63C212.252 121.303 212.891 121.14 213.694 121.14C214.496 121.14 215.122 121.308 215.57 121.644C216.027 121.98 216.265 122.405 216.284 122.918H215.206C215.122 122.311 214.608 122.008 213.666 122.008C213.208 122.008 212.854 122.111 212.602 122.316C212.359 122.521 212.238 122.745 212.238 122.988C212.238 123.221 212.331 123.422 212.518 123.59C212.704 123.749 213.003 123.889 213.414 124.01L214.758 124.458C215.327 124.635 215.761 124.864 216.06 125.144C216.368 125.415 216.522 125.793 216.522 126.278C216.522 126.754 216.274 127.188 215.78 127.58C215.285 127.963 214.594 128.154 213.708 128.154C212.821 128.154 212.13 127.958 211.636 127.566C211.141 127.165 210.88 126.651 210.852 126.026H211.916C211.934 126.446 212.102 126.763 212.42 126.978C212.746 127.183 213.152 127.286 213.638 127.286C214.123 127.286 214.524 127.183 214.842 126.978C215.159 126.773 215.318 126.53 215.318 126.25C215.318 125.961 215.224 125.741 215.038 125.592C214.851 125.443 214.548 125.312 214.128 125.2L212.826 124.766C211.659 124.421 211.076 123.814 211.076 122.946ZM223.345 126.67C222.888 127.641 222.146 128.126 221.119 128.126C220.363 128.126 219.752 127.916 219.285 127.496C218.828 127.076 218.599 126.427 218.599 125.55V121.294H219.705V125.466C219.705 126.595 220.228 127.16 221.273 127.16C221.88 127.16 222.37 126.927 222.743 126.46C223.126 125.993 223.326 125.396 223.345 124.668V121.294H224.451V128H223.345V126.67ZM231.429 123.66C231.429 123.053 231.303 122.619 231.051 122.358C230.799 122.097 230.43 121.966 229.945 121.966C229.469 121.966 229.082 122.064 228.783 122.26C228.494 122.447 228.349 122.745 228.349 123.156H227.131C227.131 122.129 227.682 121.495 228.783 121.252C229.119 121.177 229.483 121.14 229.875 121.14C230.706 121.14 231.354 121.35 231.821 121.77C232.288 122.19 232.521 122.829 232.521 123.688V128H231.569L231.457 126.88C231.046 127.729 230.304 128.154 229.231 128.154C228.512 128.154 227.934 127.953 227.495 127.552C227.066 127.151 226.851 126.651 226.851 126.054C226.851 125.457 227.089 124.99 227.565 124.654C228.05 124.318 228.652 124.15 229.371 124.15C230.09 124.15 230.776 124.271 231.429 124.514V123.66ZM231.429 125.214C230.766 125.027 230.188 124.934 229.693 124.934C229.198 124.934 228.797 125.023 228.489 125.2C228.181 125.377 228.027 125.657 228.027 126.04C228.027 126.88 228.503 127.3 229.455 127.3C229.996 127.3 230.458 127.109 230.841 126.726C231.233 126.334 231.429 125.83 231.429 125.214ZM237.849 122.246C236.794 122.246 236.248 123.077 236.211 124.738V128H235.105V121.294H236.211V122.582C236.547 121.649 237.14 121.182 237.989 121.182C238.26 121.182 238.516 121.224 238.759 121.308L238.703 122.386C238.423 122.293 238.138 122.246 237.849 122.246ZM240.521 121.294H241.627V128H240.521V121.294ZM241.067 119.726C240.843 119.726 240.666 119.665 240.535 119.544C240.414 119.413 240.353 119.245 240.353 119.04C240.353 118.825 240.414 118.657 240.535 118.536C240.666 118.405 240.843 118.34 241.067 118.34C241.291 118.34 241.468 118.405 241.599 118.536C241.739 118.657 241.809 118.825 241.809 119.04C241.809 119.245 241.739 119.413 241.599 119.544C241.468 119.665 241.291 119.726 241.067 119.726ZM247.043 121.14C247.976 121.14 248.727 121.443 249.297 122.05C249.875 122.657 250.165 123.525 250.165 124.654C250.165 125.774 249.875 126.637 249.297 127.244C248.727 127.851 247.976 128.154 247.043 128.154C246.109 128.154 245.353 127.851 244.775 127.244C244.205 126.637 243.921 125.774 243.921 124.654C243.921 123.525 244.205 122.657 244.775 122.05C245.353 121.443 246.109 121.14 247.043 121.14ZM249.045 124.654C249.045 123.851 248.877 123.226 248.541 122.778C248.205 122.321 247.71 122.092 247.057 122.092C246.413 122.092 245.918 122.321 245.573 122.778C245.227 123.226 245.055 123.851 245.055 124.654C245.055 125.447 245.218 126.073 245.545 126.53C245.871 126.978 246.357 127.202 247.001 127.202C247.654 127.202 248.158 126.978 248.513 126.53C248.867 126.073 249.045 125.447 249.045 124.654ZM251.927 122.946C251.927 122.395 252.161 121.957 252.627 121.63C253.103 121.303 253.743 121.14 254.545 121.14C255.348 121.14 255.973 121.308 256.421 121.644C256.879 121.98 257.117 122.405 257.135 122.918H256.057C255.973 122.311 255.46 122.008 254.517 122.008C254.06 122.008 253.705 122.111 253.453 122.316C253.211 122.521 253.089 122.745 253.089 122.988C253.089 123.221 253.183 123.422 253.369 123.59C253.556 123.749 253.855 123.889 254.265 124.01L255.609 124.458C256.179 124.635 256.613 124.864 256.911 125.144C257.219 125.415 257.373 125.793 257.373 126.278C257.373 126.754 257.126 127.188 256.631 127.58C256.137 127.963 255.446 128.154 254.559 128.154C253.673 128.154 252.982 127.958 252.487 127.566C251.993 127.165 251.731 126.651 251.703 126.026H252.767C252.786 126.446 252.954 126.763 253.271 126.978C253.598 127.183 254.004 127.286 254.489 127.286C254.975 127.286 255.376 127.183 255.693 126.978C256.011 126.773 256.169 126.53 256.169 126.25C256.169 125.961 256.076 125.741 255.889 125.592C255.703 125.443 255.399 125.312 254.979 125.2L253.677 124.766C252.511 124.421 251.927 123.814 251.927 122.946ZM262.544 117.766H263.664L260.136 129.022H259.03L262.544 117.766ZM269.833 123.66C269.833 123.053 269.707 122.619 269.455 122.358C269.203 122.097 268.835 121.966 268.349 121.966C267.873 121.966 267.486 122.064 267.187 122.26C266.898 122.447 266.753 122.745 266.753 123.156H265.535C265.535 122.129 266.086 121.495 267.187 121.252C267.523 121.177 267.887 121.14 268.279 121.14C269.11 121.14 269.759 121.35 270.225 121.77C270.692 122.19 270.925 122.829 270.925 123.688V128H269.973L269.861 126.88C269.451 127.729 268.709 128.154 267.635 128.154C266.917 128.154 266.338 127.953 265.899 127.552C265.47 127.151 265.255 126.651 265.255 126.054C265.255 125.457 265.493 124.99 265.969 124.654C266.455 124.318 267.057 124.15 267.775 124.15C268.494 124.15 269.18 124.271 269.833 124.514V123.66ZM269.833 125.214C269.171 125.027 268.592 124.934 268.097 124.934C267.603 124.934 267.201 125.023 266.893 125.2C266.585 125.377 266.431 125.657 266.431 126.04C266.431 126.88 266.907 127.3 267.859 127.3C268.401 127.3 268.863 127.109 269.245 126.726C269.637 126.334 269.833 125.83 269.833 125.214ZM273.173 122.946C273.173 122.395 273.407 121.957 273.873 121.63C274.349 121.303 274.989 121.14 275.791 121.14C276.594 121.14 277.219 121.308 277.667 121.644C278.125 121.98 278.363 122.405 278.381 122.918H277.303C277.219 122.311 276.706 122.008 275.763 122.008C275.306 122.008 274.951 122.111 274.699 122.316C274.457 122.521 274.335 122.745 274.335 122.988C274.335 123.221 274.429 123.422 274.615 123.59C274.802 123.749 275.101 123.889 275.511 124.01L276.855 124.458C277.425 124.635 277.859 124.864 278.157 125.144C278.465 125.415 278.619 125.793 278.619 126.278C278.619 126.754 278.372 127.188 277.877 127.58C277.383 127.963 276.692 128.154 275.805 128.154C274.919 128.154 274.228 127.958 273.733 127.566C273.239 127.165 272.977 126.651 272.949 126.026H274.013C274.032 126.446 274.2 126.763 274.517 126.978C274.844 127.183 275.25 127.286 275.735 127.286C276.221 127.286 276.622 127.183 276.939 126.978C277.257 126.773 277.415 126.53 277.415 126.25C277.415 125.961 277.322 125.741 277.135 125.592C276.949 125.443 276.645 125.312 276.225 125.2L274.923 124.766C273.757 124.421 273.173 123.814 273.173 122.946Z" fill="#333333"/>
<path d="M338.627 103.194H341.917C342.841 103.194 343.55 103.413 344.045 103.852C344.549 104.291 344.801 104.841 344.801 105.504C344.801 106.008 344.661 106.447 344.381 106.82C344.11 107.193 343.695 107.445 343.135 107.576C343.686 107.669 344.124 107.907 344.451 108.29C344.787 108.673 344.955 109.107 344.955 109.592C344.955 110.675 344.428 111.407 343.373 111.79C342.981 111.93 342.5 112 341.931 112H338.627V103.194ZM341.903 111.034C342.575 111.034 343.056 110.899 343.345 110.628C343.634 110.357 343.779 109.998 343.779 109.55C343.779 109.102 343.62 108.747 343.303 108.486C342.986 108.215 342.519 108.08 341.903 108.08H339.733V111.034H341.903ZM339.733 107.128H341.889C342.43 107.128 342.86 106.997 343.177 106.736C343.504 106.465 343.667 106.097 343.667 105.63C343.667 105.163 343.508 104.799 343.191 104.538C342.883 104.277 342.449 104.146 341.889 104.146H339.733V107.128ZM350.066 106.246C349.011 106.246 348.465 107.077 348.428 108.738V112H347.322V105.294H348.428V106.582C348.764 105.649 349.357 105.182 350.206 105.182C350.477 105.182 350.733 105.224 350.976 105.308L350.92 106.386C350.64 106.293 350.355 106.246 350.066 106.246ZM356.812 107.66C356.812 107.053 356.686 106.619 356.434 106.358C356.182 106.097 355.813 105.966 355.328 105.966C354.852 105.966 354.465 106.064 354.166 106.26C353.877 106.447 353.732 106.745 353.732 107.156H352.514C352.514 106.129 353.065 105.495 354.166 105.252C354.502 105.177 354.866 105.14 355.258 105.14C356.089 105.14 356.737 105.35 357.204 105.77C357.671 106.19 357.904 106.829 357.904 107.688V112H356.952L356.84 110.88C356.429 111.729 355.687 112.154 354.614 112.154C353.895 112.154 353.317 111.953 352.878 111.552C352.449 111.151 352.234 110.651 352.234 110.054C352.234 109.457 352.472 108.99 352.948 108.654C353.433 108.318 354.035 108.15 354.754 108.15C355.473 108.15 356.159 108.271 356.812 108.514V107.66ZM356.812 109.214C356.149 109.027 355.571 108.934 355.076 108.934C354.581 108.934 354.18 109.023 353.872 109.2C353.564 109.377 353.41 109.657 353.41 110.04C353.41 110.88 353.886 111.3 354.838 111.3C355.379 111.3 355.841 111.109 356.224 110.726C356.616 110.334 356.812 109.83 356.812 109.214ZM360.572 105.294H361.678V112H360.572V105.294ZM361.118 103.726C360.894 103.726 360.717 103.665 360.586 103.544C360.465 103.413 360.404 103.245 360.404 103.04C360.404 102.825 360.465 102.657 360.586 102.536C360.717 102.405 360.894 102.34 361.118 102.34C361.342 102.34 361.519 102.405 361.65 102.536C361.79 102.657 361.86 102.825 361.86 103.04C361.86 103.245 361.79 103.413 361.65 103.544C361.519 103.665 361.342 103.726 361.118 103.726ZM365.749 106.596C366.188 105.625 366.939 105.14 368.003 105.14C368.797 105.14 369.413 105.401 369.851 105.924C370.299 106.447 370.523 107.161 370.523 108.066V112H369.431V108.066C369.431 107.422 369.277 106.937 368.969 106.61C368.671 106.283 368.241 106.12 367.681 106.12C367.121 106.12 366.669 106.349 366.323 106.806C365.978 107.263 365.796 107.898 365.777 108.71V112H364.671V105.308H365.623L365.749 106.596ZM372.771 106.946C372.771 106.395 373.004 105.957 373.471 105.63C373.947 105.303 374.586 105.14 375.389 105.14C376.192 105.14 376.817 105.308 377.265 105.644C377.722 105.98 377.96 106.405 377.979 106.918H376.901C376.817 106.311 376.304 106.008 375.361 106.008C374.904 106.008 374.549 106.111 374.297 106.316C374.054 106.521 373.933 106.745 373.933 106.988C373.933 107.221 374.026 107.422 374.213 107.59C374.4 107.749 374.698 107.889 375.109 108.01L376.453 108.458C377.022 108.635 377.456 108.864 377.755 109.144C378.063 109.415 378.217 109.793 378.217 110.278C378.217 110.754 377.97 111.188 377.475 111.58C376.98 111.963 376.29 112.154 375.403 112.154C374.516 112.154 373.826 111.958 373.331 111.566C372.836 111.165 372.575 110.651 372.547 110.026H373.611C373.63 110.446 373.798 110.763 374.115 110.978C374.442 111.183 374.848 111.286 375.333 111.286C375.818 111.286 376.22 111.183 376.537 110.978C376.854 110.773 377.013 110.53 377.013 110.25C377.013 109.961 376.92 109.741 376.733 109.592C376.546 109.443 376.243 109.312 375.823 109.2L374.521 108.766C373.354 108.421 372.771 107.814 372.771 106.946ZM383.99 111.804C383.188 112.177 382.455 112.257 381.792 112.042C381.316 111.893 380.98 111.58 380.784 111.104C380.682 110.871 380.63 110.591 380.63 110.264V106.148H379.552V105.308H380.63V103.446H381.722V105.308H383.822V106.148H381.722V110.25C381.722 110.931 382.04 111.272 382.674 111.272C383.02 111.272 383.407 111.188 383.836 111.02L383.99 111.804ZM388.162 105.14C389.095 105.14 389.847 105.443 390.416 106.05C390.995 106.657 391.284 107.525 391.284 108.654C391.284 109.774 390.995 110.637 390.416 111.244C389.847 111.851 389.095 112.154 388.162 112.154C387.229 112.154 386.473 111.851 385.894 111.244C385.325 110.637 385.04 109.774 385.04 108.654C385.04 107.525 385.325 106.657 385.894 106.05C386.473 105.443 387.229 105.14 388.162 105.14ZM390.164 108.654C390.164 107.851 389.996 107.226 389.66 106.778C389.324 106.321 388.829 106.092 388.176 106.092C387.532 106.092 387.037 106.321 386.692 106.778C386.347 107.226 386.174 107.851 386.174 108.654C386.174 109.447 386.337 110.073 386.664 110.53C386.991 110.978 387.476 111.202 388.12 111.202C388.773 111.202 389.277 110.978 389.632 110.53C389.987 110.073 390.164 109.447 390.164 108.654ZM396.126 106.246C395.072 106.246 394.526 107.077 394.488 108.738V112H393.382V105.294H394.488V106.582C394.824 105.649 395.417 105.182 396.266 105.182C396.537 105.182 396.794 105.224 397.036 105.308L396.98 106.386C396.7 106.293 396.416 106.246 396.126 106.246ZM399.792 106.596C400.231 105.625 400.982 105.14 402.046 105.14C402.625 105.14 403.11 105.285 403.502 105.574C403.894 105.854 404.179 106.246 404.356 106.75C404.776 105.677 405.556 105.14 406.694 105.14C407.497 105.14 408.118 105.401 408.556 105.924C408.995 106.447 409.214 107.161 409.214 108.066V112H408.122V108.066C408.122 107.422 407.968 106.937 407.66 106.61C407.362 106.283 406.928 106.12 406.358 106.12C405.789 106.12 405.346 106.353 405.028 106.82C404.72 107.287 404.566 107.931 404.566 108.752V112H403.474V108.066C403.474 107.422 403.32 106.937 403.012 106.61C402.714 106.283 402.284 106.12 401.724 106.12C401.164 106.12 400.712 106.349 400.366 106.806C400.021 107.263 399.839 107.898 399.82 108.71V112H398.714V105.308H399.666L399.792 106.596ZM411.882 105.294H412.988V112H411.882V105.294ZM412.428 103.726C412.204 103.726 412.027 103.665 411.896 103.544C411.775 103.413 411.714 103.245 411.714 103.04C411.714 102.825 411.775 102.657 411.896 102.536C412.027 102.405 412.204 102.34 412.428 102.34C412.652 102.34 412.83 102.405 412.96 102.536C413.1 102.657 413.17 102.825 413.17 103.04C413.17 103.245 413.1 103.413 412.96 103.544C412.83 103.665 412.652 103.726 412.428 103.726ZM417.06 106.596C417.499 105.625 418.25 105.14 419.314 105.14C420.107 105.14 420.723 105.401 421.162 105.924C421.61 106.447 421.834 107.161 421.834 108.066V112H420.742V108.066C420.742 107.422 420.588 106.937 420.28 106.61C419.981 106.283 419.552 106.12 418.992 106.12C418.432 106.12 417.979 106.349 417.634 106.806C417.289 107.263 417.107 107.898 417.088 108.71V112H415.982V105.308H416.934L417.06 106.596ZM424.712 111.79C424.152 111.519 423.872 111.104 423.872 110.544C423.872 110.255 423.979 110.003 424.194 109.788C424.418 109.564 424.693 109.415 425.02 109.34C424.516 108.892 424.264 108.304 424.264 107.576C424.264 106.848 424.52 106.26 425.034 105.812C425.556 105.364 426.172 105.14 426.882 105.14C427.591 105.14 428.193 105.308 428.688 105.644C428.753 105.149 428.949 104.753 429.276 104.454C429.612 104.155 430.05 104.006 430.592 104.006L430.494 105.098C429.672 105.098 429.243 105.443 429.206 106.134C429.532 106.535 429.696 107.016 429.696 107.576C429.696 108.295 429.434 108.887 428.912 109.354C428.398 109.811 427.754 110.04 426.98 110.04C426.448 110.04 425.976 109.933 425.566 109.718C425.379 109.755 425.211 109.844 425.062 109.984C424.912 110.115 424.838 110.297 424.838 110.53C424.838 111.025 425.248 111.272 426.07 111.272H428.674C429.299 111.272 429.794 111.407 430.158 111.678C430.522 111.939 430.704 112.308 430.704 112.784C430.704 113.493 430.344 114.114 429.626 114.646C428.916 115.178 428.016 115.444 426.924 115.444C425.832 115.444 424.973 115.239 424.348 114.828C423.722 114.427 423.41 113.918 423.41 113.302C423.41 112.901 423.526 112.574 423.76 112.322C424.002 112.07 424.32 111.893 424.712 111.79ZM424.502 113.26C424.502 113.615 424.693 113.918 425.076 114.17C425.468 114.431 426.056 114.562 426.84 114.562C427.633 114.562 428.291 114.389 428.814 114.044C429.346 113.708 429.612 113.311 429.612 112.854C429.612 112.639 429.532 112.453 429.374 112.294C429.224 112.145 428.991 112.07 428.674 112.07H425.972C425.496 112.089 425.132 112.201 424.88 112.406C424.628 112.621 424.502 112.905 424.502 113.26ZM428.618 107.576C428.618 107.091 428.473 106.699 428.184 106.4C427.894 106.092 427.493 105.938 426.98 105.938C426.476 105.938 426.079 106.092 425.79 106.4C425.5 106.699 425.356 107.091 425.356 107.576C425.356 108.061 425.5 108.463 425.79 108.78C426.088 109.088 426.49 109.242 426.994 109.242C427.498 109.242 427.894 109.083 428.184 108.766C428.473 108.449 428.618 108.052 428.618 107.576ZM440.066 106.302V102.466H441.158V112H440.262L440.122 110.88C439.907 111.3 439.622 111.617 439.268 111.832C438.913 112.047 438.526 112.154 438.106 112.154C437.256 112.154 436.542 111.827 435.964 111.174C435.394 110.521 435.11 109.671 435.11 108.626C435.11 107.571 435.39 106.727 435.95 106.092C436.519 105.457 437.233 105.14 438.092 105.14C438.96 105.14 439.618 105.527 440.066 106.302ZM438.162 106.12C437.62 106.12 437.163 106.349 436.79 106.806C436.426 107.263 436.244 107.875 436.244 108.64C436.244 109.405 436.43 110.021 436.804 110.488C437.177 110.945 437.625 111.174 438.148 111.174C438.67 111.174 439.114 111.001 439.478 110.656C439.851 110.301 440.047 109.83 440.066 109.242V108.15C440.066 107.525 439.884 107.03 439.52 106.666C439.156 106.302 438.703 106.12 438.162 106.12ZM446.306 111.258C447.23 111.258 447.757 110.852 447.888 110.04H449.022C448.919 110.712 448.621 111.235 448.126 111.608C447.641 111.972 447.034 112.154 446.306 112.154C445.41 112.154 444.682 111.837 444.122 111.202C443.562 110.558 443.282 109.704 443.282 108.64C443.282 107.576 443.562 106.727 444.122 106.092C444.691 105.457 445.443 105.14 446.376 105.14C447.319 105.14 448.019 105.504 448.476 106.232C448.943 106.96 449.106 107.847 448.966 108.892H444.388C444.388 109.583 444.556 110.152 444.892 110.6C445.228 111.039 445.699 111.258 446.306 111.258ZM447.118 106.19C446.903 106.078 446.642 106.022 446.334 106.022C445.765 106.022 445.312 106.218 444.976 106.61C444.649 106.993 444.458 107.473 444.402 108.052H447.972C447.972 107.119 447.687 106.498 447.118 106.19ZM377.532 121.294H378.638V128H377.532V121.294ZM378.078 119.726C377.854 119.726 377.677 119.665 377.546 119.544C377.425 119.413 377.364 119.245 377.364 119.04C377.364 118.825 377.425 118.657 377.546 118.536C377.677 118.405 377.854 118.34 378.078 118.34C378.302 118.34 378.479 118.405 378.61 118.536C378.75 118.657 378.82 118.825 378.82 119.04C378.82 119.245 378.75 119.413 378.61 119.544C378.479 119.665 378.302 119.726 378.078 119.726ZM386.027 122.302V118.466H387.119V128H386.223L386.083 126.88C385.869 127.3 385.584 127.617 385.229 127.832C384.875 128.047 384.487 128.154 384.067 128.154C383.218 128.154 382.504 127.827 381.925 127.174C381.356 126.521 381.071 125.671 381.071 124.626C381.071 123.571 381.351 122.727 381.911 122.092C382.481 121.457 383.195 121.14 384.053 121.14C384.921 121.14 385.579 121.527 386.027 122.302ZM384.123 122.12C383.582 122.12 383.125 122.349 382.751 122.806C382.387 123.263 382.205 123.875 382.205 124.64C382.205 125.405 382.392 126.021 382.765 126.488C383.139 126.945 383.587 127.174 384.109 127.174C384.632 127.174 385.075 127.001 385.439 126.656C385.813 126.301 386.009 125.83 386.027 125.242V124.15C386.027 123.525 385.845 123.03 385.481 122.666C385.117 122.302 384.665 122.12 384.123 122.12ZM392.268 127.258C393.192 127.258 393.719 126.852 393.85 126.04H394.984C394.881 126.712 394.583 127.235 394.088 127.608C393.603 127.972 392.996 128.154 392.268 128.154C391.372 128.154 390.644 127.837 390.084 127.202C389.524 126.558 389.244 125.704 389.244 124.64C389.244 123.576 389.524 122.727 390.084 122.092C390.653 121.457 391.405 121.14 392.338 121.14C393.281 121.14 393.981 121.504 394.438 122.232C394.905 122.96 395.068 123.847 394.928 124.892H390.35C390.35 125.583 390.518 126.152 390.854 126.6C391.19 127.039 391.661 127.258 392.268 127.258ZM393.08 122.19C392.865 122.078 392.604 122.022 392.296 122.022C391.727 122.022 391.274 122.218 390.938 122.61C390.611 122.993 390.42 123.473 390.364 124.052H393.934C393.934 123.119 393.649 122.498 393.08 122.19ZM401.307 123.66C401.307 123.053 401.181 122.619 400.929 122.358C400.677 122.097 400.308 121.966 399.823 121.966C399.347 121.966 398.96 122.064 398.661 122.26C398.372 122.447 398.227 122.745 398.227 123.156H397.009C397.009 122.129 397.56 121.495 398.661 121.252C398.997 121.177 399.361 121.14 399.753 121.14C400.584 121.14 401.232 121.35 401.699 121.77C402.166 122.19 402.399 122.829 402.399 123.688V128H401.447L401.335 126.88C400.924 127.729 400.182 128.154 399.109 128.154C398.39 128.154 397.812 127.953 397.373 127.552C396.944 127.151 396.729 126.651 396.729 126.054C396.729 125.457 396.967 124.99 397.443 124.654C397.928 124.318 398.53 124.15 399.249 124.15C399.968 124.15 400.654 124.271 401.307 124.514V123.66ZM401.307 125.214C400.644 125.027 400.066 124.934 399.571 124.934C399.076 124.934 398.675 125.023 398.367 125.2C398.059 125.377 397.905 125.657 397.905 126.04C397.905 126.88 398.381 127.3 399.333 127.3C399.874 127.3 400.336 127.109 400.719 126.726C401.111 126.334 401.307 125.83 401.307 125.214ZM404.647 122.946C404.647 122.395 404.88 121.957 405.347 121.63C405.823 121.303 406.462 121.14 407.265 121.14C408.068 121.14 408.693 121.308 409.141 121.644C409.598 121.98 409.836 122.405 409.855 122.918H408.777C408.693 122.311 408.18 122.008 407.237 122.008C406.78 122.008 406.425 122.111 406.173 122.316C405.93 122.521 405.809 122.745 405.809 122.988C405.809 123.221 405.902 123.422 406.089 123.59C406.276 123.749 406.574 123.889 406.985 124.01L408.329 124.458C408.898 124.635 409.332 124.864 409.631 125.144C409.939 125.415 410.093 125.793 410.093 126.278C410.093 126.754 409.846 127.188 409.351 127.58C408.856 127.963 408.166 128.154 407.279 128.154C406.392 128.154 405.702 127.958 405.207 127.566C404.712 127.165 404.451 126.651 404.423 126.026H405.487C405.506 126.446 405.674 126.763 405.991 126.978C406.318 127.183 406.724 127.286 407.209 127.286C407.694 127.286 408.096 127.183 408.413 126.978C408.73 126.773 408.889 126.53 408.889 126.25C408.889 125.961 408.796 125.741 408.609 125.592C408.422 125.443 408.119 125.312 407.699 125.2L406.397 124.766C405.23 124.421 404.647 123.814 404.647 122.946Z" fill="#333333"/>
<path d="M499.719 103.194C501.045 103.194 502.104 103.595 502.897 104.398C503.7 105.191 504.101 106.26 504.101 107.604C504.101 108.939 503.7 110.007 502.897 110.81C502.104 111.603 501.045 112 499.719 112H497.129V103.194H499.719ZM498.235 111.034H499.719C500.699 111.034 501.479 110.712 502.057 110.068C502.636 109.415 502.925 108.589 502.925 107.59C502.925 106.591 502.631 105.775 502.043 105.14C501.465 104.496 500.69 104.174 499.719 104.174H498.235V111.034ZM506.469 105.294H507.575V112H506.469V105.294ZM507.015 103.726C506.791 103.726 506.614 103.665 506.483 103.544C506.362 103.413 506.301 103.245 506.301 103.04C506.301 102.825 506.362 102.657 506.483 102.536C506.614 102.405 506.791 102.34 507.015 102.34C507.239 102.34 507.417 102.405 507.547 102.536C507.687 102.657 507.757 102.825 507.757 103.04C507.757 103.245 507.687 103.413 507.547 103.544C507.417 103.665 507.239 103.726 507.015 103.726ZM510.233 106.946C510.233 106.395 510.466 105.957 510.933 105.63C511.409 105.303 512.048 105.14 512.851 105.14C513.654 105.14 514.279 105.308 514.727 105.644C515.184 105.98 515.422 106.405 515.441 106.918H514.363C514.279 106.311 513.766 106.008 512.823 106.008C512.366 106.008 512.011 106.111 511.759 106.316C511.516 106.521 511.395 106.745 511.395 106.988C511.395 107.221 511.488 107.422 511.675 107.59C511.862 107.749 512.16 107.889 512.571 108.01L513.915 108.458C514.484 108.635 514.918 108.864 515.217 109.144C515.525 109.415 515.679 109.793 515.679 110.278C515.679 110.754 515.432 111.188 514.937 111.58C514.442 111.963 513.752 112.154 512.865 112.154C511.978 112.154 511.288 111.958 510.793 111.566C510.298 111.165 510.037 110.651 510.009 110.026H511.073C511.092 110.446 511.26 110.763 511.577 110.978C511.904 111.183 512.31 111.286 512.795 111.286C513.28 111.286 513.682 111.183 513.999 110.978C514.316 110.773 514.475 110.53 514.475 110.25C514.475 109.961 514.382 109.741 514.195 109.592C514.008 109.443 513.705 109.312 513.285 109.2L511.983 108.766C510.816 108.421 510.233 107.814 510.233 106.946ZM520.262 111.258C521.186 111.258 521.713 110.852 521.844 110.04H522.978C522.875 110.712 522.577 111.235 522.082 111.608C521.597 111.972 520.99 112.154 520.262 112.154C519.366 112.154 518.638 111.837 518.078 111.202C517.518 110.558 517.238 109.704 517.238 108.64C517.238 107.576 517.518 106.727 518.078 106.092C518.647 105.457 519.399 105.14 520.332 105.14C521.275 105.14 521.975 105.504 522.432 106.232C522.899 106.96 523.062 107.847 522.922 108.892H518.344C518.344 109.583 518.512 110.152 518.848 110.6C519.184 111.039 519.655 111.258 520.262 111.258ZM521.074 106.19C520.859 106.078 520.598 106.022 520.29 106.022C519.721 106.022 519.268 106.218 518.932 106.61C518.605 106.993 518.414 107.473 518.358 108.052H521.928C521.928 107.119 521.643 106.498 521.074 106.19ZM528.489 105.14C527.425 105.14 526.674 105.625 526.235 106.596L526.109 105.308H525.157V112H526.263V108.71C526.282 107.898 526.464 107.263 526.809 106.806C527.154 106.349 527.607 106.12 528.167 106.12C528.727 106.12 529.156 106.283 529.455 106.61C529.763 106.937 529.917 107.422 529.917 108.066V112H531.009V108.066C531.009 107.161 530.785 106.447 530.337 105.924C529.898 105.401 529.282 105.14 528.489 105.14ZM527.061 103.026C526.762 103.026 526.496 103.264 526.263 103.74L525.815 103.474C525.927 102.998 526.09 102.639 526.305 102.396C526.52 102.144 526.748 102.018 526.991 102.018C527.234 102.018 527.514 102.097 527.831 102.256C528.26 102.471 528.536 102.606 528.657 102.662C528.788 102.718 528.914 102.746 529.035 102.746C529.156 102.746 529.282 102.69 529.413 102.578C529.544 102.457 529.656 102.27 529.749 102.018L530.239 102.34C530.136 102.788 529.968 103.133 529.735 103.376C529.511 103.619 529.301 103.74 529.105 103.74C528.918 103.74 528.746 103.712 528.587 103.656C528.428 103.6 528.209 103.502 527.929 103.362C527.649 103.213 527.458 103.119 527.355 103.082C527.262 103.045 527.164 103.026 527.061 103.026ZM536.014 105.14C536.948 105.14 537.699 105.443 538.268 106.05C538.847 106.657 539.136 107.525 539.136 108.654C539.136 109.774 538.847 110.637 538.268 111.244C537.699 111.851 536.948 112.154 536.014 112.154C535.081 112.154 534.325 111.851 533.746 111.244C533.177 110.637 532.892 109.774 532.892 108.654C532.892 107.525 533.177 106.657 533.746 106.05C534.325 105.443 535.081 105.14 536.014 105.14ZM538.016 108.654C538.016 107.851 537.848 107.226 537.512 106.778C537.176 106.321 536.682 106.092 536.028 106.092C535.384 106.092 534.89 106.321 534.544 106.778C534.199 107.226 534.026 107.851 534.026 108.654C534.026 109.447 534.19 110.073 534.516 110.53C534.843 110.978 535.328 111.202 535.972 111.202C536.626 111.202 537.13 110.978 537.484 110.53C537.839 110.073 538.016 109.447 538.016 108.654ZM543.241 113.946C543.698 114.301 544.179 114.478 544.683 114.478C545.056 114.478 545.378 114.291 545.649 113.918C545.845 113.647 546.022 113.237 546.181 112.686L546.377 112L543.633 105.308H544.865L546.895 110.642L548.477 105.308H549.597L547.091 113.33C546.876 114.011 546.592 114.534 546.237 114.898C545.892 115.262 545.448 115.444 544.907 115.444C544.375 115.444 543.82 115.281 543.241 114.954V113.946ZM553.372 103.194H560.218V104.146H557.348V112H556.242V104.146H553.372V103.194ZM562.973 111.258C563.897 111.258 564.424 110.852 564.555 110.04H565.689C565.586 110.712 565.288 111.235 564.793 111.608C564.308 111.972 563.701 112.154 562.973 112.154C562.077 112.154 561.349 111.837 560.789 111.202C560.229 110.558 559.949 109.704 559.949 108.64C559.949 107.576 560.229 106.727 560.789 106.092C561.358 105.457 562.11 105.14 563.043 105.14C563.986 105.14 564.686 105.504 565.143 106.232C565.61 106.96 565.773 107.847 565.633 108.892H561.055C561.055 109.583 561.223 110.152 561.559 110.6C561.895 111.039 562.366 111.258 562.973 111.258ZM563.785 106.19C563.57 106.078 563.309 106.022 563.001 106.022C562.432 106.022 561.979 106.218 561.643 106.61C561.316 106.993 561.125 107.473 561.069 108.052H564.639C564.639 107.119 564.354 106.498 563.785 106.19ZM567.518 106.946C567.518 106.395 567.751 105.957 568.218 105.63C568.694 105.303 569.333 105.14 570.136 105.14C570.939 105.14 571.564 105.308 572.012 105.644C572.469 105.98 572.707 106.405 572.726 106.918H571.648C571.564 106.311 571.051 106.008 570.108 106.008C569.651 106.008 569.296 106.111 569.044 106.316C568.801 106.521 568.68 106.745 568.68 106.988C568.68 107.221 568.773 107.422 568.96 107.59C569.147 107.749 569.445 107.889 569.856 108.01L571.2 108.458C571.769 108.635 572.203 108.864 572.502 109.144C572.81 109.415 572.964 109.793 572.964 110.278C572.964 110.754 572.717 111.188 572.222 111.58C571.727 111.963 571.037 112.154 570.15 112.154C569.263 112.154 568.573 111.958 568.078 111.566C567.583 111.165 567.322 110.651 567.294 110.026H568.358C568.377 110.446 568.545 110.763 568.862 110.978C569.189 111.183 569.595 111.286 570.08 111.286C570.565 111.286 570.967 111.183 571.284 110.978C571.601 110.773 571.76 110.53 571.76 110.25C571.76 109.961 571.667 109.741 571.48 109.592C571.293 109.443 570.99 109.312 570.57 109.2L569.268 108.766C568.101 108.421 567.518 107.814 567.518 106.946ZM578.737 111.804C577.935 112.177 577.202 112.257 576.539 112.042C576.063 111.893 575.727 111.58 575.531 111.104C575.429 110.871 575.377 110.591 575.377 110.264V106.148H574.299V105.308H575.377V103.446H576.469V105.308H578.569V106.148H576.469V110.25C576.469 110.931 576.787 111.272 577.421 111.272C577.767 111.272 578.154 111.188 578.583 111.02L578.737 111.804ZM582.811 111.258C583.735 111.258 584.262 110.852 584.393 110.04H585.527C585.424 110.712 585.126 111.235 584.631 111.608C584.146 111.972 583.539 112.154 582.811 112.154C581.915 112.154 581.187 111.837 580.627 111.202C580.067 110.558 579.787 109.704 579.787 108.64C579.787 107.576 580.067 106.727 580.627 106.092C581.196 105.457 581.948 105.14 582.881 105.14C583.824 105.14 584.524 105.504 584.981 106.232C585.448 106.96 585.611 107.847 585.471 108.892H580.893C580.893 109.583 581.061 110.152 581.397 110.6C581.733 111.039 582.204 111.258 582.811 111.258ZM583.623 106.19C583.408 106.078 583.147 106.022 582.839 106.022C582.27 106.022 581.817 106.218 581.481 106.61C581.154 106.993 580.963 107.473 580.907 108.052H584.477C584.477 107.119 584.192 106.498 583.623 106.19ZM590.114 105.14C591.047 105.14 591.799 105.443 592.368 106.05C592.947 106.657 593.236 107.525 593.236 108.654C593.236 109.774 592.947 110.637 592.368 111.244C591.799 111.851 591.047 112.154 590.114 112.154C589.181 112.154 588.425 111.851 587.846 111.244C587.277 110.637 586.992 109.774 586.992 108.654C586.992 107.525 587.277 106.657 587.846 106.05C588.425 105.443 589.181 105.14 590.114 105.14ZM592.116 108.654C592.116 107.851 591.948 107.226 591.612 106.778C591.276 106.321 590.781 106.092 590.128 106.092C589.484 106.092 588.989 106.321 588.644 106.778C588.299 107.226 588.126 107.851 588.126 108.654C588.126 109.447 588.289 110.073 588.616 110.53C588.943 110.978 589.428 111.202 590.072 111.202C590.725 111.202 591.229 110.978 591.584 110.53C591.939 110.073 592.116 109.447 592.116 108.654ZM515.079 119.194C516.049 119.194 516.787 119.441 517.291 119.936C517.804 120.421 518.061 121.079 518.061 121.91C518.061 122.741 517.804 123.399 517.291 123.884C516.787 124.36 516.049 124.598 515.079 124.598H513.343V128H512.237V119.194H515.079ZM515.079 123.646C515.685 123.646 516.143 123.492 516.451 123.184C516.768 122.876 516.927 122.456 516.927 121.924C516.927 121.383 516.768 120.953 516.451 120.636C516.143 120.309 515.685 120.146 515.079 120.146H513.343V123.646H515.079ZM520.017 118.466H521.123V128H520.017V118.466ZM528.084 123.66C528.084 123.053 527.958 122.619 527.706 122.358C527.454 122.097 527.086 121.966 526.6 121.966C526.124 121.966 525.737 122.064 525.438 122.26C525.149 122.447 525.004 122.745 525.004 123.156H523.786C523.786 122.129 524.337 121.495 525.438 121.252C525.774 121.177 526.138 121.14 526.53 121.14C527.361 121.14 528.01 121.35 528.476 121.77C528.943 122.19 529.176 122.829 529.176 123.688V128H528.224L528.112 126.88C527.702 127.729 526.96 128.154 525.886 128.154C525.168 128.154 524.589 127.953 524.15 127.552C523.721 127.151 523.506 126.651 523.506 126.054C523.506 125.457 523.744 124.99 524.22 124.654C524.706 124.318 525.308 124.15 526.026 124.15C526.745 124.15 527.431 124.271 528.084 124.514V123.66ZM528.084 125.214C527.422 125.027 526.843 124.934 526.348 124.934C525.854 124.934 525.452 125.023 525.144 125.2C524.836 125.377 524.682 125.657 524.682 126.04C524.682 126.88 525.158 127.3 526.11 127.3C526.652 127.3 527.114 127.109 527.496 126.726C527.888 126.334 528.084 125.83 528.084 125.214ZM535.274 127.804C534.472 128.177 533.739 128.257 533.076 128.042C532.6 127.893 532.264 127.58 532.068 127.104C531.966 126.871 531.914 126.591 531.914 126.264V122.148H530.836V121.308H531.914V119.446H533.006V121.308H535.106V122.148H533.006V126.25C533.006 126.931 533.324 127.272 533.958 127.272C534.304 127.272 534.691 127.188 535.12 127.02L535.274 127.804ZM541.182 123.66C541.182 123.053 541.056 122.619 540.804 122.358C540.552 122.097 540.183 121.966 539.698 121.966C539.222 121.966 538.835 122.064 538.536 122.26C538.247 122.447 538.102 122.745 538.102 123.156H536.884C536.884 122.129 537.435 121.495 538.536 121.252C538.872 121.177 539.236 121.14 539.628 121.14C540.459 121.14 541.107 121.35 541.574 121.77C542.041 122.19 542.274 122.829 542.274 123.688V128H541.322L541.21 126.88C540.799 127.729 540.057 128.154 538.984 128.154C538.265 128.154 537.687 127.953 537.248 127.552C536.819 127.151 536.604 126.651 536.604 126.054C536.604 125.457 536.842 124.99 537.318 124.654C537.803 124.318 538.405 124.15 539.124 124.15C539.843 124.15 540.529 124.271 541.182 124.514V123.66ZM541.182 125.214C540.519 125.027 539.941 124.934 539.446 124.934C538.951 124.934 538.55 125.023 538.242 125.2C537.934 125.377 537.78 125.657 537.78 126.04C537.78 126.88 538.256 127.3 539.208 127.3C539.749 127.3 540.211 127.109 540.594 126.726C540.986 126.334 541.182 125.83 541.182 125.214ZM548.12 119.404C547.812 119.283 547.569 119.222 547.392 119.222C547.065 119.222 546.809 119.301 546.622 119.46C546.435 119.619 546.342 119.899 546.342 120.3V121.308H547.728V122.064H546.342V128H545.25V122.064H544.144V121.308H545.25V120.286C545.25 119.623 545.432 119.138 545.796 118.83C546.16 118.513 546.58 118.354 547.056 118.354C547.532 118.354 547.952 118.415 548.316 118.536L548.12 119.404ZM552.079 121.14C553.012 121.14 553.764 121.443 554.333 122.05C554.912 122.657 555.201 123.525 555.201 124.654C555.201 125.774 554.912 126.637 554.333 127.244C553.764 127.851 553.012 128.154 552.079 128.154C551.146 128.154 550.39 127.851 549.811 127.244C549.242 126.637 548.957 125.774 548.957 124.654C548.957 123.525 549.242 122.657 549.811 122.05C550.39 121.443 551.146 121.14 552.079 121.14ZM554.081 124.654C554.081 123.851 553.913 123.226 553.577 122.778C553.241 122.321 552.746 122.092 552.093 122.092C551.449 122.092 550.954 122.321 550.609 122.778C550.264 123.226 550.091 123.851 550.091 124.654C550.091 125.447 550.254 126.073 550.581 126.53C550.908 126.978 551.393 127.202 552.037 127.202C552.69 127.202 553.194 126.978 553.549 126.53C553.904 126.073 554.081 125.447 554.081 124.654ZM560.043 122.246C558.989 122.246 558.443 123.077 558.405 124.738V128H557.299V121.294H558.405V122.582C558.741 121.649 559.334 121.182 560.183 121.182C560.454 121.182 560.711 121.224 560.953 121.308L560.897 122.386C560.617 122.293 560.333 122.246 560.043 122.246ZM563.709 122.596C564.148 121.625 564.899 121.14 565.963 121.14C566.542 121.14 567.027 121.285 567.419 121.574C567.811 121.854 568.096 122.246 568.273 122.75C568.693 121.677 569.473 121.14 570.611 121.14C571.414 121.14 572.035 121.401 572.473 121.924C572.912 122.447 573.131 123.161 573.131 124.066V128H572.039V124.066C572.039 123.422 571.885 122.937 571.577 122.61C571.279 122.283 570.845 122.12 570.275 122.12C569.706 122.12 569.263 122.353 568.945 122.82C568.637 123.287 568.483 123.931 568.483 124.752V128H567.391V124.066C567.391 123.422 567.237 122.937 566.929 122.61C566.631 122.283 566.201 122.12 565.641 122.12C565.081 122.12 564.629 122.349 564.283 122.806C563.938 123.263 563.756 123.898 563.737 124.71V128H562.631V121.308H563.583L563.709 122.596ZM579.873 123.66C579.873 123.053 579.747 122.619 579.495 122.358C579.243 122.097 578.875 121.966 578.389 121.966C577.913 121.966 577.526 122.064 577.227 122.26C576.938 122.447 576.793 122.745 576.793 123.156H575.575C575.575 122.129 576.126 121.495 577.227 121.252C577.563 121.177 577.927 121.14 578.319 121.14C579.15 121.14 579.799 121.35 580.265 121.77C580.732 122.19 580.965 122.829 580.965 123.688V128H580.013L579.901 126.88C579.491 127.729 578.749 128.154 577.675 128.154C576.957 128.154 576.378 127.953 575.939 127.552C575.51 127.151 575.295 126.651 575.295 126.054C575.295 125.457 575.533 124.99 576.009 124.654C576.495 124.318 577.097 124.15 577.815 124.15C578.534 124.15 579.22 124.271 579.873 124.514V123.66ZM579.873 125.214C579.211 125.027 578.632 124.934 578.137 124.934C577.643 124.934 577.241 125.023 576.933 125.2C576.625 125.377 576.471 125.657 576.471 126.04C576.471 126.88 576.947 127.3 577.899 127.3C578.441 127.3 578.903 127.109 579.285 126.726C579.677 126.334 579.873 125.83 579.873 125.214Z" fill="#333333"/>
</svg>
