<svg width="27" height="18" viewBox="0 0 27 18" fill="none" xmlns="http://www.w3.org/2000/svg">
<path d="M19.1426 0.701172L26.7363 8.29492C26.8945 8.45312 27 8.66406 27 8.875C27 9.0332 26.8945 9.29688 26.7363 9.45508L19.1426 17.0488C18.8262 17.3652 18.2461 17.3652 17.9297 17.0488C17.6133 16.7324 17.6133 16.2051 17.9297 15.8359L24.0996 9.71875H0.84375C0.369141 9.71875 0 9.29688 0 8.875C0 8.45312 0.369141 8.03125 0.84375 8.03125H24.0996L17.9297 1.91406C17.6133 1.59766 17.6133 1.01758 17.9297 0.701172C18.2461 0.384766 18.8262 0.384766 19.1426 0.701172Z" fill="#333333"/>
</svg>
