<svg width="22" height="36" viewBox="0 0 22 36" fill="none" xmlns="http://www.w3.org/2000/svg">
<path d="M17.6 0H4.4C1.925 0 0 2.03906 0 4.5V31.5C0 34.0312 1.925 36 4.4 36H17.6C20.0063 36 22 34.0312 22 31.5V4.5C22 2.03906 20.0063 0 17.6 0ZM19.8 31.5C19.8 32.7656 18.7688 33.75 17.6 33.75H4.4C3.1625 33.75 2.2 32.7656 2.2 31.5V4.5C2.2 3.30469 3.1625 2.25 4.4 2.25H17.6C18.7688 2.25 19.8 3.30469 19.8 4.5V31.5ZM13.2 28.125H8.8C8.18125 28.125 7.7 28.6875 7.7 29.25C7.7 29.8828 8.18125 30.375 8.8 30.375H13.2C13.75 30.375 14.3 29.8828 14.3 29.25C14.3 28.6875 13.75 28.125 13.2 28.125Z" fill="#333333"/>
</svg>
