<svg width="36" height="36" viewBox="0 0 36 36" fill="none" xmlns="http://www.w3.org/2000/svg">
<path d="M16.0312 10.4062C15.75 10.2656 15.4687 10.125 15.1875 10.125C14.2031 10.125 13.5 10.9687 13.5 11.8125V24.1875C13.5 25.1016 14.2031 25.875 15.1875 25.875C15.4687 25.875 15.75 25.8047 16.0312 25.6641L26.1562 19.4766C26.6484 19.1953 27 18.6328 27 18C27 17.4375 26.6484 16.875 26.1562 16.5937L16.0312 10.4062ZM15.75 23.2031V12.8672L24.1875 18.0703L15.75 23.2031ZM18 0C8.01562 0 0 8.08594 0 18C0 27.9844 8.01562 36 18 36C27.9141 36 36 27.9844 36 18C36 8.08594 27.9141 0 18 0ZM18 33.75C9.28125 33.75 2.25 26.7187 2.25 18C2.25 9.35156 9.28125 2.25 18 2.25C26.6484 2.25 33.75 9.35156 33.75 18C33.75 26.7187 26.6484 33.75 18 33.75Z" fill="#333333"/>
</svg>
