<svg width="31" height="36" viewBox="0 0 31 36" fill="none" xmlns="http://www.w3.org/2000/svg">
<path d="M26.5714 4.5H24.3571V1.125C24.3571 0.5625 23.8036 0 23.25 0C22.6272 0 22.1429 0.5625 22.1429 1.125V4.5H8.85714V1.125C8.85714 0.5625 8.30357 0 7.75 0C7.12723 0 6.64286 0.5625 6.64286 1.125V4.5H4.42857C1.9375 4.5 0 6.53906 0 9V31.5C0 34.0312 1.9375 36 4.42857 36H26.5714C28.9933 36 31 34.0312 31 31.5V9C31 6.53906 28.9933 4.5 26.5714 4.5ZM28.7857 31.5C28.7857 32.7656 27.7478 33.75 26.5714 33.75H4.42857C3.18304 33.75 2.21429 32.7656 2.21429 31.5V13.5H28.7857V31.5ZM28.7857 11.25H2.21429V9C2.21429 7.80469 3.18304 6.75 4.42857 6.75H26.5714C27.7478 6.75 28.7857 7.80469 28.7857 9V11.25ZM6.64286 27H13.2857C14.4621 27 15.5 26.0156 15.5 24.75V18C15.5 16.8047 14.4621 15.75 13.2857 15.75H6.64286C5.39732 15.75 4.42857 16.8047 4.42857 18V24.75C4.42857 26.0156 5.39732 27 6.64286 27ZM6.64286 18H13.2857V24.75H6.64286V18Z" fill="#333333"/>
</svg>
