<svg width="29" height="36" viewBox="0 0 29 36" fill="none" xmlns="http://www.w3.org/2000/svg">
<path d="M14.5 12.375C13.8726 12.375 13.3846 12.9375 13.3846 13.5V23.625C13.3846 24.2578 13.8726 24.75 14.5 24.75C15.0577 24.75 15.6154 24.2578 15.6154 23.625V13.5C15.6154 12.9375 15.0577 12.375 14.5 12.375ZM28.6514 9.84375C29.0697 9.42187 29.0697 8.64844 28.6514 8.22656C28.2332 7.80469 27.4663 7.80469 27.0481 8.22656L24.4687 10.8281C22.0986 8.57812 19.0312 7.10156 15.6154 6.82031V2.25L20.0769 2.32031C20.6346 2.25 21.1923 1.75781 21.1923 1.125C21.1923 0.5625 20.6346 0 20.0769 0H8.92308C8.29567 0 7.80769 0.5625 7.80769 1.125C7.80769 1.75781 8.29567 2.25 8.92308 2.25H13.3846V6.82031C5.85577 7.38281 0 13.7109 0 21.375C0 29.4609 6.48317 36 14.5 36C22.4471 36 29 29.4609 29 21.375C29 18.0703 27.8149 14.9766 25.9327 12.5156L28.6514 9.84375ZM26.7692 21.375C26.7692 28.2656 21.262 33.75 14.5 33.75C7.66827 33.75 2.23077 28.2656 2.23077 21.375C2.23077 14.5547 7.66827 9 14.5 9C21.262 9 26.7692 14.5547 26.7692 21.375Z" fill="#333333"/>
</svg>
