<svg width="29" height="24" viewBox="0 0 29 24" fill="none" xmlns="http://www.w3.org/2000/svg">
<path d="M27 20.5H1.9375C1.125 20.5 0.5 21.1875 0.5 22C0.5 22.875 1.125 23.5 1.9375 23.5H27C27.8125 23.5 28.5 22.875 28.5 22.0625C28.5 21.1875 27.8125 20.5 27 20.5ZM27 0.5H1.9375C1.125 0.5 0.5 1.1875 0.5 2C0.5 2.75 1.125 3.5 1.9375 3.5H27C27.8125 3.5 28.5 2.875 28.5 2.0625C28.5 1.3125 27.8125 0.5 27 0.5ZM27 10.5H1.9375C1.125 10.5 0.5 11.1875 0.5 12C0.5 12.875 1.125 13.5 1.9375 13.5H27C27.8125 13.5 28.5 12.875 28.5 12C28.5 11.1875 27.8125 10.5 27 10.5Z" fill="#333333"/>
</svg>
