<svg width="55" height="45" viewBox="0 0 55 45" fill="none" xmlns="http://www.w3.org/2000/svg">
<path d="M27.4141 28C32.3984 28 36.3516 24.0469 36.3516 19.0625C36.3516 14.1641 32.3125 10.125 27.4141 10.125C22.5156 10.125 18.5625 14.1641 18.5625 19.0625C18.4766 24.0469 22.5156 28 27.4141 28ZM27.4141 12.875C30.8516 12.875 33.6016 15.7109 33.6016 19.0625C33.6016 22.5 30.8516 25.25 27.4141 25.25C24.0625 25.25 21.2266 22.5 21.2266 19.0625C21.2266 15.7109 24.0625 12.875 27.4141 12.875ZM31.7109 30.75H23.2031C16.4141 30.75 11 35.9062 11 42.2656C11 43.5547 12.0312 44.5 13.4062 44.5H41.5078C42.8828 44.5 44 43.5547 44 42.2656C44 35.9062 38.5 30.75 31.7109 30.75ZM13.75 41.75C14.0078 37.1953 18.1328 33.5 23.1172 33.5H31.7109C36.7812 33.5 40.9062 37.1953 41.1641 41.75H13.75ZM44 14.25C47.7812 14.25 50.875 11.2422 50.875 7.375C50.875 3.59375 47.7812 0.5 44 0.5C40.1328 0.5 37.125 3.59375 37.125 7.375C37.125 11.2422 40.1328 14.25 44 14.25ZM44 3.25C46.2344 3.25 48.125 5.14062 48.125 7.375C48.125 9.69531 46.2344 11.5 44 11.5C41.6797 11.5 39.875 9.69531 39.875 7.375C39.875 5.14062 41.6797 3.25 44 3.25ZM11 14.25C14.7812 14.25 17.875 11.2422 17.875 7.375C17.875 3.59375 14.7812 0.5 11 0.5C7.13281 0.5 4.125 3.59375 4.125 7.375C4.125 11.2422 7.13281 14.25 11 14.25ZM11 3.25C13.2344 3.25 15.125 5.14062 15.125 7.375C15.125 9.69531 13.2344 11.5 11 11.5C8.67969 11.5 6.875 9.69531 6.875 7.375C6.875 5.14062 8.67969 3.25 11 3.25ZM48.2109 17H42.625C41.5938 17 40.6484 17.2578 39.7891 17.6875C39.1016 18.0312 38.8438 18.8047 39.1016 19.4922C39.4453 20.1797 40.3047 20.5234 40.9922 20.1797C41.5078 19.9219 42.0234 19.75 42.625 19.75H48.2109C50.3594 19.75 52.25 21.7266 52.25 24.1328V25.25C52.25 26.0234 52.8516 26.625 53.625 26.625C54.3125 26.625 55 26.0234 55 25.25V24.1328C55 20.2656 51.9062 17 48.2109 17ZM13.9219 20.1797C14.6094 20.5234 15.4688 20.1797 15.8125 19.4922C16.0703 18.8047 15.8125 18.0312 15.125 17.6875C14.2656 17.2578 13.3203 17 12.375 17H6.70312C3.00781 17 0 20.2656 0 24.1328V25.25C0 26.0234 0.601562 26.625 1.375 26.625C2.0625 26.625 2.75 26.0234 2.75 25.25V24.1328C2.75 21.7266 4.55469 19.75 6.70312 19.75H12.375C12.8906 19.75 13.4062 19.9219 13.9219 20.1797Z" fill="#333333"/>
</svg>
